<svg width="259" height="235" viewBox="0 0 259 235" fill="none" xmlns="http://www.w3.org/2000/svg">
<g id="pic1">
<g id="pic1_2" filter="url(#filter0_d_318_36686)">
<g id="Group">
<path id="Vector" d="M213.237 207.675C200.943 214.846 185.05 211.786 170.624 213.352C158.433 214.675 147.036 219.416 135.367 222.944C123.698 226.471 110.911 228.788 99.2612 225.205C91.2584 222.744 84.5089 217.713 76.9778 214.198C67.8897 209.957 57.7903 207.98 48.3064 204.564C38.8224 201.148 29.4591 195.796 25.056 187.292C19.7614 177.066 22.8044 164.918 20.8031 153.727C18.5444 141.098 9.95528 130.193 6.36027 117.833C3.82036 109.1 6.45568 98.795 9.52499 90.3214C12.7682 81.3676 21.7839 71.308 30.4714 66.0979C33.3058 64.3981 36.105 62.6953 38.7819 60.7723C39.9548 59.9298 46.1269 56.2441 46.1269 54.9099C53.0567 48.7172 57.2162 40.8201 63.238 33.9621C69.4861 26.8464 78.6316 22.2362 88.2232 19.9751C96.9084 17.8998 105.794 16.7522 114.727 16.5523C124.32 16.4046 133.625 17.2329 142.881 14.174C144.825 13.5317 146.71 12.7458 148.648 12.0874C161.735 7.64334 179.261 9.58975 191.496 15.5732C196.164 17.8563 200.07 21.2559 203.835 24.6859C208.505 28.7499 212.587 33.4313 215.965 38.5978C219.057 43.5816 220.036 49.5302 223.975 54.2081C226.62 57.3495 229.222 60.8004 231.844 63.8304C235.895 68.5124 242.134 70.7624 245.987 75.8644C249.864 81 251.709 87.2706 252.986 93.348C254.62 101.129 255.536 109.106 254.66 116.991C253.259 129.608 246.106 138.989 238.794 149.255C236.358 152.676 233.91 156.216 232.975 160.222C232.6 162.143 232.37 164.088 232.287 166.042C231.837 171.738 230.291 176.984 229.126 182.502C227.081 192.195 222.607 202.209 213.237 207.675Z" fill="#EFF2FD"/>
<g id="Group_2">
<path id="Vector_2" d="M237.78 59.4014L237.764 60.4267L236.969 114.287L236.936 116.526L235.815 192.307H28.9552L27.8587 173.565L23.8494 104.977L21.1836 59.4014H237.78Z" fill="#5B5B5C"/>
<path id="Vector_3" d="M229.775 186.54H34.5782L27.8262 70.6987L231.649 70.3442L229.775 186.54Z" fill="#545554"/>
<path id="Vector_4" d="M130.095 68.5126C132.357 68.5126 134.19 66.6994 134.19 64.4626C134.19 62.2258 132.357 60.4126 130.095 60.4126C127.833 60.4126 126 62.2258 126 64.4626C126 66.6994 127.833 68.5126 130.095 68.5126Z" fill="#3F4040"/>
<path id="Vector_5" d="M230.056 186.54H34.8577L27.8262 70.6987L231.649 70.3442L230.056 186.54Z" fill="#49B3F7"/>
<path id="Vector_6" d="M231.52 79.7943L231.574 75.8252H28.1367L28.3777 79.7943H231.52Z" fill="#3A77BA"/>
<g id="Group_3">
<path id="Vector_7" d="M28.2463 77.6206H231.55L231.649 70.3442L27.8262 70.6987L28.2463 77.6206Z" fill="#864FF1"/>
<g id="Group_4">
<path id="Vector_8" d="M223.561 76.4099C224.796 76.4099 225.797 75.4202 225.797 74.1993C225.797 72.9785 224.796 71.9888 223.561 71.9888C222.327 71.9888 221.326 72.9785 221.326 74.1993C221.326 75.4202 222.327 76.4099 223.561 76.4099Z" fill="white"/>
<path id="Vector_9" d="M216.061 76.4099C217.296 76.4099 218.297 75.4202 218.297 74.1993C218.297 72.9785 217.296 71.9888 216.061 71.9888C214.827 71.9888 213.826 72.9785 213.826 74.1993C213.826 75.4202 214.827 76.4099 216.061 76.4099Z" fill="white"/>
<path id="Vector_10" d="M208.329 76.4099C209.563 76.4099 210.564 75.4202 210.564 74.1993C210.564 72.9785 209.563 71.9888 208.329 71.9888C207.094 71.9888 206.094 72.9785 206.094 74.1993C206.094 75.4202 207.094 76.4099 208.329 76.4099Z" fill="white"/>
</g>
</g>
<path id="Vector_11" d="M153.874 66.2517H140.719C140.239 66.2517 139.779 66.0632 139.44 65.7277C139.101 65.3922 138.91 64.9372 138.91 64.4627C138.91 64.2278 138.957 63.9952 139.048 63.7782C139.139 63.5611 139.272 63.3639 139.44 63.1978C139.608 63.0317 139.807 62.8999 140.027 62.81C140.246 62.7201 140.481 62.6738 140.719 62.6738H153.874C154.112 62.6738 154.347 62.7201 154.567 62.81C154.786 62.8999 154.986 63.0317 155.153 63.1978C155.321 63.3639 155.455 63.5611 155.546 63.7782C155.636 63.9952 155.683 64.2278 155.683 64.4627C155.683 64.9372 155.493 65.3922 155.153 65.7277C154.814 66.0632 154.354 66.2517 153.874 66.2517Z" fill="#545554"/>
<path id="Vector_12" d="M118.888 66.2517H105.733C105.253 66.2517 104.793 66.0632 104.454 65.7277C104.114 65.3922 103.924 64.9372 103.924 64.4627C103.924 64.2278 103.971 63.9952 104.062 63.7782C104.152 63.5611 104.286 63.3639 104.454 63.1978C104.622 63.0317 104.821 62.8999 105.04 62.81C105.26 62.7201 105.495 62.6738 105.733 62.6738H118.888C119.126 62.6738 119.361 62.7201 119.58 62.81C119.8 62.8999 119.999 63.0317 120.167 63.1978C120.335 63.3639 120.468 63.5611 120.559 63.7782C120.65 63.9952 120.697 64.2278 120.697 64.4627C120.697 64.9372 120.506 65.3922 120.167 65.7277C119.828 66.0632 119.368 66.2517 118.888 66.2517Z" fill="#545554"/>
<g id="Vector_13" style="mix-blend-mode:screen" opacity="0.28">
<path d="M189.181 59.4014C141.187 87.2562 61.4903 100.183 23.8507 104.976L21.1855 59.4014H189.181Z" fill="#EBF7FD"/>
</g>
<g id="Group_5">
<g id="Group_6">
<path id="Vector_14" d="M74.6187 116.924C75.7919 117.838 77.0674 118.616 78.4202 119.242C79.6071 119.67 80.7175 120.282 81.7094 121.056C82.4109 121.778 82.9688 122.624 83.3541 123.55C86.6677 130.531 86.0857 140.726 91.8685 146.352C95.5424 149.927 102.254 151.352 107.205 151.538C113.543 151.777 119.708 153.712 126.027 153.836C132.656 153.967 138.932 150.844 144.303 146.998C145.781 145.823 147.385 144.81 149.085 143.977C155.06 141.416 162.853 144.252 167.975 140.276C171.97 137.174 172.382 131.371 175.158 127.165C178.565 122.001 185.115 119.801 189.371 115.296C195.594 108.709 195.771 98.3759 193.106 89.7547C191.518 84.6193 190.675 80.964 193.459 76.217C195.657 72.4674 199.679 68.6479 200.512 64.297C200.845 62.5319 200.912 60.7278 200.712 58.9432C200.171 54.207 197.991 49.8012 194.542 46.4719C189.836 41.9612 183.053 39.5214 179.625 33.999C175.146 26.7782 180.406 17.904 176.307 10.3707C173.406 5.03856 167.208 2.27458 161.188 1.16438C155.037 0.0377973 148.713 0.244705 142.651 1.77082C136.667 3.28218 130.702 5.08908 124.487 3.84182C118.517 2.64322 112.841 -0.530684 106.59 0.0763954C99.7356 0.740858 94.1983 5.90995 90.1959 11.4535C86.4848 16.5889 83.5242 22.2212 79.1723 26.889C75.069 31.2925 70.7814 35.7704 68.3147 41.3273C64.5878 49.714 66.8292 56.8097 69.7642 64.8484C72.3376 71.8963 67.7134 77.3014 65.5175 83.6752C63.2804 90.1681 64.5517 99.9027 66.9343 106.235C68.4625 110.424 71.1198 114.121 74.6187 116.924Z" fill="#732C15"/>
<g id="Group_7">
<path id="Vector_15" d="M90.3389 101.767C88.7923 100.482 87.3416 99.0878 85.7573 97.848C85.151 97.3733 85.8975 96.451 86.5435 96.7979C88.3353 97.7599 90.1566 98.6214 91.8604 99.7352C93.4402 100.781 94.9597 101.914 96.4118 103.128C99.1598 105.395 102.04 108.127 102.811 111.732C103.55 115.19 102.04 118.354 100.611 121.416C99.6713 123.127 99.1015 125.013 98.9377 126.954C98.9008 127.823 98.974 128.694 99.1555 129.545C99.3975 130.278 99.7076 130.986 100.082 131.662C100.24 132.026 99.7979 132.396 99.4538 132.298C98.8095 132.033 98.2295 131.635 97.7525 131.131C97.2755 130.627 96.9123 130.029 96.687 129.376C96.1558 127.94 96.0714 126.38 96.4446 124.897C97.1918 121.31 99.7489 118.292 100.191 114.629C100.664 110.72 97.6074 107.764 94.8416 105.447C93.3555 104.202 91.8297 103.006 90.3389 101.767Z" fill="#7F391F"/>
<path id="Vector_16" d="M176.532 119.11C176.41 119.177 176.289 119.245 176.168 119.314C173.061 121.116 170.674 123.919 169.408 127.254C169.203 127.971 168.877 128.648 168.442 129.256C168.217 129.556 167.902 129.777 167.542 129.887C167.181 129.997 166.795 129.99 166.439 129.868C165.404 129.384 165.518 127.888 165.938 126.835C167.74 122.319 171.97 119.212 176.291 116.91C180.661 114.458 184.295 110.903 186.822 106.608C187.878 105.028 188.673 103.291 189.175 101.464C189.713 98.9918 189.827 96.448 189.51 93.9391C189.123 91.7983 188.619 89.6798 188 87.5931C187.984 87.5245 188.064 87.4378 188.134 87.4882C190.767 89.3808 191.859 92.7865 192.176 95.8817C192.637 100.179 191.771 104.514 189.693 108.315C187.616 112.117 184.423 115.207 180.536 117.181C179.218 117.857 177.833 118.404 176.532 119.11Z" fill="#7F391F"/>
<path id="Vector_17" d="M165.592 111.424C165.345 110.4 165.321 109.335 165.521 108.3C165.721 107.266 166.141 106.285 166.753 105.423C169.162 102.073 173.827 100.437 175.187 96.3402C175.196 96.3098 175.215 96.2831 175.24 96.2639C175.266 96.2448 175.297 96.2343 175.329 96.2339C175.361 96.2335 175.392 96.2433 175.418 96.2619C175.444 96.2804 175.463 96.3067 175.473 96.3369C176.815 100.005 173.135 102.702 170.757 104.802C169.141 106.229 167.913 107.733 167.91 109.976C167.907 112.47 169.286 114.456 169.741 116.821C169.777 116.963 169.765 117.112 169.709 117.247C169.652 117.382 169.553 117.496 169.426 117.571C169.299 117.647 169.151 117.68 169.004 117.666C168.857 117.652 168.718 117.591 168.608 117.493C166.895 116.14 166.006 113.487 165.592 111.424Z" fill="#7F391F"/>
<path id="Vector_18" d="M151.889 110.347C151.713 108.5 152.03 106.639 152.808 104.951C153.137 104.153 154.193 104.76 154.103 105.464C153.948 107.056 154.135 108.663 154.652 110.179C155.06 111.497 155.901 112.813 156.035 114.171C156.033 114.359 155.983 114.543 155.888 114.706C155.793 114.869 155.658 115.005 155.494 115.1C155.331 115.196 155.145 115.248 154.955 115.252C154.765 115.255 154.578 115.211 154.411 115.121C152.816 114.294 152.105 111.993 151.889 110.347Z" fill="#7F391F"/>
</g>
</g>
<g id="Group_8">
<path id="Vector_19" d="M75.7703 150.603C73.3017 152.494 70.7351 154.256 68.0809 155.882C67.1026 156.484 66.113 157.065 65.1121 157.626C64.4593 157.997 63.7959 158.359 63.1271 158.713C61.1567 159.899 58.9586 160.669 56.6721 160.972C54.7886 161.029 52.9095 160.759 51.1206 160.173C40.2623 157.109 30.3957 151.306 22.4884 143.335C21.6186 142.455 20.7185 141.396 20.8181 140.172C20.9498 138.604 22.7535 137.621 24.3365 137.751C25.9054 138.025 27.3855 138.665 28.6535 139.619C33.5639 142.669 38.8323 145.115 44.3419 146.902C47.4069 148.033 50.6625 148.572 53.9328 148.492C55.3292 148.395 56.7086 148.132 58.0417 147.71C59.2471 147.331 60.4216 146.862 61.5547 146.306C63.9856 145.07 66.3315 143.678 68.5771 142.137L75.7703 150.603Z" fill="#FFBF94"/>
<path id="Vector_20" d="M75.7703 150.603C73.3018 152.494 70.7352 154.256 68.081 155.882C65.1227 153.287 62.8775 149.992 61.5547 146.306C63.9857 145.07 66.3316 143.678 68.5771 142.137L75.7703 150.603Z" fill="#F49B73"/>
<path id="Vector_21" d="M160.378 173.343C161.704 175.463 163.201 177.473 164.854 179.355C166.29 181.018 167.833 182.589 169.472 184.057C172.291 183.95 181.644 184.455 184.515 184.057C179.932 180.061 175.571 172.334 171.644 167.72C171.117 167.106 170.601 166.485 170.095 165.857C168.933 164.482 167.908 162.999 167.033 161.43C166.564 160.558 166.195 159.636 165.933 158.683L152.318 157.589C153.263 159.738 154.294 162.022 155.416 164.328C156.898 167.423 158.554 170.433 160.378 173.343Z" fill="#FFBF94"/>
<path id="Vector_22" d="M155.416 164.328C156.897 167.423 158.554 170.433 160.377 173.343C166.768 172.955 170.064 169.943 171.643 167.72C171.117 167.106 170.601 166.485 170.094 165.858C168.933 164.482 167.908 163 167.033 161.43L158.726 161.722C157.574 162.529 156.469 163.4 155.416 164.328Z" fill="#F49B73"/>
<path id="Vector_23" d="M150.368 124.253C143.079 121.82 137.32 120.901 130.032 118.468C127.279 117.549 129.798 118.967 126.909 118.666C124.459 118.481 121.995 118.539 119.557 118.841C112.616 119.499 105.709 120.434 98.8366 121.645C96.7138 121.888 94.6609 122.545 92.7972 123.579C90.6454 124.957 82.5941 127.27 65.4952 142.847C63.1565 143.929 73.5679 156.789 78.8685 159.228C85.4865 162.274 99.6295 147.222 104.509 139.631C104.651 139.25 104.929 138.934 105.29 138.742C105.651 138.55 106.071 138.494 106.47 138.586C117.632 139.459 128.794 140.333 139.955 141.206C140.402 141.195 140.84 141.325 141.207 141.576C141.495 141.882 141.685 142.264 141.754 142.677C144.37 152.267 149.172 161.138 155.79 168.61C156.119 169.049 156.56 169.395 157.068 169.612C157.561 169.733 158.077 169.732 158.57 169.608C164.177 168.63 169.496 166.437 174.144 163.185C174.52 162.981 174.805 162.645 174.942 162.244C174.97 161.813 174.834 161.387 174.562 161.049C169.106 152.304 164.516 143.06 160.854 133.444C160.684 132.997 160.513 132.545 160.334 132.095C159.735 130.583 158.805 129.219 157.612 128.102C156.42 126.985 154.992 126.141 153.433 125.631L150.368 124.253Z" fill="#FFC652"/>
<path id="Vector_24" d="M115.336 98.3022C115.356 99.2465 115.376 100.193 115.396 101.137C115.411 101.844 115.426 102.551 115.441 103.256C115.458 104.203 115.478 105.15 115.498 106.099C115.516 106.981 115.536 107.866 115.553 108.751L115.568 109.52C115.603 111.193 115.637 112.866 115.671 114.54L115.768 119.246C115.743 119.723 115.828 120.199 116.016 120.638C116.279 121.059 116.651 121.404 117.093 121.637C119.422 123.035 122.082 123.802 124.806 123.858C127.53 123.914 130.221 123.259 132.607 121.958C132.92 121.786 133.173 121.524 133.331 121.206C133.49 120.889 133.547 120.531 133.494 120.181C133.261 118.663 133.113 117.134 133.049 115.6C132.992 114.228 133.003 112.856 133.082 111.482C133.102 111.153 133.124 110.822 133.152 110.493C133.229 109.542 133.337 108.593 133.482 107.648C133.662 106.437 133.898 105.237 134.192 104.049C134.207 103.985 134.224 103.918 134.239 103.854L133.732 103.706L128.613 102.205L126.716 101.647L115.336 98.3022Z" fill="#FFAF79"/>
<path id="Vector_25" d="M4.82876 125.684C5.08694 125.496 5.399 125.394 5.71957 125.394C7.9581 125.256 14.7794 130.763 15.5665 130.025C13.76 128.579 12.7417 127.448 10.9354 126.002C10.0275 125.275 8.31185 123.535 9.24337 122.838C9.46233 122.711 9.7077 122.635 9.96068 122.617C10.2137 122.599 10.4676 122.638 10.7029 122.731C13.8364 123.635 15.4803 127.149 18.4261 128.539C18.299 126.948 18.4439 125.347 18.8545 123.804C19.0034 123.245 19.259 122.621 19.816 122.446C20.1441 122.393 20.4805 122.46 20.7616 122.636C21.0427 122.811 21.249 123.083 21.3413 123.399C21.5049 124.036 21.5794 124.692 21.5626 125.35C21.7818 128.12 23.9508 130.276 25.6349 132.5C27.3189 134.724 30.399 138.667 28.783 140.94L27.0233 143.87C24.0677 145.831 21.7149 146.201 18.7918 144.194C16.7283 142.777 15.1527 140.445 12.6865 139.971C11.589 139.76 10.736 139.393 9.66214 139.085C8.58824 138.777 6.99534 137.764 7.50476 136.78C9.33237 136.897 11.4664 137.418 13.2941 137.535C11.8846 136.263 9.94345 135.795 8.166 135.111C6.38855 134.426 3.43709 132.041 4.09356 130.791C4.28553 130.426 4.81933 130.445 5.22788 130.525C6.98604 130.87 13.4779 133.879 13.5522 133.352C10.7806 131.852 8.11784 130.162 5.58317 128.297C4.79613 127.615 4.02938 126.352 4.82876 125.684Z" fill="#FFBF94"/>
<path id="Vector_26" d="M142.661 172.464H98.8516V184.362H142.661V172.464Z" fill="#FFC652"/>
<path id="Vector_27" d="M99.0215 138.423C98.3433 141.696 97.4028 144.91 96.2091 148.035C95.2953 149.927 94.5246 151.883 93.9032 153.887C92.9558 157.727 93.8654 161.754 94.8536 165.584C95.9337 169.77 99.9088 177.535 101.604 178.542C102.588 179.126 104.924 178.956 106.071 179.014C110.07 179.218 114.032 179.474 118.034 179.435C122.183 179.395 126.329 179.244 130.472 178.983C133.081 178.818 135.686 178.609 138.288 178.357C138.769 178.351 139.242 178.235 139.67 178.018C140.098 177.8 140.469 177.488 140.754 177.105C142.898 174.446 145.353 171.532 146.183 168.148C146.385 167.321 146.49 166.494 146.731 165.657L147.588 162.68L149.301 156.728C150.031 154.189 150.762 151.649 151.493 149.11L148.277 136.789L132.677 130.728C132.677 130.728 97.8539 131.279 98.1325 132.105C98.2738 133.847 98.2738 135.598 98.1325 137.34L99.0215 138.423Z" fill="#FFC652"/>
<path id="Vector_28" d="M94.5484 149.004C95.6696 145.284 96.9802 141.692 98.3718 138.067C98.3764 138.053 98.3864 138.041 98.3998 138.034C98.4132 138.027 98.4288 138.025 98.4435 138.029C98.4582 138.033 98.4707 138.042 98.4784 138.055C98.4862 138.068 98.4886 138.084 98.4851 138.098C97.8586 141.359 97.2564 144.583 96.3889 147.794C95.5595 150.865 94.5638 153.686 94.6111 156.886C94.7395 160.016 95.3315 163.11 96.368 166.07C97.4115 169.314 99.1866 172.576 99.8967 175.858C99.9429 176.071 99.8754 176.402 99.6615 176.348C99.5812 176.315 99.517 176.253 99.4826 176.174C97.9107 173.583 96.5531 170.871 95.4229 168.064C95.1075 167.268 94.8053 166.466 94.5268 165.656C93.9841 164.114 93.5553 162.535 93.2439 160.931C92.2001 155.96 93.5525 152.308 94.5484 149.004Z" fill="#F7A845"/>
<path id="Vector_29" d="M142.002 174.538C142.086 174.413 142.174 174.291 142.259 174.17C142.859 173.313 143.364 172.388 143.925 171.519C144.577 170.461 145.122 169.343 145.552 168.179C146.755 165.483 147.533 162.622 147.861 159.693C148.032 156.87 147.144 154.051 146.825 151.257C146.488 148.178 146.471 145.073 146.775 141.99C146.776 141.95 146.793 141.912 146.823 141.884C146.852 141.856 146.891 141.841 146.932 141.841C146.972 141.841 147.011 141.856 147.04 141.884C147.07 141.912 147.087 141.95 147.088 141.99C147.37 145.447 147.8 148.963 148.332 152.392C148.469 153.27 148.626 154.138 148.768 155.003C148.843 155.022 148.911 155.06 148.967 155.113C149.023 155.166 149.064 155.232 149.086 155.306C150.515 159.911 152.844 164.195 155.942 167.913C157.098 169.255 158.523 168.705 160.051 168.378C161.294 168.112 162.538 167.82 163.77 167.51C166.312 166.869 168.7 165.827 171.201 165.08C171.236 165.07 171.271 165.121 171.239 165.145C168.833 166.819 166.202 168.151 163.423 169.103C161.339 169.918 157.61 171.567 155.634 169.785C154.782 168.903 154.018 167.942 153.352 166.916C152.449 165.741 151.612 164.519 150.844 163.254C150.207 162.191 149.644 161.086 149.158 159.947C149.133 160.425 149.082 160.901 149.003 161.373C148.445 164.214 147.506 166.968 146.212 169.564C145.811 170.417 145.361 171.248 144.866 172.052C144.338 172.902 143.56 173.618 142.972 174.44C142.704 174.91 142.318 175.304 141.851 175.582C141.76 175.626 141.662 175.653 141.561 175.662C141.596 175.253 141.749 174.863 142.002 174.538Z" fill="#F7A845"/>
<path id="Vector_30" d="M105.823 172.703C107.058 172.888 108.268 173.514 109.505 173.787C110.749 174.061 112.026 174.253 113.288 174.436C116.181 174.842 119.103 175.027 122.025 174.988C127.742 174.955 133.425 174.107 138.897 172.469C139.032 172.428 139.129 172.641 138.995 172.699C136.33 173.951 133.546 174.94 130.684 175.652C127.674 176.336 124.608 176.746 121.523 176.878C118.504 176.985 115.481 176.809 112.495 176.353C110.242 176.021 106.606 175.512 105.27 173.414C105.019 173.02 105.432 172.644 105.823 172.703Z" fill="#F7A845"/>
<path id="Vector_31" d="M104.967 168.835C106.985 169.006 108.983 169.359 110.937 169.889C113.139 170.344 115.368 170.665 117.61 170.851C122.057 171.158 126.526 170.922 130.915 170.148C130.919 170.147 130.923 170.148 130.926 170.15C130.929 170.152 130.931 170.154 130.932 170.158C130.933 170.161 130.932 170.165 130.931 170.168C130.929 170.171 130.926 170.174 130.923 170.175C126.587 171.764 121.982 172.51 117.361 172.372C113.351 172.293 108.038 171.823 104.787 169.264C104.61 169.125 104.761 168.83 104.967 168.835Z" fill="#F7A845"/>
<path id="Vector_32" d="M115.498 106.099C115.516 106.981 115.536 107.866 115.553 108.751L115.568 109.52C115.603 111.193 115.637 112.867 115.67 114.54C120.629 119.515 129.585 117.925 133.049 115.6C132.992 114.229 133.002 112.856 133.082 111.482C133.102 111.154 133.124 110.822 133.152 110.494C133.229 109.542 133.337 108.593 133.481 107.648C132.747 107.189 132.204 106.86 132.204 106.86C132.204 106.86 129.945 106.739 127 106.591C123.179 106.4 118.2 106.165 115.498 106.099Z" fill="#F59D75"/>
<path id="Vector_33" d="M113.115 120.339C113.147 120.134 113.405 120.083 113.561 120.16C114.309 120.526 114.714 121.368 115.277 121.962C115.998 122.71 116.822 123.355 117.725 123.877C119.804 125.12 122.126 125.912 124.538 126.2C126.828 126.516 129.162 126.205 131.287 125.302C133.098 124.347 134.721 123.081 136.082 121.562C136.092 121.554 136.104 121.548 136.116 121.547C136.129 121.545 136.142 121.548 136.153 121.554C136.164 121.561 136.173 121.57 136.178 121.582C136.183 121.594 136.184 121.607 136.181 121.619C135.007 126.282 128.545 128.306 124.292 127.863C121.651 127.614 119.113 126.719 116.908 125.26C115.505 124.297 112.815 122.27 113.115 120.339Z" fill="#F7A845"/>
<path id="Vector_34" d="M18.8539 123.804C18.875 123.513 18.9756 123.233 19.1449 122.994C19.3142 122.754 19.546 122.565 19.8154 122.446C20.1435 122.393 20.48 122.46 20.7611 122.636C21.0422 122.811 21.2484 123.083 21.3408 123.399C21.5044 124.036 21.5789 124.692 21.5621 125.35C21.7813 128.12 23.9503 130.276 25.6344 132.5C27.3184 134.724 30.3985 138.667 28.7825 140.94L27.0228 143.87C24.0672 145.831 23.4367 145.465 20.5136 143.457C19.5923 142.824 21.5899 139.245 20.9896 136.338C20.1336 132.191 17.9779 129.744 18.8539 123.804Z" fill="#FFBF94"/>
</g>
<g id="Group_9">
<path id="Vector_35" d="M166.839 64.8961C166.673 74.3199 164.48 83.6007 160.406 92.1213C159.208 94.8001 157.623 97.293 155.702 99.5225C153.653 101.651 151.314 103.487 148.752 104.976C142.797 108.665 136.385 111.576 129.675 113.639C127.505 114.454 125.175 114.764 122.865 114.545C120.138 114.11 102.106 106.063 96.9977 92.8092C95.8669 89.8751 93.6886 83.3126 94.2908 80.2295C96.0785 71.0769 97.8671 61.9199 100.106 52.8648C101.893 45.6335 104.144 38.155 109.363 32.7898C111.619 30.6068 114.118 28.6842 116.813 27.0589C119.329 25.315 122.054 23.8851 124.925 22.8018C130.284 20.9831 136.133 21.4325 141.756 22.1233C145.779 22.6176 149.898 23.2614 153.402 25.2769C156.151 26.9759 158.517 29.2182 160.349 31.8632C166.165 39.7955 169.017 49.4777 168.419 59.2578L166.839 64.8961Z" fill="#FFBF94"/>
<path id="Vector_36" d="M163.243 75.7611C163.243 75.7611 158.388 72.6845 158.741 68.8629C155.914 68.9156 153.169 67.9278 151.037 66.0913C148.905 64.2547 147.54 61.7004 147.205 58.9242C143.071 59.9219 138.713 59.4159 134.925 57.4988C129.077 54.27 129.17 46.5122 129.17 46.5122C129.17 46.5122 128.629 48.6682 124.225 50.4756C119.82 52.2831 116.385 48.3781 116.385 48.3781C116.842 50.0834 116.759 51.8865 116.146 53.5435C115.533 55.2004 114.421 56.6314 112.96 57.6429C111.607 58.8002 109.915 59.4996 108.132 59.6389C106.348 59.7783 104.567 59.3502 103.047 58.4173C103.047 58.4173 102.343 63.6301 98.0966 64.1742C93.8499 64.7183 93.9553 50.9433 93.9553 50.9433C93.9553 50.9433 113.145 42.1272 113.337 41.787C113.529 41.4468 136.583 32.9792 136.927 33.1692C137.271 33.3591 156.227 44.9404 157.259 45.5102C158.291 46.0799 166.857 66.8739 167.505 68.124C168.153 69.3742 163.243 75.7611 163.243 75.7611Z" fill="#F49B73"/>
<path id="Vector_37" d="M157.795 73.8168C157.555 72.7069 156.988 71.6922 156.166 70.9007C154.857 69.3993 153.243 68.1867 151.429 67.3417C149.604 66.499 147.548 66.2752 145.58 66.7047C144.591 66.9446 143.497 67.6074 143.526 68.6145C143.555 68.9057 143.656 69.1855 143.819 69.4297C143.982 69.6739 144.202 69.8753 144.462 70.0165C144.982 70.2933 145.538 70.4976 146.115 70.6236C148.794 71.3763 151.308 72.613 153.53 74.2712C154.173 74.8495 154.936 75.2808 155.766 75.5341C156.185 75.6457 156.63 75.5983 157.015 75.4013C157.4 75.2042 157.696 74.8717 157.845 74.4694C158.038 73.6036 157.275 72.8445 156.585 72.2786L157.795 73.8168Z" fill="#692E12"/>
<path id="Vector_38" d="M115.83 64.7094C114.607 64.4956 113.369 64.38 112.127 64.3639C110.62 64.5386 109.178 65.0739 107.926 65.9233C107.295 66.4103 106.531 66.6983 105.732 66.75C105.47 66.7226 105.215 66.6418 104.985 66.5126C104.756 66.3833 104.555 66.2086 104.397 65.9992C104.239 65.7898 104.126 65.5503 104.066 65.2958C104.006 65.0413 103.999 64.7772 104.047 64.5201C104.317 63.7562 104.862 63.1169 105.577 62.7239C109.207 60.2661 116.34 57.7516 119.218 61.9557C119.899 62.9514 120.239 65.147 115.83 64.7094Z" fill="#692E12"/>
<path id="Vector_39" d="M130.316 92.1371C129.583 91.2709 128.578 90.6717 127.461 90.4345C127.316 90.4013 127.17 90.3761 127.023 90.3505C126.919 90.333 126.813 90.3216 126.708 90.3164C126.412 90.295 126.115 90.295 125.819 90.3161C125.244 90.3679 124.681 90.5127 124.153 90.7448C123.939 90.8035 123.711 90.7766 123.518 90.6699C123.325 90.5632 123.182 90.3854 123.121 90.1751C123.066 89.9643 123.095 89.7409 123.202 89.5509C123.31 89.3609 123.487 89.219 123.697 89.1544C125.022 88.6237 126.48 88.5109 127.873 88.8315C129.265 89.152 130.523 89.8903 131.475 90.9452C131.629 91.1001 131.717 91.3076 131.722 91.525C131.726 91.7423 131.646 91.9531 131.498 92.114C131.344 92.2705 131.133 92.3606 130.912 92.3649C130.691 92.3693 130.477 92.2874 130.316 92.1371L130.316 92.1371Z" fill="#DD664A"/>
<path id="Vector_40" d="M167.397 78.9965C165.023 78.0195 163.138 76.1526 162.152 73.8042C161.167 71.4558 161.162 68.817 162.138 66.465C160.532 67.2189 158.73 67.4669 156.976 67.1754C155.222 66.8839 153.601 66.067 152.332 64.8351C151.063 63.6032 150.206 62.0157 149.879 60.287C149.551 58.5584 149.768 56.7719 150.5 55.1691C149.022 56.2814 147.252 56.9499 145.401 57.0949C140.731 57.5199 136.097 54.9291 133.397 51.1375C130.81 47.2203 129.618 42.5625 130.007 37.9001C130.162 42.3918 127.816 45.7179 124.071 46.9951C122.166 47.5573 120.149 47.6332 118.206 47.2158C116.264 46.7984 114.461 45.9013 112.964 44.6081C115.723 47.3946 115.221 52.4675 112.253 55.0365C109.286 57.6055 104.549 57.6291 101.243 55.5024C101.659 56.686 101.747 57.9577 101.499 59.1863C101.252 60.4149 100.677 61.556 99.8347 62.4917C98.1241 64.3409 96.0338 65.8073 93.7037 66.7928C91.1913 63.9471 90.3748 60.0039 90.1988 56.2301C89.7658 45.8777 93.3971 35.7606 100.333 27.9951C102.884 25.2714 105.662 22.7638 108.636 20.4983C110.48 18.9399 112.498 17.5941 114.649 16.4867C119.057 14.3945 124.133 14.2408 129.018 14.4362C133.247 14.5275 137.453 15.0848 141.558 16.0978C147.767 17.7541 153.431 20.9388 159.017 24.0916C162.685 26.1623 166.5 28.3678 168.76 31.8973C170.568 34.7199 171.192 38.109 172.505 41.1876C173.582 43.7161 175.132 46.0503 175.949 48.6726C177.636 54.0882 176.003 59.9119 174.318 65.3284C173.154 69.0704 171.964 72.8042 170.747 76.5299C170.397 77.603 169.664 78.916 168.544 78.7048L167.397 78.9965Z" fill="#732C15"/>
<g id="Group_10">
<path id="Vector_41" d="M162.899 76.9682C163.109 76.4015 163.513 75.9255 164.041 75.6232C164.569 75.3209 165.187 75.2114 165.789 75.3137C166.621 75.5299 167.351 76.0271 167.851 76.7194C169.057 78.3373 169.627 80.3333 169.456 82.336C169.278 84.3225 168.739 86.2609 167.864 88.058C167.482 89.0043 166.946 89.8824 166.277 90.6572C165.604 91.3768 164.745 91.9013 163.792 92.1742C162.84 92.4471 161.83 92.4581 160.872 92.2061C159.914 91.9541 159.043 91.4486 158.354 90.744C157.664 90.0393 157.182 89.1621 156.959 88.2067L162.899 76.9682Z" fill="#FFBF94"/>
<path id="Vector_42" d="M163.732 79.2042C163.732 79.2042 167.444 79.0226 166.207 84.8102C164.971 90.5978 160.383 88.7341 160.383 88.7341C161.583 87.4651 162.501 85.9615 163.078 84.3201C163.655 82.6787 163.878 80.936 163.732 79.2042Z" fill="#F49B73"/>
<path id="Vector_43" d="M98.6475 66.1322C98.493 65.4412 98.1969 64.7888 97.7773 64.2155C97.3578 63.6421 96.8238 63.1599 96.2084 62.7988C95.7506 62.5181 95.2326 62.3476 94.6961 62.301C93.2639 62.2161 92.0328 63.3122 91.2408 64.4955C90.2544 66.0626 89.6542 67.8371 89.4885 69.6757C89.3227 71.5144 89.5961 73.3658 90.2866 75.0808C90.5515 75.8432 90.9727 76.5434 91.5236 77.1375C92.2822 77.8337 93.2867 78.2078 94.3213 78.1794C95.3558 78.1509 96.3378 77.7223 97.0562 76.9855L98.6475 66.1322Z" fill="#FFBF94"/>
<path id="Vector_44" d="M94.8124 75.7985C94.8124 75.7985 90.4505 76.4461 91.5122 70.6246C92.7417 63.8835 96.7886 66.9625 96.7886 66.9625C95.4568 69.7201 94.7808 72.7426 94.8124 75.7985Z" fill="#F49B73"/>
<path id="Vector_45" d="M159.062 92.8914C159.192 93.3443 159.454 93.749 159.817 94.0542C160.179 94.3595 160.625 94.5516 161.098 94.6063C161.57 94.661 162.049 94.5758 162.473 94.3616C162.897 94.1473 163.247 93.8136 163.479 93.4025C163.711 92.9915 163.814 92.5217 163.776 92.0525C163.738 91.5832 163.56 91.1357 163.265 90.7664C162.97 90.3971 162.571 90.1227 162.118 89.9778C161.665 89.8329 161.179 89.8241 160.721 89.9525C160.107 90.1247 159.587 90.531 159.276 91.0822C158.965 91.6333 158.888 92.2841 159.062 92.8914Z" fill="#EECAB9"/>
<path id="Vector_46" d="M91.9721 79.4266C92.1019 79.8795 92.3646 80.2842 92.727 80.5894C93.0893 80.8946 93.535 81.0867 94.0078 81.1414C94.4805 81.1961 94.9591 81.111 95.3829 80.8967C95.8067 80.6824 96.1568 80.3487 96.3888 79.9377C96.6208 79.5267 96.7244 79.0568 96.6864 78.5876C96.6484 78.1184 96.4706 77.6708 96.1754 77.3015C95.8802 76.9323 95.481 76.6578 95.0281 76.513C94.5752 76.3681 94.0891 76.3593 93.6311 76.4877C93.3271 76.5729 93.0429 76.7166 92.795 76.9104C92.5471 77.1042 92.3402 77.3444 92.1861 77.6174C92.0321 77.8903 91.9339 78.1905 91.8972 78.5009C91.8604 78.8114 91.8859 79.1259 91.9721 79.4266Z" fill="#EECAB9"/>
<path id="Vector_47" d="M160.254 91.8593C160.321 92.0932 160.457 92.3022 160.644 92.4599C160.831 92.6175 161.061 92.7167 161.305 92.745C161.55 92.7732 161.797 92.7293 162.016 92.6186C162.235 92.5079 162.415 92.3356 162.535 92.1233C162.655 91.911 162.708 91.6684 162.689 91.4261C162.669 91.1837 162.577 90.9526 162.425 90.7618C162.273 90.5711 162.066 90.4294 161.832 90.3546C161.599 90.2798 161.347 90.2752 161.111 90.3415C160.954 90.3855 160.807 90.4597 160.679 90.5598C160.551 90.6599 160.444 90.784 160.365 90.9249C160.285 91.0659 160.234 91.2209 160.215 91.3813C160.196 91.5416 160.21 91.704 160.254 91.8593Z" fill="white"/>
<path id="Vector_48" d="M92.969 78.6904C93.036 78.9243 93.1717 79.1333 93.3588 79.2909C93.546 79.4485 93.7762 79.5478 94.0203 79.576C94.2645 79.6043 94.5116 79.5603 94.7305 79.4496C94.9494 79.3389 95.1302 79.1666 95.25 78.9543C95.3698 78.742 95.4233 78.4994 95.4037 78.2571C95.3841 78.0147 95.2922 77.7836 95.1398 77.5929C94.9873 77.4022 94.7811 77.2604 94.5472 77.1856C94.3133 77.1108 94.0623 77.1063 93.8258 77.1726C93.5086 77.2615 93.2402 77.4714 93.0795 77.756C92.9189 78.0407 92.8791 78.3768 92.969 78.6904Z" fill="white"/>
</g>
<g id="Group_11">
<path id="Vector_49" d="M73.4974 69.7535C75.5377 68.2544 77.0198 66.1304 77.7132 63.712C79.1671 58.3589 76.304 52.7041 76.9886 47.203C78.1797 37.6195 88.953 32.5547 94.3914 24.5353C97.6518 19.7267 99.7099 13.1276 105.339 11.541C110.355 10.1291 115.25 13.6018 120.066 15.5735C125.391 17.7371 131.283 18.1278 136.852 16.6865C141.838 15.3832 146.781 12.6031 151.826 13.6572C157.208 14.7858 160.711 19.9148 162.867 24.9229C165.023 29.9284 166.551 35.4307 170.399 39.3202C176.592 45.5821 186.83 45.7905 194.047 50.8662C196.948 52.9326 199.246 55.7185 200.711 58.9433C200.171 54.207 197.991 49.8012 194.542 46.472C189.835 41.9612 183.052 39.5214 179.625 33.999C175.146 26.7783 180.406 17.9041 176.307 10.3707C173.406 5.03858 167.208 2.2746 161.188 1.1644C155.037 0.0378174 148.713 0.244725 142.651 1.77084C136.667 3.2822 130.702 5.0891 124.487 3.84184C118.517 2.64322 112.841 -0.530684 106.59 0.0763954C99.7355 0.740858 94.1982 5.90995 90.1958 11.4535C86.4847 16.5889 83.5241 22.2212 79.1722 26.889C75.0689 31.2925 70.7813 35.7704 68.3146 41.3273C66.3171 46.0556 65.7436 51.254 66.6631 56.297C67.5826 61.3401 69.9558 66.0129 73.4974 69.7535Z" fill="#7F391F"/>
<path id="Vector_50" d="M138.535 20.5376C140.871 19.147 143.633 18.6259 146.323 19.0678C149.091 19.5168 151.655 20.7931 153.668 22.725C158.166 26.9593 159.703 33.0261 162.425 38.3375C163.662 41.0079 165.535 43.3423 167.883 45.1412C170.188 46.6992 172.766 47.8182 175.486 48.4408C178.507 49.1975 181.534 49.5831 184.263 51.1868C186.675 52.5942 188.704 54.5617 190.174 56.9189C192.017 59.9129 191.665 62.9868 189.807 65.8935C188.183 68.4335 185.779 70.3833 182.693 70.6124C182.571 70.6106 182.451 70.5738 182.349 70.5064C182.248 70.439 182.168 70.3438 182.119 70.2325C182.071 70.1211 182.056 69.9983 182.077 69.8788C182.097 69.7593 182.152 69.6483 182.235 69.559C184.138 68.1237 185.776 66.3733 187.075 64.3853C187.742 63.3671 188.114 62.1875 188.15 60.9748C187.899 59.6847 187.245 58.5049 186.281 57.6017C184.731 55.8394 182.737 54.5145 180.501 53.7619C177.912 52.9159 175.16 52.7323 172.551 51.9485C167.517 50.4983 163.209 47.2465 160.467 42.8267C157.633 38.1733 156.489 32.7271 153.596 28.107C152.195 25.7236 150.097 23.8165 147.577 22.6376C144.886 21.5309 141.929 21.2173 139.062 21.7345C138.366 21.8708 137.838 20.9213 138.535 20.5376Z" fill="#7F391F"/>
<path id="Vector_51" d="M84.8684 55.1015C85.7948 53.3097 86.3198 51.3416 86.4077 49.331C86.3837 47.3959 86.038 45.4794 86.1024 43.5402C86.094 41.5976 86.6731 39.6968 87.7652 38.0821C89.1111 36.2178 91.1149 35.2198 92.9364 33.8984C96.3632 31.4123 97.83 26.8666 100.402 23.6304C103.237 20.0634 107.258 18.0552 111.857 19.1724C114.245 19.8933 116.55 20.8594 118.735 22.0549C119.888 22.6359 121.11 23.0728 122.372 23.3556C123.618 23.6054 124.876 23.4906 126.116 23.6847C126.145 23.6894 126.149 23.7264 126.133 23.7455C124.978 25.1231 122.791 25.1063 121.151 24.9129C118.985 24.578 116.867 23.9853 114.845 23.1477C112.89 22.4221 110.706 21.6572 108.588 22.0136C106.489 22.5232 104.677 23.8314 103.547 25.6539C101.011 29.1937 99.8425 33.5591 96.4856 36.5353C94.8991 37.942 92.7932 38.6846 91.2728 40.1218C90.1057 41.4673 89.4287 43.161 89.35 44.932C88.9049 48.3684 89.5296 54.3244 85.5679 55.9766C85.0205 56.2049 84.6915 55.5176 84.8684 55.1015Z" fill="#7F391F"/>
<path id="Vector_52" d="M109.092 39.9385C109.36 35.5184 113.418 32.5228 117.443 31.3146C119.808 30.6045 122.151 30.8267 124.581 30.8943C125.924 30.982 127.273 30.8518 128.574 30.5087C129.795 30.1373 130.897 29.5665 132.07 29.0915C132.153 29.058 132.203 29.1605 132.176 29.2241C130.154 33.9272 124.208 32.7083 120.211 33.2972C115.696 33.9623 112.871 37.1418 109.92 40.2647C109.853 40.3306 109.767 40.3757 109.675 40.3944C109.582 40.4131 109.486 40.4046 109.398 40.37C109.31 40.3353 109.234 40.276 109.18 40.1994C109.125 40.1227 109.095 40.032 109.092 39.9385Z" fill="#7F391F"/>
<path id="Vector_53" d="M135.581 41.9038C135.733 39.9659 136.183 38.0622 136.914 36.258C137.656 34.3443 139.056 32.12 138.573 29.9929C138.558 29.9315 138.563 29.8667 138.587 29.8081C138.611 29.7495 138.654 29.7002 138.709 29.6676C138.764 29.635 138.828 29.6207 138.892 29.6269C138.956 29.6331 139.016 29.6594 139.063 29.702C141.284 31.7839 139.735 34.8391 139.139 37.3172C138.466 40.115 138.239 43.2545 139.803 45.8141C141.315 48.2881 144.132 48.7293 146.857 48.6196C148.286 48.6302 149.677 48.1633 150.805 47.2946C151.563 46.4639 152.083 45.4478 152.311 44.3515C152.358 44.1835 152.448 44.0304 152.573 43.9069C152.697 43.7833 152.852 43.6935 153.022 43.6459C153.191 43.5983 153.37 43.5947 153.542 43.6352C153.714 43.6758 153.872 43.7593 154.001 43.8776C156.813 46.4495 153.918 50.7175 151.235 51.987C149.379 52.7465 147.367 53.0584 145.364 52.8972C143.362 52.7359 141.428 52.1061 139.72 51.0597C138.299 50.0078 137.174 48.6149 136.449 47.0128C135.725 45.4106 135.426 43.6522 135.581 41.9038Z" fill="#7F391F"/>
<path id="Vector_54" d="M155.077 58.4022C154.957 57.0994 155.217 55.7899 155.827 54.6292C156.413 53.5025 157.357 52.5981 158.515 52.0563C158.545 52.0405 158.59 52.0736 158.567 52.1054C156.719 54.6324 156.158 58.5398 158.626 60.8715C159.161 61.3974 159.831 61.7684 160.564 61.9443C161.296 62.1202 162.064 62.0943 162.783 61.8694C163.355 61.6773 164.287 61.1669 164.424 60.5134C164.589 59.7247 163.739 59.1319 163.13 58.8083C163.029 58.7513 162.945 58.6694 162.886 58.5706C162.827 58.4719 162.795 58.3597 162.793 58.245C162.791 58.1303 162.819 58.0171 162.874 57.9163C162.93 57.8155 163.01 57.7306 163.109 57.67C165.588 56.5094 167.734 59.1755 167.01 61.5497C166.155 64.3543 162.402 65.2049 159.87 64.4504C158.549 64.0346 157.386 63.2353 156.531 62.1565C155.677 61.0778 155.17 59.7696 155.077 58.4022Z" fill="#7F391F"/>
<path id="Vector_55" d="M167.84 71.4423C167.75 70.0656 168.002 68.6881 168.575 67.4301C169.147 66.172 170.022 65.0716 171.123 64.225C171.212 64.1516 171.374 64.2404 171.3 64.3546C170.432 65.7468 169.947 67.3394 169.893 68.9743C169.839 70.6092 170.218 72.2297 170.993 73.6749C171.815 75.0778 173.06 76.1918 174.554 76.8614C176.049 77.5331 177.746 77.6593 179.162 78.5285C181.627 80.0412 182.435 83.3036 182.507 85.99C182.578 88.6451 181.839 91.3787 179.383 92.7812C178.876 93.0703 178.244 92.3695 178.717 91.9598C181.056 89.9355 180.822 86.231 179.858 83.5774C179.617 82.7958 179.188 82.0838 178.607 81.5027C178.026 80.9216 177.311 80.4886 176.523 80.2411C175.006 79.884 173.549 79.3125 172.196 78.5443C170.984 77.7528 169.965 76.7053 169.212 75.4772C168.458 74.2491 167.99 72.871 167.84 71.4423Z" fill="#7F391F"/>
<path id="Vector_56" d="M100.017 44.2376C100.166 44.2768 100.303 44.3537 100.413 44.4607C100.523 44.5677 100.603 44.7012 100.645 44.848C100.687 44.9949 100.69 45.15 100.653 45.2982C100.616 45.4464 100.541 45.5825 100.435 45.6933C98.8135 47.0027 99.8447 48.8014 101.646 49.2219C102.542 49.3743 103.464 49.2325 104.271 48.8182C105.078 48.404 105.726 47.74 106.115 46.9276C106.951 45.2252 104.935 43.419 104.718 41.6908C104.541 40.1916 104.948 38.6821 105.857 37.4698C105.867 37.4572 105.882 37.4712 105.881 37.4828C105.633 39.1819 105.958 40.9145 106.806 42.4125C107.51 43.6382 108.535 44.6947 108.567 46.1875C108.623 48.7418 106.119 51.1082 103.8 51.7799C102.629 52.1386 101.367 52.0628 100.249 51.5666C99.1309 51.0704 98.2344 50.188 97.7274 49.0848C96.9042 47.1247 97.2198 43.894 100.017 44.2376Z" fill="#7F391F"/>
<path id="Vector_57" d="M79.5462 70.9758C79.3576 68.8831 79.9947 66.7994 81.324 65.1605C82.8592 63.3329 84.8397 61.9221 87.0788 61.061C89.4998 60.015 91.7934 59.2897 93.0035 56.7643C93.0195 56.7366 93.0425 56.7134 93.0702 56.6971C93.098 56.6809 93.1295 56.672 93.1617 56.6714C93.194 56.6708 93.2258 56.6786 93.2542 56.6938C93.2825 56.7091 93.3063 56.7314 93.3233 56.7586C95.1509 60.8361 88.4133 62.5761 86.0328 64.0256C85.0188 64.5574 84.1312 65.297 83.4291 66.195C82.727 67.0931 82.2266 68.1288 81.9614 69.2332C81.5813 71.5229 83.0785 73.9808 84.4531 75.7078C84.9559 76.3394 83.9661 76.9425 83.422 76.5244C82.4192 75.8666 81.5309 75.0522 80.7917 74.1131C80.1191 73.1861 79.691 72.1078 79.5462 70.9758Z" fill="#7F391F"/>
<path id="Vector_58" d="M69.1503 90.1847C69.5172 88.2377 70.0851 86.3331 70.8449 84.5007C71.2659 83.4914 71.7102 82.4881 72.1917 81.5056C72.69 80.4889 73.3517 79.6575 73.9313 78.7129C73.9472 78.6866 73.972 78.6669 74.0014 78.6571C74.0307 78.6474 74.0625 78.6482 74.0912 78.6596C74.1199 78.671 74.1436 78.6921 74.158 78.7192C74.1724 78.7462 74.1765 78.7775 74.1697 78.8073C74.0273 79.5923 74.0493 80.3593 73.8597 81.159C73.6412 82.0798 73.3998 82.9951 73.1811 83.9158C72.7631 85.6754 72.3321 87.4457 72.0413 89.2311C71.3315 92.966 71.5621 96.8162 72.7129 100.442C75.0192 107.214 80.6862 111.492 87.6096 113.001C87.8981 113.084 88.1474 113.265 88.3128 113.513C88.4782 113.761 88.5489 114.06 88.5121 114.354C88.4753 114.649 88.3335 114.922 88.1121 115.122C87.8907 115.323 87.6042 115.439 87.304 115.45C79.3927 115.463 72.7682 109.479 70.1028 102.414C68.6808 98.4959 68.3518 94.2717 69.1503 90.1847Z" fill="#7F391F"/>
</g>
<g id="Group_12">
<g id="Group_13">
<path id="Vector_59" d="M117.206 93.7095C117.206 93.7095 117.121 94.4074 117.109 95.4821C117.04 97.8048 117.441 100.118 118.288 102.285C118.728 103.452 119.472 104.483 120.446 105.272C121.42 106.061 122.589 106.581 123.832 106.777C125.14 106.971 126.477 106.814 127.703 106.323C128.929 105.832 129.999 105.025 130.803 103.986C132.306 102.167 133.463 100.094 134.22 97.867C134.616 96.7604 134.796 96.0098 134.796 96.0098C128.841 97.3044 122.616 96.4903 117.206 93.7095Z" fill="#9F2236"/>
<path id="Vector_60" d="M117.206 93.7095C117.206 93.7095 117.121 94.4074 117.109 95.4821C119.087 97.4398 121.552 98.8471 124.255 99.5623C128.381 100.608 132.45 98.821 134.22 97.867C134.616 96.7604 134.796 96.0098 134.796 96.0098C128.841 97.3044 122.616 96.4903 117.206 93.7095Z" fill="white"/>
<path id="Vector_61" d="M118.289 102.285C118.728 103.452 119.473 104.483 120.447 105.272C121.421 106.061 122.59 106.581 123.833 106.777C125.141 106.971 126.478 106.814 127.704 106.323C128.93 105.832 130 105.025 130.803 103.985C129.863 103.398 128.805 103.021 127.702 102.881C126.599 102.741 125.479 102.841 124.419 103.175C124.419 103.175 122.205 101.327 118.289 102.285Z" fill="#FF6551"/>
</g>
<g id="Group_14">
<path id="Vector_62" d="M114.079 83.5819C117.435 82.1009 118.942 78.2093 117.445 74.8897C115.947 71.5701 112.012 70.0796 108.656 71.5606C105.299 73.0416 103.792 76.9332 105.29 80.2528C106.787 83.5724 110.722 85.0629 114.079 83.5819Z" fill="white"/>
<path id="Vector_63" d="M115.832 81.3469C117.494 78.9328 116.862 75.6438 114.421 74.0008C111.98 72.3578 108.654 72.9828 106.993 75.397C105.331 77.811 105.963 81.1 108.404 82.743C110.845 84.3861 114.171 83.761 115.832 81.3469Z" fill="black"/>
<path id="Vector_64" d="M114.477 78.5592C114.636 78.8649 114.699 79.2104 114.66 79.5519C114.62 79.8934 114.479 80.2157 114.255 80.478C114.03 80.7403 113.732 80.9307 113.397 81.0253C113.063 81.1199 112.708 81.1144 112.377 81.0094C112.046 80.9045 111.754 80.7048 111.538 80.4357C111.322 80.1665 111.191 79.84 111.162 79.4974C111.134 79.1548 111.208 78.8115 111.377 78.511C111.546 78.2104 111.801 77.966 112.11 77.8087C112.315 77.7043 112.539 77.6409 112.769 77.6221C112.999 77.6033 113.231 77.6295 113.45 77.6992C113.67 77.7689 113.874 77.8807 114.05 78.0283C114.226 78.1758 114.371 78.3563 114.477 78.5592Z" fill="white"/>
</g>
<g id="Group_15">
<path id="Vector_65" d="M151.989 84.6319C152.29 81.0092 149.565 77.8308 145.902 77.5328C142.238 77.2348 139.025 79.93 138.723 83.5528C138.422 87.1755 141.147 90.3539 144.81 90.6519C148.474 90.9499 151.687 88.2546 151.989 84.6319Z" fill="white"/>
<path id="Vector_66" d="M146.976 89.6106C149.738 88.5784 151.131 85.5272 150.088 82.7955C149.044 80.0639 145.959 78.6862 143.197 79.7184C140.434 80.7506 139.041 83.8018 140.085 86.5335C141.129 89.2651 144.214 90.6428 146.976 89.6106Z" fill="black"/>
<path id="Vector_67" d="M141.065 84.8822C141.081 85.1946 141.191 85.4952 141.38 85.746C141.569 85.9968 141.829 86.1865 142.127 86.2911C142.425 86.3958 142.747 86.4107 143.054 86.3339C143.361 86.2572 143.637 86.0922 143.849 85.86C144.061 85.6277 144.198 85.3385 144.244 85.029C144.29 84.7194 144.242 84.4035 144.106 84.1211C143.97 83.8386 143.752 83.6024 143.48 83.4422C143.209 83.2821 142.895 83.2052 142.579 83.2213C142.156 83.243 141.758 83.4301 141.474 83.7416C141.19 84.053 141.043 84.4633 141.065 84.8822Z" fill="white"/>
</g>
</g>
</g>
</g>
<g id="Group_16">
<g id="Group_17">
<path id="Vector_68" d="M34.5938 182.183L34.858 186.541H230.056L230.116 182.183H34.5938Z" fill="#864FF1"/>
<path id="Vector_69" d="M228.53 185.746C229.05 185.742 229.568 185.67 230.069 185.532L230.115 182.183H34.5938L34.81 185.746L228.53 185.746Z" fill="#864FF1"/>
</g>
<g id="Group_18">
<path id="Vector_70" d="M205.548 129.579V182.17H197.668L197.518 177.09L197.38 172.474L197.263 168.57L197.133 164.171L197.131 164.168L196.094 129.579H205.548Z" fill="#FF6551"/>
<path id="Vector_71" d="M217.624 125.116L215.443 172.473L215.329 174.939L215.23 177.089L214.998 182.17H205.547V125.116H217.624Z" fill="#864FF1"/>
<path id="Vector_72" d="M208.367 177.09H197.517L197.379 172.474H208.064C208.172 174.119 208.272 175.668 208.367 177.09Z" fill="#F7A845"/>
<path id="Vector_73" d="M218.321 177.09H205.547V172.474H218.018C218.126 174.119 218.227 175.668 218.321 177.09Z" fill="#2435A1"/>
<path id="Vector_74" d="M199.025 164.869V132.213C199.025 131.819 199.184 131.441 199.466 131.162C199.748 130.883 200.13 130.727 200.529 130.727H202.251C202.65 130.727 203.032 130.883 203.314 131.162C203.596 131.441 203.755 131.819 203.755 132.213V164.869C203.755 165.263 203.596 165.642 203.314 165.92C203.032 166.199 202.65 166.356 202.251 166.356H200.529C200.13 166.356 199.748 166.199 199.466 165.92C199.184 165.642 199.025 165.264 199.025 164.869Z" fill="#FF8D7E"/>
<path id="Vector_75" d="M207.684 128.33V168.978C207.684 169.977 208.503 170.788 209.514 170.788H211.494C212.505 170.788 213.324 169.977 213.324 168.978V128.33C213.324 127.33 212.505 126.52 211.494 126.52H209.514C208.503 126.52 207.684 127.33 207.684 128.33Z" fill="#A880F5"/>
<g id="Vector_76" style="mix-blend-mode:multiply" opacity="0.25">
<path d="M215.23 169.605V168.233C215.23 168.233 215.257 168.777 215.23 169.605Z" fill="#471E44"/>
</g>
<path id="Vector_77" d="M230.055 182.167V182.17H215L215.069 177.106L215.099 174.905L215.134 172.456L215.793 125.116L215.891 118.095H230.768L229.961 172.144L229.964 172.456L230.009 177.106L230.055 182.167Z" fill="#2435A1"/>
<path id="Vector_78" d="M230.009 177.106H215.07L215.135 172.458H229.966L230.009 177.106Z" fill="#F7A845"/>
<path id="Vector_79" d="M219.092 168.655V122.664C219.092 122.099 219.319 121.556 219.723 121.156C220.128 120.757 220.676 120.532 221.248 120.532H223.831C224.403 120.532 224.951 120.757 225.356 121.156C225.76 121.556 225.987 122.099 225.987 122.664V168.655C225.987 168.935 225.931 169.213 225.823 169.471C225.715 169.73 225.556 169.965 225.356 170.163C225.155 170.361 224.918 170.518 224.656 170.625C224.395 170.732 224.114 170.788 223.831 170.788H221.248C220.676 170.788 220.128 170.563 219.723 170.163C219.319 169.763 219.092 169.221 219.092 168.655Z" fill="#525FB5"/>
<g id="Vector_80" style="mix-blend-mode:multiply" opacity="0.23">
<path d="M204.717 129.579V182.197L205.547 182.17V129.579H204.717Z" fill="#471E44"/>
</g>
<path id="Vector_81" d="M214.516 125.116V182.167L215 182.17L215.792 125.116H214.516Z" fill="#243976"/>
</g>
<g id="Group_19">
<path id="Vector_82" d="M170.065 176.699L169.637 177.94L168.79 180.403L120.058 181.548L71.3255 180.403L70.0508 176.699C77.6553 176.577 85.2212 175.601 92.6029 173.79C103.716 170.881 115.155 170.558 120.058 175.406C124.96 170.558 136.4 170.881 147.513 173.79C154.894 175.601 162.46 176.577 170.065 176.699Z" fill="#FFEBDD"/>
<path id="Vector_83" d="M169.41 182.194H70.7031V179.931H72.1276H169.41V182.194Z" fill="#FF6551"/>
<path id="Vector_84" d="M170.064 176.699L169.635 177.94C163.324 178.215 152.741 177.022 141.301 174.113C129.862 171.204 120.383 176.699 120.057 176.699V175.406C124.959 170.558 136.399 170.881 147.511 173.79C154.893 175.601 162.459 176.577 170.064 176.699Z" fill="#F5C6B1"/>
<path id="Vector_85" d="M70.0508 176.699L70.479 177.94C76.7903 178.215 87.3735 177.022 98.813 174.113C110.252 171.204 119.731 176.699 120.058 176.699V175.406C115.155 170.558 103.716 170.881 92.6029 173.79C85.2212 175.601 77.6553 176.577 70.0508 176.699Z" fill="#F5C6B1"/>
</g>
</g>
<g id="Vector_86" style="mix-blend-mode:multiply" opacity="0.15">
<path d="M236.936 116.525L235.816 192.307H98.5879C143.042 179.464 200.155 156.313 236.936 116.525Z" fill="#29ABE2"/>
</g>
</g>
</g>
</g>
</g>
<defs>
<filter id="filter0_d_318_36686" x="0" y="0" width="258.999" height="235" filterUnits="userSpaceOnUse" color-interpolation-filters="sRGB">
<feFlood flood-opacity="0" result="BackgroundImageFix"/>
<feColorMatrix in="SourceAlpha" type="matrix" values="0 0 0 0 0 0 0 0 0 0 0 0 0 0 0 0 0 0 127 0" result="hardAlpha"/>
<feOffset dy="4"/>
<feGaussianBlur stdDeviation="2"/>
<feComposite in2="hardAlpha" operator="out"/>
<feColorMatrix type="matrix" values="0 0 0 0 0 0 0 0 0 0 0 0 0 0 0 0 0 0 0.25 0"/>
<feBlend mode="normal" in2="BackgroundImageFix" result="effect1_dropShadow_318_36686"/>
<feBlend mode="normal" in="SourceGraphic" in2="effect1_dropShadow_318_36686" result="shape"/>
</filter>
</defs>
</svg>
