<svg width="255" height="225" viewBox="0 0 255 225" fill="none" xmlns="http://www.w3.org/2000/svg">
<g id="pic3" filter="url(#filter0_d_318_36852)">
<g id="pic3_2">
<path id="Vector" d="M209.683 197.705C197.52 204.865 181.796 201.81 167.524 203.373C155.463 204.694 144.187 209.427 132.642 212.95C121.097 216.472 108.447 218.785 96.9209 215.208C89.0034 212.751 82.3258 207.727 74.8749 204.218C65.8836 199.984 55.8918 198.009 46.5089 194.599C37.1259 191.188 27.8623 185.844 23.5062 177.354C18.2679 167.144 21.2785 155.015 19.2985 143.842C17.0639 131.232 8.56627 120.344 5.00956 108.003C2.4967 99.2844 5.10395 88.9957 8.14053 80.5354C11.3492 71.5956 20.2689 61.5518 28.8639 56.3498C31.668 54.6527 34.4374 52.9525 37.0858 51.0326C38.2462 50.1913 44.3526 46.5115 44.3526 45.1793C51.2085 38.9963 55.3238 31.1116 61.2814 24.2644C67.463 17.1599 76.511 12.5568 86.0005 10.2993C94.5931 8.22717 103.384 7.08147 112.222 6.88183C121.713 6.73438 130.918 7.5614 140.076 4.50722C141.999 3.866 143.864 3.08125 145.782 2.42396C158.73 -2.01317 176.069 -0.0698025 188.173 5.90422C192.792 8.18378 196.656 11.578 200.381 15.0027C205.002 19.0604 209.04 23.7344 212.382 28.8928C215.441 33.8688 216.409 39.808 220.306 44.4786C222.923 47.6151 225.498 51.0606 228.092 54.0858C232.1 58.7605 238.272 61.007 242.084 66.101C245.92 71.2285 247.745 77.4893 249.008 83.5572C250.625 91.326 251.531 99.2904 250.665 107.164C249.278 119.761 242.201 129.126 234.968 139.377C232.558 142.792 230.135 146.327 229.21 150.326C228.839 152.244 228.612 154.187 228.53 156.138C228.084 161.824 226.555 167.062 225.403 172.572C223.38 182.249 218.953 192.248 209.683 197.705Z" fill="#EFF2FD"/>
<g id="Group">
<path id="Vector_2" d="M61.4229 85.7289L72.6931 91.0553L182.223 108.262L197.929 73.3716C185.067 78.5288 151.473 80.4542 122.492 81.8117C91.0886 83.2826 58.0566 82.987 58.0566 82.987L61.4229 85.7289Z" fill="#B57D92"/>
<path id="Vector_3" d="M178.744 11.6217L178.078 16.6663L169.072 84.8819L160.884 146.927L76.7693 146.952L75.0053 96.0477L74.9933 95.6368L71.6758 0L178.744 11.6217Z" fill="#FFD7BD"/>
<path id="Vector_4" d="M178.092 16.5391L178.079 16.666L169.073 84.8817L75.0062 96.0475L73.668 96.2064L74.9942 95.6366L94.1531 87.4009L92.866 86.7181L89.4923 24.8817L178.092 16.5391Z" fill="#ECB891"/>
<path id="Vector_5" d="M94.1543 27.896L98.7079 159.352L182.828 159.327L197.203 17.186L94.1543 27.896Z" fill="#FFEBDD"/>
<g id="Group_2">
<path id="Vector_6" d="M181.831 32.0121L106.184 38.7187C105.777 38.7547 105.4 38.9458 105.131 39.2523C104.862 39.5588 104.722 39.957 104.74 40.3641C104.758 40.7711 104.932 41.1556 105.227 41.4375C105.522 41.7193 105.914 41.8769 106.322 41.8773C106.369 41.8773 106.416 41.8756 106.464 41.8713L182.112 35.1646C182.319 35.1463 182.521 35.0873 182.706 34.9911C182.89 34.8949 183.054 34.7634 183.188 34.604C183.321 34.4446 183.422 34.2606 183.484 34.0623C183.547 33.864 183.569 33.6554 183.551 33.4484C183.533 33.2414 183.473 33.0401 183.377 32.8559C183.281 32.6716 183.149 32.5082 182.989 32.3748C182.83 32.2414 182.645 32.1407 182.446 32.0785C182.248 32.0163 182.039 31.9937 181.831 32.0121H181.831Z" fill="#F4C6B1"/>
<path id="Vector_7" d="M180.553 54.9578L104.829 60.7483C104.421 60.7796 104.04 60.9676 103.767 61.2729C103.495 61.5782 103.351 61.977 103.366 62.3857C103.382 62.7945 103.555 63.1813 103.85 63.4652C104.145 63.7491 104.539 63.908 104.949 63.9086C104.989 63.9086 105.03 63.9069 105.072 63.9041L180.795 58.1136C181.003 58.0978 181.205 58.0412 181.391 57.9473C181.577 57.8533 181.742 57.7237 181.878 57.566C182.013 57.4082 182.116 57.2254 182.181 57.0278C182.246 56.8303 182.271 56.622 182.255 56.4148C182.239 56.2076 182.183 56.0055 182.088 55.8201C181.994 55.6348 181.864 55.4697 181.706 55.3344C181.548 55.1991 181.365 55.0962 181.167 55.0316C180.969 54.967 180.761 54.9419 180.553 54.9578L180.553 54.9578Z" fill="#F4C6B1"/>
<path id="Vector_8" d="M144.279 48.9115L180.777 45.6757C180.984 45.6577 181.187 45.599 181.372 45.503C181.556 45.4069 181.721 45.2754 181.855 45.116C181.989 44.9565 182.09 44.7723 182.152 44.5738C182.215 44.3752 182.237 44.1664 182.219 43.9591C182.201 43.7518 182.141 43.5502 182.045 43.3658C181.948 43.1814 181.816 43.0178 181.656 42.8845C181.496 42.7511 181.311 42.6505 181.112 42.5885C180.913 42.5265 180.704 42.5043 180.496 42.5231L143.998 45.7589C143.591 45.7949 143.214 45.9861 142.946 46.2925C142.677 46.599 142.536 46.9972 142.554 47.4042C142.572 47.8113 142.747 48.1957 143.041 48.4776C143.336 48.7595 143.728 48.9171 144.136 48.9175C144.183 48.9175 144.231 48.9159 144.279 48.9115Z" fill="#F4C6B1"/>
<path id="Vector_9" d="M104.986 52.3885C105.033 52.3885 105.081 52.3869 105.128 52.3825L137.507 49.5118C137.715 49.4934 137.917 49.4344 138.101 49.3382C138.286 49.242 138.449 49.1105 138.583 48.9511C138.717 48.7917 138.818 48.6076 138.88 48.4094C138.942 48.2111 138.965 48.0025 138.946 47.7955C138.928 47.5885 138.869 47.3871 138.773 47.2029C138.676 47.0187 138.544 46.8553 138.385 46.7219C138.225 46.5885 138.04 46.4879 137.842 46.4256C137.643 46.3634 137.434 46.3408 137.227 46.3592L104.848 49.23C104.441 49.2659 104.064 49.4571 103.795 49.7635C103.526 50.07 103.386 50.4682 103.404 50.8753C103.422 51.2823 103.596 51.6668 103.891 51.9487C104.186 52.2306 104.578 52.3881 104.986 52.3885H104.986Z" fill="#F4C6B1"/>
<path id="Vector_10" d="M180.506 65.9374L129.683 70.0816C129.275 70.1148 128.896 70.3042 128.625 70.61C128.354 70.9158 128.211 71.3144 128.228 71.7225C128.244 72.1305 128.418 72.5165 128.713 72.7995C129.008 73.0826 129.401 73.2409 129.811 73.2413C129.854 73.2413 129.897 73.2397 129.941 73.2364L180.764 69.0922C181.183 69.058 181.571 68.859 181.844 68.539C182.116 68.219 182.249 67.8042 182.215 67.3859C182.181 66.9675 181.982 66.5799 181.661 66.3082C181.34 66.0366 180.925 65.9032 180.506 65.9374Z" fill="#F4C6B1"/>
<path id="Vector_11" d="M123.211 71.0169L104.848 72.645C104.441 72.681 104.064 72.8722 103.795 73.1787C103.526 73.4852 103.386 73.8834 103.404 74.2904C103.422 74.6975 103.596 75.0819 103.891 75.3638C104.186 75.6457 104.578 75.8032 104.986 75.8036C105.033 75.8036 105.081 75.802 105.128 75.7976L123.491 74.1695C123.908 74.1293 124.291 73.9265 124.559 73.6052C124.826 73.2839 124.955 72.8702 124.918 72.4542C124.881 72.0382 124.681 71.6537 124.361 71.3845C124.041 71.1153 123.628 70.9831 123.211 71.0169Z" fill="#F4C6B1"/>
</g>
<path id="Vector_12" d="M197.927 73.3721L193.938 114.194L188.641 168.372L64.8508 168.739L64.2963 161.764L58.0547 82.9845C139.042 101.628 197.927 73.3721 197.927 73.3721Z" fill="#FFC652"/>
<path id="Vector_13" d="M196.471 88.2695L188.641 168.372L64.8506 168.739L62.1543 134.826C62.1543 134.826 169.415 144.064 196.471 88.2695Z" fill="#F7A845"/>
<g id="Group_3">
<path id="Vector_14" d="M76.4325 114.764C76.2539 114.764 76.0788 114.714 75.9273 114.62C75.7757 114.525 75.6537 114.391 75.5752 114.23C75.4966 114.07 75.4645 113.891 75.4827 113.714C75.5009 113.537 75.5685 113.368 75.6779 113.227C77.1742 111.303 78.5226 109.27 79.7117 107.143C78.6037 107.235 77.4894 107.071 76.455 106.664C75.4205 106.257 74.4937 105.618 73.7462 104.797C72.8681 103.77 72.3397 102.492 72.2371 101.146C72.1346 99.8003 72.4632 98.4567 73.1756 97.3095C73.8612 96.3474 74.753 95.5498 75.7861 94.9746C78.2072 93.4667 81.0855 92.864 83.9096 93.2737C85.3435 93.4975 86.7078 94.0432 87.8997 94.8697C89.0915 95.6963 90.0798 96.782 90.7901 98.0452C93.0214 102.275 91.1643 107.356 88.1759 110.19C85.4436 112.78 81.5205 114.318 76.5171 114.761C76.4884 114.763 76.4599 114.764 76.4325 114.764ZM84.7611 96.6495C84.8529 96.6494 84.9442 96.6627 85.0321 96.6892C85.1524 96.7245 85.2645 96.7832 85.362 96.8618C85.4595 96.9405 85.5404 97.0376 85.6003 97.1475C85.6601 97.2575 85.6976 97.3782 85.7106 97.5026C85.7236 97.6271 85.7118 97.7529 85.676 97.8728C84.1192 103.134 81.7056 108.104 78.5321 112.583C81.6233 112.182 84.5237 110.867 86.8607 108.808C89.6912 106.123 90.6546 101.878 89.1007 98.9335C88.5304 97.9293 87.7391 97.0674 86.7865 96.4128C85.8339 95.7582 84.7448 95.3279 83.6013 95.1545C81.2236 94.8178 78.8031 95.3325 76.7694 96.6073C75.9789 97.041 75.2935 97.6429 74.7618 98.3703C74.2829 99.1704 74.0668 100.1 74.1437 101.029C74.2206 101.958 74.5867 102.839 75.1907 103.55C75.8494 104.258 76.6869 104.775 77.6152 105.048C78.5435 105.321 79.5283 105.34 80.4663 105.102C80.5752 105.073 80.6887 105.065 80.8007 105.078C82.0372 102.589 83.0562 99.9967 83.8462 97.3318C83.9045 97.1348 84.0252 96.9619 84.1901 96.8389C84.355 96.716 84.5553 96.6495 84.7611 96.6495Z" fill="white"/>
<path id="Vector_15" d="M93.8963 114.185C93.3449 114.187 92.799 114.074 92.294 113.854C91.6999 113.609 91.1977 113.185 90.8582 112.64V112.639C90.5341 111.921 90.3853 111.136 90.424 110.349C90.4626 109.562 90.6876 108.795 91.0805 108.112C91.4734 107.428 92.023 106.848 92.6842 106.417C93.3455 105.987 94.0995 105.719 94.8845 105.635H94.8932C95.4923 105.619 96.0831 105.778 96.5923 106.093C97.1015 106.409 97.5066 106.866 97.7573 107.41C98.1177 108.252 98.2551 109.173 98.1563 110.084C98.0574 110.995 97.7257 111.866 97.1929 112.612C96.7982 113.105 96.2966 113.504 95.7256 113.776C95.1546 114.048 94.5292 114.188 93.8963 114.185ZM92.5016 111.671C92.6414 111.87 92.8374 112.023 93.0647 112.11C93.5153 112.288 94.0106 112.32 94.4802 112.201C94.9499 112.082 95.3701 111.819 95.6814 111.448C95.9984 110.984 96.197 110.451 96.2598 109.893C96.3226 109.335 96.2478 108.771 96.0418 108.248C95.9466 108.026 95.7845 107.838 95.5778 107.711C95.3712 107.585 95.1302 107.525 94.8883 107.541H94.8845C94.4251 107.594 93.9866 107.762 93.6099 108.03C93.2332 108.297 92.9306 108.656 92.7303 109.072C92.475 109.451 92.3201 109.888 92.2801 110.342C92.2401 110.797 92.3163 111.254 92.5016 111.671Z" fill="white"/>
<path id="Vector_16" d="M168.365 115.139C168.127 115.139 167.898 115.05 167.722 114.89C167.546 114.729 167.437 114.509 167.415 114.273C167.363 113.706 167.354 113.138 167.358 112.57C166.833 113.46 166.042 114.163 165.096 114.582C164.661 114.741 164.198 114.804 163.736 114.767C163.275 114.73 162.828 114.593 162.424 114.367C162.078 114.186 161.768 113.945 161.508 113.654C161.159 113.955 160.746 114.175 160.301 114.298C159.856 114.42 159.389 114.442 158.934 114.362C158.517 114.266 158.131 114.065 157.815 113.777C157.498 113.49 157.261 113.126 157.125 112.721C156.622 113.265 155.99 113.674 155.286 113.909C154.583 114.144 153.831 114.197 153.101 114.063C152.41 113.9 151.784 113.533 151.305 113.009C151 113.462 150.578 113.824 150.083 114.057C149.588 114.289 149.04 114.384 148.496 114.33C147.954 114.28 147.435 114.09 146.99 113.778C146.545 113.467 146.189 113.044 145.957 112.553C145.584 111.75 145.466 110.851 145.62 109.979C144.569 110.377 143.424 110.458 142.327 110.212C142.319 110.319 142.311 110.424 142.306 110.531L142.413 112.841C142.425 113.086 142.342 113.326 142.181 113.511C142.02 113.696 141.794 113.812 141.55 113.835C141.306 113.858 141.062 113.787 140.869 113.635C140.677 113.483 140.55 113.264 140.515 113.021C140.485 112.818 140.46 112.613 140.442 112.408C140.086 112.798 139.651 113.107 139.165 113.314C138.736 113.524 138.259 113.615 137.783 113.579C137.307 113.543 136.85 113.381 136.458 113.109C136.114 112.856 135.829 112.532 135.621 112.159C135.366 112.47 135.052 112.727 134.697 112.916C134.342 113.104 133.952 113.22 133.551 113.257C133.248 113.269 132.945 113.23 132.655 113.141C132.195 113.044 131.766 112.836 131.406 112.535C131.046 112.233 130.765 111.848 130.589 111.413C130.109 112.022 129.506 112.523 128.819 112.883C128.382 113.145 127.877 113.275 127.368 113.258C126.858 113.24 126.364 113.075 125.946 112.783C125.755 112.644 125.583 112.48 125.434 112.297C125.02 112.897 124.464 113.387 123.815 113.723C123.167 114.058 122.445 114.23 121.715 114.221C121.329 114.214 120.952 114.109 120.619 113.915C120.286 113.721 120.009 113.446 119.813 113.114C119.76 113.013 119.716 112.908 119.681 112.8C118.808 113.558 117.671 113.941 116.516 113.868C115.997 113.851 115.491 113.705 115.043 113.443C114.595 113.181 114.219 112.813 113.949 112.37C113.824 112.154 113.724 111.926 113.651 111.687L113.559 111.851C113.23 112.533 112.763 113.14 112.187 113.632C111.793 113.959 111.309 114.157 110.798 114.2C110.288 114.242 109.777 114.126 109.335 113.868C108.942 113.574 108.631 113.184 108.433 112.736C108.235 112.288 108.155 111.796 108.202 111.308C108.133 111.397 108.062 111.485 107.991 111.572C107.125 112.643 106.079 113.012 105.195 112.566C104.906 112.398 104.66 112.165 104.478 111.884C104.297 111.604 104.184 111.284 104.15 110.952C103.412 112.299 102.195 113.322 100.739 113.818C100.33 113.97 99.8869 114.008 99.458 113.926C99.0291 113.845 98.6307 113.648 98.3063 113.356C98.0741 113.112 97.9173 112.806 97.8547 112.476C97.7921 112.145 97.8263 111.803 97.9533 111.491C98.0534 111.218 98.2325 110.98 98.468 110.809C98.7034 110.637 98.9845 110.538 99.2759 110.526C99.4521 110.52 99.6265 110.563 99.7797 110.65C99.9329 110.737 100.059 110.865 100.144 111.019C100.229 111.173 100.269 111.348 100.261 111.524C100.253 111.7 100.196 111.87 100.096 112.015C100.131 112.007 100.17 111.998 100.209 111.986C101.326 111.536 102.229 110.678 102.735 109.587C103.032 109.046 103.284 108.48 103.535 107.916C103.86 107.142 104.235 106.391 104.657 105.665C104.778 105.467 104.966 105.32 105.188 105.25C105.41 105.181 105.649 105.195 105.861 105.289C106.073 105.383 106.244 105.551 106.341 105.762C106.438 105.973 106.454 106.211 106.388 106.433C106 107.733 105.871 109.096 106.008 110.445C106.018 110.589 106.047 110.73 106.094 110.865C106.098 110.783 106.288 110.644 106.506 110.375C107.8 108.777 108.907 107.036 109.805 105.186C109.893 105.005 110.036 104.855 110.214 104.76C110.392 104.665 110.596 104.629 110.796 104.657C110.997 104.684 111.183 104.775 111.328 104.915C111.473 105.056 111.57 105.238 111.605 105.437C111.681 106.222 111.482 107.009 111.043 107.665C110.436 108.776 110.116 110.019 110.112 111.284C110.116 111.887 110.25 112.189 110.374 112.269C110.486 112.301 110.605 112.304 110.718 112.278C110.832 112.252 110.937 112.198 111.024 112.12C111.387 111.78 111.681 111.374 111.891 110.924L113.262 108.463C113.792 107.175 114.804 106.143 116.082 105.586C116.092 105.581 116.101 105.576 116.11 105.57C116.751 105.213 117.469 105.018 118.202 105C118.936 104.982 119.662 105.142 120.32 105.467C120.445 105.412 120.582 105.388 120.719 105.398C120.966 105.409 121.2 105.515 121.37 105.694C121.54 105.873 121.635 106.111 121.633 106.358C121.633 106.432 121.632 106.509 121.632 106.587C121.697 106.723 121.73 106.872 121.727 107.023C121.724 107.173 121.685 107.321 121.614 107.454C121.599 107.966 121.556 108.477 121.486 108.984C121.456 109.948 121.451 110.914 121.472 111.875C121.47 111.993 121.48 112.112 121.503 112.228C121.608 112.286 121.725 112.317 121.844 112.32C122.948 112.408 123.96 111.324 124.487 110.231C124.551 110.097 124.612 109.959 124.671 109.821C124.676 109.654 124.691 109.488 124.716 109.323C124.984 108.041 125.523 106.832 126.299 105.776C126.433 105.565 126.645 105.414 126.889 105.358C127.133 105.301 127.389 105.342 127.603 105.472C127.817 105.602 127.971 105.811 128.032 106.054C128.093 106.296 128.056 106.553 127.929 106.768C127.542 107.489 127.228 108.248 126.992 109.031C126.862 109.411 126.733 109.79 126.589 110.164C126.592 110.366 126.636 110.565 126.718 110.749C126.799 110.934 126.918 111.1 127.065 111.238C127.142 111.294 127.384 111.469 127.964 111.179C129.326 110.499 130.277 108.429 131.04 106.767C131.207 106.405 131.365 106.06 131.519 105.746C131.574 105.633 131.651 105.533 131.745 105.45C131.839 105.367 131.948 105.303 132.067 105.262C132.186 105.222 132.312 105.205 132.437 105.213C132.562 105.22 132.685 105.253 132.797 105.308C132.91 105.363 133.011 105.44 133.094 105.534C133.177 105.628 133.24 105.737 133.281 105.856C133.322 105.974 133.338 106.1 133.33 106.225C133.322 106.35 133.29 106.472 133.234 106.585C132.965 107.239 132.774 107.924 132.666 108.623C132.585 109.027 132.506 109.422 132.41 109.784C132.139 110.813 132.465 111.112 133.161 111.304C133.26 111.33 133.361 111.347 133.463 111.354C133.778 111.34 134.362 110.886 135.057 109.689C135.059 109.627 135.064 109.565 135.069 109.504C135.324 107.914 135.945 106.406 136.884 105.097C137.003 104.904 137.188 104.759 137.405 104.689C137.621 104.62 137.856 104.63 138.066 104.717C138.276 104.805 138.448 104.965 138.55 105.168C138.652 105.371 138.679 105.603 138.624 105.824C138.259 107.295 137.723 108.718 137.026 110.065C137.008 110.099 136.99 110.134 136.972 110.169C136.984 110.695 137.2 111.196 137.576 111.566C137.661 111.625 137.888 111.785 138.414 111.562C139.406 111.138 139.79 109.876 140.234 108.413C140.521 107.058 141.143 105.796 142.045 104.743C142.207 104.585 142.421 104.49 142.647 104.474C142.873 104.458 143.097 104.524 143.28 104.658C143.462 104.792 143.59 104.987 143.642 105.207C143.694 105.427 143.665 105.659 143.562 105.86C143.158 106.645 142.847 107.474 142.634 108.33C143.116 108.457 143.618 108.486 144.11 108.416C144.603 108.346 145.077 108.178 145.503 107.921C145.929 107.665 146.3 107.325 146.592 106.923C146.884 106.521 147.093 106.065 147.205 105.581C147.234 105.459 147.286 105.344 147.359 105.242C147.432 105.14 147.524 105.054 147.631 104.988C147.737 104.922 147.855 104.877 147.979 104.857C148.103 104.836 148.229 104.84 148.351 104.869C148.474 104.897 148.589 104.949 148.691 105.022C148.793 105.095 148.879 105.187 148.946 105.293C149.012 105.399 149.056 105.518 149.077 105.641C149.097 105.765 149.093 105.891 149.065 106.013L149.059 106.037C148.86 106.77 148.593 107.483 148.261 108.165C147.673 109.477 147.164 110.609 147.693 111.758C147.783 111.942 147.919 112.1 148.087 112.218C148.255 112.336 148.45 112.409 148.655 112.432C149.725 112.483 150.215 111.181 150.409 110.351C150.427 110.22 150.455 110.09 150.492 109.963C150.559 109.728 150.715 109.527 150.927 109.403C151.138 109.28 151.389 109.242 151.628 109.298C151.867 109.354 152.075 109.499 152.209 109.704C152.343 109.909 152.393 110.158 152.348 110.398C152.331 110.491 152.313 110.584 152.293 110.675C152.281 110.94 152.35 111.202 152.49 111.427C152.601 111.618 152.75 111.785 152.927 111.918C153.103 112.052 153.304 112.149 153.519 112.205C153.983 112.266 154.456 112.2 154.886 112.015C155.316 111.829 155.688 111.531 155.962 111.151C156.094 110.961 156.2 110.754 156.276 110.535C155.954 110.532 155.633 110.489 155.321 110.408C154.943 110.312 154.589 110.138 154.283 109.897C153.976 109.656 153.723 109.353 153.541 109.009C153.337 108.587 153.254 108.116 153.303 107.65C153.334 107.063 153.526 106.495 153.86 106.01C154.194 105.525 154.655 105.141 155.193 104.901C155.66 104.634 156.206 104.541 156.735 104.64C157.264 104.738 157.74 105.021 158.079 105.438C158.179 105.571 158.266 105.713 158.337 105.864C158.524 105.879 158.702 105.949 158.85 106.065C158.997 106.181 159.107 106.337 159.166 106.515V106.516C159.297 106.93 159.339 107.367 159.292 107.799C159.244 108.23 159.106 108.647 158.888 109.022C158.743 109.859 158.71 110.711 158.787 111.557C158.833 111.875 158.965 112.418 159.344 112.501C159.733 112.6 160.408 112.274 160.892 111.526C160.993 111.37 161.137 111.247 161.307 111.172C161.477 111.097 161.666 111.073 161.849 111.103C162.033 111.133 162.204 111.217 162.34 111.342C162.477 111.468 162.574 111.631 162.62 111.811C162.668 111.994 162.754 112.166 162.871 112.314C162.989 112.463 163.136 112.586 163.303 112.675C163.468 112.78 163.654 112.845 163.848 112.867C164.042 112.888 164.238 112.865 164.422 112.799C165.32 112.274 166.004 111.45 166.354 110.472C166.176 110.509 165.995 110.532 165.813 110.538C165.274 110.546 164.743 110.405 164.279 110.13C163.815 109.856 163.436 109.459 163.184 108.983C162.891 108.511 162.734 107.968 162.729 107.414C162.724 106.859 162.871 106.313 163.155 105.836C163.46 105.408 163.864 105.06 164.334 104.822C164.803 104.584 165.323 104.464 165.849 104.47C166.579 104.474 167.289 104.711 167.875 105.147C167.977 105.045 168.1 104.967 168.237 104.921C168.373 104.875 168.518 104.86 168.661 104.879C168.785 104.894 168.906 104.933 169.015 104.994C169.124 105.055 169.22 105.138 169.297 105.236C169.375 105.334 169.432 105.447 169.466 105.568C169.499 105.688 169.509 105.814 169.494 105.938C169.289 107.354 169.21 108.785 169.259 110.215C169.289 110.807 169.281 111.401 169.274 111.995C169.251 112.697 169.265 113.399 169.317 114.099C169.34 114.351 169.262 114.601 169.1 114.796C168.938 114.99 168.705 115.112 168.453 115.135C168.423 115.138 168.394 115.139 168.365 115.139ZM116.925 107.304C116.453 107.639 116.067 108.081 115.798 108.594C115.529 109.106 115.386 109.675 115.379 110.253C115.343 110.651 115.418 111.05 115.598 111.407C115.711 111.579 115.866 111.721 116.047 111.818C116.229 111.916 116.433 111.967 116.639 111.966C117.032 111.993 117.426 111.925 117.787 111.768C118.148 111.611 118.466 111.37 118.714 111.065C119.195 110.397 119.494 109.616 119.583 108.799C119.598 108.346 119.619 107.894 119.645 107.442C118.802 107.048 117.839 106.994 116.957 107.293L116.925 107.304ZM165.809 106.376C165.609 106.363 165.408 106.401 165.226 106.485C165.044 106.569 164.886 106.698 164.766 106.859C164.673 107.043 164.631 107.249 164.644 107.455C164.656 107.661 164.723 107.86 164.838 108.031C164.924 108.2 165.052 108.343 165.209 108.449C165.366 108.555 165.547 108.619 165.736 108.635C166.345 108.611 166.822 108.086 167.147 107.377C167.11 107.22 167.049 107.07 166.967 106.932C166.838 106.752 166.667 106.607 166.468 106.51C166.269 106.413 166.049 106.367 165.828 106.376L165.809 106.376ZM156.403 106.54C156.234 106.555 156.069 106.597 155.914 106.665C155.707 106.774 155.532 106.936 155.408 107.134C155.284 107.332 155.214 107.559 155.207 107.793C155.188 107.912 155.2 108.033 155.243 108.145C155.309 108.253 155.395 108.346 155.497 108.42C155.6 108.493 155.716 108.546 155.838 108.575C156.137 108.66 156.455 108.646 156.745 108.534C156.89 107.885 156.826 107.206 156.562 106.596C156.541 106.575 156.516 106.559 156.489 106.549C156.461 106.54 156.432 106.537 156.403 106.54V106.54Z" fill="white"/>
<path id="Vector_17" d="M100.551 146.898C100.373 146.898 100.199 146.849 100.048 146.755C99.8968 146.662 99.7748 146.529 99.6955 146.37C98.9449 144.627 98.8718 142.668 99.4904 140.875L99.7018 140.107C100.266 138.067 100.826 136.044 101.374 133.987C101.497 133.522 101.634 133.009 101.804 132.481C101.974 131.014 102.121 129.549 102.245 128.084C102.267 127.833 102.388 127.6 102.581 127.438C102.774 127.275 103.024 127.196 103.275 127.217C103.527 127.238 103.76 127.358 103.924 127.55C104.087 127.742 104.167 127.991 104.147 128.243C104.136 128.383 104.123 128.522 104.111 128.662C104.522 128.336 105.003 128.107 105.516 127.994C106.029 127.88 106.561 127.885 107.072 128.008C107.462 128.101 107.823 128.29 108.122 128.557C108.421 128.825 108.648 129.162 108.784 129.539C109.175 130.781 109.108 132.121 108.594 133.317C108.346 133.944 108.22 134.612 108.222 135.286L107.588 136.189L108.301 135.555C108.538 135.822 108.678 135.792 108.748 135.78C109.028 135.657 109.279 135.477 109.485 135.252C109.691 135.026 109.848 134.76 109.945 134.471C110.508 132.727 111.429 131.12 112.648 129.751C113.01 129.212 113.495 128.767 114.063 128.452C114.545 128.204 115.076 128.068 115.618 128.052C116.16 128.036 116.699 128.141 117.194 128.361C117.712 128.583 118.161 128.939 118.493 129.393C118.568 129.042 118.655 128.693 118.761 128.349C118.826 128.145 118.958 127.968 119.135 127.847C119.312 127.726 119.525 127.668 119.739 127.681C119.954 127.696 120.157 127.782 120.316 127.927C120.475 128.072 120.581 128.266 120.615 128.478C120.743 129.605 120.527 130.744 119.995 131.746C119.86 132.521 119.64 133.278 119.34 134.004C119.321 134.334 119.383 134.663 119.519 134.963C119.655 135.264 119.862 135.527 120.122 135.731C120.319 135.863 120.55 135.938 120.787 135.948C121.024 135.958 121.26 135.903 121.468 135.788C122.397 135.224 123.077 134.33 123.372 133.286L123.527 132.916C123.571 132.806 123.617 132.694 123.666 132.579C123.71 131.837 123.914 131.113 124.264 130.456C124.613 129.799 125.101 129.226 125.692 128.774C126.026 128.518 126.421 128.352 126.838 128.292C127.254 128.232 127.68 128.28 128.073 128.431C128.654 128.71 129.122 129.182 129.395 129.765C129.495 129.953 129.528 130.17 129.49 130.38C129.452 130.589 129.344 130.78 129.185 130.922C129.025 131.063 128.822 131.147 128.609 131.16C128.396 131.173 128.185 131.114 128.009 130.993C127.492 130.637 127.24 130.714 127.16 130.739C126.545 130.921 125.962 132.078 125.557 133.011C125.552 133.535 125.701 134.05 125.985 134.492C126.257 134.865 126.62 135.164 127.039 135.359C127.458 135.555 127.919 135.641 128.381 135.61C128.732 135.611 129.077 135.519 129.381 135.344C129.685 135.17 129.938 134.918 130.114 134.615C130.451 133.837 130.619 132.997 130.605 132.151C130.592 131.304 130.398 130.469 130.037 129.703C129.755 129.143 129.434 128.604 129.076 128.089C128.369 127.14 127.845 126.069 127.531 124.929C127.363 124.275 127.394 123.585 127.62 122.949C127.844 122.437 128.194 121.991 128.638 121.651C129.082 121.312 129.605 121.09 130.158 121.007C130.957 120.885 131.768 120.881 132.568 120.996C133.763 121.115 134.965 121.165 136.166 121.144C136.667 121.161 137.167 121.093 137.646 120.943C137.795 120.896 137.933 120.816 138.048 120.71C138.163 120.604 138.253 120.474 138.312 120.329C138.376 120.085 138.534 119.876 138.752 119.749C138.97 119.621 139.23 119.585 139.475 119.649C139.719 119.712 139.929 119.87 140.057 120.087C140.185 120.304 140.222 120.563 140.159 120.807C140.028 121.246 139.795 121.648 139.479 121.98C139.163 122.312 138.773 122.565 138.34 122.718C137.652 122.955 136.927 123.067 136.2 123.049C134.989 123.058 133.792 123.023 132.62 122.915C131.927 122.803 131.221 122.791 130.524 122.878C130.29 122.906 130.065 122.989 129.87 123.121C129.674 123.253 129.513 123.429 129.4 123.636C129.316 123.924 129.314 124.23 129.395 124.52C129.667 125.43 130.1 126.285 130.673 127.043C131.079 127.632 131.443 128.249 131.763 128.889C132.266 129.935 132.526 131.081 132.525 132.242C132.523 133.402 132.259 134.548 131.753 135.592C131.419 136.165 130.942 136.643 130.369 136.979C129.797 137.315 129.147 137.499 128.483 137.513C127.693 137.562 126.903 137.409 126.189 137.067C125.476 136.726 124.861 136.207 124.406 135.561L124.386 135.53C123.9 136.388 123.166 137.079 122.28 137.513C121.772 137.768 121.206 137.883 120.64 137.848C120.073 137.812 119.526 137.627 119.054 137.311C118.645 137.034 118.3 136.674 118.041 136.254C117.592 136.863 116.96 137.315 116.237 137.544C115.773 137.658 115.29 137.668 114.822 137.572C114.354 137.476 113.913 137.278 113.531 136.991C112.711 136.441 112.136 135.596 111.925 134.633C111.863 134.792 111.801 134.956 111.74 135.123C111.537 135.725 111.191 136.269 110.733 136.709C110.274 137.15 109.716 137.473 109.106 137.652C108.693 137.727 108.269 137.689 107.876 137.543C107.483 137.397 107.137 137.149 106.874 136.823C106.694 136.622 106.553 136.389 106.458 136.136C106.379 135.906 106.331 135.665 106.317 135.422C106.292 134.507 106.447 133.596 106.774 132.74C107.147 131.942 107.223 131.038 106.989 130.189C106.958 130.102 106.904 130.024 106.833 129.965C106.762 129.905 106.676 129.866 106.585 129.851C106.364 129.804 106.136 129.806 105.917 129.856C105.697 129.906 105.491 130.004 105.313 130.142C104.525 130.897 103.959 131.853 103.676 132.906C103.154 137.353 102.419 141.788 101.484 146.145C101.439 146.359 101.321 146.55 101.151 146.687C100.981 146.824 100.769 146.899 100.551 146.899L100.551 146.898ZM114.115 130.98C113.79 131.568 113.626 132.231 113.639 132.903C113.657 134.21 113.947 134.981 114.584 135.4C115.251 135.84 115.606 135.742 115.719 135.71C116.477 135.497 117.142 134.193 117.453 133.538C117.536 132.838 117.726 132.154 118.017 131.512C117.814 131.513 117.615 131.45 117.45 131.332C117.284 131.214 117.16 131.047 117.095 130.854C117.041 130.709 116.951 130.58 116.832 130.48C116.714 130.381 116.571 130.313 116.419 130.285C116.063 130.203 115.693 130.203 115.337 130.284C114.981 130.365 114.648 130.524 114.363 130.751C114.279 130.824 114.197 130.9 114.115 130.98V130.98Z" fill="white"/>
<path id="Vector_18" d="M137.196 137.56C136.862 137.56 136.531 137.514 136.21 137.424C135.676 137.263 135.181 136.995 134.755 136.636C134.33 136.276 133.983 135.833 133.736 135.334C133.57 135.001 133.457 134.644 133.402 134.276C133.339 133.546 133.434 132.811 133.68 132.121C133.926 131.431 134.319 130.802 134.83 130.276C135.254 129.747 135.806 129.333 136.433 129.073C137.061 128.814 137.744 128.717 138.419 128.792C139.09 128.902 139.698 129.252 140.128 129.778C140.559 130.303 140.783 130.968 140.757 131.646C140.87 132.475 140.883 133.314 140.794 134.146C140.683 135.138 140.216 136.056 139.48 136.732C138.842 137.272 138.032 137.565 137.196 137.56ZM137.867 130.648C137.556 130.682 137.254 130.777 136.98 130.928C136.706 131.079 136.464 131.283 136.27 131.528C135.945 131.849 135.69 132.234 135.521 132.658C135.353 133.083 135.274 133.537 135.29 133.993L135.291 133.997C135.316 134.167 135.368 134.331 135.445 134.484C135.572 134.747 135.751 134.98 135.972 135.17C136.192 135.36 136.45 135.503 136.728 135.59C136.985 135.663 137.256 135.674 137.517 135.622C137.779 135.57 138.025 135.456 138.234 135.29C138.618 134.913 138.856 134.413 138.905 133.878C138.968 133.196 138.952 132.51 138.858 131.832C138.759 130.841 138.58 130.758 138.076 130.667C138.007 130.654 137.937 130.648 137.867 130.648Z" fill="white"/>
<path id="Vector_19" d="M152.841 137.277C152.467 137.278 152.095 137.211 151.744 137.08C149.704 136.317 150.354 134.153 150.667 133.112L150.801 132.646C150.855 132.437 150.922 132.234 150.989 132.034C151.161 131.522 151.222 131.292 151.132 131.081C151.002 130.77 150.925 130.712 150.91 130.703C150.862 130.67 150.807 130.648 150.749 130.64C150.691 130.631 150.632 130.636 150.576 130.654C150.027 130.932 149.59 131.389 149.337 131.95C148.846 133.187 148.432 134.454 148.098 135.742C148.035 135.975 147.885 136.176 147.68 136.303C147.474 136.43 147.228 136.475 146.991 136.428C146.753 136.381 146.543 136.246 146.402 136.05C146.26 135.854 146.199 135.612 146.229 135.373C146.814 130.913 146.069 130.417 146.062 130.413C145.91 130.446 145.769 130.515 145.65 130.613C145.531 130.712 145.437 130.837 145.375 130.98C144.853 132.109 144.472 133.298 144.242 134.52C144.108 135.09 143.976 135.648 143.827 136.17C143.76 136.396 143.613 136.59 143.413 136.715C143.213 136.84 142.974 136.887 142.741 136.848C142.509 136.807 142.299 136.681 142.154 136.495C142.009 136.309 141.938 136.076 141.956 135.84C141.971 135.646 142.31 131.06 142.797 128.725C142.846 128.494 142.978 128.289 143.169 128.15C143.361 128.011 143.597 127.947 143.832 127.972C144.067 127.997 144.285 128.108 144.443 128.284C144.601 128.46 144.688 128.688 144.687 128.924C144.893 128.783 145.12 128.676 145.359 128.606C145.69 128.496 146.043 128.472 146.385 128.536C146.727 128.6 147.047 128.751 147.315 128.973C147.705 129.333 147.981 129.797 148.111 130.311C148.579 129.62 149.258 129.098 150.047 128.824C150.357 128.731 150.683 128.706 151.003 128.749C151.323 128.793 151.631 128.904 151.904 129.076C152.361 129.382 152.707 129.825 152.892 130.342C153.163 131.09 153.13 131.914 152.799 132.638C152.747 132.795 152.693 132.953 152.651 133.116C152.609 133.283 152.554 133.467 152.496 133.661C152.113 134.933 152.164 135.203 152.413 135.296C152.571 135.353 152.739 135.379 152.907 135.37C153.075 135.361 153.24 135.318 153.391 135.244C154.179 134.853 154.319 133.993 154.483 132.622C154.528 131.615 154.798 130.631 155.273 129.741C155.285 129.723 155.296 129.704 155.309 129.686C155.523 129.188 155.843 128.742 156.248 128.381C156.652 128.019 157.13 127.75 157.65 127.591C158.18 127.469 158.73 127.456 159.266 127.555C159.801 127.653 160.311 127.861 160.762 128.164C160.816 127.95 160.944 127.76 161.124 127.63C161.303 127.5 161.523 127.438 161.744 127.454C161.997 127.469 162.233 127.584 162.401 127.774C162.569 127.963 162.655 128.211 162.639 128.463C162.617 128.818 162.592 129.188 162.557 129.568C162.582 129.602 162.606 129.637 162.629 129.673C162.757 129.867 162.809 130.1 162.776 130.33C162.744 130.56 162.628 130.769 162.452 130.92C162.432 130.937 162.411 130.953 162.388 130.97C162.335 131.308 162.269 131.651 162.189 131.992C162.114 132.643 162.138 133.301 162.259 133.945L162.316 134.232C162.346 134.506 162.425 134.773 162.549 135.019C162.807 135.106 163.083 135.133 163.353 135.097C163.624 135.061 163.883 134.963 164.11 134.812C164.641 134.465 165.038 133.947 165.234 133.344C165.317 133.105 165.491 132.909 165.719 132.799C165.947 132.689 166.21 132.673 166.449 132.756C166.689 132.839 166.885 133.013 166.996 133.241C167.106 133.469 167.122 133.731 167.039 133.969C166.699 134.992 166.014 135.865 165.102 136.44C164.582 136.771 163.985 136.966 163.369 137.004C162.753 137.043 162.137 136.925 161.579 136.66C161.123 136.377 160.788 135.935 160.64 135.42C160.264 135.896 159.775 136.271 159.217 136.513C158.766 136.687 158.281 136.758 157.799 136.719C157.317 136.681 156.85 136.534 156.433 136.289C156.129 136.131 155.86 135.913 155.643 135.648C155.317 136.212 154.828 136.666 154.241 136.951C153.806 137.166 153.327 137.278 152.841 137.277ZM156.983 130.621C156.933 130.744 156.892 130.87 156.86 130.998C156.522 132.345 156.65 134.254 157.315 134.6C157.485 134.717 157.68 134.791 157.885 134.818C158.089 134.844 158.297 134.82 158.491 134.75C159.338 134.18 159.925 133.3 160.125 132.301C160.19 132.095 160.249 131.886 160.301 131.675C160.348 131.211 160.417 130.754 160.486 130.301C160.305 130.155 160.115 130.018 159.919 129.891C159.612 129.772 159.282 129.721 158.952 129.741C158.579 129.729 158.207 129.802 157.866 129.955C157.525 130.107 157.223 130.335 156.983 130.621L156.983 130.621Z" fill="white"/>
</g>
</g>
<g id="Group_4">
<path id="Vector_20" d="M21.832 183.379L24.2259 153.363L231.755 150.302L234.149 153.363V186.44H24.2259L21.832 183.379ZM217.509 171.147C218.528 171.147 219.524 170.845 220.371 170.28C221.218 169.715 221.878 168.912 222.268 167.973C222.658 167.034 222.76 166 222.561 165.003C222.362 164.006 221.872 163.09 221.152 162.371C220.431 161.652 219.513 161.162 218.514 160.964C217.515 160.766 216.48 160.868 215.538 161.257C214.597 161.646 213.793 162.305 213.227 163.15C212.661 163.995 212.359 164.989 212.359 166.006C212.359 166.681 212.492 167.349 212.751 167.973C213.01 168.597 213.389 169.164 213.867 169.641C214.346 170.118 214.913 170.497 215.538 170.755C216.163 171.014 216.833 171.147 217.509 171.147Z" fill="#2435A1"/>
<path id="Vector_21" d="M21.832 150.302H231.755V183.379H21.832V150.302ZM215.506 173.146C216.525 173.146 217.521 172.844 218.368 172.28C219.215 171.715 219.875 170.912 220.265 169.973C220.655 169.033 220.757 168 220.558 167.002C220.359 166.005 219.868 165.089 219.148 164.37C218.428 163.651 217.51 163.162 216.511 162.964C215.512 162.765 214.476 162.867 213.535 163.256C212.594 163.645 211.789 164.304 211.223 165.149C210.658 165.995 210.355 166.989 210.355 168.005C210.355 168.68 210.489 169.349 210.748 169.973C211.006 170.596 211.386 171.163 211.864 171.64C212.342 172.118 212.91 172.496 213.535 172.755C214.16 173.013 214.83 173.146 215.506 173.146Z" fill="#49B3F7"/>
<path id="Vector_22" d="M220.514 169.165C220.254 170.296 219.617 171.306 218.707 172.029C217.797 172.752 216.669 173.146 215.506 173.146C214.343 173.146 213.215 172.752 212.305 172.029C211.395 171.306 210.759 170.296 210.499 169.165H21.832V183.379H231.755V169.165H220.514Z" fill="#378FDD"/>
<g id="Group_5">
<g id="Group_6">
<path id="Vector_23" d="M195.082 150.302H191.613V166.84H195.082V150.302Z" fill="white"/>
<path id="Vector_24" d="M165.043 150.302H161.574V166.84H165.043V150.302Z" fill="white"/>
<path id="Vector_25" d="M135.004 150.302H131.535V166.84H135.004V150.302Z" fill="white"/>
<path id="Vector_26" d="M104.964 150.302H101.496V166.84H104.964V150.302Z" fill="white"/>
<path id="Vector_27" d="M74.9254 150.302H71.457V166.84H74.9254V150.302Z" fill="white"/>
<path id="Vector_28" d="M44.8864 150.302H41.418V166.84H44.8864V150.302Z" fill="white"/>
</g>
<g id="Group_7">
<path id="Vector_29" d="M180.156 150.302H176.688V161.372H180.156V150.302Z" fill="white"/>
<path id="Vector_30" d="M150.117 150.302H146.648V161.372H150.117V150.302Z" fill="white"/>
<path id="Vector_31" d="M120.078 150.302H116.609V161.372H120.078V150.302Z" fill="white"/>
<path id="Vector_32" d="M90.0387 150.302H86.5703V161.372H90.0387V150.302Z" fill="white"/>
<path id="Vector_33" d="M59.9996 150.302H56.5312V161.372H59.9996V150.302Z" fill="white"/>
</g>
</g>
</g>
<g id="Group_8">
<path id="Vector_34" d="M203.391 36.2842H176.688V168.784H203.391V36.2842Z" fill="#E94B36"/>
<path id="Vector_35" d="M196.038 36.2842H184.4V168.784H196.038V36.2842Z" fill="#FF6551"/>
<path id="Vector_36" d="M203.392 36.2842H196.039V168.784H203.392V36.2842Z" fill="#E94B36"/>
<path id="Vector_37" d="M203.391 168.784H176.688L188.082 197.268C188.273 197.743 188.603 198.15 189.029 198.435C189.455 198.719 189.958 198.868 190.471 198.862C190.984 198.856 191.483 198.694 191.902 198.399C192.321 198.105 192.641 197.69 192.82 197.21L203.391 168.784Z" fill="#FFBF94"/>
<path id="Vector_38" d="M196.959 186.081H183.607L188.083 197.268C188.273 197.743 188.603 198.15 189.029 198.435C189.456 198.719 189.959 198.868 190.471 198.862C190.984 198.856 191.483 198.695 191.903 198.4C192.322 198.105 192.642 197.69 192.82 197.21L196.959 186.081Z" fill="#5B5B5C"/>
<path id="Vector_39" d="M203.391 36.2842H176.688V42.516H203.391V36.2842Z" fill="#2435A1"/>
<path id="Vector_40" d="M182.525 25H197.553C199.102 25 200.586 25.6138 201.681 26.7065C202.776 27.7991 203.391 29.2811 203.391 30.8263V36.2841H176.688V30.8263C176.688 29.2811 177.303 27.7991 178.397 26.7065C179.492 25.6138 180.977 25 182.525 25Z" fill="#F7A845"/>
</g>
</g>
</g>
<defs>
<filter id="filter0_d_318_36852" x="0" y="0" width="255" height="225" filterUnits="userSpaceOnUse" color-interpolation-filters="sRGB">
<feFlood flood-opacity="0" result="BackgroundImageFix"/>
<feColorMatrix in="SourceAlpha" type="matrix" values="0 0 0 0 0 0 0 0 0 0 0 0 0 0 0 0 0 0 127 0" result="hardAlpha"/>
<feOffset dy="4"/>
<feGaussianBlur stdDeviation="2"/>
<feComposite in2="hardAlpha" operator="out"/>
<feColorMatrix type="matrix" values="0 0 0 0 0 0 0 0 0 0 0 0 0 0 0 0 0 0 0.25 0"/>
<feBlend mode="normal" in2="BackgroundImageFix" result="effect1_dropShadow_318_36852"/>
<feBlend mode="normal" in="SourceGraphic" in2="effect1_dropShadow_318_36852" result="shape"/>
</filter>
</defs>
</svg>
