<svg width="267" height="217" viewBox="0 0 267 217" fill="none" xmlns="http://www.w3.org/2000/svg">
<path d="M225.281 197.705C213.161 204.865 197.492 201.81 183.269 203.373C171.25 204.694 160.014 209.427 148.51 212.95C137.005 216.472 124.398 218.785 112.913 215.208C105.023 212.751 98.3689 207.727 90.9439 204.218C81.984 199.984 72.0271 198.009 62.6769 194.599C53.3267 191.188 44.0955 185.844 39.7545 177.354C34.5345 167.144 37.5346 155.015 35.5615 143.842C33.3347 131.232 24.8667 120.344 21.3224 108.003C18.8184 99.2844 21.4165 88.9957 24.4425 80.5354C27.64 71.5956 36.5285 61.5518 45.0935 56.3498C47.8878 54.6527 50.6476 52.9525 53.2868 51.0326C54.4431 50.1913 60.5281 46.5115 60.5281 45.1793C67.3602 38.9963 71.4611 31.1116 77.3979 24.2644C83.5579 17.1599 92.5743 12.5568 102.031 10.2993C110.593 8.22717 119.353 7.08147 128.16 6.88183C137.619 6.73438 146.792 7.5614 155.918 4.50722C157.834 3.866 159.692 3.08125 161.603 2.42396C174.506 -2.01317 191.785 -0.0698025 203.847 5.90422C208.449 8.18378 212.3 11.578 216.012 15.0027C220.616 19.0604 224.641 23.7344 227.971 28.8928C231.019 33.8688 231.984 39.808 235.867 44.4786C238.475 47.6151 241.041 51.0606 243.626 54.0858C247.62 58.7605 253.771 61.007 257.569 66.101C261.392 71.2285 263.211 77.4893 264.469 83.5572C266.081 91.326 266.984 99.2904 266.12 107.164C264.738 119.761 257.686 129.126 250.478 139.377C248.076 142.792 245.662 146.327 244.741 150.326C244.371 152.244 244.145 154.187 244.063 156.138C243.619 161.824 242.094 167.062 240.947 172.572C238.93 182.249 234.519 192.248 225.281 197.705Z" fill="#EFF2FD"/>
<path d="M160.253 168.907C113.093 170.391 65.9342 171.875 18.775 173.36C11.1343 173.6 4.72688 167.142 4.51785 158.933C3.56986 117.511 3.5369 76.0986 4.41899 34.6954C4.61505 26.4865 11.0121 20.0178 18.6531 20.2461C65.8146 21.6552 112.976 23.0642 160.138 24.4732C163.809 24.5894 167.286 26.1557 169.808 28.83C172.33 31.5044 173.694 35.0697 173.601 38.7474C172.788 77.3794 172.818 116.001 173.693 154.611C173.792 158.288 172.434 161.856 169.916 164.534C167.398 167.213 163.924 168.785 160.253 168.907Z" fill="#243976"/>
<path d="M156.409 165.261C109.247 166.67 62.0858 168.079 14.9242 169.488C7.28311 169.716 0.885696 163.238 0.689465 155.017C-0.193925 113.532 -0.160925 72.0577 0.788464 30.5944C0.997801 22.3736 7.40545 15.9051 15.0462 16.1457C62.2054 17.63 109.365 19.1143 156.524 20.5986C160.198 20.7237 163.673 22.2995 166.191 24.9821C168.71 27.6646 170.066 31.236 169.964 34.9165C169.088 73.6087 169.057 112.291 169.872 150.964C169.968 154.645 168.606 158.214 166.083 160.893C163.561 163.571 160.083 165.142 156.409 165.261Z" fill="#864FF1"/>
<path d="M76.5501 18.0814L15.0469 16.1457C7.40613 15.9051 0.998483 22.3736 0.789146 30.5944C0.385285 48.0023 0.122236 65.4104 0 82.8187C4.72804 43.8411 38.6594 18.4663 76.5501 18.0814Z" fill="#9768F3"/>
<path d="M156.524 20.5987C143.864 20.2003 131.204 19.8018 118.544 19.4033C130.559 24.4132 141.046 32.504 148.948 42.8619C174.098 76.1995 134.578 113.871 105.663 126.265C73.0041 140.264 31.5494 142.55 0.134766 123.542C0.247473 134.034 0.432468 144.525 0.68975 155.017C0.885981 163.238 7.2834 169.716 14.9245 169.488C62.086 168.079 109.248 166.67 156.409 165.261C160.083 165.142 163.561 163.571 166.084 160.893C168.606 158.214 169.968 154.645 169.872 150.965C169.057 112.271 169.088 73.5885 169.964 34.9166C170.066 31.2361 168.71 27.6648 166.192 24.9822C163.674 22.2997 160.198 20.7238 156.524 20.5987Z" fill="#602A9F"/>
<path d="M153.868 160.925C108.314 162.201 62.7602 163.477 17.2065 164.753C10.9509 164.928 5.7248 159.626 5.56976 152.909C4.88077 119.388 4.77656 85.8724 5.25715 52.3604C58.3751 53.2591 111.493 54.1578 164.611 55.0564C164.161 86.4508 164.259 117.838 164.904 149.219C164.983 152.235 163.866 155.159 161.798 157.353C159.73 159.546 156.879 160.831 153.868 160.925Z" fill="white"/>
<path d="M118.298 47.3331C97.8253 46.9275 77.3524 46.5218 56.8794 46.1161C56.0804 46.0799 55.2965 45.8862 54.5723 45.5462C53.8481 45.2062 53.198 44.7265 52.6591 44.1347C52.1202 43.5428 51.7031 42.8504 51.4316 42.0969C51.1601 41.3434 51.0396 40.5438 51.077 39.7436C51.0753 38.9426 51.2313 38.1491 51.5361 37.4085C51.8409 36.668 52.2884 35.9948 52.8532 35.4276C53.4179 34.8604 54.0888 34.4103 54.8274 34.103C55.566 33.7957 56.3578 33.6373 57.1576 33.6367C77.6282 34.1463 98.0989 34.6559 118.57 35.1655C120.16 35.2231 121.662 35.9098 122.748 37.0751C123.833 38.2403 124.413 39.7891 124.36 41.3818C124.342 42.9753 123.694 44.4966 122.557 45.6122C121.421 46.7278 119.889 47.3467 118.298 47.3331Z" fill="white"/>
<path d="M164.21 36.3018C164.187 37.0371 163.948 37.7493 163.521 38.3484C163.095 38.9476 162.501 39.4068 161.814 39.6682C161.128 39.9296 160.379 39.9815 159.663 39.8173C158.947 39.653 158.296 39.2801 157.791 38.7454C157.287 38.2108 156.952 37.5384 156.828 36.8132C156.705 36.088 156.799 35.3424 157.098 34.6705C157.397 33.9987 157.888 33.4307 158.51 33.0381C159.131 32.6456 159.854 32.4462 160.589 32.4651C161.577 32.4938 162.513 32.9139 163.192 33.6333C163.87 34.3526 164.237 35.3123 164.21 36.3018Z" fill="white"/>
<path d="M151.739 35.9915C151.712 36.7259 151.47 37.4361 151.041 38.0327C150.612 38.6292 150.017 39.0854 149.33 39.3438C148.643 39.6023 147.896 39.6514 147.181 39.4849C146.466 39.3185 145.817 38.944 145.314 38.4086C144.811 37.8732 144.478 37.2008 144.356 36.4761C144.234 35.7514 144.329 35.0068 144.629 34.3361C144.929 33.6653 145.42 33.0984 146.041 32.7068C146.662 32.3151 147.385 32.1162 148.118 32.135C149.109 32.1664 150.046 32.5902 150.725 33.3132C151.404 34.0363 151.768 34.9995 151.739 35.9915Z" fill="white"/>
<path d="M138.881 35.6711C138.851 36.4045 138.605 37.1127 138.174 37.7065C137.743 38.3003 137.146 38.7534 136.459 39.0087C135.772 39.264 135.025 39.3103 134.311 39.1416C133.598 38.973 132.95 38.5969 132.45 38.0608C131.949 37.5246 131.618 36.8522 131.498 36.1281C131.377 35.404 131.474 34.6604 131.774 33.9908C132.074 33.3212 132.566 32.7555 133.186 32.3647C133.806 31.9738 134.528 31.7754 135.261 31.7942C136.254 31.8284 137.193 32.2559 137.872 32.9827C138.55 33.7096 138.913 34.6765 138.881 35.6711Z" fill="white"/>
<path d="M143.785 137.859L29.9135 139.926C29.5016 113.435 29.4443 86.9486 29.7417 60.4678C67.7016 60.9925 105.662 61.5171 143.621 62.0418C143.338 87.3207 143.392 112.593 143.785 137.859Z" fill="#FF6551"/>
<path d="M141.95 152.085C105.42 152.967 68.8904 153.849 32.3604 154.731C31.7769 154.728 31.2187 154.492 30.8085 154.076C30.3983 153.661 30.1697 153.099 30.1729 152.514C30.1426 151.931 30.3449 151.359 30.7354 150.924C31.126 150.49 31.6727 150.229 32.2554 150.198C68.7869 149.383 105.318 148.567 141.85 147.752C142.42 147.743 142.97 147.961 143.379 148.358C143.788 148.755 144.024 149.299 144.033 149.869C144.05 150.44 143.84 150.994 143.45 151.409C143.059 151.825 142.52 152.068 141.95 152.085Z" fill="#BFBFBF"/>
<path d="M32.255 150.198C31.6784 150.245 31.1415 150.511 30.7544 150.942C30.3672 151.373 30.1591 151.935 30.1725 152.514C30.1859 153.094 30.4199 153.646 30.8265 154.058C31.2332 154.47 31.7818 154.711 32.36 154.731C46.3532 154.394 60.3464 154.056 74.3395 153.718C74.2966 151.935 74.276 151.044 74.2363 149.261L32.255 150.198Z" fill="#2435A1"/>
<path d="M86.3745 122.87C80.7446 122.845 75.3545 120.584 71.3858 116.585C69.1982 114.439 67.459 111.878 66.2694 109.051C65.0799 106.225 64.4638 103.19 64.4571 100.123C64.4504 97.0558 65.0532 94.018 66.2303 91.1865C67.4075 88.355 69.1355 85.7865 71.3137 83.6305C73.2811 81.6302 75.624 80.0392 78.2076 78.9491C80.7913 77.859 83.5646 77.2914 86.3681 77.2788C86.4169 77.2788 86.4651 77.2788 86.5139 77.2798C98.3813 77.3628 108.429 87.7807 108.456 100.027C108.482 112.274 98.4793 122.734 86.6123 122.868C86.5334 122.869 86.4534 122.87 86.3745 122.87ZM86.3686 80.2399C83.9523 80.2536 81.5625 80.7457 79.3367 81.6878C77.1109 82.6299 75.093 84.0035 73.3992 85.7295C71.4979 87.6096 69.9893 89.85 68.9617 92.3201C67.934 94.7903 67.4077 97.4406 67.4136 100.117C67.4194 102.793 67.9573 105.441 68.9958 107.906C70.0342 110.372 71.5525 112.606 73.4621 114.477C76.8791 117.928 81.5228 119.882 86.3755 119.909C86.4432 119.909 86.511 119.908 86.5787 119.908C96.8577 119.791 105.522 110.689 105.499 100.033C105.476 89.3769 96.7725 80.3131 86.4934 80.2399H86.3686Z" fill="white"/>
<path d="M81.9355 92.4834C81.9292 99.0883 81.9373 102.391 81.9757 108.996C87.8014 105.976 90.7167 104.475 96.5518 101.491C90.6987 97.91 87.7753 96.1083 81.9355 92.4834Z" fill="white"/>
<path d="M80.0432 151.356C80.0247 152.371 79.7085 153.359 79.1341 154.196C78.5597 155.032 77.7523 155.682 76.8124 156.062C75.8725 156.443 74.8415 156.539 73.8477 156.338C72.8539 156.137 71.941 155.647 71.2227 154.93C70.5044 154.214 70.0123 153.301 69.8076 152.307C69.603 151.312 69.6947 150.279 70.0715 149.336C70.4483 148.394 71.0935 147.583 71.9268 147.004C72.7602 146.426 73.745 146.105 74.7586 146.083C76.1569 146.083 77.4983 146.637 78.4889 147.626C79.4794 148.614 80.0384 149.956 80.0432 151.356Z" fill="#FF6551"/>
<path d="M77.4094 151.417C77.4003 151.915 77.2454 152.398 76.964 152.808C76.6826 153.218 76.2871 153.537 75.8266 153.723C75.3662 153.91 74.8611 153.957 74.3741 153.858C73.8872 153.76 73.4399 153.52 73.0879 153.169C72.7359 152.818 72.4946 152.371 72.3942 151.884C72.2937 151.397 72.3384 150.891 72.5228 150.429C72.7072 149.967 73.0231 149.569 73.4313 149.286C73.8394 149.002 74.3218 148.845 74.8184 148.833C75.5039 148.833 76.1616 149.104 76.6474 149.589C77.1331 150.073 77.4072 150.731 77.4094 151.417Z" fill="white"/>
<g style="mix-blend-mode:multiply" opacity="0.35">
<path d="M118.42 61.8726C116.974 61.8712 115.541 62.1561 114.204 62.7109C112.868 63.2657 111.654 64.0794 110.633 65.1054C109.611 66.1313 108.802 67.3493 108.251 68.6893C107.701 70.0293 107.421 71.465 107.426 72.914C107.214 105.466 107.577 138.007 108.514 170.535C125.761 169.992 143.007 169.45 160.253 168.907C163.924 168.785 167.398 167.213 169.917 164.534C172.435 161.856 173.793 158.288 173.694 154.611C172.998 123.945 172.817 93.283 173.153 62.6249C154.909 62.3742 136.665 62.1234 118.42 61.8726Z" fill="#3F4D88"/>
</g>
<path d="M255.625 190.517C212.889 189.845 170.153 189.172 127.418 188.5C124.534 188.452 121.787 187.26 119.78 185.186C117.772 183.112 116.667 180.325 116.708 177.437C117.142 140.414 117.154 103.393 116.746 66.3753C116.707 63.487 117.814 60.7011 119.823 58.6286C121.832 56.5561 124.579 55.3662 127.463 55.3196C170.199 54.6763 212.935 54.033 255.671 53.3896C257.124 53.3926 258.561 53.6824 259.901 54.2424C261.242 54.8025 262.459 55.6218 263.482 56.6534C264.506 57.6851 265.317 58.9088 265.868 60.2547C266.419 61.6005 266.699 63.0419 266.693 64.4964C267.115 102.806 267.102 141.114 266.654 179.418C266.659 180.872 266.378 182.314 265.826 183.659C265.274 185.004 264.462 186.228 263.438 187.259C262.414 188.29 261.196 189.108 259.855 189.667C258.515 190.226 257.077 190.515 255.625 190.517Z" fill="#243976"/>
<path d="M252.742 187.444C210.005 186.8 167.269 186.157 124.533 185.514C121.651 185.468 118.903 184.28 116.894 182.208C114.885 180.137 113.778 177.353 113.816 174.465C114.224 137.467 114.212 100.472 113.778 63.4789C113.739 60.5916 114.844 57.8063 116.851 55.7338C118.859 53.6614 121.605 52.4709 124.488 52.4234C167.224 51.751 209.959 51.0786 252.695 50.4062C254.147 50.4077 255.584 50.6959 256.925 51.2544C258.265 51.8129 259.482 52.6307 260.507 53.661C261.531 54.6913 262.343 55.9138 262.895 57.2586C263.447 58.6034 263.729 60.0441 263.724 61.4981C264.172 99.7826 264.185 138.065 263.763 176.344C263.769 177.798 263.488 179.239 262.937 180.584C262.385 181.929 261.575 183.152 260.551 184.183C259.527 185.214 258.311 186.033 256.97 186.592C255.63 187.152 254.193 187.441 252.742 187.444Z" fill="#49B3F7"/>
<path d="M252.694 50.4062L225.046 50.8413C238.869 54.9651 248.785 67.3031 251.055 80.5157C256.592 112.749 194.007 150.317 167.883 156.718C150.567 160.961 131.116 163.569 114.001 156.655C113.942 163.779 113.905 167.341 113.815 174.465C113.778 177.353 114.885 180.137 116.894 182.208C118.903 184.28 121.65 185.468 124.533 185.514C167.269 186.157 210.005 186.8 252.741 187.444C254.193 187.441 255.63 187.152 256.97 186.592C258.31 186.033 259.527 185.214 260.55 184.183C261.574 183.152 262.385 181.929 262.936 180.584C263.487 179.239 263.768 177.798 263.763 176.344C264.185 138.059 264.172 99.7773 263.724 61.4981C263.728 60.0441 263.446 58.6034 262.894 57.2586C262.342 55.9138 261.531 54.6913 260.506 53.661C259.482 52.6308 258.264 51.813 256.924 51.2545C255.584 50.696 254.146 50.4077 252.694 50.4062Z" fill="#378FDD"/>
<path d="M209.99 51.0781C181.489 51.5265 152.989 51.9749 124.488 52.4233C121.605 52.4708 118.859 53.6613 116.851 55.7337C114.844 57.8062 113.739 60.5914 113.778 63.4788C113.986 80.9914 114.11 98.504 114.151 116.016C132.484 80.3338 172.828 60.4982 209.99 51.0781Z" fill="#6CC1F9"/>
<path d="M250.896 183.874C209.424 183.283 167.952 182.691 126.48 182.1C124.119 182.064 121.869 181.091 120.224 179.396C118.578 177.7 117.671 175.419 117.702 173.055C118.039 141.801 118.081 110.548 117.826 79.2962C165.231 78.8444 212.637 78.3924 260.042 77.9404C260.304 110.225 260.261 142.508 259.913 174.788C259.918 175.978 259.688 177.157 259.237 178.258C258.786 179.359 258.123 180.36 257.286 181.204C256.448 182.048 255.453 182.718 254.356 183.176C253.26 183.634 252.084 183.871 250.896 183.874Z" fill="white"/>
<path d="M257.225 62.4895C257.213 63.0855 257.027 63.665 256.689 64.1556C256.351 64.6462 255.876 65.0263 255.324 65.2483C254.771 65.4704 254.166 65.5246 253.583 65.4043C253 65.2839 252.465 64.9943 252.046 64.5716C251.626 64.1489 251.34 63.6117 251.223 63.0272C251.106 62.4427 251.164 61.8366 251.389 61.2847C251.614 60.7327 251.996 60.2593 252.488 59.9236C252.979 59.5878 253.559 59.4045 254.154 59.3965C254.559 59.3976 254.959 59.4785 255.332 59.6345C255.705 59.7906 256.044 60.0187 256.329 60.306C256.614 60.5932 256.84 60.9338 256.994 61.3085C257.147 61.6831 257.226 62.0844 257.225 62.4895Z" fill="white"/>
<path d="M247.062 62.622C247.052 63.2183 246.867 63.7984 246.53 64.2899C246.193 64.7814 245.718 65.1625 245.166 65.3856C244.614 65.6087 244.008 65.664 243.425 65.5444C242.841 65.4248 242.306 65.1358 241.886 64.7133C241.466 64.2909 241.179 63.7538 241.061 63.1691C240.944 62.5844 241.001 61.9781 241.226 61.4258C241.451 60.8735 241.833 60.3997 242.325 60.0636C242.817 59.7276 243.396 59.5441 243.992 59.5361C244.396 59.5368 244.796 59.6171 245.169 59.7725C245.542 59.928 245.88 60.1555 246.165 60.442C246.45 60.7286 246.676 61.0686 246.83 61.4426C246.984 61.8167 247.063 62.2174 247.062 62.622Z" fill="white"/>
<path d="M236.585 62.7582C236.577 63.3548 236.393 63.9356 236.056 64.428C235.72 64.9204 235.246 65.3026 234.694 65.5268C234.142 65.751 233.536 65.8072 232.952 65.6884C232.369 65.5697 231.833 65.2812 231.412 64.8591C230.991 64.4369 230.703 63.8999 230.585 63.3151C230.467 62.7302 230.524 62.1236 230.749 61.5709C230.973 61.0182 231.355 60.544 231.847 60.2077C232.339 59.8713 232.919 59.6877 233.515 59.6797C233.919 59.6798 234.318 59.7596 234.691 59.9144C235.063 60.0692 235.402 60.296 235.687 60.5819C235.972 60.8678 236.198 61.2071 236.352 61.5805C236.507 61.954 236.586 62.3541 236.585 62.7582Z" fill="white"/>
<path d="M217.203 72.929L159.038 73.5548C157.749 73.5622 156.51 73.057 155.593 72.1503C154.676 71.2435 154.156 70.0093 154.147 68.7187C154.126 67.4283 154.616 66.1821 155.511 65.2538C156.407 64.3255 157.633 63.791 158.922 63.7678L217.085 63.0112C217.728 63.0108 218.365 63.1372 218.959 63.3833C219.553 63.6294 220.093 63.9904 220.547 64.4455C221.002 64.9007 221.363 65.4412 221.609 66.0361C221.855 66.631 221.982 67.2686 221.982 67.9125C221.997 68.5563 221.886 69.1968 221.654 69.7974C221.422 70.3979 221.074 70.9469 220.63 71.4127C220.186 71.8786 219.655 72.2523 219.067 72.5125C218.479 72.7727 217.845 72.9142 217.203 72.929Z" fill="white"/>
<path d="M139.528 109.299C138.365 109.294 137.25 108.829 136.428 108.005C135.607 107.181 135.144 106.065 135.141 104.9C135.127 100.93 135.117 98.9463 135.094 94.9768C135.086 93.8098 135.54 92.6873 136.357 91.8552C137.174 91.023 138.287 90.5492 139.452 90.5376L149.31 90.4702H149.34C149.913 90.4691 150.48 90.5814 151.009 90.8007C151.538 91.0201 152.018 91.3421 152.423 91.7482C152.834 92.157 153.16 92.643 153.384 93.1784C153.607 93.7138 153.723 94.2881 153.724 94.8684C153.747 98.8536 153.757 100.847 153.771 104.832C153.775 105.416 153.664 105.994 153.443 106.534C153.222 107.074 152.897 107.565 152.485 107.978C152.081 108.387 151.601 108.712 151.071 108.934C150.541 109.157 149.973 109.271 149.399 109.272L139.54 109.299H139.528ZM149.34 91.8927H149.32L139.461 91.9591C138.672 91.9681 137.919 92.29 137.367 92.8542C136.814 93.4183 136.508 94.1788 136.514 94.9689C136.537 98.9385 136.547 100.924 136.561 104.894C136.562 105.683 136.874 106.439 137.43 106.998C137.986 107.557 138.74 107.872 139.528 107.876L139.536 107.875L149.395 107.848C149.783 107.848 150.167 107.771 150.524 107.621C150.882 107.471 151.206 107.252 151.478 106.975C151.757 106.695 151.978 106.361 152.128 105.994C152.278 105.628 152.354 105.235 152.351 104.838C152.337 100.853 152.327 98.8614 152.304 94.8762C152.303 94.4821 152.225 94.0919 152.073 93.7282C151.921 93.3645 151.699 93.0344 151.42 92.7567C151.147 92.4823 150.823 92.2647 150.466 92.1164C150.109 91.9681 149.726 91.8921 149.34 91.8927Z" fill="#FF6551"/>
<path d="M169.433 109.217C168.266 109.209 167.15 108.739 166.328 107.91C165.506 107.081 165.045 105.961 165.045 104.792C165.031 100.795 165.022 98.7979 164.998 94.801C164.987 93.6307 165.439 92.5036 166.256 91.6668C167.073 90.8299 168.188 90.3515 169.356 90.3364L179.214 90.269C180.379 90.2807 181.495 90.7419 182.328 91.5568C183.159 92.3887 183.626 93.5162 183.629 94.6926C183.652 98.7051 183.661 100.712 183.676 104.725C183.685 105.901 183.228 107.033 182.405 107.873C182.002 108.289 181.52 108.62 180.988 108.846C180.455 109.072 179.882 109.189 179.304 109.19L169.445 109.217H169.433ZM179.244 91.6915H179.224L169.366 91.7589C168.574 91.771 167.819 92.0972 167.266 92.666C166.714 93.2348 166.409 93.9997 166.419 94.7931C166.442 98.7901 166.451 100.789 166.465 104.786C166.463 105.579 166.774 106.339 167.33 106.903C167.886 107.466 168.642 107.787 169.433 107.794L169.441 107.793L179.3 107.767C179.69 107.766 180.076 107.688 180.435 107.535C180.794 107.382 181.119 107.159 181.39 106.879C181.951 106.305 182.262 105.533 182.256 104.731C182.241 100.718 182.232 98.7129 182.208 94.7004C182.207 93.8982 181.889 93.1291 181.323 92.5613C181.051 92.2855 180.727 92.0666 180.371 91.9172C180.014 91.7679 179.631 91.6912 179.244 91.6915Z" fill="#FF6551"/>
<path d="M199.337 109.136C198.167 109.125 197.049 108.651 196.226 107.817C195.404 106.983 194.945 105.857 194.948 104.685C194.934 100.661 194.924 98.6494 194.901 94.6252C194.886 93.4516 195.337 92.32 196.153 91.4784C196.97 90.6368 198.087 90.1538 199.258 90.1352L209.116 90.0679H209.146C209.721 90.0672 210.29 90.1816 210.82 90.4042C211.35 90.6268 211.83 90.9533 212.232 91.3644C213.063 92.2031 213.529 93.3358 213.531 94.5168C213.555 98.5567 213.564 100.578 213.578 104.617C213.588 105.799 213.132 106.936 212.31 107.783C211.908 108.201 211.426 108.534 210.893 108.762C210.36 108.989 209.786 109.107 209.207 109.108L199.348 109.136L199.337 109.136ZM209.146 91.4903H209.126L199.268 91.5577C198.473 91.5734 197.716 91.9042 197.163 92.4777C196.611 93.0512 196.308 93.8206 196.321 94.6174C196.344 98.6416 196.354 100.655 196.368 104.679C196.363 105.475 196.672 106.24 197.228 106.809C197.785 107.377 198.543 107.702 199.337 107.712H199.345L209.203 107.685C209.593 107.684 209.979 107.605 210.338 107.451C210.697 107.297 211.021 107.073 211.292 106.791C211.854 106.21 212.165 105.432 212.158 104.623C212.144 100.583 212.134 98.5645 212.111 94.5246C212.11 93.7158 211.791 92.9399 211.223 92.365C210.953 92.0881 210.63 91.868 210.273 91.7178C209.916 91.5676 209.533 91.4903 209.146 91.4903Z" fill="#FF6551"/>
<path d="M229.24 109.054C228.067 109.039 226.947 108.56 226.125 107.721C225.303 106.883 224.846 105.753 224.853 104.577C224.838 100.526 224.829 98.501 224.805 94.4494C224.787 93.2723 225.236 92.136 226.053 91.2894C226.869 90.4427 227.988 89.9547 229.163 89.9321L239.021 89.8667L239.051 89.8657C239.626 89.8656 240.196 89.9811 240.727 90.2055C241.257 90.4298 241.737 90.7585 242.139 91.172C242.969 92.0175 243.434 93.1553 243.436 94.341C243.46 98.4082 243.469 100.443 243.483 104.51C243.489 105.108 243.375 105.702 243.15 106.256C242.925 106.81 242.592 107.314 242.17 107.739C241.771 108.145 241.295 108.468 240.769 108.689C240.244 108.91 239.68 109.025 239.111 109.026L229.253 109.054L229.24 109.054ZM239.05 91.2882H239.031L229.173 91.3546C228.374 91.3743 227.615 91.7101 227.063 92.2886C226.51 92.8672 226.209 93.6413 226.225 94.4416C226.249 98.4932 226.259 100.52 226.273 104.572C226.264 105.371 226.571 106.141 227.127 106.714C227.683 107.287 228.443 107.617 229.24 107.631L229.249 107.63L239.108 107.603C239.491 107.602 239.869 107.525 240.222 107.376C240.575 107.227 240.895 107.009 241.163 106.735C241.452 106.443 241.681 106.097 241.835 105.716C241.99 105.335 242.067 104.927 242.063 104.516C242.049 100.449 242.039 98.416 242.015 94.3488C242.015 93.5339 241.696 92.7515 241.126 92.1698C240.856 91.8911 240.534 91.6694 240.177 91.518C239.821 91.3665 239.437 91.2884 239.05 91.2882Z" fill="#FF6551"/>
<path d="M144.098 106.699L142.943 105.544C138.917 101.513 136.901 99.5027 132.865 95.4892L134.866 93.4702C138.5 97.0835 140.498 99.0751 143.796 102.376C147.75 97.1274 150.024 94.0931 154.249 88.4307L156.525 90.1333C151.958 96.2536 149.668 99.3065 145.081 105.395L144.098 106.699Z" fill="#2435A1"/>
<path d="M135.851 136.47L135.84 139.315L242.762 139.746L242.774 136.9L135.851 136.47Z" fill="#BFBFBF"/>
<path d="M135.796 147.484L135.777 150.33L242.699 151.033L242.718 148.187L135.796 147.484Z" fill="#BFBFBF"/>
<path d="M135.713 158.5L135.688 161.345L242.607 162.319L242.633 159.473L135.713 158.5Z" fill="#BFBFBF"/>
<path d="M135.603 169.514L135.57 172.36L242.487 173.603L242.52 170.758L135.603 169.514Z" fill="#BFBFBF"/>
<path d="M141.627 123.776C141.181 125.251 140.958 125.988 140.511 127.463C139.538 127.461 139.051 127.46 138.078 127.459C139.742 122.259 140.57 119.657 142.218 114.447C143.421 114.445 144.023 114.445 145.226 114.443C146.912 119.652 147.751 122.258 149.421 127.477C148.402 127.476 147.892 127.475 146.873 127.473C146.407 125.995 146.175 125.256 145.708 123.779C144.076 123.778 143.259 123.777 141.627 123.776ZM145.326 121.981C144.92 120.698 144.717 120.056 144.31 118.773C144.061 117.981 143.85 117.092 143.657 116.338L143.619 116.338C143.428 117.092 143.218 118 143.008 118.773C142.61 120.056 142.41 120.698 142.011 121.98L145.326 121.981Z" fill="#49B3F7"/>
<path d="M177.877 114.397C177.878 115.184 177.878 115.577 177.879 116.364C175.625 116.366 174.499 116.367 172.246 116.369C172.247 117.497 172.247 118.061 172.247 119.189C172.775 119.126 173.306 119.093 173.838 119.092C175.073 119.066 176.288 119.411 177.325 120.083C177.83 120.44 178.239 120.917 178.513 121.471C178.787 122.026 178.919 122.64 178.895 123.258C178.917 123.801 178.824 124.341 178.622 124.844C178.42 125.348 178.114 125.803 177.724 126.179C176.312 127.248 174.563 127.771 172.797 127.651C171.83 127.653 170.864 127.593 169.904 127.471C169.913 122.246 169.913 119.634 169.906 114.408L177.877 114.397ZM172.244 125.763C172.657 125.823 173.073 125.85 173.49 125.843C174.321 125.876 175.132 125.583 175.751 125.028C175.971 124.801 176.143 124.533 176.258 124.239C176.374 123.945 176.43 123.631 176.423 123.315C176.436 122.969 176.365 122.625 176.214 122.313C176.064 122.001 175.84 121.73 175.562 121.524C174.931 121.093 174.179 120.875 173.416 120.901C173.052 120.901 172.631 120.94 172.247 120.978C172.247 122.892 172.247 123.849 172.244 125.763Z" fill="#49B3F7"/>
<path d="M199.818 114.563C200.956 114.359 202.11 114.259 203.267 114.264C204.549 114.169 205.831 114.461 206.946 115.103C207.363 115.369 207.705 115.737 207.94 116.173C208.175 116.608 208.296 117.096 208.29 117.591C208.277 118.231 208.062 118.85 207.677 119.36C207.292 119.871 206.756 120.247 206.145 120.434V120.493C206.887 120.654 207.55 121.065 208.025 121.658C208.499 122.251 208.755 122.989 208.75 123.749C208.757 124.268 208.65 124.783 208.438 125.257C208.226 125.731 207.913 126.153 207.521 126.493C206.607 127.296 205.085 127.705 202.709 127.701C201.742 127.702 200.776 127.642 199.816 127.52C199.825 122.337 199.825 119.746 199.818 114.563ZM202.16 119.769L203.367 119.769C205.015 119.769 205.915 118.985 205.915 117.867C205.914 116.613 204.994 116.045 203.499 116.047C203.049 116.032 202.6 116.065 202.158 116.146C202.159 117.595 202.159 118.32 202.16 119.769V119.769ZM202.156 125.82C202.569 125.876 202.986 125.896 203.402 125.881C204.915 125.882 206.277 125.316 206.278 123.688C206.279 122.14 204.957 121.512 203.328 121.512L202.159 121.511C202.159 123.235 202.158 124.097 202.156 125.82V125.82Z" fill="#49B3F7"/>
<path d="M239.062 114.313C239.063 115.111 239.064 115.51 239.065 116.308C237.057 116.309 236.053 116.31 234.045 116.312C234.049 120.833 234.048 123.094 234.041 127.614L231.684 127.61C231.692 122.296 231.692 119.638 231.685 114.324C234.636 114.32 236.111 114.318 239.062 114.313Z" fill="#49B3F7"/>
</svg>
