<svg width="256" height="225" viewBox="0 0 256 225" fill="none" xmlns="http://www.w3.org/2000/svg">
<g id="pic4" filter="url(#filter0_d_318_36904)">
<g id="pic4_2">
<g id="Group">
<path id="Vector" d="M209.648 197.705C197.488 204.865 181.766 201.81 167.496 203.373C155.437 204.694 144.164 209.427 132.621 212.95C121.078 216.472 108.429 218.785 96.9054 215.208C88.9892 212.751 82.3128 207.727 74.8631 204.218C65.8733 199.984 55.8831 198.009 46.5018 194.599C37.1204 191.188 27.8584 185.844 23.5029 177.354C18.2655 167.144 21.2756 155.015 19.296 143.842C17.0617 131.232 8.56551 120.344 5.00939 108.003C2.49695 99.2844 5.10376 88.9957 8.13984 80.5354C11.348 71.5956 20.2661 61.5518 28.8597 56.3498C31.6634 54.6527 34.4323 52.9525 37.0803 51.0326C38.2405 50.1913 44.3458 46.5115 44.3458 45.1793C51.2007 38.9963 55.3152 31.1116 61.2719 24.2644C67.4524 17.1599 76.4989 12.5568 85.9868 10.2993C94.578 8.22717 103.367 7.08147 112.203 6.88183C121.693 6.73438 130.897 7.5614 140.054 4.50722C141.976 3.866 143.841 3.08125 145.758 2.42396C158.704 -2.01317 176.04 -0.0698025 188.142 5.90422C192.76 8.18378 196.624 11.578 200.348 15.0027C204.968 19.0604 209.006 23.7344 212.347 28.8928C215.405 33.8688 216.374 39.808 220.27 44.4786C222.886 47.6151 225.461 51.0606 228.054 54.0858C232.062 58.7605 238.233 61.007 242.044 66.101C245.88 71.2285 247.704 77.4893 248.967 83.5572C250.584 91.326 251.49 99.2904 250.624 107.164C249.237 119.761 242.162 129.126 234.929 139.377C232.52 142.792 230.098 146.327 229.173 150.326C228.802 152.244 228.575 154.187 228.493 156.138C228.047 161.824 226.518 167.062 225.366 172.572C223.343 182.249 218.917 192.248 209.648 197.705Z" fill="#EFF2FD"/>
<g id="Group_2">
<path id="Vector_2" d="M51.001 70.9429L50.8873 66.8025C50.871 66.2136 51.2192 65.7324 51.6546 65.7418L79.0707 66.3398C79.4843 66.3488 79.824 66.7989 79.8394 67.3584L80.0008 73.2346L51.001 70.9429Z" fill="#545554"/>
<path id="Vector_3" d="M82.2524 71.8248L82.0561 67.5784C82.0316 67.0494 82.3365 66.6111 82.7279 66.6123L110.306 66.6986C110.678 66.6998 110.991 67.0986 111.014 67.6011L111.29 73.5747L82.2524 71.8248Z" fill="#545554"/>
<path id="Vector_4" d="M111.958 176.792L112.398 181.02C112.453 181.547 112.174 182.002 111.783 182.023L84.2459 183.52C83.8746 183.54 83.5392 183.16 83.4871 182.659L82.8672 176.711L111.958 176.792Z" fill="#545554"/>
<path id="Vector_5" d="M31.9199 181.808L33.7397 181.747L39.8999 181.54L60.1943 180.864L115.245 179.016L158.018 177.587L163.894 177.392H163.898L220.251 175.502V71.8845L219.152 71.8686L170.839 71.3027L71.9089 70.133L66.7712 70.0721L31.9199 69.6592V181.808Z" fill="#5B5B5C"/>
<path id="Vector_6" d="M212.45 170L39.7266 175.609V75.8564L212.45 77.8349V170Z" fill="#49B3F7"/>
<path id="Vector_7" d="M42.6719 143.204V113.16C42.6719 111.915 41.6612 110.906 40.4145 110.906H38.9096C37.6629 110.906 36.6522 111.915 36.6522 113.16V143.204C36.6522 144.449 37.6629 145.458 38.9096 145.458H40.4145C41.6612 145.458 42.6719 144.449 42.6719 143.204Z" fill="#5B5B5C"/>
<g id="Group_3">
<g id="Vector_8" style="mix-blend-mode:multiply" opacity="0.15">
<path d="M118.516 178.907L220.252 175.502V101.958C207.767 125.733 183.197 155.49 118.516 178.907Z" fill="#00879F"/>
</g>
<g id="Vector_9" style="mix-blend-mode:screen" opacity="0.28">
<path d="M31.9199 181.808L33.7395 181.747C84.9301 142.788 135.123 101.959 170.839 71.303L31.9199 69.6587V181.808Z" fill="#BFE6F6"/>
</g>
</g>
</g>
<g id="Group_4">
<g id="Group_5">
<path id="Vector_10" d="M248.705 157.482C189.584 158.402 130.463 159.253 71.3403 160.037C70.4138 160.009 69.5361 159.617 68.8987 158.945C68.2613 158.273 67.9161 157.377 67.9384 156.452C67.3482 116.104 67.2985 75.7571 67.7894 35.4124C67.7647 34.4877 68.1078 33.5907 68.7436 32.9177C69.3794 32.2446 70.2562 31.8501 71.1825 31.8203C130.306 32.4759 189.429 33.191 248.552 33.9655C249.459 33.998 250.316 34.3885 250.935 35.0513C251.554 35.7141 251.884 36.595 251.853 37.5007C251.381 76.3165 251.429 115.129 251.998 153.939C252.031 154.844 251.703 155.726 251.086 156.39C250.468 157.055 249.612 157.447 248.705 157.482Z" fill="#243976"/>
<path id="Vector_11" d="M161.242 161.607C159.511 161.633 158.646 161.646 156.915 161.672C154.855 161.632 152.896 160.778 151.466 159.298C150.036 157.818 149.252 155.832 149.287 153.776C149.275 153.51 149.315 153.245 149.405 152.995C149.496 152.745 149.634 152.515 149.814 152.318C149.993 152.121 150.209 151.962 150.45 151.849C150.691 151.736 150.952 151.671 151.218 151.659C157.384 151.58 160.467 151.54 166.632 151.46C167.169 151.471 167.68 151.693 168.053 152.079C168.426 152.465 168.631 152.982 168.622 153.519C168.716 155.568 167.991 157.57 166.608 159.086C165.224 160.603 163.294 161.509 161.242 161.607Z" fill="#243976"/>
</g>
<g id="Group_6">
<path id="Vector_12" d="M246.357 154.317C187.236 155.191 128.114 156 68.9908 156.745C68.0642 156.716 67.1866 156.323 66.5497 155.651C65.9128 154.978 65.5684 154.081 65.5917 153.156C65.0314 112.79 65.0118 72.426 65.533 32.0644C65.5088 31.1393 65.8524 30.2423 66.4887 29.5694C67.1249 28.8964 68.0021 28.5021 68.9287 28.4727C128.052 29.1637 187.175 29.9175 246.297 30.7342C247.204 30.7677 248.061 31.1592 248.68 31.8228C249.298 32.4864 249.628 33.3678 249.596 34.2736C249.094 73.1099 249.113 111.943 249.653 150.774C249.685 151.68 249.357 152.562 248.739 153.226C248.121 153.89 247.264 154.283 246.357 154.317Z" fill="#864FF1"/>
<path id="Vector_13" d="M158.89 158.378C158.079 158.389 157.673 158.395 156.862 158.407C154.802 158.366 152.843 157.511 151.414 156.029C149.986 154.548 149.204 152.562 149.24 150.506C149.216 149.969 149.405 149.445 149.768 149.048C150.13 148.652 150.635 148.415 151.173 148.39C156.419 148.327 159.042 148.295 164.288 148.23C164.825 148.241 165.336 148.465 165.709 148.851C166.082 149.237 166.286 149.755 166.277 150.291C166.369 152.34 165.643 154.343 164.259 155.859C162.874 157.375 160.943 158.281 158.89 158.378Z" fill="#864FF1"/>
<path id="Vector_14" d="M246.357 154.317C216.512 154.758 186.666 155.184 156.82 155.594C156.203 113.574 156.183 71.5564 156.759 29.5415C186.605 29.9242 216.451 30.3217 246.297 30.7339C247.204 30.7675 248.061 31.159 248.679 31.8226C249.298 32.4862 249.627 33.3676 249.595 34.2734C249.093 73.1097 249.112 111.943 249.652 150.774C249.685 151.68 249.357 152.562 248.739 153.226C248.121 153.89 247.264 154.282 246.357 154.317Z" fill="#864FF1"/>
</g>
<path id="Vector_15" d="M245.275 148.519C187.466 149.295 129.656 150.016 71.8453 150.68C70.6963 109.954 70.0988 69.2224 70.0527 28.4856C71.5017 25.3654 72.2276 23.8062 73.6819 20.6899C101.817 29.4061 129.989 38.0018 158.196 46.4768C186.524 38.5419 214.893 30.7592 243.304 23.1286C244.498 26.1731 245.096 27.6942 246.296 30.7341C245.417 69.9939 245.076 109.256 245.275 148.519Z" fill="#ECB891"/>
<g id="Group_7">
<g id="Group_8">
<path id="Vector_16" d="M73.6834 20.6899C73.0242 63.26 72.9676 105.828 73.5136 148.393C101.792 148.08 130.07 147.755 158.348 147.418C157.852 108.497 157.865 69.5785 158.386 30.6627C158.49 28.4029 157.692 26.1943 156.166 24.5213C154.641 22.8484 152.513 21.8478 150.249 21.739C124.727 21.3775 99.2054 21.0278 73.6834 20.6899Z" fill="#FFF2EA"/>
<path id="Vector_17" d="M149.986 139.593C124.463 139.853 98.9399 140.105 73.4168 140.349C73.4168 140.349 72.2851 147.085 71.8477 150.68C99.4583 150.374 130.623 150.074 158.307 149.645V147.418C158.14 145.316 157.196 143.351 155.658 141.904C154.12 140.458 152.098 139.634 149.986 139.593Z" fill="#FFD7BD"/>
</g>
<g id="Group_9">
<path id="Vector_18" d="M243.306 23.1286C242.665 64.2078 242.61 105.285 243.14 146.36C214.862 146.724 186.585 147.077 158.306 147.418C157.81 108.497 157.823 69.5783 158.344 30.6621C158.306 28.3993 159.169 26.2138 160.743 24.5852C162.317 22.9567 164.475 22.0183 166.741 21.9761C192.263 22.3484 217.784 22.7326 243.306 23.1286Z" fill="#FFE0CC"/>
<path id="Vector_19" d="M158.345 30.6619C157.823 69.5831 157.81 108.502 158.307 147.418C159.792 144.797 160.536 143.487 162.025 140.87C161.577 101.681 161.652 62.4964 162.251 23.3149C162.251 23.3149 158.788 24.5662 158.345 30.6619Z" fill="#FFCFB3"/>
<path id="Vector_20" d="M166.476 139.423C191.999 139.155 217.522 138.88 243.044 138.597L245.275 148.519C217.012 148.884 186.612 147.077 158.348 147.418C158.461 145.313 159.357 143.327 160.861 141.848C162.364 140.37 164.367 139.505 166.476 139.423Z" fill="#ECB891"/>
<path id="Vector_21" d="M243.475 140.433C226.256 141.155 208.639 141.878 191.42 142.604C208.65 142.767 226.852 142.923 244.082 143.072L243.475 140.433Z" fill="#DA9E7B"/>
<path id="Vector_22" d="M244.513 145.124C231.773 145.657 218.205 146.193 205.465 146.729C218.213 146.85 232.203 146.966 244.951 147.076L244.513 145.124Z" fill="#DA9E7B"/>
<path id="Vector_23" d="M73.1925 141.704C93.5901 141.954 114.246 142.193 134.644 142.421C114.257 143.093 93.1641 143.613 72.7773 144.285L73.1925 141.704Z" fill="#ECB891"/>
<path id="Vector_24" d="M72.4425 146.443C86.9913 146.621 102.548 146.791 117.097 146.954C102.556 147.434 86.6954 147.914 72.1543 148.393L72.4425 146.443Z" fill="#ECB891"/>
</g>
</g>
<g id="Group_10">
<g id="Group_11">
<path id="Vector_25" d="M90.6575 132.167C90.3475 98.3473 90.4199 64.0368 90.8707 30.189L92.4023 30.2085C91.9515 64.0456 91.8801 98.3444 92.1891 132.153L90.6575 132.167Z" fill="#49B3F7"/>
<path id="Vector_26" d="M131.403 131.829C131.094 98.2537 131.166 64.2195 131.615 30.6733L133.146 30.6929C132.698 64.2283 132.627 98.2508 132.934 131.816L131.403 131.829Z" fill="#49B3F7"/>
<path id="Vector_27" d="M151.334 43.7949C127.536 43.5625 103.739 43.3366 79.9414 43.1172L79.9551 41.5879C103.753 41.8066 127.552 42.0326 151.349 42.2656L151.334 43.7949Z" fill="#49B3F7"/>
<path id="Vector_28" d="M151.172 62.5405C127.373 62.3999 103.575 62.2635 79.7773 62.1313L79.7852 60.6021C103.584 60.7339 127.382 60.8703 151.181 61.0112L151.172 62.5405Z" fill="#49B3F7"/>
<path id="Vector_29" d="M79.7022 79.6157L79.6992 81.145L151.095 81.2846L151.098 79.7553L79.7022 79.6157Z" fill="#49B3F7"/>
<path id="Vector_30" d="M151.092 98.5193L79.6953 98.6104L79.6973 100.14L151.094 100.049L151.092 98.5193Z" fill="#49B3F7"/>
<path id="Vector_31" d="M79.7793 119.172L79.7715 117.643C103.57 117.514 127.368 117.381 151.166 117.244L151.175 118.773C127.376 118.91 103.577 119.043 79.7793 119.172Z" fill="#49B3F7"/>
</g>
<g id="Group_12">
<path id="Vector_32" d="M139.67 61.0142C138.352 61.0042 137.068 60.5916 135.991 59.8319C135.867 59.7456 135.762 59.6359 135.681 59.5089C135.599 59.382 135.544 59.2403 135.518 59.092C135.464 58.7924 135.533 58.4841 135.707 58.2347C135.882 57.9854 136.148 57.8155 136.448 57.7624C136.749 57.7093 137.057 57.7773 137.307 57.9516C137.779 58.2973 138.321 58.5336 138.896 58.643C139.47 58.7525 140.062 58.7324 140.628 58.5842C141.177 58.4099 141.673 58.0966 142.065 57.6748C142.458 57.2529 142.735 56.7368 142.868 56.1767C142.937 55.8539 142.912 55.5182 142.796 55.2091C142.68 54.9 142.479 54.6301 142.215 54.4311C141.618 53.8949 140.914 53.4907 140.149 53.2449C139.385 52.9991 138.577 52.9173 137.779 53.0048C137.592 53.052 137.396 53.0516 137.21 53.0035C137.023 52.9555 136.852 52.8613 136.711 52.7297C136.57 52.5982 136.465 52.4334 136.405 52.2506C136.345 52.0679 136.332 51.873 136.367 51.6838C136.691 50.2238 136.844 48.7312 136.823 47.2359C136.816 47.0766 136.842 46.9175 136.899 46.7688C136.957 46.62 137.045 46.4849 137.158 46.3719C137.269 46.2572 137.404 46.1679 137.553 46.11C137.702 46.052 137.862 46.0268 138.022 46.036L143.771 46.2899C144.076 46.3033 144.362 46.437 144.568 46.6615C144.774 46.8859 144.882 47.1828 144.868 47.4868C144.855 47.7908 144.721 48.077 144.496 48.2824C144.271 48.4878 143.974 48.5957 143.669 48.5822L139.12 48.3811C139.082 49.1443 139.001 49.9047 138.878 50.6588C140.714 50.8037 142.45 51.551 143.816 52.7842C144.356 53.2606 144.76 53.8709 144.988 54.5533C145.216 55.2358 145.26 55.9662 145.114 56.6708C144.84 57.9066 144.151 59.0115 143.16 59.8017C142.17 60.592 140.938 61.0199 139.67 61.0143L139.67 61.0142Z" fill="#FF6551"/>
<path id="Vector_33" d="M153.589 54.002H153.581L147.315 53.9531C147.012 53.9506 146.721 53.828 146.507 53.6121C146.294 53.3963 146.175 53.1047 146.176 52.8013C146.177 52.4979 146.298 52.2072 146.514 51.993C146.729 51.7788 147.02 51.6584 147.324 51.6582H147.333L153.598 51.707C153.902 51.7096 154.193 51.8322 154.406 52.048C154.62 52.2639 154.739 52.5554 154.738 52.8589C154.737 53.1623 154.615 53.4529 154.4 53.6671C154.185 53.8814 153.893 54.0018 153.589 54.002Z" fill="#FF6551"/>
<path id="Vector_34" d="M150.315 57.4371H150.306C150.156 57.436 150.006 57.4052 149.867 57.3464C149.728 57.2877 149.602 57.2023 149.496 57.0949C149.39 56.9876 149.307 56.8605 149.25 56.7209C149.193 56.5812 149.165 56.4318 149.166 56.2812L149.224 49.5009C149.224 49.3498 149.254 49.2001 149.312 49.0607C149.37 48.9214 149.456 48.795 149.564 48.6892C149.672 48.5833 149.8 48.5001 149.941 48.4443C150.082 48.3886 150.232 48.3614 150.384 48.3645C150.535 48.3659 150.684 48.397 150.823 48.4559C150.962 48.5149 151.087 48.6005 151.193 48.7081C151.299 48.8156 151.382 48.9428 151.439 49.0825C151.495 49.2223 151.524 49.3717 151.522 49.5224L151.464 56.2988C151.462 56.6015 151.34 56.891 151.125 57.1042C150.91 57.3175 150.619 57.4371 150.315 57.4371Z" fill="#FF6551"/>
</g>
<path id="Vector_35" d="M141.71 98.6323C140.407 98.6222 139.136 98.2196 138.066 97.4774C137.816 97.3046 137.644 97.0398 137.589 96.741C137.534 96.4423 137.6 96.1339 137.773 95.8837C137.945 95.6334 138.21 95.4617 138.509 95.4061C138.808 95.3506 139.118 95.4157 139.369 95.5873C139.843 95.9294 140.387 96.1614 140.962 96.2663C141.538 96.3712 142.129 96.3463 142.694 96.1936C143.242 96.0156 143.734 95.6989 144.123 95.2744C144.512 94.8499 144.784 94.3321 144.913 93.7714C144.978 93.4481 144.95 93.113 144.831 92.8052C144.713 92.4973 144.509 92.2294 144.244 92.0326C143.643 91.5002 142.935 91.101 142.168 90.8612C141.401 90.6214 140.592 90.5465 139.794 90.6414C139.608 90.69 139.412 90.6911 139.225 90.6445C139.039 90.5979 138.866 90.5051 138.725 90.3747C138.583 90.2444 138.477 90.0805 138.415 89.8984C138.354 89.7162 138.339 89.5215 138.373 89.3322C138.684 87.8701 138.825 86.3768 138.791 84.8823C138.782 84.723 138.806 84.5636 138.862 84.4143C138.919 84.265 139.006 84.129 139.117 84.0152C139.229 83.9013 139.364 83.812 139.512 83.753C139.661 83.6941 139.82 83.6667 139.98 83.6727L145.732 83.8826C145.883 83.888 146.031 83.9231 146.168 83.9857C146.305 84.0484 146.429 84.1374 146.532 84.2478C146.634 84.3581 146.714 84.4876 146.767 84.6288C146.819 84.77 146.843 84.9202 146.838 85.0708C146.822 85.3731 146.689 85.6574 146.467 85.8635C146.245 86.0696 145.951 86.1813 145.648 86.1749L141.097 86.009C141.066 86.7718 140.992 87.5322 140.875 88.2867C142.712 88.4169 144.455 89.1501 145.831 90.372C146.376 90.8436 146.785 91.4504 147.019 92.1308C147.253 92.8112 147.302 93.5412 147.163 94.2469C146.898 95.4924 146.211 96.6087 145.218 97.4075C144.224 98.2064 142.986 98.639 141.71 98.6324L141.71 98.6323Z" fill="#FF6551"/>
<path id="Vector_36" d="M125.803 56.8276H125.792L98.209 56.6362C97.8035 56.6333 97.4158 56.47 97.1306 56.1822C96.8454 55.8944 96.6861 55.5055 96.6875 55.1006C96.6889 54.6957 96.851 54.3079 97.1382 54.0221C97.4254 53.7363 97.8143 53.5758 98.2198 53.5757H98.2305L125.814 53.7671C126.22 53.7696 126.608 53.9327 126.893 54.2205C127.179 54.5084 127.338 54.8976 127.337 55.3027C127.336 55.7079 127.173 56.0959 126.886 56.3818C126.598 56.6676 126.209 56.828 125.803 56.8276H125.803Z" fill="#F4C6B1"/>
<path id="Vector_37" d="M98.078 94.4312C97.6722 94.4303 97.2834 94.2687 96.9967 93.9819C96.71 93.6952 96.549 93.3066 96.5488 92.9014C96.5487 92.4962 96.7095 92.1075 96.996 91.8205C97.2825 91.5336 97.6712 91.3718 98.077 91.3706L125.661 91.356H125.662C126.068 91.3569 126.457 91.5184 126.744 91.8052C127.03 92.092 127.191 92.4806 127.192 92.8857C127.192 93.2909 127.031 93.6796 126.744 93.9666C126.458 94.2535 126.069 94.4153 125.663 94.4165L98.079 94.4312H98.078Z" fill="#F4C6B1"/>
</g>
<g id="Group_13">
<g id="Group_14">
<path id="Vector_38" d="M175.57 131.448C175.263 98.1661 175.334 64.4452 175.781 31.2202L177.312 31.2417C176.866 64.4539 176.796 98.1641 177.102 131.434L175.57 131.448Z" fill="#47A7E5"/>
<path id="Vector_39" d="M216.317 131.082C216.015 98.1252 216.085 64.705 216.525 31.7485L218.057 31.7681C217.618 64.7138 217.547 98.1222 217.848 131.068L216.317 131.082Z" fill="#47A7E5"/>
<path id="Vector_40" d="M236.244 44.668C212.446 44.415 188.649 44.1689 164.852 43.9297L164.867 42.4004C188.665 42.6387 212.462 42.8848 236.259 43.1387L236.244 44.668Z" fill="#47A7E5"/>
<path id="Vector_41" d="M236.088 63.0684C212.289 62.915 188.491 62.7663 164.693 62.6221L164.703 61.0928C188.501 61.2373 212.299 61.3861 236.097 61.5391L236.088 63.0684Z" fill="#47A7E5"/>
<path id="Vector_42" d="M164.617 79.7842L164.613 81.3135L236.008 81.4668L236.012 79.9374L164.617 79.7842Z" fill="#47A7E5"/>
<path id="Vector_43" d="M236.006 98.315L164.611 98.4971L164.615 100.026L236.01 99.8443L236.006 98.315Z" fill="#47A7E5"/>
<path id="Vector_44" d="M164.695 118.696L164.686 117.167C188.484 117.026 212.282 116.882 236.081 116.735L236.091 118.264C212.292 118.412 188.494 118.555 164.695 118.696Z" fill="#47A7E5"/>
</g>
<path id="Vector_45" d="M228.998 80.2278H228.965C228.814 80.2235 228.666 80.1897 228.528 80.1281C228.39 80.0666 228.266 79.9785 228.162 79.869C228.058 79.7595 227.977 79.6307 227.923 79.4899C227.869 79.3491 227.844 79.199 227.848 79.0484C227.907 76.9435 227.967 74.7938 228.083 72.6225C227.084 72.5571 226.072 72.5922 225.016 72.6283C224.268 72.6518 223.516 72.6733 222.757 72.6683C222.575 72.6661 222.397 72.6212 222.237 72.5372C222.077 72.4533 221.938 72.3327 221.833 72.1853C221.729 72.0379 221.66 71.8678 221.633 71.6889C221.607 71.5101 221.623 71.3275 221.681 71.1561C222.361 69.1218 222.628 66.9723 222.466 64.8336C222.443 64.5303 222.541 64.2303 222.74 63.9994C222.938 63.7685 223.221 63.6258 223.524 63.6025C223.828 63.5792 224.129 63.6773 224.36 63.8752C224.592 64.0731 224.735 64.3546 224.759 64.6579C224.903 66.569 224.748 68.4909 224.3 70.3545C224.514 70.3487 224.726 70.3419 224.939 70.335C225.977 70.2999 227.04 70.2657 228.121 70.3262L228.399 68.3356C228.44 68.0384 228.597 67.7693 228.835 67.5859C229.072 67.4025 229.373 67.3194 229.671 67.3544C229.97 67.3894 230.243 67.5397 230.432 67.7731C230.62 68.0065 230.71 68.3044 230.682 68.6031C230.341 72.1372 230.242 75.6831 230.147 79.1128C230.138 79.4112 230.013 79.6945 229.799 79.9027C229.585 80.1108 229.297 80.2274 228.998 80.2278Z" fill="#ED614E"/>
<path id="Vector_46" d="M226.674 116.962C225.386 116.953 224.128 116.565 223.06 115.846C222.806 115.677 222.63 115.414 222.571 115.116C222.511 114.817 222.573 114.507 222.743 114.254C222.912 114.001 223.175 113.826 223.474 113.767C223.773 113.707 224.083 113.769 224.337 113.938C224.817 114.274 225.365 114.5 225.943 114.601C226.52 114.702 227.113 114.674 227.679 114.521C228.22 114.349 228.708 114.04 229.094 113.624C229.481 113.208 229.753 112.699 229.883 112.147C229.944 111.841 229.916 111.524 229.804 111.233C229.691 110.942 229.498 110.689 229.247 110.504C228.634 109.975 227.916 109.58 227.141 109.343C226.367 109.105 225.551 109.031 224.746 109.125C224.559 109.173 224.364 109.174 224.177 109.128C223.991 109.081 223.819 108.988 223.677 108.858C223.536 108.728 223.429 108.564 223.367 108.382C223.306 108.201 223.291 108.006 223.324 107.817C223.629 106.384 223.763 104.92 223.723 103.456C223.713 103.296 223.737 103.137 223.792 102.987C223.848 102.838 223.934 102.701 224.045 102.587C224.275 102.362 224.585 102.237 224.907 102.239L230.658 102.422C230.809 102.427 230.957 102.461 231.095 102.523C231.232 102.585 231.356 102.674 231.46 102.783C231.563 102.893 231.644 103.022 231.697 103.163C231.751 103.304 231.776 103.454 231.771 103.605C231.766 103.756 231.732 103.904 231.669 104.041C231.607 104.179 231.519 104.303 231.409 104.406C231.299 104.509 231.169 104.589 231.028 104.643C230.887 104.696 230.736 104.721 230.585 104.716L226.033 104.572C226.004 105.308 225.934 106.043 225.823 106.772C227.676 106.897 229.436 107.625 230.834 108.844C231.364 109.304 231.764 109.895 231.992 110.558C232.22 111.222 232.268 111.933 232.133 112.621C231.918 113.574 231.456 114.454 230.793 115.172C230.131 115.89 229.29 116.422 228.356 116.714C227.811 116.88 227.244 116.963 226.674 116.962Z" fill="#ED614E"/>
<path id="Vector_47" d="M210.609 75.9819H210.603L183.019 75.8853C182.613 75.8838 182.225 75.7216 181.938 75.4342C181.652 75.1469 181.492 74.7579 181.492 74.3525C181.493 73.9472 181.655 73.5587 181.942 73.2723C182.229 72.9858 182.618 72.8249 183.024 72.8247H183.029L210.614 72.9214C211.02 72.9228 211.409 73.0851 211.696 73.3726C211.982 73.66 212.142 74.0492 212.141 74.4546C212.141 74.86 211.979 75.2485 211.691 75.5349C211.404 75.8212 211.015 75.982 210.609 75.9819H210.609Z" fill="#E2B9A7"/>
<path id="Vector_48" d="M183.046 113.025C182.64 113.025 182.25 112.865 181.962 112.578C181.675 112.292 181.513 111.904 181.512 111.498C181.511 111.093 181.671 110.703 181.958 110.416C182.244 110.128 182.633 109.966 183.039 109.964L210.623 109.836H210.63C211.036 109.836 211.426 109.997 211.714 110.283C212.001 110.569 212.163 110.958 212.164 111.363C212.165 111.769 212.005 112.158 211.719 112.446C211.432 112.733 211.043 112.896 210.637 112.897L183.053 113.025H183.046Z" fill="#E2B9A7"/>
</g>
</g>
</g>
</g>
</g>
<defs>
<filter id="filter0_d_318_36904" x="0" y="0" width="256" height="225" filterUnits="userSpaceOnUse" color-interpolation-filters="sRGB">
<feFlood flood-opacity="0" result="BackgroundImageFix"/>
<feColorMatrix in="SourceAlpha" type="matrix" values="0 0 0 0 0 0 0 0 0 0 0 0 0 0 0 0 0 0 127 0" result="hardAlpha"/>
<feOffset dy="4"/>
<feGaussianBlur stdDeviation="2"/>
<feComposite in2="hardAlpha" operator="out"/>
<feColorMatrix type="matrix" values="0 0 0 0 0 0 0 0 0 0 0 0 0 0 0 0 0 0 0.25 0"/>
<feBlend mode="normal" in2="BackgroundImageFix" result="effect1_dropShadow_318_36904"/>
<feBlend mode="normal" in="SourceGraphic" in2="effect1_dropShadow_318_36904" result="shape"/>
</filter>
</defs>
</svg>
