<svg width="152" height="153" viewBox="0 0 152 153" fill="none" xmlns="http://www.w3.org/2000/svg">
<g id="bagpack 1" clip-path="url(#clip0_318_34175)">
<g id="Group">
<g id="Group_2">
<g id="Group_3">
<g id="Group_4">
<g id="Group_5">
<path id="Vector" d="M138.011 37.1205C137.523 32.7871 136.861 28.4051 136.048 24.2759C135.637 22.1925 135.308 20.1733 134.709 18.2575C134.131 16.4075 133.624 14.4902 132.931 12.9106C132.896 12.8819 132.863 12.8192 132.835 12.7788C131.542 10.9285 130.097 7.65301 126.767 7.83888C124.359 7.97276 122.598 10.7599 121.502 12.8685C120.798 14.2216 120.273 15.6293 119.814 17.0622C119.909 17.0951 120.022 17.1094 120.162 17.0906C122.145 19.8945 123.235 24.2732 124.089 28.5877C125.697 36.7203 126.208 45.2581 126.767 54.2756C127.576 67.3837 128.868 82.118 127.214 95.1412C125.77 106.496 125.274 112.002 113.744 118.723C123.174 119.946 133.455 115.427 135.957 105.562C136.967 101.583 137.72 97.2411 138.189 92.9846C139.176 84.0039 139.706 74.8388 139.706 64.9611C139.705 55.3 139.008 45.9777 138.011 37.1205Z" fill="#4D3D87"/>
<g id="Group_6">
<path id="Vector_2" d="M126.767 7.83862C130.096 7.65275 131.541 10.9282 132.834 12.7785C132.863 12.8192 132.896 12.8816 132.931 12.9103C132.959 12.9345 132.987 12.9339 133.013 12.8679C131.506 9.33127 130.451 6.84771 128.373 4.51445C126.832 2.78693 124.74 1.35644 122.369 0.594427C121.875 0.43575 120.478 1.32865 119.962 1.23123C119.304 1.10722 119.522 0.0129079 118.838 0.0012536C117.436 -0.0229515 115.988 0.204158 114.541 0.742049C110.664 2.1833 107.104 5.92104 105.349 10.1737C104.464 12.3228 103.741 14.6922 103.119 17.2696C102.476 19.9304 101.778 22.7708 102.048 25.5328C102.335 28.4891 103.995 30.4175 105.795 32.0903C106.964 33.1751 108.346 34.5063 110.347 34.5159C114.001 34.5326 115.462 31.0181 116.415 28.2283C117.28 25.6993 118.065 23.0798 118.824 20.4136C119.145 19.2894 119.46 18.1688 119.815 17.062C120.273 15.6291 120.798 14.221 121.502 12.8682C122.597 10.7597 124.359 7.9725 126.767 7.83862Z" fill="#8F7ECE"/>
<path id="Vector_3" d="M112.666 14.1258C113.804 11.1169 115.271 8.28107 117.216 5.68186C118.608 3.82494 120.431 2.42254 122.124 0.83158C122.19 0.77032 122.271 0.68874 122.36 0.592219C121.229 0.230039 120.035 0.0208594 118.809 0.00292969C117.418 0.87491 116.232 1.97998 115.165 3.07727C110.112 8.2718 107.617 14.4247 105.885 22.6589C105.323 25.3247 104.867 27.505 105.081 30.6531C105.098 30.9092 105.128 31.1952 105.171 31.4913C105.377 31.6946 105.585 31.8945 105.794 32.0902C106.279 32.5402 106.802 33.0321 107.389 33.4549C107.534 33.0644 107.639 32.5755 107.758 32.0902C109.288 25.8841 110.659 19.4309 112.666 14.1258Z" fill="#EFAD1B"/>
</g>
</g>
<g id="Group_7">
<path id="Vector_4" fill-rule="evenodd" clip-rule="evenodd" d="M127.117 12.4046C127.716 11.8646 128.629 12.6598 129.08 13.2126C129.618 13.8745 130.175 15.0716 130.508 16.087C130.902 17.2952 131.265 18.6286 131.131 19.6801C131.049 20.3423 130.604 20.822 130.24 20.8474C129.151 20.9241 128.303 17.8579 128.008 17.0749C127.43 15.5312 126.762 14.0072 127.117 12.4046Z" fill="white"/>
<path id="Vector_5" fill-rule="evenodd" clip-rule="evenodd" d="M131.398 24.8898C132.899 24.1968 133.671 29.1834 132.29 29.1111C131.524 29.0713 130.39 25.3551 131.398 24.8898Z" fill="white"/>
</g>
</g>
<g id="Group_8">
<g id="Group_9">
<path id="Vector_6" d="M20.7769 37.1207C21.2658 32.7874 21.9264 28.4054 22.741 24.2762C23.1501 22.1927 23.4811 20.1736 24.0787 18.2578C24.6565 16.4077 25.1644 14.4904 25.8576 12.9108C25.8909 12.8822 25.9253 12.8194 25.9541 12.7791C27.2446 10.9287 28.6919 7.65326 32.0216 7.83913C34.4296 7.973 36.1894 10.7602 37.2858 12.8687C37.9894 14.2218 38.5158 15.6296 38.9741 17.0625C38.8776 17.0953 38.7654 17.1097 38.625 17.0908C36.6419 19.8947 35.5518 24.2735 34.6977 28.588C33.0889 36.7206 32.578 45.2584 32.0216 54.2758C31.2109 67.3839 29.92 82.1182 31.5751 95.1415C33.0167 106.497 33.5134 112.003 45.0426 118.723C35.6135 119.946 25.3339 115.427 22.8295 105.562C21.8204 101.584 21.0666 97.2413 20.5997 92.9848C19.6128 84.0041 19.082 74.8391 19.082 64.9613C19.0817 55.3002 19.7779 45.978 20.7769 37.1207Z" fill="#4D3D87"/>
<g id="Group_10">
<path id="Vector_7" d="M32.0213 7.83871C28.6916 7.65284 27.2443 10.9283 25.9538 12.7786C25.925 12.8193 25.8909 12.8817 25.8573 12.9104C25.8276 12.9346 25.7994 12.934 25.7754 12.868C27.2817 9.33136 28.3353 6.8478 30.4141 4.51455C31.9492 2.793 34.0318 1.36639 36.3919 0.602587C36.9403 0.425083 38.5161 0.951917 39.0908 0.850614C39.6953 0.743932 39.3001 0.0135966 39.9265 0.00164347C41.3361 -0.0252511 42.7908 0.201261 44.2458 0.74214C48.1238 2.18339 51.6837 5.92113 53.4373 10.1738C54.3241 12.3229 55.0461 14.6923 55.6692 17.2697C56.3099 19.9305 57.0084 22.7709 56.7383 25.5329C56.4512 28.4892 54.7917 30.4176 52.9908 32.0904C51.8247 33.1752 50.4421 34.5064 48.4409 34.516C44.7861 34.5327 43.326 31.0182 42.3719 28.2283C41.508 25.6994 40.723 23.0798 39.9636 20.4137C39.6424 19.2895 39.3265 18.1689 38.9736 17.062C38.5152 15.6292 37.9888 14.2211 37.2852 12.8683C36.1895 10.7598 34.4296 7.97258 32.0213 7.83871Z" fill="#8F7ECE"/>
<path id="Vector_8" d="M46.121 14.1261C44.9831 11.1172 43.5147 8.28131 41.5696 5.6821C40.1782 3.82519 38.3553 2.42308 36.6608 0.831824C36.597 0.770565 36.5159 0.688984 36.4277 0.592463C37.5568 0.230283 38.7508 0.0211035 39.9769 0.00317383C41.3668 0.875154 42.5552 1.98022 43.621 3.07752C48.6735 8.27205 51.1706 14.4249 52.9013 22.6591C53.463 25.325 53.9187 27.5052 53.7062 30.6534C53.6881 30.9095 53.6575 31.1955 53.6144 31.4916C53.4093 31.6948 53.203 31.8947 52.991 32.0904C52.5059 32.5405 51.9852 33.0324 51.3968 33.4552C51.254 33.0646 51.1477 32.5757 51.0278 32.0904C49.4974 25.8844 48.127 19.4312 46.121 14.1261Z" fill="#EFAD1B"/>
</g>
</g>
<g id="Group_11">
<path id="Vector_9" fill-rule="evenodd" clip-rule="evenodd" d="M31.6687 12.4048C31.0682 11.8648 30.1556 12.66 29.7046 13.2128C29.167 13.8747 28.6098 15.0718 28.2773 16.0873C27.8824 17.2954 27.5196 18.6288 27.6532 19.6804C27.7366 20.3426 28.1817 20.8222 28.5459 20.8476C29.6346 20.9244 30.4818 17.8581 30.7758 17.0752C31.3558 15.5314 32.0232 14.0074 31.6687 12.4048Z" fill="white"/>
<path id="Vector_10" fill-rule="evenodd" clip-rule="evenodd" d="M27.3862 24.8901C25.8852 24.1971 25.114 29.1836 26.4935 29.1113C27.2601 29.0716 28.3935 25.3553 27.3862 24.8901Z" fill="white"/>
</g>
</g>
<g id="Group_12">
<g id="Group_13">
<path id="Vector_11" fill-rule="evenodd" clip-rule="evenodd" d="M98.8119 25.7312C98.6875 26.0124 94.7874 24.4378 93.6462 24.4331C93.659 22.7241 93.7403 17.7438 93.6326 16.1669C93.537 14.7558 93.4108 13.1858 92.6829 12.554C91.8288 11.813 88.9589 11.7096 86.982 11.5972C82.4831 11.3411 78.7728 11.2789 73.9981 11.2789C71.7351 11.2789 69.3366 11.3175 68.191 12.0224C66.3545 13.1538 65.7616 20.842 64.9135 23.0486C63.0853 23.0486 61.3073 22.996 59.6356 22.8361C59.5679 18.9642 60.7305 12.1402 62.0682 9.89717C63.7491 7.0828 66.6977 6.01748 71.1188 5.69475C71.3696 5.67652 71.6255 7.15452 71.8859 7.14078C73.812 7.03917 76.5323 7.17156 79.1697 7.35324C83.1374 7.62577 87.6532 5.88241 91.3799 6.50427C93.8318 6.91337 95.9417 7.69959 97.329 9.25947C99.4754 11.6749 99.394 21.4032 98.8119 25.7312Z" fill="#4D3D87"/>
<path id="Vector_12" fill-rule="evenodd" clip-rule="evenodd" d="M72.0967 8.83555C72.8338 9.40183 74.7692 9.44247 76.4254 9.36656C79.8282 9.21058 82.7328 9.25988 86.0323 9.25988C87.7274 9.25988 89.7227 9.37433 90.4652 8.83525C91.0406 8.41689 91.2754 7.43105 91.3101 6.49453C87.5971 5.88641 83.1125 6.13026 79.1691 5.85952C76.5317 5.67813 73.8114 5.54545 71.8853 5.64705C71.6172 5.6611 71.3539 5.67873 71.0956 5.69785C71.0125 6.74823 71.3777 8.28152 72.0967 8.83555Z" fill="#8F7ECE"/>
</g>
<g id="Group_14">
<g id="Group_15">
<g id="Group_16">
<path id="Vector_13" fill-rule="evenodd" clip-rule="evenodd" d="M79.2792 15.322C87.228 14.941 94.6552 16.0619 100.708 17.8749C102.22 18.3274 103.662 18.9172 105.061 19.534C106.446 20.1439 107.81 20.7831 109.077 21.4913C111.652 22.9293 113.749 24.9028 115.461 27.1075C116.35 28.255 117.174 29.4124 117.869 30.7236C119.922 34.6039 121.318 39.2839 122.138 44.4655C123.218 51.2884 123.471 59.5997 123.154 67.1789C122.995 70.9402 122.594 74.6373 122.265 78.3261C121.941 81.9691 121.557 85.6402 121.25 89.3456C120.628 96.8698 120.492 104.683 119.094 111.257C118.737 112.941 118.269 114.449 117.616 115.809C116.957 117.18 116.244 118.421 115.248 119.426C114.219 120.464 113.003 121.164 111.529 121.724C110.798 122.001 110.089 122.298 109.288 122.489C108.496 122.678 107.664 122.799 106.753 122.914C101.569 123.571 95.6786 123.851 89.7188 123.851C87.7775 123.851 85.847 124.021 83.9285 124.021C81.9858 124.021 79.9953 124.063 77.9688 123.977C76.0382 123.896 74.0536 123.851 72.0927 123.851C68.1761 123.851 64.276 123.647 60.6396 123.34C58.731 123.178 56.9174 123.023 55.2282 122.744C53.5398 122.465 51.9827 121.957 50.6646 121.341C47.8891 120.042 46.3311 117.689 45.1688 114.83C44.0012 111.959 43.5503 108.472 43.1409 104.832C42.9375 103.036 42.7066 101.197 42.5911 99.3441C42.4711 97.4445 42.4035 95.5401 42.2942 93.6425C42.0846 89.9935 41.6399 86.2121 41.3225 82.5808C40.662 75.0139 39.886 68.0153 39.8848 60.0318C39.8848 56.1315 40.1309 52.2638 40.5195 48.6354C40.9096 45.0019 41.5012 41.5487 42.3803 38.4663C43.2715 35.3358 44.2957 32.3941 45.8027 29.8723C48.0491 26.1136 51.0084 23.0297 54.9743 21.0225C56.272 20.3657 57.6127 19.679 59.0323 19.1082C61.8799 17.9634 64.998 17.1308 68.3741 16.4701C71.7305 15.8133 75.304 15.3214 79.1955 15.3214C79.2222 15.322 79.2504 15.3229 79.2792 15.322Z" fill="#FF5000"/>
<path id="Vector_14" fill-rule="evenodd" clip-rule="evenodd" d="M79.2792 15.322C87.228 14.941 94.6552 16.0619 100.708 17.8749C102.22 18.3274 103.662 18.9172 105.061 19.534C106.446 20.1439 107.81 20.7831 109.077 21.4913C111.652 22.9293 113.749 24.9028 115.461 27.1075C116.35 28.255 117.174 29.4124 117.869 30.7236C119.922 34.6039 121.318 39.2839 122.138 44.4655C123.218 51.2884 123.471 59.5997 123.154 67.1789C122.995 70.9402 122.594 74.6373 122.265 78.3261C121.941 81.9691 121.557 85.6402 121.25 89.3456C120.628 96.8698 120.492 104.683 119.094 111.257C118.737 112.941 118.269 114.449 117.616 115.809C116.957 117.18 116.244 118.421 115.248 119.426C114.219 120.464 113.003 121.164 111.529 121.724C110.798 122.001 110.089 122.298 109.288 122.489C108.496 122.678 107.664 122.799 106.753 122.914C101.569 123.571 95.6786 123.851 89.7188 123.851C87.7775 123.851 85.847 124.021 83.9285 124.021C81.9858 124.021 79.9953 124.063 77.9688 123.977C76.0382 123.896 74.0536 123.851 72.0927 123.851C68.1761 123.851 64.276 123.647 60.6396 123.34C58.731 123.178 56.9174 123.023 55.2282 122.744C53.5398 122.465 51.9827 121.957 50.6646 121.341C47.8891 120.042 46.3311 117.689 45.1688 114.83C44.0012 111.959 43.5503 108.472 43.1409 104.832C42.9375 103.036 42.7066 101.197 42.5911 99.3441C42.4711 97.4445 42.4035 95.5401 42.2942 93.6425C42.0846 89.9935 41.6399 86.2121 41.3225 82.5808C40.662 75.0139 39.886 68.0153 39.8848 60.0318C39.8848 56.1315 40.1309 52.2638 40.5195 48.6354C40.9096 45.0019 41.5012 41.5487 42.3803 38.4663C43.2715 35.3358 44.2957 32.3941 45.8027 29.8723C48.0491 26.1136 51.0084 23.0297 54.9743 21.0225C56.272 20.3657 57.6127 19.679 59.0323 19.1082C61.8799 17.9634 64.998 17.1308 68.3741 16.4701C71.7305 15.8133 75.304 15.3214 79.1955 15.3214C79.2222 15.322 79.2504 15.3229 79.2792 15.322Z" fill="#FF5000"/>
<path id="Vector_15" d="M113.763 106.348C113.487 109.638 113.115 112.818 112.491 115.752C112.133 117.437 111.667 118.944 111.013 120.303C110.671 121.014 110.314 121.689 109.912 122.315C110.467 122.14 110.993 121.926 111.529 121.724C113.003 121.164 114.219 120.464 115.248 119.426C116.244 118.422 116.957 117.18 117.616 115.809C118.269 114.449 118.737 112.942 119.094 111.257C119.513 109.293 119.815 107.219 120.055 105.075C118.029 105.075 115.159 105.67 113.763 106.348Z" fill="#EFAD1B"/>
<path id="Vector_16" opacity="0.21" d="M115.249 119.426C116.245 118.422 116.958 117.18 117.617 115.809C118.269 114.449 118.737 112.942 119.095 111.257C120.492 104.683 120.628 96.87 121.25 89.3458C121.558 85.6403 121.942 81.9689 122.266 78.3262C122.594 74.6375 122.995 70.9404 123.154 67.179C123.472 59.5999 123.219 51.2885 122.138 44.4657C121.319 39.284 119.923 34.6038 117.869 30.7238C117.175 29.4125 116.351 28.2552 115.461 27.1077C113.749 24.9029 111.652 22.9295 109.078 21.4915C107.811 20.7833 106.446 20.1438 105.062 19.5342C103.662 18.9174 102.221 18.3275 100.709 17.8751C94.6557 16.0621 87.2285 14.9415 79.2797 15.3222C79.2509 15.3231 79.2227 15.3222 79.1963 15.3222C75.3045 15.3222 71.731 15.8141 68.3749 16.4709C64.9988 17.1316 61.8807 17.9641 59.0331 19.1089C57.6135 19.6797 56.2728 20.3664 54.9751 21.0232C52.9611 22.0431 51.2072 23.3421 49.6738 24.865C50.5645 24.4221 51.4785 23.9864 52.4297 23.6039C55.2767 22.4591 58.3948 21.6266 61.7709 20.9659C65.1259 20.309 68.6999 19.8169 72.5908 19.8169C72.6196 19.8169 72.6478 19.8184 72.6766 19.8169C80.6254 19.4359 88.0526 20.5574 94.1062 22.3698C95.6194 22.8225 97.0586 23.4124 98.4587 24.0291C99.8427 24.6394 101.207 25.278 102.475 25.9862C105.048 27.4241 107.146 29.3976 108.857 31.602C109.748 32.7495 110.572 33.9072 111.266 35.2182C113.32 39.0987 114.716 43.779 115.536 48.9607C116.615 55.7811 116.866 64.093 116.549 71.6746C116.392 75.436 115.99 79.1316 115.662 82.8203C115.338 86.4633 114.954 90.1359 114.647 93.8399C114.026 101.366 113.889 109.177 112.492 115.751C112.134 117.437 111.668 118.944 111.014 120.303C110.672 121.014 110.315 121.689 109.913 122.314C110.468 122.139 110.994 121.925 111.53 121.724C113.004 121.164 114.219 120.464 115.249 119.426Z" fill="black"/>
</g>
<path id="Vector_17" fill-rule="evenodd" clip-rule="evenodd" d="M72.6763 19.8166C80.6251 19.4356 88.0523 20.5571 94.1059 22.3695C95.6191 22.8223 97.0583 23.4121 98.4584 24.0289C99.8424 24.6391 101.207 25.2777 102.475 25.9859C105.048 27.4239 107.146 29.3974 108.856 31.6018C109.748 32.7493 110.571 33.907 111.266 35.2179C113.32 39.0985 114.716 43.7788 115.535 48.9604C116.615 55.7809 116.866 64.0928 116.549 71.6744C116.391 75.4357 115.99 79.1313 115.662 82.8201C115.337 86.4631 114.954 90.1357 114.647 93.8397C114.303 98.0074 114.107 102.263 113.764 106.347C112.936 109.321 112.398 112.282 111.774 115.215C111.416 116.901 110.567 118.13 109.912 119.49C109.252 120.861 108.859 121.877 107.863 122.879C106.834 123.917 106.044 124.577 104.572 125.136C103.841 125.415 103.541 125.707 102.742 125.896C101.949 126.086 101.043 126.649 100.133 126.763C98.5994 126.957 97.0215 127.764 95.3807 127.894C91.475 128.205 87.3119 128.344 83.115 128.345C81.1746 128.345 79.2423 128.514 77.3238 128.515C75.3817 128.515 73.392 128.559 71.3656 128.473C69.4341 128.39 67.4498 128.345 65.4895 128.345C61.7756 128.345 58.0765 128.163 54.6016 127.882C54.4119 127.867 53.4215 126.973 53.233 126.956C51.3259 126.795 50.4608 126.568 48.7731 126.289C47.0815 126.012 46.29 125.763 44.9722 125.146C42.1973 123.848 41.0472 121.776 39.8849 118.919C38.7164 116.045 37.6453 113.093 37.2353 109.455C37.1246 108.473 36.3064 107.35 36.2022 106.347C36.1161 105.515 36.0401 104.678 35.9879 103.838C35.8679 101.94 35.8002 100.034 35.691 98.1377C35.4814 94.4872 35.0367 90.7076 34.7193 87.0745C34.0573 79.5076 33.2827 72.5105 33.2812 64.5264C33.2812 60.6231 33.5265 56.7569 33.916 53.1276C34.304 49.4962 34.8968 46.0436 35.7744 42.9606C36.6671 39.8298 37.6922 36.889 39.1983 34.3669C41.4456 30.6085 44.4049 27.5243 48.3708 25.5171C49.6682 24.8612 51.0083 24.1736 52.4288 23.6028C55.2758 22.458 58.3939 21.6254 61.77 20.9647C65.125 20.3079 68.699 19.8157 72.5899 19.8157C72.6193 19.8166 72.6472 19.8181 72.6763 19.8166Z" fill="#FF5000"/>
<g id="Group_17">
<path id="Vector_18" d="M44.3972 108.933C42.3648 107.654 39.5718 106.374 36.2031 106.347C36.3064 107.351 36.4249 108.347 36.5356 109.328C36.9456 112.966 37.3966 116.453 38.5651 119.326C39.7273 122.184 41.2853 124.537 44.0602 125.835C45.378 126.452 46.9346 126.961 48.6259 127.239C50.3136 127.518 52.1272 127.674 54.0343 127.836C54.2211 127.851 54.4131 127.864 54.6014 127.879C54.0435 122.587 52.6936 118.59 50.2308 114.93C48.6214 112.537 46.8942 110.501 44.3972 108.933Z" fill="#EFAD1B"/>
<path id="Vector_19" d="M102.684 126.984C103.483 126.794 104.193 126.497 104.924 126.218C106.397 125.659 107.614 124.958 108.644 123.92C109.64 122.917 110.351 121.674 111.011 120.303C111.666 118.944 112.131 117.437 112.49 115.752C113.113 112.818 113.486 109.638 113.761 106.349C110.4 106.379 107.613 107.657 105.583 108.933C103.086 110.5 101.362 112.537 99.7513 114.93C97.2863 118.594 95.9361 122.593 95.3789 127.893C97.0188 127.763 98.6145 127.603 100.148 127.408C101.058 127.294 101.891 127.174 102.684 126.984Z" fill="#EFAD1B"/>
</g>
<g id="Group_18">
<g id="Group_19">
<g id="Group_20">
<path id="Vector_20" fill-rule="evenodd" clip-rule="evenodd" d="M52.7569 28.6914C51.1663 27.6942 55.2881 25.1123 55.4695 26.9606C55.5651 27.9246 53.6642 28.6227 52.7569 28.6914Z" fill="white"/>
<path id="Vector_21" fill-rule="evenodd" clip-rule="evenodd" d="M49.4896 28.6129C49.8806 28.5456 50.7181 28.6206 50.7908 29.4203C50.8909 30.465 49.1918 31.6962 48.612 32.3124C47.9052 33.0627 46.9107 34.7953 45.787 34.5162C44.1845 34.1185 46.0702 31.7858 46.7518 31.011C47.1155 30.5995 47.5095 30.231 47.8327 29.8975C48.3888 29.3277 48.7364 28.7426 49.4896 28.6129Z" fill="white"/>
</g>
<g id="Group_21">
<path id="Vector_22" fill-rule="evenodd" clip-rule="evenodd" d="M107.763 45.6035C106.903 44.8896 106.289 43.1026 105.791 41.3105C105.576 40.5416 105.253 39.2943 105.913 39.0257C106.706 38.7008 107.297 40.0599 107.507 40.544C108.173 42.0863 108.666 44.0815 108.621 45.2204C108.5 45.4561 108.067 45.6321 107.763 45.6035Z" fill="white"/>
<path id="Vector_23" fill-rule="evenodd" clip-rule="evenodd" d="M103.805 39.7713C102.298 40.7574 100.74 37.1264 102.166 36.688C102.786 36.4985 104.191 37.9715 104.264 38.9462C104.289 39.2968 104.066 39.5992 103.805 39.7713Z" fill="white"/>
<path id="Vector_24" fill-rule="evenodd" clip-rule="evenodd" d="M101.75 32.3446C101.254 32.7486 100.439 32.3075 99.8432 31.5972C99.3625 31.0258 98.7035 29.7143 99.4961 29.3942C99.8461 29.2517 100.545 29.5182 101.056 30.095C101.655 30.7715 102.386 31.8228 101.75 32.3446Z" fill="white"/>
</g>
</g>
<g id="Group_22">
<path id="Vector_25" d="M118.032 51.8393C117.386 52.2177 116.164 52.9017 115.789 52.5562C115.577 52.359 115.829 51.8638 116.07 51.4527C116.357 50.9644 116.799 50.4713 117.267 49.9496C118.093 49.025 118.95 48.0693 119.17 46.8976C119.282 46.2991 119.084 45.9423 118.901 45.7486C118.331 45.1525 117.195 45.3222 115.99 45.5015C115.294 45.6055 113.995 45.7991 113.805 45.5152C113.784 45.4827 113.6 45.142 114.402 43.7534C114.471 43.6341 114.601 43.4441 114.75 43.2256C115.635 41.9263 116.477 40.5738 116.188 39.5742C116.074 39.1861 115.806 38.8932 115.409 38.7229C114.89 38.5005 114.166 38.6649 113.324 38.8544C112.647 39.0071 111.72 39.2162 111.429 39.0104C111.407 38.9942 111.354 38.9575 111.337 38.8045C111.297 38.4781 111.654 37.8443 111.893 37.4245C111.984 37.2625 112.068 37.1122 112.131 36.9843C112.201 36.8441 112.274 36.7022 112.344 36.5606C112.71 35.8419 113.087 35.0975 113.304 34.2889C113.632 33.0661 113.449 32.2323 112.767 31.8137C111.991 31.3388 110.968 31.7808 110.221 32.1038C110.063 32.172 109.918 32.2353 109.792 32.2801C109.714 32.3088 109.62 32.3471 109.515 32.3895C108.883 32.6474 108.507 32.743 108.393 32.6725C108.305 32.4281 108.687 31.4859 108.813 31.1763C108.88 31.0101 108.938 30.8664 108.975 30.7618C109.021 30.6208 109.094 30.4471 109.173 30.2556C109.472 29.5408 109.842 28.6497 109.659 27.9752C109.546 27.5652 109.313 27.3617 109.136 27.2622C108.654 26.9903 108.065 27.1618 107.594 27.2996L107.43 27.3462C107.201 27.4107 106.942 27.5135 106.668 27.622C106.134 27.8345 105.405 28.1243 105.032 28.0129C104.722 27.9205 104.621 27.4612 104.715 26.5674C104.73 26.418 104.799 26.1219 104.87 25.8081C105.161 24.5524 105.561 22.8327 104.857 21.9978C104.821 21.955 104.773 21.9117 104.724 21.8687C104.722 21.8603 104.724 21.8546 104.724 21.8454C104.709 21.8358 104.694 21.8328 104.678 21.8247C104.616 21.7919 104.555 21.7611 104.498 21.7423C103.466 21.3947 102.028 22.4057 100.976 23.1432C100.715 23.3278 100.467 23.5015 100.333 23.572C99.5446 23.9912 99.0844 24.0669 98.8826 23.8102C98.6427 23.5033 98.6397 22.7144 98.6367 22.1382C98.6353 21.8409 98.6353 21.5609 98.6085 21.3212L98.5904 21.1518C98.5426 20.6593 98.4841 20.0464 98.0528 19.6965C97.8948 19.5677 97.6217 19.4252 97.2016 19.4727C96.5114 19.5516 95.8268 20.2281 95.277 20.7723C95.1303 20.9178 94.9968 21.0496 94.8845 21.1464C94.8011 21.2193 94.6901 21.3263 94.5627 21.4506C94.3229 21.6834 93.5949 22.391 93.3375 22.3991C93.2312 22.319 93.1787 21.9308 93.182 21.2447C93.182 21.1312 93.1834 21.0296 93.1805 20.9453C93.176 20.8108 93.179 20.6518 93.1852 20.4788C93.2048 19.6606 93.233 18.5406 92.5081 17.9923C91.8674 17.5085 91.0314 17.6474 90.0247 18.4079C89.3582 18.9109 88.8131 19.5396 88.2847 20.1477C88.1814 20.2681 88.076 20.3874 87.9727 20.5048C87.8786 20.6121 87.7708 20.746 87.6553 20.8924C87.3561 21.2701 86.9054 21.84 86.5895 21.9231C86.4408 21.9637 86.3868 21.9281 86.3648 21.9132C86.0665 21.7175 85.9154 20.7735 85.8046 20.0841C85.6681 19.2273 85.5496 18.488 85.1533 18.0861C84.8487 17.7786 84.4791 17.6373 84.0792 17.6749C83.0505 17.7759 82.1145 19.0627 81.2434 20.3733C81.0971 20.5942 80.9709 20.7848 80.886 20.893C79.9036 22.1591 79.5219 22.1143 79.4821 22.1062C79.1496 22.0333 78.8473 20.749 78.6841 20.0587C78.4023 18.8669 78.1375 17.7416 77.376 17.4302C77.1293 17.3298 76.7262 17.2778 76.2161 17.6047C75.2169 18.2448 74.6537 19.3995 74.1071 20.5168C73.7996 21.1476 73.5081 21.7435 73.1634 22.1932C72.8727 22.5712 72.5106 22.9908 72.2484 22.8644C71.7565 22.6259 71.9993 21.0299 72.1026 20.3479C72.1362 20.1298 72.1641 19.9391 72.1778 19.7936C72.2045 19.5139 72.0008 19.2659 71.7223 19.2384C71.4421 19.21 71.1978 19.4168 71.1725 19.6965C71.1589 19.8271 71.1339 19.9983 71.1034 20.1946C70.9211 21.3974 70.6447 23.2155 71.8093 23.7806C72.838 24.2796 73.6541 23.2155 73.9623 22.8145C74.3684 22.2837 74.6964 21.6135 75.0138 20.9656C75.4974 19.9744 75.9985 18.9488 76.7576 18.4626C76.8996 18.3724 76.9764 18.3643 76.996 18.3724C77.2739 18.4865 77.5411 19.6176 77.7005 20.2935C78.0155 21.6287 78.3139 22.8898 79.2659 23.0995C79.9689 23.2546 80.7129 22.7672 81.6816 21.5199C81.7879 21.3819 81.9185 21.1864 82.0833 20.9384C82.5176 20.2831 83.5365 18.7498 84.1757 18.687C84.2463 18.6802 84.3238 18.69 84.436 18.8036C84.6046 18.9733 84.7207 19.7084 84.808 20.2457C84.9698 21.2671 85.139 22.3232 85.8132 22.7652C86.0181 22.8996 86.3642 23.0338 86.8449 22.9074C87.484 22.7395 88.0178 22.0668 88.4459 21.5265C88.5492 21.3962 88.6418 21.2767 88.7276 21.1814C88.8324 21.0609 88.9402 20.9396 89.045 20.8171C89.5393 20.2487 90.0487 19.66 90.6309 19.2214C91.2345 18.765 91.662 18.6249 91.9009 18.8057C92.21 19.0391 92.1886 19.8904 92.1735 20.4537C92.169 20.6486 92.1643 20.829 92.169 20.9803C92.172 21.0538 92.172 21.1419 92.1705 21.2402C92.1675 21.9517 92.1613 23.2759 93.2158 23.4082C93.8666 23.4886 94.5253 22.9008 95.2633 22.1824C95.3741 22.0752 95.47 21.9813 95.5421 21.9195C95.668 21.8098 95.8191 21.6619 95.9854 21.4981C96.3535 21.1336 96.9707 20.5233 97.3153 20.4836C97.386 20.4755 97.4139 20.4854 97.4169 20.4878C97.5187 20.5703 97.5635 21.0311 97.5846 21.2525L97.6042 21.4339C97.6238 21.6191 97.6256 21.8732 97.6256 22.1424C97.628 22.9471 97.6309 23.8592 98.0893 24.4419C98.9054 25.4803 100.334 24.7222 100.805 24.4727C100.993 24.3729 101.241 24.1986 101.554 23.9781C102.067 23.6177 103.45 22.4054 104.139 22.7284C104.614 23.4438 104.028 24.9651 103.886 25.5783C103.799 25.9531 103.732 26.2501 103.709 26.462C103.653 26.9936 103.484 28.6117 104.743 28.9888C105.452 29.2004 106.294 28.8651 107.039 28.569C107.287 28.4704 107.521 28.3768 107.701 28.3272L107.875 28.277C108.087 28.2149 108.527 28.0855 108.641 28.1503C108.644 28.1524 108.665 28.176 108.683 28.2442C108.774 28.5812 108.44 29.3845 108.242 29.8644C108.151 30.0799 108.071 30.2759 108.017 30.434C107.986 30.5254 107.935 30.6491 107.878 30.7923C107.489 31.7491 107.191 32.5832 107.506 33.1614C108.02 34.0979 109.239 33.601 109.895 33.3329C109.985 33.2962 110.066 33.2627 110.135 33.2379C110.275 33.1871 110.442 33.116 110.619 33.0389C111.133 32.8168 111.909 32.481 112.24 32.6836C112.497 32.8398 112.525 33.2911 112.329 34.0247C112.138 34.7308 111.787 35.4262 111.445 36.0986C111.371 36.2435 111.299 36.3869 111.227 36.5304C111.17 36.6451 111.095 36.7775 111.013 36.9224C110.674 37.5231 110.25 38.2705 110.332 38.9324C110.395 39.4281 110.647 39.7012 110.848 39.8429C111.504 40.3079 112.542 40.0745 113.546 39.8483C114.072 39.729 114.794 39.5662 115.013 39.6597C115.16 39.7219 115.196 39.7915 115.216 39.859C115.396 40.4803 114.358 42.0013 113.917 42.6513C113.749 42.8969 113.618 43.0905 113.529 43.2421C112.738 44.6104 112.564 45.4866 112.968 46.0863C113.516 46.8991 114.788 46.7091 116.138 46.5085C116.821 46.4069 117.962 46.2357 118.172 46.4542C118.187 46.47 118.208 46.5447 118.176 46.7097C118.009 47.6008 117.25 48.4494 116.515 49.2682C116.035 49.8055 115.538 50.3595 115.199 50.9372C114.943 51.3735 114.265 52.5299 115.106 53.3069C115.841 53.984 116.947 53.5836 117.892 53.0831C117.85 52.6638 117.895 52.2335 118.032 51.8393Z" fill="white"/>
<path id="Vector_26" fill-rule="evenodd" clip-rule="evenodd" d="M117.918 51.5871C118.737 51.4914 119.36 51.8187 119.456 53.2982C119.508 54.1226 119.093 54.7182 119.12 55.1392C119.168 55.8821 119.678 56.6659 119.82 57.3843C119.939 57.9859 119.93 58.802 119.516 59.1352C118.905 59.6282 117.913 59.431 117.619 58.906C117.225 58.1992 117.342 57.3601 117.408 56.738C117.442 56.417 117.658 55.5979 117.308 54.9148C117.108 54.5272 116.837 54.1606 116.713 53.3328C116.508 51.9875 117.285 51.6603 117.918 51.5871Z" fill="#EFAD1B"/>
</g>
</g>
</g>
<g id="Group_23">
<path id="Vector_27" fill-rule="evenodd" clip-rule="evenodd" d="M71.6533 61.1137C76.506 60.8806 81.3382 61.0778 85.7278 61.5813C87.8816 61.8291 90.0073 62.127 91.9417 62.6458C93.9147 63.1714 95.7179 63.6949 97.3101 64.5164C99.7934 65.7981 101.69 67.3944 103.1 69.6646C104.509 71.9342 105.308 74.563 105.678 78.0034C105.916 80.2121 105.913 82.5749 106.016 84.9383C106.447 94.7787 106.088 104.224 101.24 109.104C98.8927 111.467 95.1604 112.762 91.3067 113.699C88.2928 114.434 85.2104 114.817 81.7553 115.061C78.3573 115.301 74.7039 115.189 71.1889 115.189C68.8659 115.189 66.5889 114.936 64.4246 114.678C60.044 114.154 56.1555 113.197 52.8857 111.7C51.1428 110.901 49.694 110 48.5332 108.763C47.3998 107.557 46.5115 105.975 45.8281 104.212C44.4898 100.753 44.1237 96.384 44.0097 91.448C43.956 89.0989 44.0516 86.898 44.1374 84.5971C44.2262 82.2151 44.2003 79.8828 44.4743 77.62C44.7439 75.4099 45.2768 73.4729 45.954 71.7914C47.3214 68.3976 49.8214 65.9508 53.0965 64.3873C56.3398 62.8421 60.4272 62.0388 64.7631 61.5386C66.9341 61.287 69.1806 61.2314 71.6533 61.1137Z" fill="#4D3D87"/>
<path id="Vector_28" opacity="0.21" fill-rule="evenodd" clip-rule="evenodd" d="M75.0357 75.2389C77.3124 75.1289 80.0143 75.2374 82.3899 75.2389C86.0681 75.2389 89.5505 75.3229 93.3368 75.3229C96.0898 75.3229 97.8927 75.4308 100.523 75.4932C101.315 75.5129 101.696 75.5359 102.214 75.6217C102.756 75.712 103.338 75.8808 103.398 76.2597C103.561 77.2951 101.724 77.6224 100.691 77.7057C99.3103 77.8187 97.8425 77.7912 96.6339 77.7912C93.8142 77.7912 91.0613 77.7491 88.5183 77.7491C85.7449 77.7491 83.0771 77.6466 80.5709 77.8758C78.0641 78.1059 75.6588 78.4695 73.5558 79.1099C71.5711 79.7144 69.5577 80.6734 67.2575 81.1091C62.2908 82.0528 57.1671 81.1151 52.5913 80.215C51.5445 80.0103 50.2962 79.8489 49.1247 79.5357C48.2486 79.3003 46.5253 78.8526 46.5042 78.0455C46.4701 76.7402 49.3845 76.5714 50.7733 76.43C53.7622 76.1237 56.7883 75.9349 59.8615 75.7484C63.4676 75.5282 67.3223 75.3229 71.1463 75.3229C72.408 75.3229 73.7306 75.3008 75.0357 75.2389Z" fill="black"/>
<path id="Vector_29" fill-rule="evenodd" clip-rule="evenodd" d="M102.736 75.5963C103.557 75.6621 104.105 76.1053 103.914 77.5755C103.807 78.3955 103.284 78.899 103.23 79.3171C103.133 80.0552 103.481 80.9242 103.483 81.6578C103.485 82.2701 103.318 83.0709 102.85 83.3169C102.153 83.6815 101.217 83.2939 101.032 82.7207C100.781 81.9521 101.058 81.1504 101.243 80.5512C101.338 80.244 101.709 79.4814 101.496 78.7424C101.375 78.3229 101.18 77.9102 101.215 77.0735C101.274 75.715 102.101 75.5443 102.736 75.5963Z" fill="white"/>
<g id="Group_24">
<g id="Group_25">
<path id="Vector_30" d="M85.287 64.3735C84.6972 63.7444 83.7831 63.4857 83.4838 62.677C83.181 61.8663 83.3336 60.4113 83.3746 59.2312C83.4253 57.8214 83.3882 56.4847 83.7252 55.3743C84.2079 53.7848 85.7582 53.1405 86.5357 51.9324C89.1604 47.8474 87.0929 42.2593 83.0881 41.6557C79.7013 41.1453 76.9517 44.3158 76.7388 48.2266C76.6023 50.7777 77.8441 52.524 79.213 53.8314C79.8272 54.4183 80.5278 54.7452 80.8535 55.674C81.2187 56.7154 81.1124 58.1056 81.1032 59.4368C81.091 60.8001 80.7677 62.2581 80.8951 63.6115C80.9818 64.5522 81.5654 65.1193 81.6663 65.9949C81.7946 67.1349 81.62 68.4091 81.403 69.7279C82.2117 68.1513 83.0679 66.5848 83.985 65.5033C84.3077 65.1256 84.8572 64.77 85.287 64.3735ZM81.7863 52.4039C79.6149 52.1762 78.8437 49.915 79.0441 47.8306C79.2673 45.512 81.0135 43.16 83.3698 44.0532C86.9199 45.4015 85.627 52.8067 81.7863 52.4039Z" fill="#8F7ECE"/>
<path id="Vector_31" d="M85.8337 67.9973C84.9591 69.3698 84.1756 71.3896 83.5872 72.587C82.8804 74.0253 81.9695 75.8768 80.9961 77.844C81.86 77.7777 82.7423 77.7448 83.6413 77.7325C83.9738 76.2142 84.3063 74.7117 84.6432 73.2552C85.022 71.6203 85.5977 69.7012 85.8337 67.9973Z" fill="#8F7ECE"/>
<path id="Vector_32" d="M98.0079 47.892C97.6208 46.8452 96.5868 45.5869 95.1532 45.1583C92.5234 44.3718 90.5008 46.279 89.3614 47.8069C87.0428 50.9135 85.5359 56.3925 85.7235 60.8997C85.7606 61.7878 86.0741 62.8612 85.8625 63.5683C85.7758 63.8623 85.5543 64.1262 85.2862 64.3736C84.8563 64.7701 84.3068 65.1257 83.985 65.5038C83.068 66.5849 82.2115 68.1517 81.4031 69.7283C81.2725 69.982 81.1433 70.2366 81.016 70.4888C80.1253 72.2525 79.2683 74.0996 78.3604 75.9191C77.9792 76.6862 77.5868 77.4811 77.1973 78.2933C78.1719 78.1367 79.1804 78.0115 80.2073 77.912C80.3287 77.8998 80.4486 77.8875 80.5695 77.8762C80.7105 77.8639 80.8533 77.8546 80.9952 77.8442C81.9686 75.8773 82.8795 74.0255 83.5863 72.5872C84.1747 71.3898 84.9582 69.37 85.8328 67.9975C86.173 67.4641 86.526 67.0269 86.8873 66.7765C87.3231 66.4753 88.1454 66.4938 88.4664 66.0635C88.9583 64.7429 87.7337 62.8056 88.9422 62.0293C89.2718 61.8183 89.6277 62.0308 90.0143 62.0141C92.3913 61.9133 93.925 60.135 95.4919 57.7477C97.301 54.9925 99.193 51.0943 98.0079 47.892ZM84.6331 68.7768C84.5473 69.2974 84.0577 69.6488 83.5415 69.5625C83.0246 69.4755 82.6737 68.9824 82.761 68.4604C82.8459 67.9401 83.3372 67.5893 83.8526 67.6748C84.3713 67.7644 84.7213 68.2572 84.6331 68.7768ZM96.4122 51.0491C96.1281 53.244 94.9243 55.5447 93.5984 57.4294C92.3527 59.2018 90.2423 61.2526 88.328 59.8712C86.2039 58.3343 89.2537 50.3541 91.5547 48.0776C92.185 47.4545 93.2196 46.7577 94.0957 46.8398C96.0779 47.0305 96.6749 49.0096 96.4122 51.0491Z" fill="#8F7ECE"/>
<path id="Vector_33" opacity="0.62" d="M98.0079 47.892C97.6208 46.8452 96.5868 45.5869 95.1532 45.1583C92.5234 44.3718 90.5008 46.279 89.3614 47.8069C87.0428 50.9135 85.5359 56.3925 85.7235 60.8997C85.7606 61.7878 86.0741 62.8612 85.8625 63.5683C85.7758 63.8623 85.5543 64.1262 85.2862 64.3736C84.8563 64.7701 84.3068 65.1257 83.985 65.5038C83.068 66.5849 82.2115 68.1517 81.4031 69.7283C81.2725 69.982 81.1433 70.2366 81.016 70.4888C80.1253 72.2525 79.2683 74.0996 78.3604 75.9191C77.9792 76.6862 77.5868 77.4811 77.1973 78.2933C78.1719 78.1367 79.1804 78.0115 80.2073 77.912C80.3287 77.8998 80.4486 77.8875 80.5695 77.8762C80.7105 77.8639 80.8533 77.8546 80.9952 77.8442C81.9686 75.8773 82.8795 74.0255 83.5863 72.5872C84.1747 71.3898 84.9582 69.37 85.8328 67.9975C86.173 67.4641 86.526 67.0269 86.8873 66.7765C87.3231 66.4753 88.1454 66.4938 88.4664 66.0635C88.9583 64.7429 87.7337 62.8056 88.9422 62.0293C89.2718 61.8183 89.6277 62.0308 90.0143 62.0141C92.3913 61.9133 93.925 60.135 95.4919 57.7477C97.301 54.9925 99.193 51.0943 98.0079 47.892ZM84.6331 68.7768C84.5473 69.2974 84.0577 69.6488 83.5415 69.5625C83.0246 69.4755 82.6737 68.9824 82.761 68.4604C82.8459 67.9401 83.3372 67.5893 83.8526 67.6748C84.3713 67.7644 84.7213 68.2572 84.6331 68.7768ZM96.4122 51.0491C96.1281 53.244 94.9243 55.5447 93.5984 57.4294C92.3527 59.2018 90.2423 61.2526 88.328 59.8712C86.2039 58.3343 89.2537 50.3541 91.5547 48.0776C92.185 47.4545 93.2196 46.7577 94.0957 46.8398C96.0779 47.0305 96.6749 49.0096 96.4122 51.0491Z" fill="white"/>
<path id="Vector_34" d="M83.5418 69.5624C84.0581 69.6488 84.548 69.2973 84.6335 68.7768C84.7216 68.2571 84.3716 67.7643 83.853 67.6747C83.3376 67.5892 82.8463 67.9398 82.7614 68.4603C82.6741 68.9824 83.025 69.4754 83.5418 69.5624Z" fill="#4D3D87"/>
</g>
<g id="Group_26">
<g id="Group_27">
<path id="Vector_35" d="M93.7419 77.7789L94.9504 73.1235L92.7441 72.6367L91.4141 77.7628C92.1779 77.7667 92.954 77.773 93.7419 77.7789Z" fill="#B1BC00"/>
<path id="Vector_36" d="M91.9485 72.4615L90.7624 72.2009C90.253 74.045 89.7756 75.8971 89.3125 77.7505C89.7314 77.7519 90.1467 77.7534 90.5751 77.7564L91.9485 72.4615Z" fill="#B1BC00"/>
<path id="Vector_37" d="M97.0259 73.6058C97.0274 73.5974 97.0229 73.5897 97.0259 73.5807L95.7443 73.2971L94.5781 77.7837C95.035 77.7867 95.4996 77.7882 95.9628 77.7882C96.2249 76.7797 96.4761 75.7786 96.6931 74.8095C96.786 74.3881 97.0054 73.9602 97.0259 73.6058Z" fill="#B1BC00"/>
</g>
<path id="Vector_38" d="M96.9599 73.0907C96.9492 72.9126 96.9551 72.7375 96.9584 72.572C97.0002 70.8157 96.9925 69.2675 96.8005 67.5062L94.163 66.6662C94.2631 66.5431 94.3649 66.4149 94.4741 66.2849C93.3733 67.5926 92.7113 68.637 91.9887 69.8177C91.6123 70.4207 91.1542 71.0052 90.8977 71.5906C90.825 71.7565 90.825 71.9719 90.7665 72.1892C90.7635 72.1922 90.7635 72.1966 90.7635 72.2014L91.9495 72.462L90.5762 77.7569C90.8517 77.7584 91.1349 77.7599 91.4151 77.7632L92.7451 72.6371L94.9515 73.1239L93.7429 77.7794C94.0232 77.7808 94.2987 77.7823 94.5795 77.7838L95.7457 73.2972L97.0273 73.5808C97.0267 73.4302 96.9682 73.2536 96.9599 73.0907Z" fill="#EFAD1B"/>
<path id="Vector_39" d="M96.7996 67.5058C96.7933 67.4514 96.7889 67.4003 96.7835 67.3444C96.7206 66.7928 96.6173 65.5578 96.0615 65.2775C95.6524 65.0728 95.0192 65.6381 94.4732 66.2845C94.364 66.4145 94.2622 66.5427 94.1621 66.6658L96.7996 67.5058Z" fill="white"/>
</g>
<g id="Group_28">
<path id="Vector_40" d="M69.8971 47.6029C69.9107 46.8543 69.3155 46.2318 68.5671 46.2205C67.8199 46.2055 67.2044 46.8032 67.1908 47.5554L67.1641 49.0062L69.8683 49.045L69.8971 47.6029Z" fill="#EFAD1B"/>
<path id="Vector_41" d="M65.2471 66.0149L64.9375 81.4156C65.7132 81.3523 66.4878 81.2557 67.2576 81.109C68.4228 80.8873 69.5147 80.5335 70.5662 80.1575L70.851 66.098L65.2471 66.0149Z" fill="#B1BC00"/>
<path id="Vector_42" d="M65.2461 66.0135L70.8511 66.0968L70.8701 64.456L65.2719 64.375L65.2461 66.0135Z" fill="white"/>
<g id="Group_29">
<path id="Vector_43" d="M69.8539 49.8683L67.1473 49.8279L65.4815 49.8034L65.4937 48.9858H65.4922L65.2734 64.3743L70.8704 64.4568L71.083 49.8859L69.8539 49.8683ZM69.1091 58.32C68.2208 58.2788 68.1341 56.3355 68.838 55.994C69.8554 55.4925 70.2791 58.3714 69.1091 58.32ZM69.4986 54.6436C68.2915 54.8246 68.5343 52.5649 68.952 51.9191C68.9793 51.8788 69.0164 51.8633 69.0568 51.8352C70.2176 51.0513 70.5287 54.49 69.4986 54.6436Z" fill="#B1BC00"/>
<path id="Vector_44" d="M69.8691 49.0452V49.0476L67.1648 49.0085L65.4943 48.9849L65.4824 49.8025L67.1479 49.827L69.8545 49.8676L71.0836 49.8852L71.8534 49.8972L71.6349 65.3218L72.7995 65.3409L73.0213 49.9142L73.0311 49.0927L69.8691 49.0452Z" fill="white"/>
<g id="Group_30">
<path id="Vector_45" d="M69.0557 51.8345C69.0156 51.8626 68.9782 51.8782 68.9509 51.9185C68.5332 52.5643 68.2903 54.824 69.4974 54.6429C70.5276 54.4893 70.2164 51.0507 69.0557 51.8345Z" fill="white"/>
<path id="Vector_46" d="M68.8382 55.9932C68.1343 56.3348 68.221 58.2781 69.1093 58.3193C70.2792 58.3707 69.8556 55.4918 68.8382 55.9932Z" fill="white"/>
</g>
</g>
</g>
<g id="Group_31">
<path id="Vector_47" d="M65.1553 79.1451L63.0151 79.5205C62.861 79.5474 62.7182 79.4464 62.6918 79.2943C62.6645 79.1422 62.7678 78.9954 62.916 78.9673L65.0585 78.5935C65.1725 78.572 65.2818 78.6249 65.3402 78.7133L64.8605 75.9294C64.8459 76.0463 64.7601 76.1479 64.6363 76.1685L62.4938 76.5483C62.3442 76.5743 62.2008 76.4718 62.172 76.3197C62.1462 76.167 62.2471 76.0209 62.4012 75.9934L64.5399 75.6151C64.6643 75.596 64.7797 75.6602 64.8338 75.7687L64.3457 72.9259C64.3412 73.055 64.2522 73.1713 64.118 73.1958L61.9793 73.5726C61.8276 73.6016 61.6824 73.4985 61.656 73.3464C61.6302 73.1928 61.7305 73.0476 61.8813 73.021L64.023 72.6426C64.1566 72.6196 64.2798 72.7 64.3261 72.8222L63.8274 69.9215C63.8395 70.0629 63.7469 70.1958 63.6026 70.2179L61.461 70.5984C61.3084 70.625 61.1656 70.5242 61.1392 70.3706C61.1133 70.2179 61.2128 70.0748 61.3654 70.0467L63.5041 69.6678C63.6492 69.6424 63.7825 69.7359 63.8199 69.8764L63.3144 66.9243C63.3363 67.0749 63.2378 67.2192 63.0881 67.2467L60.9456 67.625C60.7945 67.6525 60.6511 67.5479 60.6223 67.3928C60.5956 67.2437 60.6989 67.0979 60.847 67.0704L62.9902 66.6951C63.1413 66.6661 63.2841 66.7677 63.3129 66.9198L58.6166 39.6111L47.498 41.5472L54.2003 80.526C57.8899 81.2208 61.8668 81.7954 65.7888 81.3293L65.3773 78.9321C65.3512 79.0382 65.2678 79.1224 65.1553 79.1451ZM49.9903 42.5262C50.4784 42.5306 50.4876 43.1008 50.6227 43.7029C50.7631 44.3362 50.9201 44.6816 50.5104 44.952C49.3437 45.7185 48.5214 42.5058 49.9903 42.5262ZM51.972 50.2772C51.1977 50.735 50.802 49.9278 50.5654 48.8948C50.365 48.0237 50.112 45.8617 51.2396 46.266C51.4809 46.3547 51.9197 47.3415 52.1127 47.8716C52.4888 48.907 52.5351 49.9464 51.972 50.2772ZM53.7583 45.3767C53.7211 45.6101 53.5926 45.7619 53.416 45.8703C52.3045 46.529 52.0533 44.0227 52.8988 43.8267C53.3975 43.7098 53.844 44.8134 53.7583 45.3767ZM56.48 43.61C56.4518 43.4594 56.5536 43.3133 56.7047 43.2867L58.8434 42.9081C58.9984 42.8806 59.1418 42.9846 59.1685 43.1367C59.1928 43.2891 59.0925 43.4346 58.9423 43.4594L56.7997 43.8377C56.6522 43.8634 56.5058 43.7627 56.48 43.61ZM56.9969 46.5833C56.9725 46.4312 57.0699 46.2881 57.2246 46.2594L59.3632 45.8817C59.5158 45.8539 59.6616 45.9588 59.6883 46.1103C59.7127 46.2627 59.6117 46.4079 59.4606 46.4324L57.3205 46.8113C57.1664 46.8373 57.0245 46.7378 56.9969 46.5833ZM57.5149 49.5582C57.4882 49.4061 57.59 49.2608 57.7396 49.2342L59.8822 48.8544C60.0333 48.8299 60.1767 48.933 60.204 49.0845C60.2289 49.2357 60.1319 49.381 59.9778 49.4076L57.8391 49.7844C57.6862 49.8143 57.5404 49.7109 57.5149 49.5582ZM58.0318 52.5315C58.0068 52.3788 58.1054 52.2312 58.261 52.2052L60.3982 51.8269C60.5516 51.8018 60.6965 51.901 60.7215 52.0579C60.7503 52.2085 60.6487 52.3537 60.4952 52.3812L58.3536 52.7601C58.204 52.7855 58.06 52.6821 58.0318 52.5315ZM58.5504 55.5037C58.5246 55.3516 58.6279 55.2057 58.7766 55.1764L60.9183 54.8035C61.0679 54.776 61.2122 54.8767 61.2401 55.0258C61.268 55.1809 61.165 55.3262 61.0139 55.3545L58.8737 55.7296C58.722 55.7574 58.5768 55.6564 58.5504 55.5037ZM59.0682 58.4749C59.0429 58.3243 59.1433 58.1761 59.2973 58.151L61.4351 57.775C61.5848 57.7491 61.7326 57.8486 61.7602 58.0028C61.7822 58.1572 61.6851 58.3001 61.534 58.3246L59.3885 58.7044C59.2389 58.7307 59.0955 58.6267 59.0682 58.4749ZM59.5898 61.4467C59.5601 61.2961 59.6634 61.1533 59.813 61.1228L61.9547 60.7475C62.1058 60.72 62.2486 60.8216 62.2765 60.9737C62.3023 61.1243 62.202 61.271 62.0517 61.2991L59.9086 61.676C59.756 61.7034 59.6117 61.5995 59.5898 61.4467ZM60.1051 64.4216C60.0793 64.271 60.1797 64.1257 60.3328 64.0976L62.4715 63.7202C62.6226 63.6933 62.7675 63.7973 62.7948 63.9464C62.8183 64.1024 62.7212 64.2453 62.5701 64.2728L60.427 64.6526C60.2753 64.6777 60.1316 64.5737 60.1051 64.4216Z" fill="#EFAD1B"/>
<g id="Group_32">
<path id="Vector_48" d="M59.1678 43.1368C59.1411 42.9847 58.9977 42.8807 58.8427 42.9082L56.704 43.2868C56.5529 43.3131 56.4511 43.4596 56.4793 43.6102C56.5051 43.7626 56.6515 43.8636 56.799 43.8379L58.9416 43.4596C59.0921 43.4348 59.1921 43.2892 59.1678 43.1368Z" fill="white"/>
<path id="Vector_49" d="M59.6874 46.11C59.6607 45.9588 59.5149 45.8536 59.3623 45.8814L57.2236 46.2591C57.0686 46.2878 56.9716 46.431 56.9959 46.5831C57.0232 46.7379 57.1651 46.8371 57.3192 46.8108L59.4594 46.4319C59.6108 46.4076 59.7117 46.2624 59.6874 46.11Z" fill="white"/>
<path id="Vector_50" d="M60.2031 49.0848C60.1758 48.9333 60.0324 48.8302 59.8813 48.8547L57.7388 49.2345C57.5891 49.2611 57.4873 49.4063 57.514 49.5584C57.5399 49.7111 57.6856 49.8145 57.8382 49.7846L59.9769 49.4078C60.131 49.3812 60.2284 49.236 60.2031 49.0848Z" fill="white"/>
<path id="Vector_51" d="M60.721 52.0581C60.696 51.9015 60.5508 51.802 60.3977 51.8271L58.2605 52.2054C58.1049 52.2314 58.006 52.379 58.0313 52.5317C58.0595 52.6824 58.2035 52.7855 58.3531 52.7603L60.4947 52.3814C60.6482 52.3539 60.75 52.2087 60.721 52.0581Z" fill="white"/>
<path id="Vector_52" d="M61.2405 55.0259C61.2126 54.8768 61.068 54.7761 60.9187 54.8036L58.7771 55.1765C58.6283 55.2055 58.525 55.3516 58.5508 55.5037C58.5776 55.6564 58.7224 55.7574 58.8744 55.73L61.0146 55.3549C61.1654 55.3262 61.2687 55.1813 61.2405 55.0259Z" fill="white"/>
<path id="Vector_53" d="M61.7604 58.0026C61.7331 57.8484 61.5849 57.7489 61.4353 57.7749L59.2975 58.1508C59.1434 58.1759 59.0431 58.3244 59.0683 58.4747C59.0956 58.6268 59.239 58.7305 59.3887 58.7039L61.5342 58.3241C61.6853 58.2999 61.7824 58.1571 61.7604 58.0026Z" fill="white"/>
<path id="Vector_54" d="M62.2758 60.9739C62.2476 60.8218 62.1051 60.7202 61.954 60.7477L59.8123 61.123C59.6627 61.1535 59.5594 61.2963 59.5891 61.4469C59.6111 61.5996 59.7553 61.7036 59.9079 61.6761L62.0511 61.2993C62.2013 61.2712 62.3016 61.1245 62.2758 60.9739Z" fill="white"/>
<path id="Vector_55" d="M62.7933 63.9462C62.766 63.7971 62.6209 63.6934 62.47 63.72L60.3314 64.0974C60.1782 64.1255 60.0778 64.271 60.1037 64.4213C60.1304 64.5734 60.2738 64.6771 60.4255 64.652L62.5686 64.2722C62.7197 64.2453 62.8171 64.1022 62.7933 63.9462Z" fill="white"/>
<path id="Vector_56" d="M62.9893 66.6951L60.8461 67.0705C60.698 67.098 60.5947 67.2441 60.6214 67.3929C60.6502 67.548 60.7939 67.6529 60.9447 67.6251L63.0872 67.2468C63.2369 67.2193 63.3354 67.0749 63.3135 66.9243L63.312 66.9198C63.2832 66.7677 63.1404 66.6661 62.9893 66.6951Z" fill="white"/>
<path id="Vector_57" d="M63.5018 69.668L61.3631 70.0469C61.2105 70.0753 61.1111 70.2181 61.1369 70.3708C61.1633 70.5244 61.3061 70.6254 61.4587 70.5985L63.6004 70.2181C63.7446 70.196 63.8373 70.063 63.8251 69.9217L63.8174 69.8766C63.7806 69.7361 63.647 69.6426 63.5018 69.668Z" fill="white"/>
<path id="Vector_58" d="M64.0234 72.6428L61.8817 73.0211C61.7306 73.048 61.6306 73.1932 61.6564 73.3465C61.6828 73.4986 61.828 73.6017 61.9797 73.5727L64.1184 73.1959C64.2526 73.1714 64.3416 73.0554 64.3461 72.9261L64.3265 72.8221C64.2799 72.7001 64.157 72.6201 64.0234 72.6428Z" fill="white"/>
<path id="Vector_59" d="M64.5399 75.6157L62.4012 75.994C62.2471 76.0215 62.1462 76.1673 62.172 76.3203C62.2008 76.4724 62.3442 76.5749 62.4938 76.5489L64.6364 76.1691C64.7602 76.1485 64.846 76.0469 64.8605 75.93L64.8338 75.7696C64.7798 75.6608 64.6646 75.5965 64.5399 75.6157Z" fill="white"/>
<path id="Vector_60" d="M65.0586 78.5936L62.916 78.9674C62.7679 78.9958 62.6646 79.1425 62.6919 79.2943C62.7186 79.4464 62.8611 79.5474 63.0152 79.5205L65.1554 79.1452C65.2679 79.1222 65.3513 79.0382 65.3771 78.9318L65.34 78.7134C65.2818 78.6249 65.1723 78.5723 65.0586 78.5936Z" fill="white"/>
</g>
<g id="Group_33">
<path id="Vector_61" d="M51.2391 46.2662C50.1115 45.8618 50.3645 48.0239 50.5648 48.895C50.8018 49.928 51.1972 50.7351 51.9714 50.2773C52.5349 49.9465 52.4886 48.9072 52.1119 47.8718C51.9192 47.3419 51.4804 46.3549 51.2391 46.2662Z" fill="white"/>
<path id="Vector_62" d="M52.898 43.8264C52.0522 44.0225 52.3037 46.529 53.4152 45.8701C53.5921 45.7616 53.7204 45.6098 53.7575 45.3764C53.8433 44.8135 53.3968 43.7099 52.898 43.8264Z" fill="white"/>
<path id="Vector_63" d="M50.6225 43.703C50.4874 43.1009 50.4782 42.5307 49.9901 42.5262C48.5212 42.5059 49.3432 45.7186 50.5102 44.9521C50.9199 44.6817 50.7626 44.3362 50.6225 43.703Z" fill="white"/>
</g>
</g>
</g>
</g>
</g>
</g>
</g>
<g id="Group_34">
<g id="Group_35">
<path id="Vector_64" d="M68.6992 133.845L75.3376 135.86L79.6379 136.904L75.4828 135.378L68.8444 133.361L68.6992 133.845Z" fill="#8F7ECE"/>
<g id="Group_36">
<path id="Vector_65" d="M71.4645 132.706L65.6778 130.95L64.7441 134.067L70.5071 135.817C70.6899 136.627 71.1569 137.41 71.8418 138.062L73.8036 131.61C72.8812 131.764 72.0651 132.144 71.4645 132.706Z" fill="#FF5000"/>
<path id="Vector_66" d="M65.7026 129.515C65.9606 129.593 66.1058 129.866 66.0277 130.124L64.5911 134.915C64.5151 135.173 64.242 135.319 63.9861 135.241C63.7302 135.163 63.5844 134.89 63.661 134.632L65.0973 129.842C65.176 129.583 65.4467 129.436 65.7026 129.515Z" fill="#FF5000"/>
</g>
</g>
<g id="Group_37">
<g id="Group_38">
<path id="Vector_67" fill-rule="evenodd" clip-rule="evenodd" d="M12.3417 128.716C12.2651 128.675 12.293 128.627 12.3295 128.575C13.6922 128.09 15.0385 127.436 16.4017 126.957C17.1822 128.09 18.4546 128.045 19.2882 127.064C20.2463 127.323 24.0181 128.273 24.9823 128.603C24.1858 129.855 22.7557 130.4 21.7102 131.425C19.5228 130.727 14.5388 129.543 12.3417 128.716Z" fill="#8F7ECE"/>
<path id="Vector_68" opacity="0.62" fill-rule="evenodd" clip-rule="evenodd" d="M12.3417 128.716C12.2651 128.675 12.293 128.627 12.3295 128.575C13.6922 128.09 15.0385 127.436 16.4017 126.957C17.1822 128.09 18.4546 128.045 19.2882 127.064C20.2463 127.323 24.0181 128.273 24.9823 128.603C24.1858 129.855 22.7557 130.4 21.7102 131.425C19.5228 130.727 14.5388 129.543 12.3417 128.716Z" fill="white"/>
</g>
<g id="Group_39">
<path id="Vector_69" fill-rule="evenodd" clip-rule="evenodd" d="M18.4824 129.319C19.3047 127.575 21.7878 126.373 23.1947 126.296C24.8192 126.207 26.8685 127.097 28.7587 127.727C30.7493 128.392 32.5569 128.912 34.2856 129.458C37.9669 130.617 41.3296 131.605 45.3419 132.917C49.2844 134.21 53.0826 135.567 56.4177 136.616C58.16 137.165 59.9873 137.868 61.9671 138.583C63.6771 139.2 65.4608 139.797 66.9609 140.882C67.1752 141.037 67.2224 141.927 67.4243 142.104C69.9647 144.326 70.768 146.904 71.0248 149.613C71.1145 150.546 71.1367 151.465 70.6166 152.079C69.8976 152.924 68.9298 152.331 67.8699 152.079C66.713 151.803 65.5507 152.125 64.501 151.758C63.2594 151.324 62.039 150.844 60.712 150.359C59.1626 149.792 57.748 149.465 56.4453 148.164C55.5873 147.306 55.3474 146.24 54.4348 145.36C53.1722 144.135 51.442 143.664 49.9235 143.064C48.3566 142.447 46.9658 141.983 45.4725 141.481C39.3298 139.41 33.8561 137.712 27.7612 135.551C26.3727 135.06 25.019 134.646 23.3093 133.966C22.1007 133.484 19.7774 132.741 18.8612 131.727C18.396 131.211 18.1036 130.118 18.4824 129.319Z" fill="#FF5000"/>
<path id="Vector_70" d="M71.1813 152.443C71.7014 151.83 71.6815 150.542 71.5919 149.609C71.3354 146.901 70.1268 143.601 67.5864 141.379C67.4246 141.237 67.2554 141.107 67.0847 140.979C65.9361 141.784 65.9839 143.213 65.7007 144.278C65.0357 146.779 64.3552 149.54 64.5028 151.756C65.5528 152.123 66.6162 152.458 67.7735 152.734C68.833 152.986 70.4623 153.288 71.1813 152.443Z" fill="#EFAD1B"/>
<g id="Group_40">
<g id="Group_41">
<path id="Vector_71" fill-rule="evenodd" clip-rule="evenodd" d="M20.324 130.114C20.2338 129.482 21.8143 128.524 22.5432 128.377C23.7238 128.137 26.1395 129.069 27.6049 129.492C32.6595 130.949 37.8661 132.592 42.9034 134.139C48.3538 135.812 52.7713 137.113 58.2299 139.141C59.8562 139.744 62.2656 140.594 63.3234 142.039C63.9543 142.903 64.3224 145.346 63.3941 146.379C62.2582 147.641 59.5433 146.733 58.1996 145.811C57.4586 145.301 56.8649 144.551 56.1506 143.962C54.7057 142.77 53.1299 142.167 51.5763 141.614C47.2702 140.079 42.4267 138.51 38.1143 136.988C35.0766 135.918 32.0636 134.839 29.086 133.712C27.6176 133.156 26.0947 132.665 24.5794 132.193C23.1233 131.737 21.3696 131.443 20.324 130.114Z" fill="#8F7ECE"/>
<path id="Vector_72" opacity="0.62" fill-rule="evenodd" clip-rule="evenodd" d="M20.324 130.114C20.2338 129.482 21.8143 128.524 22.5432 128.377C23.7238 128.137 26.1395 129.069 27.6049 129.492C32.6595 130.949 37.8661 132.592 42.9034 134.139C48.3538 135.812 52.7713 137.113 58.2299 139.141C59.8562 139.744 62.2656 140.594 63.3234 142.039C63.9543 142.903 64.3224 145.346 63.3941 146.379C62.2582 147.641 59.5433 146.733 58.1996 145.811C57.4586 145.301 56.8649 144.551 56.1506 143.962C54.7057 142.77 53.1299 142.167 51.5763 141.614C47.2702 140.079 42.4267 138.51 38.1143 136.988C35.0766 135.918 32.0636 134.839 29.086 133.712C27.6176 133.156 26.0947 132.665 24.5794 132.193C23.1233 131.737 21.3696 131.443 20.324 130.114Z" fill="white"/>
</g>
<g id="Group_42">
<path id="Vector_73" d="M26.2296 129.064C26.0527 129.008 25.8743 128.953 25.6938 128.897C24.5579 129.695 23.4298 130.596 22.3008 131.482C22.4851 131.555 22.6704 131.62 22.8595 131.681C23.4417 131.254 24.0232 130.796 24.601 130.344C25.1445 129.919 25.6988 129.5 26.2296 129.064Z" fill="#8F7ECE"/>
<path id="Vector_74" d="M30.7836 130.426C30.6004 130.568 30.4335 130.751 30.2664 130.873C29.344 131.547 28.294 132.327 27.3867 133.105C27.5933 133.174 27.7997 133.243 28.0054 133.317C29.0546 132.5 30.0826 131.449 31.1235 130.526C31.0098 130.492 30.8973 130.459 30.7836 130.426Z" fill="#8F7ECE"/>
<path id="Vector_75" d="M36.8214 132.26C35.5392 133.139 34.1489 134.101 32.916 135.129C33.0677 135.185 33.2188 135.24 33.3717 135.295C34.6676 134.394 35.956 133.416 37.2391 132.39C37.0999 132.348 36.9603 132.304 36.8214 132.26Z" fill="#8F7ECE"/>
<path id="Vector_76" d="M41.674 133.762C40.4167 134.696 39.1366 135.817 38.0117 136.952C38.0467 136.964 38.0806 136.977 38.1132 136.988C38.2074 137.023 38.3068 137.056 38.4042 137.089C39.622 136.097 40.9057 134.994 42.062 133.879C41.9328 133.84 41.8037 133.801 41.674 133.762Z" fill="#8F7ECE"/>
<path id="Vector_77" d="M46.7753 135.325C45.4975 136.242 44.2367 137.354 42.9922 138.668C43.1356 138.716 43.2778 138.764 43.4221 138.812C44.6609 137.74 45.9503 136.528 47.1398 135.439C47.0184 135.401 46.897 135.364 46.7753 135.325Z" fill="#8F7ECE"/>
<path id="Vector_78" d="M51.8038 136.908C50.5816 137.862 49.0372 139.085 47.8242 140.308C47.9827 140.362 48.1401 140.416 48.298 140.469C49.5749 139.361 50.8414 138.113 52.12 137.011C52.0149 136.978 51.9086 136.942 51.8038 136.908Z" fill="#8F7ECE"/>
<path id="Vector_79" d="M56.5693 138.533C56.4191 138.48 56.2695 138.426 56.1213 138.375C54.8329 139.45 53.5302 140.658 52.2812 141.871C52.4816 141.945 52.682 142.023 52.8809 142.103C52.9483 142.035 53.0145 141.968 53.0807 141.902C54.197 140.784 55.4145 139.595 56.5693 138.533Z" fill="#8F7ECE"/>
<path id="Vector_80" d="M60.7093 140.139C60.5923 140.085 60.4738 140.03 60.3554 139.978C60.0244 140.34 59.6904 140.709 59.3374 141.07C58.3711 142.059 57.2824 143.137 56.4883 144.259C56.6112 144.374 56.7344 144.492 56.8549 144.609C58.1493 143.242 59.4238 141.627 60.7093 140.139Z" fill="#8F7ECE"/>
<path id="Vector_81" d="M61.0312 146.937C61.1687 146.959 61.3053 146.975 61.4403 146.985C62.271 146.046 63.1052 144.988 63.929 144.006C63.9198 143.893 63.9071 143.783 63.8905 143.673C62.936 144.743 61.9872 145.887 61.0312 146.937Z" fill="#8F7ECE"/>
</g>
</g>
<g id="Group_43">
<path id="Vector_82" fill-rule="evenodd" clip-rule="evenodd" d="M61.9835 148.96C62.7489 148.69 64.0848 148.98 65.3816 149.343C65.9358 149.5 66.83 149.765 66.7472 150.283C66.6486 150.9 65.5864 150.759 65.2061 150.708C64.0035 150.543 62.5823 150.1 61.896 149.642C61.7974 149.476 61.8529 149.14 61.9835 148.96Z" fill="white"/>
<path id="Vector_83" fill-rule="evenodd" clip-rule="evenodd" d="M65.6548 148.061C65.6129 146.745 68.4448 147.138 68.1782 148.198C68.0627 148.656 66.6241 148.98 65.9917 148.659C65.7658 148.543 65.6625 148.287 65.6548 148.061Z" fill="white"/>
</g>
</g>
</g>
<path id="Vector_84" d="M21.8079 148.479C22.3149 149.999 23.9558 150.818 25.4627 150.307L32.379 147.968C32.5916 147.899 32.707 147.664 32.634 147.452C32.5633 147.235 32.3327 147.12 32.1186 147.193L25.2017 149.532C24.1205 149.897 22.9446 149.309 22.5824 148.221C22.2178 147.132 22.8027 145.946 23.8836 145.582L31.874 142.879C32.631 142.624 33.4516 143.034 33.706 143.797C33.9581 144.557 33.5519 145.385 32.7949 145.637L26.1915 147.872C25.7468 148.024 25.2617 147.78 25.1121 147.332C24.9619 146.883 25.2047 146.396 25.6479 146.243L30.5357 144.593C30.7483 144.522 30.8637 144.289 30.7901 144.074C30.7195 143.859 30.4903 143.744 30.2762 143.816L25.3894 145.467C24.5192 145.764 24.0472 146.716 24.3408 147.595C24.6323 148.47 25.5814 148.944 26.4513 148.652L33.0547 146.419C34.2359 146.019 34.8745 144.725 34.4773 143.536C34.0801 142.346 32.7964 141.702 31.6166 142.101L23.6244 144.804C22.1163 145.313 21.3032 146.961 21.8079 148.479Z" fill="#B1BC00"/>
<g id="Group_44">
<path id="Vector_85" d="M116.733 140.159C116.599 140.2 116.459 140.196 116.332 140.156C116.134 140.09 115.966 139.931 115.899 139.716L112.967 130.147C112.9 129.93 112.951 129.704 113.078 129.538C113.161 129.432 113.275 129.348 113.408 129.307L133.825 123.675C134.181 123.564 134.552 123.765 134.661 124.121L137.197 132.4C137.306 132.753 137.11 133.132 136.757 133.24L117.499 139.894L116.733 140.159Z" fill="#4D3D87"/>
<path id="Vector_86" d="M103.993 139.865L95.7419 142.426L94.0898 140.732L93.168 139.785L103.032 136.725L103.993 139.865Z" fill="#B1BC00"/>
<path id="Vector_87" d="M109.538 143.939L105.21 145.282C104.769 145.419 104.295 145.171 104.159 144.721L103.154 141.448C103.019 141.002 102.544 140.746 102.101 140.887L99.2839 141.76C98.8407 141.899 98.3683 141.65 98.2303 141.2L97.5371 138.935C97.4011 138.49 97.6508 138.014 98.0928 137.875L100.912 137C101.353 136.863 101.606 136.391 101.469 135.94L100.464 132.667C100.329 132.221 100.579 131.743 101.021 131.606L105.348 130.262C105.796 130.124 106.265 130.379 106.402 130.823L110.095 142.877C110.234 143.328 109.984 143.8 109.538 143.939Z" fill="#4D3D87"/>
<path id="Vector_88" d="M109.39 144.148C109.218 144.202 109.034 144.195 108.874 144.145C108.619 144.06 108.403 143.855 108.316 143.575L104.542 131.254C104.457 130.976 104.52 130.684 104.684 130.467C104.791 130.335 104.935 130.227 105.109 130.172L131.403 122.919C131.856 122.776 132.337 123.035 132.477 123.493L135.743 134.152C135.884 134.612 135.63 135.099 135.177 135.239L110.378 143.806L109.39 144.148Z" fill="#B1BC00"/>
<g id="Group_45">
<g id="Group_46">
<path id="Vector_89" fill-rule="evenodd" clip-rule="evenodd" d="M126.559 125.708C127.246 126.031 128.519 125.886 129.762 125.668C130.291 125.574 131.149 125.41 131.118 124.919C131.084 124.338 130.08 124.368 129.723 124.382C128.587 124.422 127.223 124.704 126.541 125.066C126.432 125.211 126.453 125.53 126.559 125.708Z" fill="white"/>
<path id="Vector_90" fill-rule="evenodd" clip-rule="evenodd" d="M129.898 126.891C129.738 128.11 132.411 128.009 132.26 126.998C132.194 126.559 130.881 126.122 130.265 126.363C130.043 126.45 129.925 126.676 129.898 126.891Z" fill="white"/>
</g>
<g id="Group_47">
<path id="Vector_91" fill-rule="evenodd" clip-rule="evenodd" d="M108.475 136.527C109.2 136.978 109.848 138.267 110.412 139.574C110.651 140.133 111.025 141.042 110.552 141.317C109.986 141.644 109.397 140.678 109.188 140.332C108.526 139.235 107.947 137.774 107.865 136.905C107.932 136.715 108.242 136.539 108.475 136.527Z" fill="white"/>
<path id="Vector_92" fill-rule="evenodd" clip-rule="evenodd" d="M111.632 138.95C112.671 138.045 114.224 140.632 113.189 141.114C112.741 141.321 111.526 140.353 111.368 139.623C111.312 139.36 111.452 139.108 111.632 138.95Z" fill="white"/>
</g>
</g>
<g id="Group_48">
<g id="Group_49">
<path id="Vector_93" d="M93.9512 148.94L92.943 149.217L86.9803 150.198C86.5255 150.341 86.0458 150.079 85.9038 149.622L82.6385 138.963C82.4981 138.505 82.7493 138.018 83.2064 137.876L89.6694 134.965C89.844 134.912 90.0254 134.918 90.1872 134.97C90.4437 135.054 90.6595 135.258 90.7429 135.538L94.5192 147.858C94.6041 148.137 94.5411 148.43 94.3764 148.645C94.2716 148.78 94.1249 148.885 93.9512 148.94Z" fill="#4D3D87"/>
</g>
<g id="Group_50">
<path id="Vector_94" fill-rule="evenodd" clip-rule="evenodd" d="M86.645 146.222C85.9054 145.808 84.8821 142.504 86.0209 142.223C86.9496 141.996 87.7852 144.932 87.3586 145.84C87.2479 146.076 87.1081 146.185 86.645 146.222Z" fill="white"/>
<path id="Vector_95" fill-rule="evenodd" clip-rule="evenodd" d="M88.2938 141.772C87.3266 142.372 86.8801 140.698 87.4649 140.351C88.2519 139.883 89.1479 141.243 88.2938 141.772Z" fill="white"/>
<path id="Vector_96" fill-rule="evenodd" clip-rule="evenodd" d="M85.4337 140.833C84.4231 141.211 83.7643 138.659 84.7283 138.437C85.1344 138.344 85.3084 138.594 85.561 139.066C85.9348 139.762 86.1396 140.569 85.4337 140.833Z" fill="white"/>
</g>
</g>
</g>
</g>
</g>
<g id="Group_51">
<g id="Group_52">
<path id="Vector_97" fill-rule="evenodd" clip-rule="evenodd" d="M98.791 106.619C98.8593 105.401 100.021 103.712 101.261 102.121C101.791 101.44 102.67 100.353 103.327 100.762C104.12 101.253 103.317 102.649 103.03 103.144C102.115 104.722 100.696 106.438 99.6736 107.13C99.3928 107.174 98.9611 106.904 98.791 106.619Z" fill="white"/>
<path id="Vector_98" fill-rule="evenodd" clip-rule="evenodd" d="M101.325 99.3817C99.4976 98.687 101.657 94.9806 102.955 95.9566C103.518 96.3818 103.138 98.5654 102.338 99.2574C102.049 99.504 101.643 99.501 101.325 99.3817Z" fill="white"/>
<path id="Vector_99" fill-rule="evenodd" clip-rule="evenodd" d="M101.476 89.4475C100.806 89.2688 100.666 88.2674 100.901 87.2849C101.089 86.4959 101.809 85.0708 102.595 85.5648C102.945 85.7832 103.162 86.5698 102.988 87.3906C102.786 88.355 102.339 89.674 101.476 89.4475Z" fill="white"/>
</g>
<g id="Group_53">
<path id="Vector_100" fill-rule="evenodd" clip-rule="evenodd" d="M49.1898 92.2421C47.1324 93.193 47.2927 87.2935 49.2637 88.3391C50.2924 88.8821 49.7256 91.276 49.1898 92.2421Z" fill="white"/>
<path id="Vector_101" fill-rule="evenodd" clip-rule="evenodd" d="M46.9362 95.5038C47.1274 95.0621 47.761 94.263 48.6115 94.7193C49.7221 95.3143 49.8239 97.8567 50.054 98.8566C50.3358 100.074 51.4075 102.235 50.38 103.19C48.9146 104.549 47.8358 101.083 47.5125 99.8762C47.343 99.234 47.2367 98.5886 47.1188 98.039C46.9175 97.0974 46.5648 96.3527 46.9362 95.5038Z" fill="white"/>
</g>
</g>
</g>
</g>
<defs>
<clipPath id="clip0_318_34175">
<rect width="152" height="153" fill="white"/>
</clipPath>
</defs>
</svg>
