<svg width="169" height="169" viewBox="0 0 169 169" fill="none" xmlns="http://www.w3.org/2000/svg">
<g id="biology 1">
<g id="Group">
<g id="Group_2">
<g id="Group_3">
<path id="Vector" d="M145.36 154.076L145.204 155.216C144.979 156.857 143.466 158.005 141.825 157.781L57.2657 146.184C55.6249 145.959 54.4769 144.446 54.702 142.805L54.8581 141.666L145.36 154.076Z" fill="#8F7ECE"/>
<path id="Vector_2" d="M62.813 83.649C63.0387 82.0071 64.5515 80.8595 66.194 81.0849L150.752 92.6802C152.392 92.9053 153.542 94.4184 153.316 96.0599L145.36 154.077L54.8574 141.666L62.813 83.649Z" fill="#8F7ECE"/>
<path id="Vector_3" opacity="0.75" d="M143.025 153.745L150.688 97.8623C150.902 96.3063 149.814 94.8708 148.257 94.6576L68.0641 83.6604C66.5071 83.4475 65.0733 84.5361 64.861 86.0927L57.1973 141.976L143.025 153.745Z" fill="white"/>
</g>
<g id="Group_4">
<path id="Vector_4" fill-rule="evenodd" clip-rule="evenodd" d="M143.494 146.839C142.547 147.888 142.108 150.232 141.817 152.562C141.691 153.558 141.517 155.174 142.395 155.388C143.451 155.644 143.943 153.838 144.114 153.192C144.663 151.147 144.912 148.567 144.642 147.154C144.448 146.883 143.871 146.746 143.494 146.839Z" fill="white"/>
<path id="Vector_5" fill-rule="evenodd" clip-rule="evenodd" d="M139.582 152.143C137.508 151.193 136.229 156.014 138.099 156.294C138.912 156.414 140.4 154.314 140.312 153.085C140.277 152.645 139.941 152.308 139.582 152.143Z" fill="white"/>
</g>
<g id="Group_5">
<path id="Vector_6" fill-rule="evenodd" clip-rule="evenodd" d="M101.418 89.6816C101.418 108.344 116.547 123.472 135.209 123.472C153.87 123.472 168.999 108.344 168.999 89.6816C168.999 71.0197 153.87 55.8909 135.209 55.8909C116.547 55.8909 101.418 71.0197 101.418 89.6816Z" fill="#EFAD1B"/>
<g id="Group_6">
<g id="Group_7">
<path id="Vector_7" d="M144.135 113.74C144.551 112.285 144.882 110.853 146.061 109.989C146.46 109.698 147.168 109.461 147.78 109.323C149.091 109.029 150.411 109.081 151.809 109.078C153.231 109.075 154.733 108.961 155.629 108.307C156.256 107.85 156.564 107.109 156.75 106.274C156.957 105.358 156.963 104.264 156.611 103.365C156.545 103.198 156.454 103.021 156.365 102.804C156.289 102.618 156.225 102.441 156.12 102.208C156.039 102.03 155.978 101.931 155.91 101.683C155.856 101.488 155.79 101.134 155.841 100.877C156.004 100.036 157.053 99.7299 157.066 98.8439C157.069 98.6307 157.066 98.4759 156.96 98.3531C156.898 98.2785 156.679 98.1359 156.646 97.9676C156.588 97.6662 157.029 97.3038 157.066 96.9166C157.138 96.1723 156.393 95.7716 156.365 95.0239C156.345 94.4796 156.615 94.0317 156.996 93.7274C157.05 93.6835 157.141 93.6739 157.207 93.6221C157.263 93.5765 157.292 93.4818 157.347 93.4468C157.483 93.3607 157.659 93.3207 157.803 93.2362C158.294 92.9477 158.831 92.5246 159.063 92.0446C159.357 91.4426 159.245 90.6042 158.889 89.977C158.812 89.842 158.671 89.6961 158.573 89.5565C158.298 89.1624 157.974 88.7821 157.627 88.3996C156.749 87.4305 155.765 86.5247 154.858 85.5616C154.509 85.1902 154.196 84.8526 153.876 84.4396C153.629 84.1188 153.278 83.766 153.072 83.3527C153.046 83.3029 153.035 83.1824 153.001 83.1074C152.711 82.4638 152.8 81.4429 152.86 80.6893C152.931 79.8053 153.079 78.964 152.931 77.9566C152.767 76.8343 152.173 75.713 151.634 74.8014C151.348 74.3161 151.057 73.859 150.758 73.4342C149.27 71.3253 147.291 69.1511 145.396 67.6859C145.08 67.4423 144.766 67.2208 144.416 66.9854C144.096 66.7715 143.806 66.5768 143.467 66.3893C143.001 66.1312 142.546 65.8595 142.031 65.6179C140.312 64.8138 138.418 64.1808 136.353 63.8659C135.745 63.7741 135.13 63.7203 134.495 63.6559C133.876 63.5929 133.24 63.5067 132.603 63.4807C132.177 63.4632 131.782 63.5196 131.377 63.5163C128.532 63.4859 125.977 64.0811 123.911 65.0228C123.621 65.1552 123.348 65.3057 123.07 65.443C122.207 65.8701 121.406 66.2781 120.582 66.7745C119.769 67.2657 119.146 67.8288 118.479 68.4566C118.053 68.86 117.652 69.2881 117.253 69.7535C117.06 69.9786 116.859 70.2172 116.728 70.4899C116.522 70.6186 116.433 70.854 116.307 71.0507C116.183 71.2434 116.034 71.4171 115.921 71.6115C115.812 71.7967 115.747 72.0122 115.641 72.2073C115.415 72.6209 115.215 73.0074 115.01 73.5035C114.953 73.6428 114.863 73.794 114.8 73.9597C114.781 74.0092 114.814 74.0617 114.8 74.0993C114.628 74.5479 114.472 74.9961 114.344 75.4665C114.158 76.1567 114.002 76.8221 113.888 77.6054C113.826 78.0431 113.748 78.5933 113.712 79.1822C113.683 79.6964 113.675 80.2414 113.679 80.8296C113.695 83.0913 114.079 85.3477 114.626 87.3483C114.689 87.5833 114.797 87.8127 114.87 88.0494C115.789 91.0653 117.096 93.3834 118.691 95.6544C118.947 96.0191 119.26 96.3532 119.532 96.706C119.806 97.0625 120.075 97.4233 120.337 97.7926C120.869 98.5403 121.391 99.2932 121.845 100.106C122.298 100.921 122.716 101.793 123.001 102.735C123.153 103.24 123.317 103.78 123.352 104.311C123.482 106.33 120.863 114.697 119.463 119.583C124.165 122.066 129.522 123.472 135.211 123.472C137.295 123.472 139.336 123.283 141.316 122.92C142.196 120.088 143.131 117.057 143.398 116.158C143.632 115.368 143.899 114.557 144.135 113.74Z" fill="white"/>
<g id="Group_8">
<path id="Vector_8" opacity="0.67" d="M135.717 111.636C135.488 110.492 134.865 109.636 134.691 108.482C134.514 107.32 134.892 106.349 135.364 105.644C136.634 103.746 139.181 103.324 141.817 102.839C142.683 102.681 143.705 102.43 144.737 102.419C145.773 102.407 147.099 102.393 147.53 102.945C147.891 103.406 147.765 104.533 147.882 105.398C147.963 105.991 148.198 107.116 148.878 107.116C149.385 107.116 149.562 106.533 149.616 106.099C149.679 105.607 149.681 104.925 149.681 104.382C149.681 103.136 149.87 101.751 149.616 100.982C149.103 99.4283 146.987 99.3458 144.962 99.5795C142.238 99.8941 140.197 100.703 137.9 101.472C137.36 101.653 136.796 101.864 136.199 102.034C135.66 102.187 134.903 102.381 134.306 102.349C133.885 102.326 133.249 102.115 133.119 101.613C132.988 101.123 133.238 100.508 133.407 100.106C134.336 97.8869 136.364 97.1967 138.799 96.6365C140.748 96.1873 142.778 96.0658 145.059 96.2507C147.708 96.4652 150.138 96.9715 152.731 96.7408C153.306 96.6897 153.789 96.4685 153.854 96.1097C153.972 95.4562 153.262 94.7 152.956 94.288C152.525 93.7084 152.164 93.2311 151.767 92.7806C150.885 91.7778 150.037 90.8532 149.232 89.9425C148.364 88.9592 147.45 88.0971 146.213 87.628C144.947 87.1474 143.34 87.155 141.624 87.0679C140.362 87.0035 137.977 86.8728 137.033 87.4188C136.265 87.8611 135.867 88.946 135.654 90.0115C135.497 90.7955 135.439 91.651 135.171 92.3597C134.63 93.8025 133.383 94.6023 132.155 95.374C131.292 95.9153 130.237 96.5002 129.682 97.4069C128.821 98.818 128.946 101.052 128.849 103.33C128.663 107.685 128.555 112.138 127.724 115.772C127.354 117.399 126.114 120.225 125.51 122.057C128.004 122.803 130.617 123.27 133.317 123.419C134.089 120.725 134.881 117.337 135.46 115.036C135.725 113.989 135.956 112.83 135.717 111.636Z" fill="#CAD309"/>
<g id="Group_9">
<path id="Vector_9" opacity="0.29" fill-rule="evenodd" clip-rule="evenodd" d="M140.349 88.8201C139.649 89.098 139.297 90.0064 138.984 90.7127C138.65 91.4643 138.321 92.2522 137.966 92.8507C137.259 94.0472 136.141 95.1761 134.919 96.1095C133.805 96.9595 132.54 97.8953 131.133 98.6336C130.502 98.9644 129.676 99.3535 128.82 99.4743C127.955 99.5965 126.953 99.4281 126.295 98.8789C125.339 98.0788 125.5 96.3109 125.981 95.1285C126.632 93.522 127.699 92.407 128.82 91.3085C129.331 90.8075 130.075 90.1642 130.187 89.3456C130.249 88.8953 130.138 88.4349 130.081 88.049C130.016 87.5955 129.946 87.1473 130.048 86.7172C130.337 85.4658 131.841 84.7152 132.921 84.298C134.142 83.8267 135.522 83.5491 136.846 83.3174C138.187 83.0817 139.769 83.0318 141.402 82.9661C143.085 82.8995 144.824 83.189 145.749 82.4763C146.557 81.8531 146.464 80.4727 146.204 79.3211C145.939 78.1467 145.642 77.2584 145.573 75.817C145.535 75.005 145.648 74.0342 146.274 74.2745C146.945 74.5307 147.725 75.2559 148.307 75.8863C149.145 76.797 150.048 77.7011 150.48 78.9362C151.01 80.4496 150.62 82.8031 150.829 84.473C150.914 85.1384 151.065 85.9289 150.936 86.5062C150.754 87.3136 150.27 88.1414 149.358 88.3633C148.202 88.8845 141.491 88.3672 140.349 88.8201Z" fill="#8F7ECE"/>
<path id="Vector_10" opacity="0.41" fill-rule="evenodd" clip-rule="evenodd" d="M154.101 103.717C154.082 103.711 154.071 103.684 154.032 103.682C153.297 103.639 153.359 104.663 153.189 104.979C152.995 105.343 152.255 105.402 151.647 105.434C150.248 105.509 149.278 105.469 147.757 105.469C147.213 105.469 146.304 105.319 146.074 105.679C145.908 105.94 146.091 106.457 146.144 106.626C146.43 107.509 147.056 107.597 148.282 107.643C148.809 107.662 149.377 107.704 149.895 107.748C151.04 107.844 152.268 108.013 153.153 107.922C153.675 107.87 154.103 107.647 154.241 107.326C154.414 106.923 154.262 106.398 154.31 105.714C154.352 105.142 154.512 104.784 154.486 104.418C154.46 104.059 154.359 103.794 154.101 103.717Z" fill="#FF5000"/>
<path id="Vector_11" opacity="0.41" fill-rule="evenodd" clip-rule="evenodd" d="M131.467 67.5063C133.337 67.5063 135.074 67.8239 136.585 68.2774C138.02 68.7085 139.551 69.326 140.719 70.0298C141.87 70.7223 143.085 71.6944 143.628 73.0081C144.297 74.6281 143.816 76.6571 143.102 77.7747C142.171 79.2337 139.859 79.5231 137.986 79.9483C136.604 80.2615 135.222 80.6216 133.92 80.9296C133.211 81.0966 132.563 81.2372 131.957 81.4558C130.185 82.0921 128.568 83.1933 127.751 84.8202C127.349 85.6197 127.17 86.432 126.804 87.1687C126.155 88.4811 124.984 90.0965 123.09 90.1124C122.111 90.12 121.345 89.7516 120.602 89.2717C119.288 88.4211 118.391 87.1509 117.764 85.485C117.155 83.8749 116.772 82.0017 117.061 79.7384C117.279 78.0447 117.956 76.1151 118.71 74.7611C119.558 73.2361 120.355 72.0416 121.548 70.9405C123.716 68.9395 127.139 67.3033 131.395 67.5063C131.42 67.5073 131.444 67.5063 131.467 67.5063ZM140.72 70.5206C140.681 70.5156 140.808 70.6015 140.859 70.6256C140.956 70.6691 140.868 70.5358 140.72 70.5206Z" fill="#FF5000"/>
</g>
</g>
</g>
<g id="Group_10">
<g id="Group_11">
<path id="Vector_12" fill-rule="evenodd" clip-rule="evenodd" d="M105.64 82.9458C106.187 83.9561 106.086 85.891 105.87 87.786C105.78 88.5954 105.609 89.9061 104.877 89.9068C103.994 89.9065 103.949 88.3884 103.936 87.8461C103.894 86.1261 104.189 84.04 104.673 82.9778C104.88 82.8005 105.361 82.8019 105.64 82.9458Z" fill="white"/>
<path id="Vector_13" fill-rule="evenodd" clip-rule="evenodd" d="M107.716 87.8807C109.534 87.5275 109.626 91.5776 108.094 91.4423C107.429 91.3805 106.655 89.4387 106.959 88.4864C107.072 88.1441 107.4 87.9434 107.716 87.8807Z" fill="white"/>
<path id="Vector_14" fill-rule="evenodd" clip-rule="evenodd" d="M106.282 98.2873C106.91 98.0945 107.518 98.829 107.816 99.734C108.053 100.462 108.179 101.963 107.296 101.959C106.908 101.959 106.343 101.435 106.079 100.689C105.765 99.8152 105.471 98.5332 106.282 98.2873Z" fill="white"/>
</g>
<g id="Group_12">
<path id="Vector_15" fill-rule="evenodd" clip-rule="evenodd" d="M160.925 75.4666C162.835 75.3781 160.441 71.0409 159.364 72.585C158.801 73.3897 160.15 74.954 160.925 75.4666Z" fill="white"/>
<path id="Vector_16" fill-rule="evenodd" clip-rule="evenodd" d="M163.873 77.025C163.558 76.7708 162.777 76.4193 162.313 77.0904C161.707 77.9647 162.611 79.8993 162.824 80.7347C163.081 81.7507 163.11 83.7787 164.249 84.0916C165.873 84.5369 165.349 81.5345 165.123 80.5096C165.005 79.9647 164.835 79.4422 164.712 78.9863C164.5 78.206 164.479 77.5145 163.873 77.025Z" fill="white"/>
</g>
</g>
</g>
</g>
<g id="Group_13">
<g id="Group_14">
<path id="Vector_17" fill-rule="evenodd" clip-rule="evenodd" d="M137.645 142.071C137.413 143.467 136.948 145.618 136.604 147.373C136.435 148.25 136.398 149.477 135.367 149.206C134.619 149.009 134.728 148.249 134.818 147.693C135.039 146.314 135.325 145.16 135.609 143.738C135.75 143.035 136.015 142.264 135.961 141.783C135.9 141.244 135.437 140.954 135.283 140.445C134.881 139.117 134.943 137.707 134.983 136.023C134.998 135.4 134.766 131.581 136.187 131.978C136.925 132.183 136.704 133.203 136.651 134.033C136.523 136.065 136.524 137.586 136.873 139.497C137.05 140.478 137.079 140.787 137.893 139.943C138.934 138.864 139.748 137.08 140.5 135.321C140.883 134.424 141.17 132.929 142.086 133.094C143.396 133.33 142.643 134.591 142.105 135.87C140.984 138.547 139.68 141.243 137.645 142.071Z" fill="white"/>
<path id="Vector_18" fill-rule="evenodd" clip-rule="evenodd" d="M107.206 129.203C107.749 133.026 105.759 138.982 102.828 140.567C102.397 140.8 101.78 140.987 101.206 140.9C100.08 140.729 99.3797 139.851 99.1292 139.111C98.2222 136.445 99.1246 131.404 100.786 127.501C101.258 126.392 101.958 124.559 102.69 124.327C102.93 124.249 103.29 124.375 103.602 124.388C103.983 124.404 104.213 124.361 104.453 124.432C105.976 124.888 106.508 126.472 106.873 127.58C107.875 127.283 108.805 125.249 109.828 124.906C110.237 124.769 110.792 125.143 110.765 125.572C110.739 126.016 110.291 126.341 109.985 126.677C109.102 127.649 108.192 128.562 107.206 129.203ZM103.584 125.844C102.816 127.219 104.028 128.587 105.512 128.387C105.319 127.342 104.961 125.894 103.584 125.844ZM102.162 128.027C102.178 127.961 102.098 127.956 102.084 128.071C101.684 128.989 101.373 130.091 101.048 131.228C100.449 133.329 100.155 135.279 100.294 137.121C100.353 137.891 100.49 139.157 101.241 139.383C102.238 139.683 103.26 138.288 103.749 137.577C105.197 135.47 106.014 132.159 105.759 129.852C104.277 130.156 102.57 129.092 102.162 128.027Z" fill="white"/>
<path id="Vector_19" fill-rule="evenodd" clip-rule="evenodd" d="M123.384 133.229C123.805 136.531 121.751 141.498 119.578 143.295C118.6 144.102 116.639 144.641 115.648 143.102C114.571 141.43 115 137.976 115.965 134.56C116.353 133.182 116.933 131.963 117.395 130.72C117.795 129.639 117.961 128.824 118.727 128.379C119.28 128.058 120.36 127.954 121.131 128.336C122.194 128.862 122.794 130.516 123.111 131.625C123.81 131.566 125.34 129.276 126.172 129.511C126.491 129.6 126.715 129.942 126.708 130.195C126.685 130.904 125.634 131.537 125.145 131.94C124.464 132.502 123.981 132.808 123.384 133.229ZM121.34 130.852C121.146 130.452 120.756 129.819 120.482 129.677C119.518 129.179 118.916 130.042 118.939 130.896C118.965 131.937 120.671 132.686 121.743 132.228C121.668 131.865 121.572 131.327 121.34 130.852ZM118.069 132.772C117.717 133.448 117.509 134.579 117.28 135.535C116.815 137.482 116.398 139.053 116.535 140.699C116.59 141.373 116.716 142.488 117.368 142.664C118.139 142.872 119.158 141.64 119.637 140.989C120.966 139.186 122.101 136.017 121.97 133.754C120.755 134.043 118.889 133.566 118.121 132.588C118.104 132.649 118.087 132.71 118.069 132.772Z" fill="white"/>
<path id="Vector_20" fill-rule="evenodd" clip-rule="evenodd" d="M133.012 133.922C131.84 133.599 132.091 132.844 131.259 132.624C130.286 132.369 129.453 133.511 128.855 134.527C127.665 136.551 126.721 139.311 126.627 141.857C126.588 142.899 126.638 144.59 127.442 144.813C127.919 144.944 128.318 144.409 128.645 144.094C129.041 143.709 129.338 143.411 129.565 142.963C128.706 142.789 127.318 142.93 127.602 141.937C127.771 141.339 128.527 141.464 129.18 141.525C130.056 141.607 131.018 141.689 131.53 142.13C132.325 142.816 131.738 145.25 131.564 146.655C131.452 147.552 131.445 148.599 130.59 148.435C129.781 148.279 129.975 147.178 130.03 146.681C130.126 145.814 130.246 145.341 130.397 144.463C129.414 145.783 127.232 147.312 125.829 145.348C124.109 142.941 125.941 134.323 129.083 131.87C129.718 131.375 130.88 130.863 132.118 131.475C132.629 131.729 134.345 133.455 133.012 133.922Z" fill="white"/>
<path id="Vector_21" fill-rule="evenodd" clip-rule="evenodd" d="M112.799 126.353C112.717 127.663 112.125 128.94 111.817 130.254C110.921 134.071 109.66 138.099 109.439 141.593C110.551 142.257 113.267 141.881 112.965 143.199C112.828 143.794 112.366 143.806 111.387 143.61C110.14 143.36 108.837 143.255 108.247 142.514C107.726 141.858 108.109 140.06 108.344 138.691C108.944 135.206 109.86 131.577 111.108 127.861C111.46 126.808 111.767 125.29 112.799 126.353Z" fill="white"/>
<path id="Vector_22" fill-rule="evenodd" clip-rule="evenodd" d="M90.5358 131.078C91.7379 131.966 93.0232 133.62 91.9023 135.585C91.2481 136.734 88.585 139.009 87.1676 138.215C86.2147 137.683 86.8541 135.761 87.1766 134.235C87.9704 130.483 88.9098 126.777 90.0885 122.651C90.5034 121.197 90.3961 120.443 91.7458 120.8C94.8716 121.629 96.6858 123.547 95.4727 126.579C94.5274 128.942 92.1195 130.014 90.5358 131.078ZM94.096 126.053C94.8552 124.174 93.8808 122.836 91.5884 122.282C90.8837 124.809 90.4645 127.176 89.7284 129.718C90.8906 129.148 93.3239 127.968 94.096 126.053ZM88.1143 136.76C88.9577 136.516 90.2582 135.752 90.675 134.769C91.2821 133.339 90.0958 132.624 89.2369 131.902C88.786 133.563 88.4942 135.137 88.1143 136.76Z" fill="white"/>
<path id="Vector_23" fill-rule="evenodd" clip-rule="evenodd" d="M98.7167 123.125C99.7403 123.122 99.2257 124.32 98.9811 125.457C98.0648 129.701 97.1254 134.072 95.9903 138.479C95.7794 139.296 95.5589 139.882 94.9113 139.698C94.2607 139.512 94.4003 138.849 94.6126 137.953C95.687 133.438 96.6056 129.361 97.6813 124.887C97.9011 123.979 98.0767 123.127 98.7167 123.125Z" fill="white"/>
</g>
<g id="Group_15">
<path id="Vector_24" d="M99.454 118.615C99.3669 118.615 99.2791 118.594 99.1953 118.55C95.5291 116.559 93.0674 113.265 92.6119 109.74C92.3808 107.957 92.737 106.285 93.5896 105.123C93.345 101.595 95.8361 97.2447 97.7997 95.1662C98.0047 94.9483 98.3466 94.9397 98.5642 95.144C98.781 95.3494 98.7922 95.6923 98.5859 95.9092C96.9894 97.6021 94.9072 101.098 94.6752 104.089C95.264 103.702 95.9589 103.458 96.7312 103.374C98.1634 103.217 100.226 103.624 101.374 104.889C102.081 105.667 102.334 106.652 102.108 107.735C101.923 108.625 101.381 109.3 100.541 109.687C99.1976 110.307 97.398 110.03 96.3147 109.437C95.1584 108.805 94.3616 107.91 93.9345 106.769C93.642 107.586 93.5509 108.565 93.684 109.601C94.0966 112.782 96.3483 115.773 99.7122 117.599C99.9762 117.742 100.073 118.07 99.929 118.333C99.8317 118.513 99.6468 118.615 99.454 118.615ZM94.7135 105.461C94.7158 105.475 94.7181 105.491 94.7201 105.507C94.9293 106.831 95.6407 107.835 96.8339 108.487C97.6601 108.939 99.0811 109.169 100.087 108.704C100.611 108.463 100.935 108.063 101.049 107.514C101.203 106.773 101.042 106.135 100.572 105.616C99.7191 104.676 98.0535 104.319 96.8484 104.45C95.9688 104.546 95.2515 104.886 94.7135 105.461Z" fill="white"/>
<path id="Vector_25" d="M98.0381 99.4541C98.0309 99.4541 98.0223 99.4538 98.0141 99.4538C97.7147 99.4403 97.483 99.1871 97.4978 98.8881L97.6127 96.3772L95.0774 97.4677C94.8027 97.5862 94.4845 97.4588 94.3667 97.1849C94.2482 96.9096 94.3749 96.5917 94.6496 96.4735L97.9781 95.0403C98.1484 94.9674 98.3458 94.9862 98.4996 95.0925C98.6541 95.1991 98.7412 95.3757 98.7323 95.5625L98.5785 98.9373C98.5656 99.2274 98.3263 99.4541 98.0381 99.4541Z" fill="white"/>
</g>
<g id="Group_16">
<path id="Vector_26" d="M110.294 123.148C110.263 123.146 110.232 123.142 110.202 123.133C109.873 123.053 109.672 122.722 109.752 122.394C109.841 122.026 109.906 121.643 109.939 121.255C110.165 118.696 109.064 116.419 107.536 116.286C105.27 116.085 103.726 113.319 104.02 109.989C104.091 109.183 105.311 109.29 105.238 110.096C105.012 112.656 106.113 114.931 107.644 115.066C109.907 115.266 111.452 118.031 111.158 121.363C111.119 121.811 111.044 122.257 110.941 122.686C110.868 122.981 110.59 123.175 110.294 123.148Z" fill="white"/>
<path id="Vector_27" d="M103.062 122.013C102.825 118.424 104.853 114.82 107.643 115.066C109.172 115.202 110.654 113.154 110.879 110.594C110.95 109.789 112.169 109.895 112.099 110.702C111.805 114.033 109.799 116.486 107.535 116.286C106.005 116.15 104.523 118.198 104.299 120.757C104.263 121.152 104.258 121.546 104.284 121.932C104.336 122.741 103.118 122.82 103.062 122.013Z" fill="white"/>
<g id="Group_17">
<path id="Vector_28" d="M105.729 117.854C105.718 118.003 105.832 118.134 105.98 118.143L108.666 118.342C108.814 118.353 108.944 118.241 108.956 118.091C108.967 117.941 108.852 117.812 108.705 117.801L106.021 117.603C105.872 117.591 105.741 117.703 105.729 117.854Z" fill="white"/>
<path id="Vector_29" d="M105.391 119.665L109.023 119.932C109.173 119.944 109.303 119.832 109.313 119.681C109.325 119.533 109.213 119.403 109.063 119.392L105.432 119.124C105.282 119.113 105.153 119.226 105.141 119.375C105.13 119.523 105.242 119.655 105.391 119.665Z" fill="white"/>
<path id="Vector_30" d="M109.311 120.952L104.957 120.631C104.808 120.62 104.677 120.732 104.667 120.881C104.656 121.032 104.767 121.16 104.917 121.173L109.271 121.493C109.419 121.504 109.55 121.392 109.562 121.242C109.573 121.092 109.459 120.963 109.311 120.952Z" fill="white"/>
<path id="Vector_31" d="M106.568 113.742L108.863 113.912C109.013 113.923 109.143 113.811 109.153 113.662C109.165 113.512 109.053 113.381 108.902 113.371L106.608 113.201C106.458 113.19 106.328 113.303 106.317 113.452C106.307 113.601 106.419 113.731 106.568 113.742Z" fill="white"/>
<path id="Vector_32" d="M109.673 112.134C109.684 111.985 109.572 111.854 109.422 111.844L106.318 111.615C106.168 111.604 106.039 111.716 106.028 111.866C106.016 112.015 106.129 112.144 106.278 112.155L109.384 112.385C109.532 112.396 109.662 112.285 109.673 112.134Z" fill="white"/>
<path id="Vector_33" d="M106.084 110.6L109.804 110.875C109.954 110.886 110.085 110.773 110.095 110.624C110.107 110.474 109.996 110.343 109.845 110.333L106.124 110.059C105.975 110.048 105.844 110.16 105.833 110.309C105.822 110.459 105.934 110.588 106.084 110.6Z" fill="white"/>
</g>
</g>
</g>
</g>
<g id="Group_18">
<g id="Group_19">
<g id="Group_20">
<g id="Group_21">
<path id="Vector_34" fill-rule="evenodd" clip-rule="evenodd" d="M66.5797 32.0527C66.2856 33.0532 63.7687 39.1445 62.7088 41.6587C61.7823 43.8567 58.4168 49.5515 57.8986 50.1955C57.6052 50.4952 57.3276 50.7833 57.113 50.9926C56.7259 51.3696 56.3215 51.7617 55.9442 52.1185C55.5877 52.4562 54.41 53.558 54.8074 53.9854C55.1352 54.3393 56.1439 53.1593 56.5176 52.9662C56.2288 53.5722 55.936 54.6027 55.9211 55.6744C55.9182 55.9573 55.8769 56.5508 56.1538 56.5851C56.5321 56.6304 56.5852 56.1583 56.6572 55.9448C56.7539 55.6451 56.8625 55.4318 56.8982 55.1678C56.9688 55.5497 56.8734 56.4241 57.0308 56.8598C57.081 57 57.2064 57.1509 57.3474 57.14C57.6785 57.1136 57.6662 56.6485 57.7257 56.3382C57.8022 55.9197 57.8861 55.6467 57.9343 55.3589C57.9313 55.3457 57.9313 55.3312 57.9313 55.3209C57.9326 55.3302 57.9343 55.3414 57.9343 55.351C57.9343 55.3526 57.9343 55.3559 57.9343 55.3589C57.962 55.6787 57.8907 56.594 58.0297 57.0195C58.0845 57.1898 58.2082 57.3734 58.3914 57.3536C58.7756 57.3103 58.7598 56.5409 58.7981 56.2716C58.8605 55.8019 58.9361 55.4764 58.9773 55.075C59.0697 55.3899 58.9849 56.3336 59.1288 56.8868C59.1859 57.1176 59.3051 57.3697 59.5408 57.3341C59.8372 57.2895 59.9055 56.6525 59.9362 56.4373C60.086 55.4064 60.261 54.2561 60.5627 53.4481C60.7944 52.8325 61.0697 52.2865 61.4126 51.7584C63.0746 49.6169 66.0842 45.0908 67.2412 42.7044C68.4357 40.2397 71.08 34.8208 71.6853 32.7776C70.7538 32.8849 67.427 32.1891 66.5797 32.0527Z" fill="#FCD2C0"/>
<path id="Vector_35" opacity="0.13" d="M64.1727 42.2528C64.2044 42.0956 63.5116 41.6553 62.8544 41.3101C62.8042 41.4312 62.7537 41.5504 62.7088 41.659C62.651 41.7943 62.5857 41.9428 62.5098 42.1016C63.225 42.3359 64.1427 42.4099 64.1727 42.2528Z" fill="black"/>
</g>
<path id="Vector_36" d="M72.9707 23.406C71.1242 23.5136 70.0168 25.2554 69.2797 26.3563C67.2748 29.3507 66.1255 32.3927 64.793 35.7133L70.8149 38.5173C71.8774 36.7587 72.8829 34.9723 73.7305 33.1562C74.2048 32.1382 74.7036 30.9945 75.0742 29.7478C75.4188 28.5724 75.6766 27.1584 75.3865 25.773C75.1 24.4019 74.2111 23.3341 72.9707 23.406Z" fill="#B1BC00"/>
</g>
<g id="Group_22">
<g id="Group_23">
<path id="Vector_37" fill-rule="evenodd" clip-rule="evenodd" d="M94.4978 82.1183L100.353 81.982L100.085 74.6384L94.2324 74.7757L94.4978 82.1183Z" fill="#FCD2C0"/>
<g id="Group_24">
<path id="Vector_38" fill-rule="evenodd" clip-rule="evenodd" d="M93.5661 81.601C92.1247 81.9743 90.7968 82.415 89.7409 83.2755C89.4213 83.5323 88.9612 83.8908 89.0071 84.3311C89.0665 84.9173 90.1168 85.079 91.0014 85.1777C92.8591 85.3827 94.5947 85.4352 96.5434 85.4075C98.1182 85.386 99.5409 85.2421 100.088 84.3354C100.489 83.6686 100.598 82.8147 100.725 81.9565C100.85 81.099 100.881 80.2503 100.777 79.231C99.4597 79.0211 97.6974 78.9016 95.9783 78.9317C96.0513 77.9187 95.4674 77.5387 94.3907 77.445C94.0216 77.4123 93.4004 77.4414 93.2344 77.6236C92.8984 77.9959 93.3945 80.991 93.5661 81.601Z" fill="#FF5000"/>
<g id="Group_25">
<path id="Vector_39" d="M92.193 78.759C92.3663 78.6821 92.5555 78.7026 92.7241 78.8191C93.3453 79.2479 93.7206 81.0735 93.6483 81.4422C93.6384 81.4911 93.6011 81.534 93.5516 81.5521C93.5015 81.5706 93.442 81.563 93.3962 81.5327C92.9304 81.2267 91.9286 79.9991 91.8732 79.3017C91.8597 79.1119 91.9115 78.967 92.0316 78.865C92.0811 78.8204 92.1359 78.7854 92.193 78.759ZM93.3199 81.0745C93.245 80.4824 92.9334 79.3334 92.5314 79.0558C92.4422 78.993 92.3875 79.0053 92.3386 79.0261C92.3109 79.0399 92.2831 79.0591 92.2515 79.0828C92.2095 79.1205 92.193 79.1878 92.199 79.2848C92.2373 79.7509 92.8548 80.6223 93.3199 81.0745Z" fill="#4D3D87"/>
<path id="Vector_40" d="M90.9704 79.6734C91.1173 79.6077 91.3022 79.6139 91.5227 79.6925C92.2947 79.9671 93.411 81.1023 93.553 81.4271C93.5771 81.4743 93.5672 81.5274 93.5365 81.5683C93.5035 81.6106 93.4493 81.6333 93.3952 81.6277C92.8265 81.5924 91.2781 81.0253 90.8275 80.4537C90.7044 80.3002 90.6615 80.1493 90.7027 80.0077C90.7476 79.8447 90.84 79.7338 90.9704 79.6734ZM93.0611 81.2713C92.7047 80.8613 91.9475 80.1592 91.4088 79.9671C91.2784 79.9206 91.1784 79.911 91.1153 79.9407C91.0734 79.9615 91.0388 80.0097 91.0117 80.0863C90.9998 80.1388 91.0222 80.2054 91.086 80.286C91.39 80.6675 92.4066 81.1092 93.0611 81.2713Z" fill="#4D3D87"/>
<path id="Vector_41" d="M90.9922 81.6993L93.3744 81.3362L93.4321 81.6283L91.0506 81.9907L90.9922 81.6993Z" fill="#4D3D87"/>
</g>
<g id="Group_26">
<path id="Vector_42" d="M90.857 83.321C92.4057 83.9538 94.2753 83.6765 95.2757 82.7857C96.1604 81.9991 96.4185 80.8082 96.5205 79.3509C96.5271 79.2271 96.5406 79.0805 96.5505 78.9274C96.3577 78.9274 96.1693 78.9284 95.9788 78.931C95.991 78.7818 95.9864 78.6478 95.9669 78.5237C95.9745 78.6105 95.9821 78.6957 95.9788 78.7802C95.9115 80.6428 95.4596 83.0864 92.7173 83.1071C92.0066 83.1124 91.4194 82.957 90.9752 82.755C90.8973 82.7196 90.8213 82.6701 90.7464 82.617C90.5437 82.7249 90.3463 82.8388 90.1582 82.9659C90.3784 83.1207 90.6573 83.2398 90.857 83.321Z" fill="white"/>
<path id="Vector_43" d="M100.396 81.9906C98.532 81.7615 97.5804 82.7907 97.1506 84.0866C97.0523 84.3873 96.7955 85.1052 96.9473 85.3979C97.1064 85.3927 97.2632 85.3864 97.417 85.3772C97.547 85.1662 97.5702 84.7728 97.652 84.4675C98.0587 82.9257 98.7558 82.3296 100.358 82.5207C100.45 82.5312 100.539 82.5652 100.628 82.5979C100.659 82.4131 100.685 82.2262 100.714 82.0391C100.604 82.0157 100.493 82.0021 100.396 81.9906Z" fill="white"/>
</g>
<path id="Vector_44" d="M99.8987 84.5787C99.257 85.2682 97.9634 85.3861 96.5425 85.4075C94.594 85.4353 92.8585 85.3828 91.0004 85.1778C90.2089 85.0913 89.2873 84.95 89.0586 84.5015L99.8987 84.5787Z" fill="#4D3D87"/>
</g>
</g>
<g id="Group_27">
<path id="Vector_45" fill-rule="evenodd" clip-rule="evenodd" d="M92.2402 49.0908C94.0147 59.7011 93.1909 65.2125 93.7272 75.3112C94.0949 75.5356 99.837 75.7122 101.119 75.7802C102.998 64.9137 102.929 58.4653 101.884 46.394C98.4985 47.8064 95.1905 48.4481 92.2402 49.0908Z" fill="#8F7ECE"/>
<path id="Vector_46" opacity="0.13" fill-rule="evenodd" clip-rule="evenodd" d="M92.2402 49.0908C94.0147 59.7011 93.1909 65.2125 93.7272 75.3112C94.0949 75.5356 99.837 75.7122 101.119 75.7802C102.998 64.9137 102.929 58.4653 101.884 46.394C98.4985 47.8064 95.1905 48.4481 92.2402 49.0908Z" fill="black"/>
<g id="Group_28">
<path id="Vector_47" fill-rule="evenodd" clip-rule="evenodd" d="M100.6 56.1097C100.501 56.5371 100.956 57.5042 101.397 57.3653C101.852 57.2217 101.338 56.2565 101.016 55.974C100.895 55.9321 100.698 55.9948 100.6 56.1097Z" fill="white"/>
<path id="Vector_48" fill-rule="evenodd" clip-rule="evenodd" d="M100.517 58.5343C99.8634 58.5063 100.285 59.4298 100.584 60.0035C100.786 60.393 101.065 60.832 101.352 60.6878C101.754 60.4884 100.996 58.7809 100.658 58.562C100.627 58.5419 100.556 58.5366 100.517 58.5343Z" fill="white"/>
</g>
</g>
</g>
</g>
<g id="Group_29">
<g id="Group_30">
<g id="Group_31">
<g id="Group_32">
<path id="Vector_49" fill-rule="evenodd" clip-rule="evenodd" d="M53.0075 84.8009C52.5754 84.8082 52.2077 85.0604 51.6337 85.338C51.599 85.3541 50.4421 86.0027 50.3672 85.9803C50.2523 85.9466 49.5793 84.3401 49.4878 84.1421C48.1081 81.1529 46.738 78.031 45.0955 75.1593C44.9215 74.8553 44.7453 74.5381 44.5651 74.2203C44.4188 73.5802 44.1465 72.7141 44.0122 72.1926C43.893 71.7368 43.7706 71.2578 43.6633 70.8172C43.5636 70.3996 43.2414 69.0285 42.6892 69.0932C42.2354 69.147 42.7064 70.4369 42.6797 70.7934C42.3232 70.2904 41.6188 69.5714 40.7424 69.0268C40.512 68.8836 40.0433 68.5588 39.8766 68.7354C39.6492 68.977 40.0123 69.2486 40.1542 69.4057C40.351 69.6233 40.4747 69.8035 40.6771 69.9609C40.3252 69.8203 39.6505 69.3156 39.2138 69.2087C39.0722 69.1744 38.8867 69.1872 38.8253 69.2912C38.6834 69.5338 39.0722 69.7579 39.2987 69.9533C39.6056 70.2174 39.7865 70.4098 40.0017 70.5874C40.0123 70.5927 40.0265 70.6006 40.0341 70.6053C40.0258 70.6 40.0176 70.5963 40.007 70.5924C40.0054 70.5907 40.004 70.5894 40.0017 70.5871C39.7278 70.4475 39.0052 69.9431 38.586 69.8263C38.4164 69.7791 38.2041 69.7738 38.1299 69.9111C37.9744 70.2009 38.6167 70.5732 38.8217 70.735C39.1759 71.0126 39.4063 71.2284 39.7182 71.4569C39.4112 71.3644 38.6745 70.835 38.1483 70.6574C37.9278 70.5851 37.6615 70.5406 37.575 70.7221C37.4631 70.9525 37.9546 71.3182 38.1153 71.4469C38.892 72.0649 39.7542 72.7603 40.2688 73.3749C40.7061 73.8942 41.0461 74.4064 41.3283 74.9752C42.236 79.0355 43.2807 83.5994 44.5261 87.6647C44.7595 88.4235 45.01 89.2689 45.3454 90.1188C45.8345 91.3612 46.4835 93.0898 48.4329 92.9638C49.5073 92.8935 50.6613 92.3518 51.735 91.9283C52.8193 91.4995 53.929 91.0962 54.7995 90.5344C54.2664 88.5902 53.5042 86.7636 53.0075 84.8009Z" fill="#FCD2C0"/>
<path id="Vector_50" opacity="0.13" fill-rule="evenodd" clip-rule="evenodd" d="M53.0075 84.8009C52.5754 84.8082 52.2077 85.0604 51.6337 85.338C51.599 85.3541 50.4421 86.0027 50.3672 85.9803C50.2523 85.9466 49.5793 84.3401 49.4878 84.1421C48.1081 81.1529 46.738 78.031 45.0955 75.1593C44.9215 74.8553 44.7453 74.5381 44.5651 74.2203C44.4188 73.5802 44.1465 72.7141 44.0122 72.1926C43.893 71.7368 43.7706 71.2578 43.6633 70.8172C43.5636 70.3996 43.2414 69.0285 42.6892 69.0932C42.2354 69.147 42.7064 70.4369 42.6797 70.7934C42.3232 70.2904 41.6188 69.5714 40.7424 69.0268C40.512 68.8836 40.0433 68.5588 39.8766 68.7354C39.6492 68.977 40.0123 69.2486 40.1542 69.4057C40.351 69.6233 40.4747 69.8035 40.6771 69.9609C40.3252 69.8203 39.6505 69.3156 39.2138 69.2087C39.0722 69.1744 38.8867 69.1872 38.8253 69.2912C38.6834 69.5338 39.0722 69.7579 39.2987 69.9533C39.6056 70.2174 39.7865 70.4098 40.0017 70.5874C40.0123 70.5927 40.0265 70.6006 40.0341 70.6053C40.0258 70.6 40.0176 70.5963 40.007 70.5924C40.0054 70.5907 40.004 70.5894 40.0017 70.5871C39.7278 70.4475 39.0052 69.9431 38.586 69.8263C38.4164 69.7791 38.2041 69.7738 38.1299 69.9111C37.9744 70.2009 38.6167 70.5732 38.8217 70.735C39.1759 71.0126 39.4063 71.2284 39.7182 71.4569C39.4112 71.3644 38.6745 70.835 38.1483 70.6574C37.9278 70.5851 37.6615 70.5406 37.575 70.7221C37.4631 70.9525 37.9546 71.3182 38.1153 71.4469C38.892 72.0649 39.7542 72.7603 40.2688 73.3749C40.7061 73.8942 41.0461 74.4064 41.3283 74.9752C42.236 79.0355 43.2807 83.5994 44.5261 87.6647C44.7595 88.4235 45.01 89.2689 45.3454 90.1188C45.8345 91.3612 46.4835 93.0898 48.4329 92.9638C49.5073 92.8935 50.6613 92.3518 51.735 91.9283C52.8193 91.4995 53.929 91.0962 54.7995 90.5344C54.2664 88.5902 53.5042 86.7636 53.0075 84.8009Z" fill="black"/>
<g id="Group_33">
<path id="Vector_51" opacity="0.13" fill-rule="evenodd" clip-rule="evenodd" d="M39.7239 71.9616C39.6803 71.8757 39.6555 71.6645 39.6668 71.5285C39.7344 70.7373 40.5118 69.9032 41.0663 69.7537C40.6378 70.06 39.9731 70.6911 39.7239 71.9616Z" fill="white"/>
</g>
<path id="Vector_52" opacity="0.13" fill-rule="evenodd" clip-rule="evenodd" d="M42.7127 70.7446C42.1978 71.4342 42.0397 72.093 42.0238 72.7386C41.6135 72.2151 42.1199 70.9536 42.7127 70.7446Z" fill="white"/>
</g>
<path id="Vector_53" opacity="0.13" fill-rule="evenodd" clip-rule="evenodd" d="M49.6404 84.488C49.3245 85.2132 48.431 87.4888 48.7459 87.872C48.9944 88.179 50.3771 86.2975 50.3682 85.9803L49.6404 84.488Z" fill="black"/>
</g>
<path id="Vector_54" fill-rule="evenodd" clip-rule="evenodd" d="M52.1445 85.0201C52.4416 86.2163 52.7209 87.4214 53.348 88.4513C55.3895 87.7429 57.4014 86.9712 59.2379 85.8565C59.8915 84.491 60.8427 83.71 61.8046 82.9482C60.8939 82.1009 59.5003 82.4488 58.4626 82.6937C56.3682 83.1898 53.8052 84.0916 52.1445 85.0201Z" fill="#EFAD1B"/>
</g>
<g id="Group_34">
<g id="Group_35">
<path id="Vector_55" fill-rule="evenodd" clip-rule="evenodd" d="M50.2919 52.9573C60.5841 55.0988 69.0819 60.4913 75.06 67.0041C81.4797 73.9971 85.9621 82.183 88.1426 92.5231C89.2613 97.8337 89.5369 104.728 89.0002 110.43C87.9129 121.989 84.015 130.931 78.9212 138.953C77.2893 141.521 74.9326 144.652 72.7019 147.209C72.0513 147.953 71.0046 149.488 70.3428 149.675C69.1318 150.018 67.0955 149.661 65.4095 149.675C54.8846 149.766 42.8985 149.771 32.2762 149.353C30.5348 140.529 30.041 131.496 26.5963 124.692C23.9649 119.499 20.3139 116.001 15.9786 112.575C15.2944 112.033 14.5989 111.468 13.8341 110.967C13.1604 110.525 12.0438 110.236 11.7969 109.251C14.1378 109.353 16.3902 110.171 18.6602 110.753C23.1803 111.91 27.7241 112.93 32.3852 113.969C34.6611 114.476 36.8765 115.327 39.1412 115.685C50.0335 117.41 58.1933 112.214 62.8378 106.034C65.3656 102.672 67.0523 98.7338 67.5557 93.7034C68.0501 88.7579 66.8077 83.5766 64.7668 79.7646C60.8901 72.5194 53.8812 67.7415 43.966 66.6829C46.0412 62.0737 48.1992 57.5483 50.2919 52.9573Z" fill="#8F7ECE"/>
<path id="Vector_56" fill-rule="evenodd" clip-rule="evenodd" d="M3.00652 100.137C2.91574 100.143 3.85581 100.098 4.18522 100.137C7.1655 100.483 10.3003 101.542 13.406 102.281C19.9316 103.833 24.4514 105.148 31.0991 107.106C34.3045 108.051 37.6284 108.964 38.3915 111.074C39.1365 113.136 37.8694 115.356 36.5659 115.899C35.1967 116.471 32.7947 115.915 31.2057 115.577C25.9529 114.46 21.6107 113.047 16.946 111.503C12.5131 110.036 7.45234 108.972 3.22041 106.892C1.43897 106.017 -0.85837 104.56 0.324961 101.746C0.713462 100.821 1.65749 100.232 3.00652 100.137Z" fill="#4D3D87"/>
<g id="Group_36">
<path id="Vector_57" opacity="0.46" fill-rule="evenodd" clip-rule="evenodd" d="M71.2008 149.139C59.724 149.11 47.6533 149.159 36.0309 148.495C35.7091 142.47 36.0851 135.115 37.5325 129.946C38.5108 126.444 39.8902 122.392 44.6097 123.512C47.6919 124.244 50.358 126.795 52.4372 128.874C57.8303 134.267 62.9251 140.341 68.1997 145.815C68.749 146.387 69.2771 147 69.8069 147.531C70.3112 148.035 71.0232 148.424 71.2008 149.139Z" fill="white"/>
<g id="Group_37">
<path id="Vector_58" d="M70.3431 149.782C71.005 149.595 72.0516 148.059 72.7022 147.315C74.9329 144.758 77.2896 141.628 78.9216 139.059C84.0156 131.038 87.9135 122.097 89.0005 110.537C89.5369 104.834 89.2616 97.9401 88.1429 92.6301C85.9624 82.2894 81.4803 74.1035 75.0603 67.1098C69.0826 60.5973 60.5844 55.2052 50.2922 53.064C50.0453 53.606 49.7948 54.145 49.5449 54.6853C49.671 54.7177 49.7829 54.7487 49.8625 54.7791C51.8809 55.5458 53.8369 56.7219 55.8689 57.7814C57.8431 58.8126 59.9123 59.8395 61.7657 60.9981C72.8399 67.9221 80.9776 78.7398 82.2464 95.2034C83.1574 107.046 80.6551 117.74 77.2058 126.085C74.5107 132.606 71.0073 138.153 67.2341 143.456C66.095 145.056 63.5874 147.924 64.3252 149.79C64.6869 149.788 65.0536 149.784 65.4101 149.782C67.0958 149.767 69.1324 150.124 70.3431 149.782Z" fill="#4D3D87"/>
<g id="Group_38">
<g id="Group_39">
<path id="Vector_59" fill-rule="evenodd" clip-rule="evenodd" d="M80.8498 92.804C82.9874 93.2829 81.6549 87.7693 79.9982 89.1497C79.1341 89.869 80.1491 92.0039 80.8498 92.804Z" fill="white"/>
<path id="Vector_60" fill-rule="evenodd" clip-rule="evenodd" d="M83.6367 95.416C83.3667 95.0397 82.6082 94.4162 81.8946 95.0169C80.9611 95.7999 81.3737 98.2105 81.3565 99.1964C81.3341 100.396 80.7525 102.644 81.9154 103.334C83.5743 104.318 83.9014 100.843 83.9645 99.6427C83.9975 99.005 83.9681 98.3771 83.9711 97.8358C83.9731 96.9106 84.1589 96.1399 83.6367 95.416Z" fill="white"/>
</g>
<g id="Group_40">
<path id="Vector_61" fill-rule="evenodd" clip-rule="evenodd" d="M47.959 125.729C48.4931 124.45 50.3877 123.079 52.3289 121.847C53.1604 121.319 54.5183 120.486 55.0751 121.175C55.7416 122.003 54.349 123.194 53.8505 123.619C52.2688 124.959 50.0847 126.261 48.7198 126.613C48.3986 126.553 48.0356 126.1 47.959 125.729Z" fill="white"/>
<path id="Vector_62" fill-rule="evenodd" clip-rule="evenodd" d="M51.0208 120.041C49.3134 118.6 53.0459 115.448 54.08 116.99C54.5243 117.66 53.2898 119.858 52.1636 120.295C51.7563 120.447 51.3186 120.291 51.0208 120.041Z" fill="white"/>
<path id="Vector_63" fill-rule="evenodd" clip-rule="evenodd" d="M61.8808 113.508C61.222 113.066 61.4517 111.937 62.0772 110.973C62.5806 110.198 63.8946 108.944 64.5594 109.773C64.8551 110.139 64.7898 111.068 64.29 111.882C63.7071 112.838 62.7258 114.083 61.8808 113.508Z" fill="white"/>
</g>
</g>
</g>
</g>
</g>
<g id="Group_41">
<g id="Group_42">
<path id="Vector_64" fill-rule="evenodd" clip-rule="evenodd" d="M34.8507 82.7501C34.1965 84.1394 33.6366 85.5459 32.8144 87.1461C31.6486 89.4127 30.3438 91.5823 26.9169 90.47C25.3712 89.9686 22.9484 88.7569 22.4133 87.4679C21.3518 84.9124 23.8429 81.175 24.6641 79.1041C24.7153 78.9756 24.6017 78.7822 24.7707 78.7822C28.2148 80.0217 31.6199 81.2991 34.8507 82.7501Z" fill="#4D3D87"/>
<g id="Group_43">
<path id="Vector_65" fill-rule="evenodd" clip-rule="evenodd" d="M52.9734 43.3068C50.8695 43.2907 49.1511 42.3473 47.6116 41.5911C46.0718 40.8352 44.3471 40.281 43.3242 38.9105C44.1847 36.0788 45.9048 33.3626 47.5057 30.3325C48.1995 29.0168 48.9306 27.6083 49.7565 26.2573C50.7266 24.6729 51.7244 23.0354 53.187 22.2904C53.8389 21.9584 55.0281 22.1191 55.8695 22.3974C57.7737 23.0288 60.8411 24.4772 61.0144 26.4729C61.1577 28.0899 60.0427 29.8179 59.4056 31.0827C58.0078 33.8656 56.7076 36.7106 55.3315 39.4469C54.6122 40.8778 53.9574 42.311 52.9734 43.3068Z" fill="#4D3D87"/>
<path id="Vector_66" fill-rule="evenodd" clip-rule="evenodd" d="M54.5875 25.431C53.6257 27.6742 52.75 29.4111 51.5785 31.6187C51.1405 32.4458 50.6114 33.3704 49.9714 34.5138C49.6938 35.0076 48.7957 37.0725 47.9328 36.9801C46.7832 36.858 47.4106 35.0369 47.9328 33.8711C48.4672 32.6812 48.9944 31.8995 49.5406 30.8684C50.1813 29.659 50.6467 28.6668 51.1501 27.8663C51.7677 26.885 52.2328 25.9809 52.8652 25.0785C54.066 23.365 55.2576 23.8678 54.5875 25.431Z" fill="white"/>
</g>
</g>
<g id="Group_44">
<g id="Group_45">
<g id="Group_46">
<path id="Vector_67" fill-rule="evenodd" clip-rule="evenodd" d="M41.6069 37.302C43.3445 36.9531 45.4576 37.7291 46.9681 38.2671C50.3332 39.4666 55.2134 40.9559 56.1895 44.3795C56.7381 46.3012 55.797 48.8531 55.118 50.4912C52.9204 55.789 50.6115 60.2609 47.9329 65.288C45.4873 69.8794 43.6472 75.4283 40.964 80.2999C40.0741 81.913 38.7993 83.6935 37.4232 84.0526C35.7642 84.4863 34.1099 83.8674 32.8147 83.4096C31.4386 82.9231 30.3519 82.4487 28.9527 81.9081C26.4788 80.9498 23.2407 80.0293 22.4136 77.6184C21.1672 73.9882 24.0095 68.4122 25.0928 65.9313C26.6993 62.2579 28.1315 58.8178 29.7043 55.6378C31.6392 51.7247 32.8708 49.3911 34.7443 45.6648C35.5223 44.1164 36.3244 42.399 37.4229 40.8404C38.4616 39.3719 39.6981 37.6852 41.6069 37.302Z" fill="#8F7ECE"/>
<path id="Vector_68" opacity="0.46" fill-rule="evenodd" clip-rule="evenodd" d="M41.6069 37.302C43.3445 36.9531 45.4576 37.7291 46.9681 38.2671C50.3332 39.4666 55.2134 40.9559 56.1895 44.3795C56.7381 46.3012 55.797 48.8531 55.118 50.4912C52.9204 55.789 50.6115 60.2609 47.9329 65.288C45.4873 69.8794 43.6472 75.4283 40.964 80.2999C40.0741 81.913 38.7993 83.6935 37.4232 84.0526C35.7642 84.4863 34.1099 83.8674 32.8147 83.4096C31.4386 82.9231 30.3519 82.4487 28.9527 81.9081C26.4788 80.9498 23.2407 80.0293 22.4136 77.6184C21.1672 73.9882 24.0095 68.4122 25.0928 65.9313C26.6993 62.2579 28.1315 58.8178 29.7043 55.6378C31.6392 51.7247 32.8708 49.3911 34.7443 45.6648C35.5223 44.1164 36.3244 42.399 37.4229 40.8404C38.4616 39.3719 39.6981 37.6852 41.6069 37.302Z" fill="white"/>
</g>
<path id="Vector_69" fill-rule="evenodd" clip-rule="evenodd" d="M43.1955 40.9477C43.8279 41.7432 43.1579 42.6103 42.8743 43.3068C40.6991 48.6352 37.8826 53.5544 35.3674 58.7472C33.2351 63.153 31.4483 67.7682 29.3626 72.4721C28.8222 73.6947 28.1509 76.2486 26.6823 76.3321C24.4636 76.4601 24.7481 73.3845 25.3957 71.8295C27.3719 67.0876 29.9125 62.8068 32.259 58.4257C34.7795 53.7164 36.6484 49.5235 39.2273 45.0225C40.0475 43.5923 41.1563 41.796 42.1234 41.0556C42.2851 40.9299 42.839 40.6694 43.1955 40.9477Z" fill="white"/>
</g>
<g id="Group_47">
<path id="Vector_70" fill-rule="evenodd" clip-rule="evenodd" d="M39.3002 73.6711C38.3338 74.4266 37.6059 76.3615 37.0072 78.306C36.7527 79.1378 36.3589 80.4905 37.0775 80.8044C37.939 81.181 38.6305 79.7145 38.8761 79.1896C39.6504 77.527 40.2492 75.3601 40.2334 74.1147C40.104 73.8546 39.6326 73.6509 39.3002 73.6711Z" fill="white"/>
<path id="Vector_71" fill-rule="evenodd" clip-rule="evenodd" d="M35.1628 77.6121C33.5375 76.4921 31.7204 80.4125 33.2764 80.9323C33.9511 81.1581 35.5378 79.5893 35.6451 78.5264C35.682 78.1442 35.4457 77.8068 35.1628 77.6121Z" fill="white"/>
</g>
</g>
</g>
<g id="Group_48">
<path id="Vector_72" fill-rule="evenodd" clip-rule="evenodd" d="M28.8513 145.177C28.7351 145.221 29.9521 144.795 30.4023 144.717C34.454 144.012 38.9883 144.182 43.3612 143.942C52.5443 143.441 58.9993 143.406 68.5045 143.39C73.0873 143.383 77.8124 143.288 79.6387 145.766C81.4215 148.186 80.6207 151.599 79.1218 152.82C77.5441 154.106 74.1674 154.312 71.9466 154.487C64.604 155.065 58.3441 154.9 51.6085 154.688C45.2083 154.486 38.1403 155.06 31.7649 153.976C29.0853 153.519 25.4944 152.499 25.9542 148.336C26.1027 146.97 27.1141 145.828 28.8513 145.177Z" fill="#4D3D87"/>
<g id="Group_49">
<path id="Vector_73" fill-rule="evenodd" clip-rule="evenodd" d="M33.4251 148.216C34.5355 147.694 36.5916 147.918 38.5935 148.261C39.4517 148.407 40.8383 148.668 40.7925 149.45C40.74 150.39 39.1193 150.343 38.5423 150.326C36.7058 150.267 34.5035 149.824 33.401 149.247C33.2264 149.017 33.2555 148.504 33.4251 148.216Z" fill="#8F7ECE"/>
<path id="Vector_74" fill-rule="evenodd" clip-rule="evenodd" d="M41.049 147.006C40.782 145.048 45.1007 145.197 44.8637 146.818C44.7588 147.523 42.6443 148.231 41.6458 147.848C41.2893 147.709 41.0965 147.346 41.049 147.006Z" fill="white"/>
<path id="Vector_75" fill-rule="evenodd" clip-rule="evenodd" d="M72.756 150.458C72.5893 149.777 73.4086 149.173 74.3902 148.911C75.1805 148.701 76.7853 148.659 76.7282 149.597C76.7041 150.012 76.1123 150.582 75.3026 150.82C74.351 151.1 72.9699 151.336 72.756 150.458Z" fill="#8F7ECE"/>
</g>
</g>
</g>
<g id="Group_50">
<g id="Group_51">
<g id="Group_52">
<g id="Group_53">
<path id="Vector_76" fill-rule="evenodd" clip-rule="evenodd" d="M64.2008 112.854C64.4688 115.145 63.0597 118.352 61.7137 120.261C61.4212 120.676 60.9812 121.028 60.7719 121.436C60.4755 122.021 60.3247 122.802 60.1147 123.447C59.4843 125.37 58.8053 127.156 57.9897 128.994C63.542 129.192 69.7976 132.461 73.814 135.226C73.2571 136.921 72.8888 138.521 72.2999 140.231C68.4261 140.069 64.0509 139.134 59.5619 137.978C54.8312 136.76 48.5815 135.123 48.3775 131.164C48.3214 130.054 48.6267 128.661 48.9522 127.334C49.9087 123.434 51.5872 118.695 53.0851 115.089C52.0219 115.432 50.9977 115.955 49.9328 116.405C46.7921 117.737 43.4778 119.036 40.144 120.062C42.07 125.497 41.4818 132.207 40.3021 139.215C38.7564 139.319 37.2004 139.404 35.6404 139.481C34.671 134.531 33.6755 129.656 33.1999 124.28C33.0497 122.575 32.8351 120.547 33.4114 118.724C34.6621 114.767 38.2286 112.79 40.9333 111.419C43.9894 109.871 46.9367 108.525 50.0513 107.358C50.1091 107.319 50.1817 107.306 50.2563 107.301C54.9659 109.12 59.5988 110.979 64.2008 112.854Z" fill="#CAD309"/>
<g id="Group_54">
<path id="Vector_77" opacity="0.18" d="M57.9901 128.994C58.8057 127.156 59.4846 125.369 60.1151 123.446C60.325 122.801 60.4759 122.021 60.7723 121.436C60.9816 121.027 61.4212 120.676 61.714 120.261C63.0601 118.351 64.4692 115.145 64.2011 112.854C63.7674 112.677 63.3307 112.501 62.8963 112.324C62.868 112.544 62.8462 112.765 62.8085 112.954C62.4695 114.639 62.1256 115.894 61.1212 117.162C60.5931 117.83 60.0745 118.148 59.4038 119.011C57.9069 120.932 57.6405 123.642 56.7328 126.419C56.174 128.127 54.9966 130.839 55.9607 131.42C56.3987 131.686 56.8483 131.49 57.2048 131.395C58.8037 130.967 60.4739 131.03 62.6867 131.645C66.577 132.726 70.1059 134.244 73.0568 136.029C73.2076 136.12 73.3542 136.196 73.4945 136.259C73.5971 135.917 73.7008 135.575 73.815 135.226C69.7976 132.461 63.5423 129.191 57.9901 128.994Z" fill="black"/>
<path id="Vector_78" opacity="0.18" d="M53.5641 114.378C53.844 113.839 54.4863 113.06 54.2041 112.61C54.0301 112.331 53.6601 112.334 53.4776 112.371C52.1857 112.642 50.898 113.143 49.6028 113.638C46.4605 114.837 43.3901 116.244 40.4676 117.941C39.85 118.299 39.1185 118.643 38.8192 119.194C38.0425 120.627 38.6548 122.042 38.8409 123.096C39.5074 126.866 39.5694 130.659 39.3331 135.001C39.2978 135.641 39.2212 136.558 39.1971 137.491C39.1822 138.056 39.1641 138.812 39.4942 139.263C39.7642 139.246 40.0328 139.231 40.3015 139.213C41.4812 132.205 42.0694 125.495 40.1434 120.06C43.4772 119.034 46.7912 117.735 49.9322 116.403C50.9971 115.952 52.021 115.43 53.0845 115.086C52.9353 115.445 52.7834 115.819 52.6326 116.199C52.6415 116.194 52.6521 116.189 52.6626 116.183C52.9481 115.715 53.1716 115.134 53.5641 114.378Z" fill="black"/>
</g>
</g>
<g id="Group_55">
<g id="Group_56">
<path id="Vector_79" fill-rule="evenodd" clip-rule="evenodd" d="M50.0013 132.623C49.5993 132.537 49.6135 132.206 49.495 131.901C49.3765 131.594 48.9688 130.474 49.861 130.784C50.2954 130.935 50.7681 132.379 50.0013 132.623Z" fill="white"/>
<path id="Vector_80" opacity="0.18" fill-rule="evenodd" clip-rule="evenodd" d="M51.9022 133.987C51.4655 134.343 50.4749 133.634 51.0258 133.082C51.5516 133.116 52.1811 133.4 51.9022 133.987Z" fill="black"/>
<path id="Vector_81" fill-rule="evenodd" clip-rule="evenodd" d="M62.3331 114.963C62.8163 115.337 62.3331 116.391 61.8977 117.046C61.6248 117.459 61.2577 117.837 60.8623 117.572C60.7986 116.532 61.7981 116.071 62.0568 115.058C62.0997 114.991 62.1829 115.001 62.2219 114.926C62.2588 114.94 62.2958 114.951 62.3331 114.963Z" fill="white"/>
<path id="Vector_82" fill-rule="evenodd" clip-rule="evenodd" d="M60.3457 118.206C60.39 118.887 59.678 120.037 59.0703 119.273C59.309 118.548 59.7298 118.183 60.3457 118.206Z" fill="white"/>
<path id="Vector_83" fill-rule="evenodd" clip-rule="evenodd" d="M57.6336 125.355C58.036 125.962 57.2907 128.122 56.4767 127.758C55.974 127.532 56.3572 126.973 56.5609 126.364C56.7411 125.83 56.8236 124.954 57.6336 125.355Z" fill="white"/>
</g>
<g id="Group_57">
<path id="Vector_84" fill-rule="evenodd" clip-rule="evenodd" d="M41.652 117.527C41.4434 118.047 40.9506 118.328 40.5611 118.592C40.2063 118.833 39.7425 119.279 39.1708 119.064C39.1665 118.973 39.1289 118.898 39.0586 118.841C39.1906 118.489 39.5326 118.064 39.9079 117.759C40.4297 117.334 41.2394 116.644 41.652 117.527Z" fill="white"/>
<path id="Vector_85" opacity="0.18" fill-rule="evenodd" clip-rule="evenodd" d="M35.6733 118.042C36.7523 118.101 35.1729 120.242 34.6438 120.055C33.8179 119.76 35.2224 118.018 35.6733 118.042Z" fill="black"/>
<path id="Vector_86" fill-rule="evenodd" clip-rule="evenodd" d="M38.4536 120.312C39.2128 119.724 39.3541 122.072 38.4609 121.798C37.9156 121.631 38.2981 120.768 38.4536 120.312Z" fill="white"/>
<path id="Vector_87" fill-rule="evenodd" clip-rule="evenodd" d="M46.9615 109.992C46.9143 110.535 46.3951 110.584 46.0386 110.741C45.2893 111.069 44.6813 111.32 43.8875 111.645C43.5716 111.774 43.1478 112.135 42.793 111.78C42.8874 111.203 43.7287 110.756 44.4206 110.397C45.017 110.085 46.2347 109.548 46.6836 109.715C46.7971 109.759 46.876 109.897 46.9615 109.992Z" fill="white"/>
</g>
</g>
</g>
<g id="Group_58">
<g id="Group_59">
<path id="Vector_88" fill-rule="evenodd" clip-rule="evenodd" d="M34.0731 141.908C32.8096 142.365 31.6526 142.874 30.7858 143.753C30.5248 144.016 30.1458 144.385 30.2336 144.792C30.3508 145.333 31.3156 145.408 32.126 145.434C33.8298 145.488 35.4086 145.409 37.1696 145.241C38.5915 145.102 39.8646 144.867 40.2647 143.979C40.5575 143.329 40.5657 142.524 40.5911 141.712C40.6136 140.904 40.5505 140.111 40.3518 139.167C39.1362 139.069 37.5277 139.089 35.975 139.242C35.9367 138.293 35.3657 137.981 34.3814 137.972C34.0444 137.969 33.4862 138.043 33.3548 138.226C33.0895 138.595 33.8539 141.354 34.0731 141.908Z" fill="#FF5000"/>
<path id="Vector_89" d="M35.7457 142.89C34.9323 143.793 33.2697 144.189 31.8006 143.715C31.6114 143.653 31.348 143.561 31.1328 143.434C31.2896 143.301 31.4569 143.181 31.6279 143.066C31.7015 143.11 31.7751 143.15 31.8484 143.177C32.2722 143.333 32.8198 143.436 33.4609 143.378C35.7922 143.169 36.1246 141.216 35.9579 139.103C35.9533 139.029 35.9391 138.955 35.9232 138.881C35.9516 138.99 35.9691 139.109 35.9751 139.242C36.147 139.225 36.3193 139.211 36.492 139.197C36.5002 139.341 36.5048 139.478 36.5091 139.594C36.5702 140.959 36.4629 142.091 35.7457 142.89Z" fill="white"/>
<path id="Vector_90" d="M40.2951 141.77C40.3859 141.774 40.4865 141.779 40.5879 141.793C40.5832 141.969 40.579 142.145 40.5697 142.319C40.4849 142.296 40.4007 142.27 40.3175 142.267C38.78 142.205 38.2229 143.204 38.072 144.281C38.0314 144.572 38.0479 144.938 37.9525 145.145C37.8136 145.165 37.6733 145.183 37.531 145.2C37.3653 144.937 37.5214 144.25 37.5799 143.962C37.8297 142.724 38.5836 141.694 40.2951 141.77Z" fill="white"/>
<path id="Vector_91" d="M40.1177 144.221C39.6103 144.91 38.4518 145.115 37.1687 145.241C35.4078 145.409 33.829 145.489 32.1252 145.434C31.4003 145.41 30.5533 145.349 30.2988 144.947L40.1177 144.221Z" fill="white"/>
</g>
<g id="Group_60">
<path id="Vector_92" d="M32.5249 139.36C32.6788 139.276 32.8514 139.283 33.0158 139.377C33.6228 139.733 34.1555 141.405 34.1285 141.756C34.1255 141.802 34.0961 141.844 34.0529 141.865C34.01 141.886 33.9568 141.883 33.9119 141.859C33.4564 141.608 32.4226 140.537 32.2988 139.89C32.2635 139.713 32.2972 139.573 32.3932 139.471C32.4348 139.426 32.4791 139.389 32.5249 139.36ZM33.7921 141.437C33.663 140.891 33.261 139.843 32.8669 139.612C32.7791 139.561 32.7302 139.576 32.6883 139.6C32.6675 139.613 32.6411 139.633 32.6147 139.658C32.5817 139.696 32.5718 139.761 32.5906 139.851C32.6728 140.284 33.3224 141.05 33.7921 141.437Z" fill="white"/>
<path id="Vector_93" d="M31.5207 140.303C31.6462 140.231 31.8142 140.224 32.0221 140.281C32.749 140.48 33.8792 141.454 34.0442 141.749C34.0689 141.792 34.068 141.843 34.0425 141.881C34.0165 141.924 33.9719 141.949 33.9211 141.949C33.4035 141.956 31.9396 141.543 31.4745 141.044C31.3445 140.906 31.292 140.77 31.3131 140.634C31.3376 140.48 31.4065 140.368 31.5207 140.303ZM33.5811 141.64C33.214 141.282 32.4549 140.684 31.9485 140.545C31.8261 140.512 31.7346 140.509 31.6815 140.541C31.6432 140.563 31.6155 140.612 31.6026 140.686C31.5973 140.735 31.6257 140.795 31.6897 140.865C32.0053 141.199 32.9701 141.537 33.5811 141.64Z" fill="white"/>
<path id="Vector_94" d="M31.7539 142.191L33.872 141.676L33.9552 141.944L31.8364 142.459L31.7539 142.191Z" fill="white"/>
</g>
</g>
<g id="Group_61">
<g id="Group_62">
<path id="Vector_95" fill-rule="evenodd" clip-rule="evenodd" d="M73.9466 142.301C73.903 143.644 73.9496 144.906 74.4447 146.037C74.5932 146.377 74.7936 146.866 75.2055 146.935C75.7528 147.028 76.1779 146.157 76.5021 145.414C77.1833 143.85 77.6943 142.354 78.1881 140.656C78.5849 139.283 78.8387 138.013 78.1604 137.313C77.6643 136.801 76.9203 136.497 76.1756 136.173C75.4329 135.854 74.6734 135.618 73.7215 135.453C73.1828 136.547 72.6042 138.049 72.1728 139.548C71.2769 139.232 70.7765 139.647 70.4042 140.558C70.2768 140.87 70.1378 141.417 70.2603 141.605C70.5052 141.989 73.3518 142.299 73.9466 142.301Z" fill="#FF5000"/>
<path id="Vector_96" d="M75.4763 141.111C76.0157 142.2 75.7697 143.891 74.7845 145.08C74.657 145.233 74.4745 145.444 74.2758 145.597C74.2121 145.402 74.1609 145.203 74.1167 145.001C74.1857 144.949 74.2504 144.896 74.3029 144.837C74.6039 144.5 74.9016 144.031 75.0861 143.413C75.7546 141.17 74.0619 140.139 72.0375 139.512C71.9679 139.49 71.8926 139.475 71.8184 139.462C71.9309 139.477 72.0464 139.503 72.1725 139.547C72.2214 139.381 72.2716 139.216 72.3227 139.05C72.4594 139.096 72.5884 139.143 72.6987 139.182C73.9893 139.63 74.9993 140.148 75.4763 141.111Z" fill="white"/>
<path id="Vector_97" d="M76.1203 136.469C76.157 136.386 76.1989 136.293 76.2494 136.206C76.4121 136.275 76.5729 136.345 76.732 136.416C76.6788 136.486 76.624 136.555 76.591 136.632C75.9629 138.036 76.6854 138.925 77.6324 139.463C77.8869 139.608 78.2329 139.728 78.3887 139.894C78.3563 140.03 78.3226 140.167 78.2844 140.306C77.979 140.362 77.3981 139.964 77.1522 139.803C76.0939 139.112 75.4166 138.03 76.1203 136.469Z" fill="white"/>
<path id="Vector_98" d="M78.3318 137.54C78.7844 138.266 78.5471 139.419 78.1886 140.657C77.6948 142.354 77.1838 143.851 76.5025 145.414C76.2131 146.079 75.8424 146.843 75.375 146.931L78.3318 137.54Z" fill="white"/>
</g>
<g id="Group_63">
<path id="Vector_99" d="M71.0078 142.795C70.986 142.621 71.0566 142.463 71.2052 142.346C71.7597 141.914 73.5108 142.038 73.826 142.192C73.8679 142.212 73.8966 142.254 73.8989 142.303C73.9019 142.35 73.8818 142.4 73.8418 142.432C73.4398 142.761 72.062 143.327 71.4161 143.203C71.2382 143.169 71.1213 143.087 71.0619 142.96C71.0352 142.904 71.0167 142.849 71.0078 142.795ZM73.4064 142.386C72.8513 142.304 71.7287 142.29 71.3679 142.571C71.2877 142.632 71.2831 142.684 71.2913 142.731C71.2949 142.757 71.3032 142.788 71.3184 142.821C71.3408 142.868 71.3973 142.899 71.4864 142.916C71.9191 143 72.8721 142.68 73.4064 142.386Z" fill="white"/>
<path id="Vector_100" d="M71.513 144.078C71.4896 143.935 71.546 143.777 71.6764 143.605C72.1302 143.002 73.4539 142.313 73.7892 142.268C73.8387 142.261 73.8853 142.281 73.9107 142.32C73.9407 142.359 73.9467 142.41 73.9285 142.458C73.744 142.941 72.8181 144.148 72.1834 144.396C72.0065 144.465 71.8599 144.464 71.7431 144.393C71.6084 144.315 71.5295 144.209 71.513 144.078ZM73.5162 142.66C73.0489 142.867 72.2108 143.352 71.8949 143.771C71.8183 143.872 71.7823 143.957 71.7922 144.017C71.7988 144.061 71.8335 144.104 71.8979 144.144C71.9421 144.167 72.0075 144.163 72.0953 144.129C72.523 143.96 73.1944 143.187 73.5162 142.66Z" fill="white"/>
<path id="Vector_101" d="M73.3516 144.559L73.6575 142.402L73.9361 142.424L73.6315 144.582L73.3516 144.559Z" fill="white"/>
</g>
</g>
</g>
<g id="Group_64">
<g id="Group_65">
<g id="Group_66">
<path id="Vector_102" fill-rule="evenodd" clip-rule="evenodd" d="M64.6655 114C65.3468 113.123 66.6734 110.433 67.1325 109.313C67.9706 107.266 68.4769 104.849 68.8641 102.641C69.6002 98.4272 70.1223 94.2491 69.6143 90.6744C69.1849 87.6443 68.1465 84.2867 65.1821 82.6977C63.7954 81.9534 62.1351 82.2128 61.1432 82.7964C59.0693 84.016 57.8051 86.8996 56.6 90.1621C55.4108 93.382 49.574 104.972 48.7188 107.87L64.6655 114Z" fill="#EFAD1B"/>
<path id="Vector_103" opacity="0.18" d="M64.8482 107.208C65.6833 104.406 66.6798 101.368 67.2485 98.4943C68.1454 93.9733 68.6329 89.2868 67.9892 85.4771C68.4448 86.2564 68.7854 87.1093 69.0448 87.9856C69.0508 88.0048 69.0561 88.0239 69.062 88.0434C69.1175 88.2325 69.168 88.4227 69.2152 88.6144C69.227 88.6544 69.2369 88.694 69.2459 88.7346C69.2888 88.9062 69.3277 89.0785 69.3637 89.2512C69.3743 89.3003 69.3848 89.3489 69.3944 89.3987C69.4287 89.5661 69.4588 89.7341 69.4904 89.9017C69.4977 89.9496 69.5076 89.9978 69.5159 90.045C69.5525 90.2559 69.5842 90.4658 69.6142 90.6745C70.1222 94.2492 69.6 98.4273 68.864 102.641C68.4768 104.849 67.9704 107.266 67.1324 109.313C66.6732 110.433 65.3466 113.123 64.6654 114L61.9785 112.967C62.0574 112.87 62.134 112.77 62.2178 112.68C63.454 111.303 64.2531 109.201 64.8482 107.208Z" fill="black"/>
</g>
<g id="Group_67">
<path id="Vector_104" opacity="0.18" fill-rule="evenodd" clip-rule="evenodd" d="M55.7949 95.3906C55.4453 95.5966 55.0535 96.5552 55.5685 96.6733C55.9434 96.7598 56.6607 95.5639 55.7949 95.3906Z" fill="black"/>
<path id="Vector_105" opacity="0.18" fill-rule="evenodd" clip-rule="evenodd" d="M55.0289 97.3364C54.6229 97.7041 53.9267 98.9416 54.2449 99.5357C54.9932 99.9434 55.4101 97.7777 55.2031 97.3942C55.1451 97.375 55.086 97.3556 55.0289 97.3364Z" fill="black"/>
<path id="Vector_106" fill-rule="evenodd" clip-rule="evenodd" d="M65.6667 103.921C65.3154 104.055 65.154 104.826 65.188 105.186C65.3042 105.224 65.4207 105.262 65.5383 105.301C65.7934 105.053 66.2991 104.023 65.6667 103.921Z" fill="white"/>
<path id="Vector_107" fill-rule="evenodd" clip-rule="evenodd" d="M65.886 108.775C66.5142 108.698 67.0317 106.923 66.4006 106.811C65.8289 106.708 65.5041 108.446 65.886 108.775Z" fill="white"/>
<path id="Vector_108" fill-rule="evenodd" clip-rule="evenodd" d="M64.8459 106.43C64.2884 106.608 63.3813 109.234 64.1039 109.483C64.7746 109.714 65.447 107.409 65.3905 106.738C65.2915 106.594 65.1123 106.491 64.8459 106.43Z" fill="white"/>
</g>
</g>
<g id="Group_68">
<g id="Group_69">
<path id="Vector_109" fill-rule="evenodd" clip-rule="evenodd" d="M62.3209 81.54L62.3691 83.7374C62.3691 83.7374 61.3531 82.9604 61.4191 82.6428C61.599 81.7718 62.3209 81.54 62.3209 81.54Z" fill="#EFAD1B"/>
<path id="Vector_110" opacity="0.18" fill-rule="evenodd" clip-rule="evenodd" d="M62.3209 81.54L62.3691 83.7374C62.3691 83.7374 61.3531 82.9604 61.4191 82.6428C61.599 81.7718 62.3209 81.54 62.3209 81.54Z" fill="black"/>
</g>
<g id="Group_70">
<path id="Vector_111" fill-rule="evenodd" clip-rule="evenodd" d="M62.3209 81.0951C62.3209 81.0951 62.1199 83.3205 62.1994 83.4895C62.6803 84.5194 66.6406 85.27 66.7538 83.2492C66.7538 83.2492 66.8753 81.9428 66.9638 81.3575C67.179 79.9564 67.3817 79.0807 68.0801 78.0505C68.5085 77.4167 68.9376 76.6751 69.1862 75.806C69.8186 73.5826 68.6204 71.4271 67.0912 70.6911C66.5126 70.4135 65.3391 70.1072 64.5522 70.2276C63.7838 70.3452 62.4906 70.5693 61.8225 71.137C60.8184 71.9919 60.7907 73.3162 60.4494 75.1267C60.2625 76.1172 59.9833 77.1586 59.8866 77.9049C59.6205 79.9686 60.6137 80.8264 62.3209 81.0951Z" fill="#FCD2C0"/>
<g id="Group_71">
<path id="Vector_112" fill-rule="evenodd" clip-rule="evenodd" d="M58.7844 67.434C58.3612 68.4562 58.9253 69.2698 59.4964 69.7957C59.2802 69.8977 58.6761 69.4801 58.6642 69.796C58.6246 70.8938 59.1574 71.4054 60.041 71.6434C61.8627 72.1336 64.9113 71.3635 64.8136 73.6836C64.7799 74.494 64.3373 75.4545 64.8324 75.6585C65.3305 75.8612 65.6381 74.6983 66.2841 74.8353C66.6059 74.9039 66.8115 75.2449 66.7974 75.542C66.7568 76.4781 65.983 76.5626 65.3869 76.4342C65.1305 77.1227 64.6967 78.1074 65.08 78.6358C65.8616 79.4732 67.6859 80.0703 68.8293 78.8428C69.4416 78.1866 70.0922 76.4764 70.3157 75.4723C70.5992 74.1979 70.0711 72.9387 68.8554 72.4713C69.3297 69.8646 65.5833 69.4187 63.0556 68.7097C61.7178 68.3357 60.4978 67.8271 59.6162 67.4333C59.3756 67.3273 58.9441 67.0484 58.7844 67.434Z" fill="#FF5000"/>
<path id="Vector_113" fill-rule="evenodd" clip-rule="evenodd" d="M67.5238 70.9846C67.3796 71.4705 66.2722 70.8826 66.1276 70.5826C65.7018 69.6937 67.6413 70.5836 67.5238 70.9846Z" fill="white"/>
<path id="Vector_114" fill-rule="evenodd" clip-rule="evenodd" d="M68.3884 72.1114C68.1633 72.3204 67.7666 71.6731 67.7837 71.4724C67.8333 70.8766 68.573 71.9388 68.3884 72.1114Z" fill="white"/>
</g>
<g id="Group_72">
<g id="Group_73">
<path id="Vector_115" fill-rule="evenodd" clip-rule="evenodd" d="M63.0752 74.7392C62.8573 74.3831 62.6118 74.187 62.3748 74.0867L61.6602 74.2174L61.8714 74.7026C61.9341 74.7366 62.0034 74.7693 62.0797 74.799C62.5326 74.9746 63.0752 74.7392 63.0752 74.7392Z" fill="white"/>
<path id="Vector_116" fill-rule="evenodd" clip-rule="evenodd" d="M61.3105 74.1441C61.3105 74.1441 61.8139 73.8523 62.3754 74.086C62.3813 74.1356 62.4031 74.2339 62.3949 74.2861C62.3572 74.5174 62.1509 74.6864 61.9004 74.7162C61.4383 74.4765 61.3105 74.1441 61.3105 74.1441Z" fill="#4D3D87"/>
<path id="Vector_117" d="M63.3875 74.3983C62.9726 73.5487 61.9854 73.3585 61.5995 73.4028L61.5605 73.0694C62.1728 72.9991 63.2344 73.3196 63.6886 74.2514L63.3875 74.3983Z" fill="#FF5000"/>
<path id="Vector_118" fill-rule="evenodd" clip-rule="evenodd" d="M60.9008 73.8878C61.1896 73.9192 60.6278 75.8581 60.2621 76.579C59.8841 76.5905 59.4329 76.3839 59.3857 76.0637C59.2903 75.4293 60.6262 73.8598 60.9008 73.8878Z" fill="#FCD2C0"/>
<path id="Vector_119" opacity="0.13" fill-rule="evenodd" clip-rule="evenodd" d="M60.9008 73.8878C61.1896 73.9192 60.6278 75.8581 60.2621 76.579C59.8841 76.5905 59.4329 76.3839 59.3857 76.0637C59.2903 75.4293 60.6262 73.8598 60.9008 73.8878Z" fill="black"/>
<path id="Vector_120" fill-rule="evenodd" clip-rule="evenodd" d="M61.1398 77.333C61.091 78.0523 59.9865 78.5012 59.8591 78.2279C59.7891 78.0787 59.8215 77.7978 59.9334 77.6875C60.3754 77.737 60.7289 77.6879 61.1398 77.333Z" fill="#FCD2C0"/>
<path id="Vector_121" fill-rule="evenodd" clip-rule="evenodd" d="M61.1391 77.3331C60.8338 77.6308 60.1406 77.5612 59.9567 77.5173C59.8944 76.4897 60.6529 77.3859 61.1391 77.3331Z" fill="#FCD2C0"/>
<path id="Vector_122" opacity="0.13" fill-rule="evenodd" clip-rule="evenodd" d="M61.1398 77.333C61.091 78.0523 59.9865 78.5012 59.8591 78.2279C59.7891 78.0787 59.8215 77.7978 59.9334 77.6875C60.3754 77.737 60.7289 77.6879 61.1398 77.333Z" fill="black"/>
<path id="Vector_123" opacity="0.13" fill-rule="evenodd" clip-rule="evenodd" d="M61.1391 77.3331C60.8338 77.6308 60.1406 77.5612 59.9567 77.5173C59.8944 76.4897 60.6529 77.3859 61.1391 77.3331Z" fill="black"/>
<path id="Vector_124" opacity="0.13" d="M63.8288 76.7393C63.7911 77.2866 63.3178 77.7008 62.7702 77.6625C62.2239 77.6249 61.8113 77.1519 61.848 76.6053C61.8846 76.0577 62.3589 75.6444 62.9059 75.6821C63.4521 75.7197 63.8661 76.193 63.8288 76.7393Z" fill="black"/>
</g>
<path id="Vector_125" opacity="0.13" fill-rule="evenodd" clip-rule="evenodd" d="M62.3194 81.0953L62.2188 82.6394C64.4847 82.411 65.3274 80.6345 65.3274 80.6345C65.3274 80.6345 63.7533 81.4317 62.3194 81.0953Z" fill="black"/>
</g>
</g>
<g id="Group_74">
<g id="Group_75">
<path id="Vector_126" fill-rule="evenodd" clip-rule="evenodd" d="M66.7097 82.227C67.4174 82.3257 68.9509 82.832 70.4254 83.4308C72.2193 84.1603 73.9242 85.0264 73.942 85.4651C73.9945 86.6065 70.6617 91.3632 70.0761 91.3438C69.4143 91.3223 69.0803 90.678 68.974 90.207C68.767 89.3026 67.8494 87.8364 65.7155 86.2361C64.106 85.032 62.3691 83.7371 62.3691 83.7371C62.3691 83.7371 63.4907 81.72 66.7097 82.227Z" fill="#EFAD1B"/>
</g>
<g id="Group_76" opacity="0.25">
<path id="Vector_127" opacity="0.25" fill-rule="evenodd" clip-rule="evenodd" d="M66.7097 82.227C67.4174 82.3257 68.9509 82.832 70.4254 83.4308C72.2193 84.1603 73.9242 85.0264 73.942 85.4651C73.9945 86.6065 70.6617 91.3632 70.0761 91.3438C69.4143 91.3223 69.0803 90.678 68.974 90.207C68.767 89.3026 67.8494 87.8364 65.7155 86.2361C64.106 85.032 62.3691 83.7371 62.3691 83.7371C62.3691 83.7371 63.4907 81.72 66.7097 82.227Z" fill="white"/>
</g>
</g>
</g>
<g id="Group_77">
<g id="Group_78">
<g id="Group_79">
<path id="Vector_128" fill-rule="evenodd" clip-rule="evenodd" d="M37.6233 75.3172C39.307 75.9846 40.2104 77.4588 41.2106 78.7645C42.1642 80.0066 43.093 81.2104 43.9179 82.4829C45.6729 85.1859 47.0833 87.8833 48.4687 90.3232C50.8878 89.092 53.2564 87.7602 55.6597 86.4999C56.0463 87.949 56.5856 89.3719 57.0576 90.7955C57.3398 91.6521 57.9122 92.3222 58.6334 92.8031C56.3697 93.9782 54.0648 95.0889 51.6186 95.8966C50.3933 96.3019 48.64 96.8888 47.2662 96.7435C44.3113 96.4293 43.095 93.6695 42.1572 91.8993C41.2079 90.1106 40.4669 88.2662 39.8028 86.4818C39.1869 84.8317 38.4851 82.906 37.7401 80.9724C37.2411 79.6802 36.6538 78.2117 36.1696 76.8171C35.758 75.6334 36.3776 74.8254 37.6233 75.3172Z" fill="#FCD2C0"/>
<path id="Vector_129" fill-rule="evenodd" clip-rule="evenodd" d="M35.3524 74.5977C35.0867 74.4864 34.2711 73.9461 33.8142 73.8332C33.6373 73.7893 33.4142 73.789 33.3445 73.9336C33.196 74.2366 33.8779 74.6043 34.0964 74.765C34.4784 75.0443 34.7252 75.2601 35.0599 75.4886C34.7381 75.4008 33.9519 74.8726 33.398 74.7043C33.1646 74.635 32.887 74.5964 32.8052 74.7865C32.6986 75.0271 33.2231 75.3922 33.398 75.5206C34.2295 76.1385 35.153 76.8339 35.7158 77.4548C36.3618 78.1694 36.8249 78.8725 37.2045 79.734C37.2969 79.9413 37.4055 80.4245 37.6095 80.5206C37.7085 80.5658 37.9861 80.5216 38.0868 80.4886C38.432 80.376 38.7859 80.1212 39.2447 79.8241C39.4193 79.7112 39.5972 79.6063 39.7982 79.4327C39.9596 79.2924 40.2613 79.0838 40.3046 78.99C40.3742 78.8421 40.2775 78.4602 40.2145 78.2341C40.0352 77.576 39.7094 76.6732 39.546 76.1325C39.4034 75.6638 39.2549 75.1713 39.1265 74.7201C39.0027 74.291 38.6096 72.8826 38.0392 72.9638C37.5735 73.0321 38.1158 74.3531 38.1039 74.7218C37.7131 74.2118 36.9506 73.488 36.0159 72.9476C35.7726 72.8067 35.2715 72.4835 35.1071 72.67C34.882 72.9262 35.2699 73.1972 35.423 73.3553C35.6369 73.5748 35.7736 73.7589 35.9894 73.9147C35.6194 73.7797 34.8979 73.2767 34.4407 73.1783C34.2915 73.1463 34.1001 73.1641 34.0387 73.2737C33.9014 73.5286 34.3156 73.749 34.5586 73.9454C34.8916 74.2121 35.0897 74.4069 35.3233 74.5874C35.3329 74.5898 35.3422 74.5937 35.3524 74.5977Z" fill="#FCD2C0"/>
</g>
<g id="Group_80">
<path id="Vector_130" opacity="0.13" fill-rule="evenodd" clip-rule="evenodd" d="M47.6234 88.8013C47.832 88.289 46.3397 91.8954 46.7464 92.039C47.3976 92.2677 48.4713 90.3232 48.4713 90.3232L47.6234 88.8013Z" fill="black"/>
<path id="Vector_131" fill-rule="evenodd" clip-rule="evenodd" d="M46.6513 95.7389C46.2575 94.2024 48.7723 95.3465 48.6644 95.223C49.4622 96.1314 46.7797 96.2413 46.6513 95.7389Z" fill="white"/>
<path id="Vector_132" fill-rule="evenodd" clip-rule="evenodd" d="M45.4514 94.1722C45.702 94.0537 46.2641 95.0928 46.0413 95.2569C45.8182 95.4216 44.7424 94.5096 45.4514 94.1722Z" fill="white"/>
</g>
</g>
<path id="Vector_133" fill-rule="evenodd" clip-rule="evenodd" d="M52.2246 88.0183C52.93 90.4678 54.1163 92.6741 55.3488 94.8575C57.1457 94.2294 59.0262 93.421 60.7525 92.1671C62.4138 90.961 64.1672 89.4146 64.8808 87.0571C65.2756 85.754 65.1831 84.1132 63.504 83.7623C62.5128 83.556 61.3341 83.9349 60.3805 84.2261C57.5864 85.0803 54.4635 86.5564 52.2246 88.0183Z" fill="#EFAD1B"/>
<path id="Vector_134" opacity="0.18" fill-rule="evenodd" clip-rule="evenodd" d="M52.2246 88.0183C52.93 90.4678 54.1163 92.6741 55.3488 94.8575C57.1457 94.2294 59.0262 93.421 60.7525 92.1671C62.4138 90.961 64.1672 89.4146 64.8808 87.0571C65.2756 85.754 65.1831 84.1132 63.504 83.7623C62.5128 83.556 61.3341 83.9349 60.3805 84.2261C57.5864 85.0803 54.4635 86.5564 52.2246 88.0183Z" fill="black"/>
</g>
</g>
</g>
</g>
<g id="Group_81">
<g id="Group_82">
<g id="Group_83">
<g id="Group_84">
<path id="Vector_135" d="M86.7197 55.114L82.7637 59.4124L88.0692 64.2953L92.0252 59.997L86.7197 55.114Z" fill="#FCD2C0"/>
<g id="Group_85">
<path id="Vector_136" fill-rule="evenodd" clip-rule="evenodd" d="M87.0622 64.6021C86.3238 65.8953 85.7125 67.1539 85.5818 68.5082C85.5412 68.9136 85.4699 69.4919 85.8093 69.7635C86.2618 70.1266 87.1012 69.4836 87.7818 68.9165C89.2087 67.7236 90.4491 66.5122 91.778 65.0946C92.8534 63.9485 93.7371 62.8282 93.4822 61.809C93.2967 61.0604 92.7755 60.3923 92.2646 59.7064C91.7526 59.0248 91.1832 58.4164 90.4023 57.7856C89.3444 58.5874 88.0389 59.7714 86.8698 61.0267C86.2156 60.2725 85.5449 60.4299 84.7335 61.1386C84.4566 61.3812 84.047 61.8479 84.0588 62.0928C84.0859 62.5926 86.5183 64.3047 87.0622 64.6021Z" fill="#FF5000"/>
<g id="Group_86">
<path id="Vector_137" d="M84.1297 63.6259C84.1971 63.4473 84.3413 63.3271 84.54 63.2862C85.2695 63.1357 86.8007 64.1272 87.0087 64.4345C87.0348 64.4748 87.0394 64.5316 87.0182 64.5798C86.9942 64.629 86.9476 64.6653 86.8968 64.6771C86.3604 64.8003 84.814 64.6719 84.2872 64.2276C84.1439 64.1091 84.0786 63.9705 84.0914 63.8143C84.0951 63.7486 84.1086 63.6843 84.1297 63.6259ZM86.5238 64.4174C86.06 64.0612 85.0417 63.4915 84.5707 63.5862C84.4657 63.608 84.4357 63.6559 84.4169 63.7051C84.407 63.7361 84.4004 63.7655 84.3958 63.8071C84.3928 63.8638 84.4281 63.9223 84.5001 63.9853C84.85 64.2797 85.8854 64.4408 86.5238 64.4174Z" fill="#4D3D87"/>
<path id="Vector_138" d="M83.9233 65.1351C83.9781 64.9842 84.1095 64.8575 84.3187 64.7518C85.0442 64.3881 86.6078 64.3696 86.9343 64.4931C86.9821 64.5086 87.0145 64.5515 87.0198 64.6017C87.0257 64.6548 87.0062 64.7079 86.9633 64.7449C86.5454 65.1271 85.0786 65.8493 84.3686 65.7767C84.1741 65.7582 84.0391 65.686 83.9708 65.5599C83.8873 65.4136 83.8738 65.271 83.9233 65.1351ZM86.4834 64.7383C85.9497 64.7112 84.9363 64.7713 84.429 65.0228C84.3088 65.0836 84.2322 65.1499 84.2098 65.2156C84.1946 65.2602 84.2029 65.3189 84.2392 65.3902C84.2669 65.4348 84.3286 65.4658 84.4306 65.474C84.9056 65.5206 85.917 65.0954 86.4834 64.7383Z" fill="#4D3D87"/>
<path id="Vector_139" d="M85.3496 66.5179L86.7452 64.5569L86.9898 64.7176L85.5925 66.6783L85.3496 66.5179Z" fill="#4D3D87"/>
</g>
<g id="Group_87">
<path id="Vector_140" d="M86.3864 67.7381C87.8981 67.0624 89.0019 65.5279 89.0719 64.1941C89.1656 62.4446 88.6345 62.1796 87.5383 60.926C87.4581 60.8352 87.3637 60.7249 87.2631 60.613C87.131 60.7497 86.9997 60.887 86.8706 61.026C86.7729 60.9137 86.6762 60.8249 86.5778 60.752C86.6438 60.8068 86.7092 60.8622 86.7646 60.9233C88.2856 62.5427 89.2963 64.3901 87.5261 66.2547C87.037 66.7687 86.522 67.0819 86.0735 67.2611C85.9933 67.2925 85.9084 67.312 85.82 67.3291C85.7553 67.5493 85.6968 67.7705 85.6562 67.9936C85.915 67.9431 86.192 67.8243 86.3864 67.7381Z" fill="white"/>
<path id="Vector_141" d="M92.0609 59.9692C90.6106 61.1482 90.6713 62.5438 91.2753 63.7459C91.4163 64.0262 91.7404 64.7051 92.0497 64.7999C92.1553 64.6827 92.2606 64.5652 92.359 64.448C92.3035 64.2093 92.0461 63.9202 91.8877 63.6518C91.2057 62.483 91.3866 61.1967 92.4062 60.361C92.4752 60.3039 92.5594 60.2626 92.6449 60.2207C92.5369 60.0721 92.4273 59.9243 92.3138 59.7744C92.2237 59.8365 92.1359 59.9068 92.0609 59.9692Z" fill="white"/>
</g>
<path id="Vector_142" d="M93.5223 62.1118C93.559 63.0499 92.7456 64.0606 91.7785 65.0944C90.4499 66.5121 89.2095 67.7235 87.7822 68.9164C87.1706 69.4247 86.4362 69.9888 85.9648 69.8426L93.5223 62.1118Z" fill="#4D3D87"/>
</g>
</g>
<g id="Group_88">
<path id="Vector_143" fill-rule="evenodd" clip-rule="evenodd" d="M87.6057 55.3199C87.5998 55.3311 83.3748 59.4462 82.9553 59.9202C82.6942 59.7254 77.7136 55.5199 75.5566 53.449C74.1887 52.1379 72.0541 50.0363 72.3548 47.7555C72.6866 45.2499 77.234 43.644 80.3061 43.0053C83.522 42.3356 86.5122 42.2155 89.4654 41.9171C88.8855 41.3087 88.2956 40.7195 87.7269 40.0815C90.3447 37.459 92.9844 34.8491 95.8138 32.321C97.5477 32.5815 99.5744 33.3974 101.395 34.5002C103.151 35.567 104.794 36.8722 105.765 38.9952C106.504 40.6136 106.551 42.1897 106.058 43.2948C104.565 46.6438 99.0463 48.3054 94.7724 49.192C90.3292 50.1136 85.5322 49.5488 81.6231 49.7046C83.1101 51.0507 87.476 55.1902 87.6057 55.3199Z" fill="#8F7ECE"/>
<g id="Group_89">
<g id="Group_90">
<path id="Vector_144" fill-rule="evenodd" clip-rule="evenodd" d="M75.6812 51.5064C75.3765 51.7295 74.991 51.2876 74.7695 50.8571C74.549 50.429 74.3651 49.9544 74.5625 49.8233C74.8754 49.617 75.1547 50.2234 75.3399 50.5571C75.4937 50.8337 76.0007 51.2717 75.6812 51.5064Z" fill="white"/>
<path id="Vector_145" fill-rule="evenodd" clip-rule="evenodd" d="M73.6315 49.9616C73.2562 50.2273 72.7888 49.0367 73.1169 48.8783C73.5774 48.6558 74.0425 49.6702 73.6315 49.9616Z" fill="white"/>
<path id="Vector_146" fill-rule="evenodd" clip-rule="evenodd" d="M74.123 48.8584C73.7982 48.8086 73.5332 48.0649 73.4477 47.5923C73.4193 47.4249 73.3582 47.3833 73.5348 47.3279C73.8088 47.2427 73.9543 47.7207 74.1095 48.0412C74.2729 48.3709 74.5326 48.7033 74.123 48.8584Z" fill="white"/>
</g>
<g id="Group_91">
<path id="Vector_147" opacity="0.13" d="M79.2234 47.8256C79.5003 47.5923 81.7439 48.7944 82.9569 49.678C82.5067 49.678 82.064 49.6869 81.6333 49.7044C81.1712 49.379 80.7203 49.0664 80.2753 48.7617C79.8997 48.5069 79.1131 47.919 79.2234 47.8256Z" fill="black"/>
<path id="Vector_148" opacity="0.13" d="M93.775 41.5073C93.8179 41.7674 92.8013 41.7991 92.327 41.8235C91.2968 41.8734 90.2785 41.9173 89.2777 41.9354C89.3407 41.9295 89.4038 41.9235 89.4658 41.9166C89.0975 41.5301 88.7261 41.1502 88.3555 40.76C89.6484 40.7663 91.1638 40.9277 92.3299 41.0673C92.8528 41.13 93.7367 41.2858 93.775 41.5073Z" fill="black"/>
</g>
<g id="Group_92">
<path id="Vector_149" fill-rule="evenodd" clip-rule="evenodd" d="M104.602 42.4837C104.673 42.4137 103.896 43.7796 104.497 43.9321C104.929 44.0413 105.12 42.9567 104.999 42.5807C104.925 42.4873 104.736 42.4418 104.602 42.4837Z" fill="white"/>
<path id="Vector_150" fill-rule="evenodd" clip-rule="evenodd" d="M104.802 40.2979C104.613 40.6035 105.031 42.2219 105.6 41.98C105.972 41.8228 105.624 40.52 105.196 40.2075C105.085 40.1814 104.954 40.2104 104.802 40.2979Z" fill="white"/>
</g>
</g>
</g>
</g>
<g id="Group_93">
<g id="Group_94">
<g id="Group_95">
<path id="Vector_151" fill-rule="evenodd" clip-rule="evenodd" d="M67.0815 16.9971C67.57 16.4433 68.3001 16.066 68.8537 16.3713C70.7279 17.4021 69.0907 19.6467 69.2197 19.8289C70.2687 21.2977 72.0627 23.3419 72.6443 24.1724C73.2094 24.9864 70.3658 28.3056 68.7748 27.0279C68.7748 27.0279 67.6126 25.829 67.0426 25.3168C66.2487 25.8162 65.0446 26.2119 64.0719 25.8218C63.5414 25.6049 62.7687 24.9689 62.331 24.3041C62.0864 23.9327 61.8547 23.3673 61.5897 22.7603C61.1477 21.7371 60.305 21.1667 59.9426 20.1329C59.731 19.5229 59.9195 18.5855 59.9119 18.2168C59.8937 17.4312 60.3109 16.4578 61.2272 15.7059C62.5575 14.6183 64.7267 14.4512 66.0556 15.5118C66.6501 15.9845 66.866 16.4449 67.0815 16.9971Z" fill="#FCD2C0"/>
<path id="Vector_152" opacity="0.13" fill-rule="evenodd" clip-rule="evenodd" d="M68.6191 22.541C69.1 23.2629 69.3311 25.3572 68.0745 26.3132L67.043 25.3166C68.121 24.4495 68.3791 23.5039 68.6191 22.541Z" fill="black"/>
<path id="Vector_153" d="M72.427 16.7681C72.5891 16.1828 72.6016 15.4794 72.1277 14.7694C71.8695 14.3842 71.3668 13.9182 70.9849 13.7657C70.4928 13.5732 69.8363 13.5762 69.35 13.4032C68.7991 13.2098 68.3542 12.58 67.8861 12.0975C66.9616 11.1518 65.6449 10.9247 64.5675 11.5178C63.9255 11.8743 63.6588 12.3008 63.2859 12.7424C62.6369 12.3846 61.987 12.3569 61.2985 12.7362C60.0815 13.4072 60.1841 14.3717 59.6689 15.1338C59.3117 15.6689 58.341 16.1577 57.9056 16.6416C57.4989 17.0945 57.1282 17.556 56.9513 18.1247C56.7219 18.8674 57.0622 19.9563 57.6244 20.629C58.7159 21.9331 58.2786 22.4197 59.0057 23.505C60.3059 25.4445 61.6648 24.0658 62.2382 24.1489C62.185 24.0588 62.0883 23.8212 62.0385 23.7212C61.752 23.1359 61.4638 22.2909 61.0902 21.6661C60.7921 21.1624 60.4049 20.7574 60.1868 20.1992C61.7827 18.9934 62.1487 17.5649 62.1504 16.0709C62.8954 15.9729 63.5311 15.9693 64.078 16.6581C64.4015 17.0688 64.589 17.6226 64.9475 18.059C65.2049 18.3719 65.5036 18.5663 65.7842 18.6756C65.8908 18.7162 66.1648 18.8258 66.2037 18.6858C66.2556 18.495 65.8436 18.4254 65.6344 18.2924C64.9531 17.8662 64.6897 16.7185 64.1044 16.1386C64.7072 16.4548 64.8712 17.3454 65.4139 17.8124C65.7185 18.0735 66.14 18.1161 66.5295 18.2356C66.9596 18.3699 67.2626 18.6139 67.6056 18.8733C67.6072 18.3491 67.6468 17.7207 68.2185 17.4408C68.4836 17.3091 68.7889 17.4157 68.9559 17.6385C69.3319 18.1385 69.1675 19.2628 68.4344 19.5335C68.2347 19.884 68.784 19.8942 69.3326 20.0259C72.7195 20.8419 72.03 17.8362 72.1006 17.5919C72.1831 17.3067 72.3472 17.0526 72.427 16.7681ZM60.0092 19.8375L59.922 19.6325C60.0158 19.5645 60.1148 19.4803 60.1983 19.4044C60.9661 18.6904 61.5249 17.7698 61.7989 16.914C61.7084 17.8573 61.1862 19.0634 60.0092 19.8375Z" fill="#FF5000"/>
<g id="Group_96">
<g id="Group_97">
<g id="Group_98">
<g id="Group_99">
<path id="Vector_154" fill-rule="evenodd" clip-rule="evenodd" d="M65.2194 19.5096C64.8074 19.4073 64.4899 19.4409 64.2473 19.5383L63.9727 20.1186L64.3229 20.3384C64.3922 20.3186 64.4651 20.2929 64.5411 20.2602C64.9946 20.0661 65.2194 19.5096 65.2194 19.5096Z" fill="white"/>
<path id="Vector_155" fill-rule="evenodd" clip-rule="evenodd" d="M63.5254 20.3361C63.5254 20.3361 63.6776 19.7674 64.2479 19.5393C64.2879 19.5693 64.3747 19.6248 64.4041 19.668C64.543 19.8605 64.513 20.1295 64.3522 20.3289C63.8502 20.485 63.5254 20.3361 63.5254 20.3361Z" fill="#4D3D87"/>
</g>
<path id="Vector_156" d="M65.0318 18.9802C64.094 18.8106 63.348 19.4984 63.1513 19.8381L62.8496 19.6648C63.1609 19.1251 64.0607 18.4478 65.0955 18.6376L65.0318 18.9802Z" fill="#FF5000"/>
<path id="Vector_157" opacity="0.13" d="M64.041 23.8244C64.9309 23.4805 65.2101 22.5051 65.2009 22.1136L65.5481 22.1047C65.5623 22.7276 65.1474 23.7739 64.1661 24.1486L64.041 23.8244Z" fill="black"/>
</g>
<g id="Group_100">
<g id="Group_101">
<path id="Vector_158" fill-rule="evenodd" clip-rule="evenodd" d="M62.3928 20.8995C62.0089 20.8041 61.7135 20.8358 61.4881 20.9266L61.2676 21.4633L61.5887 21.6604C61.6445 21.6432 61.7026 21.6221 61.7627 21.596C62.1835 21.4148 62.3928 20.8995 62.3928 20.8995Z" fill="white"/>
<path id="Vector_159" fill-rule="evenodd" clip-rule="evenodd" d="M60.8184 21.6664C60.8184 21.6664 60.961 21.1389 61.4884 20.926C61.528 20.9538 61.6086 21.0056 61.6363 21.0462C61.7647 21.2244 61.737 21.4736 61.5891 21.6595C61.123 21.8014 60.8184 21.6664 60.8184 21.6664Z" fill="#4D3D87"/>
</g>
<path id="Vector_160" d="M62.2169 20.419C61.3511 20.2619 60.6662 20.8976 60.4853 21.2099L60.1836 21.0379C60.4741 20.5319 61.3158 19.9018 62.2786 20.0767L62.2169 20.419Z" fill="#FF5000"/>
</g>
<path id="Vector_161" opacity="0.13" fill-rule="evenodd" clip-rule="evenodd" d="M64.1944 22.6652C62.4407 23.5508 62.8394 21.5597 62.747 20.6847C62.7424 20.6329 62.7034 20.5556 62.747 20.5061C62.9946 20.2299 63.9963 21.9463 64.1944 22.6652Z" fill="black"/>
<path id="Vector_162" opacity="0.13" fill-rule="evenodd" clip-rule="evenodd" d="M66.7961 19.9164C67.0559 20.1775 67.0559 20.6013 66.7954 20.8587C66.5343 21.1195 66.1141 21.1179 65.8547 20.8578C65.5936 20.5977 65.5966 20.1785 65.856 19.9174C66.1155 19.6573 66.5366 19.6573 66.7961 19.9164Z" fill="black"/>
</g>
</g>
</g>
<g id="Group_102">
<g id="Group_103">
<path id="Vector_163" fill-rule="evenodd" clip-rule="evenodd" d="M65.9493 12.4388C66.3513 12.1127 65.1344 11.5492 65.1466 12.0589C65.1525 12.3262 65.6965 12.451 65.9493 12.4388Z" fill="white"/>
<path id="Vector_164" fill-rule="evenodd" clip-rule="evenodd" d="M66.8429 12.3054C66.7327 12.3011 66.5059 12.35 66.5118 12.5702C66.5217 12.858 67.0281 13.1356 67.2096 13.2838C67.4281 13.4647 67.7595 13.9023 68.0583 13.7885C68.4844 13.6247 67.8873 13.0537 67.674 12.8666C67.5615 12.7656 67.4413 12.6791 67.3417 12.5995C67.1687 12.4625 67.0551 12.315 66.8429 12.3054Z" fill="white"/>
</g>
<g id="Group_104">
<path id="Vector_165" fill-rule="evenodd" clip-rule="evenodd" d="M71.0551 14.813C71.4581 14.4865 70.2411 13.9234 70.254 14.4334C70.2599 14.6998 70.8046 14.8252 71.0551 14.813Z" fill="white"/>
</g>
</g>
</g>
<g id="Group_105">
<g id="Group_106">
<path id="Vector_166" d="M94.88 30.6389C92.0017 29.2506 85.1995 25.9175 84.7581 25.6564C82.9272 24.5675 80.9358 23.394 78.8507 22.6114C76.6696 21.7938 74.2739 21.3499 71.5583 22.3553C71.4639 22.3889 71.3745 22.4269 71.282 22.4652C71.7029 24.4272 70.6872 26.235 68.8203 27.0506C69.1603 27.9881 68.6889 36.1298 71.0714 37.4072C73.4371 38.6767 76.7828 37.0972 77.877 37.4679C78.5695 37.7029 83.2982 40.0709 85.816 41.0555C87.1773 41.5883 87.9665 41.1714 88.3956 40.877C90.8649 39.1909 94.443 35.33 95.723 32.2817C95.9049 31.8463 96.1647 31.2595 94.88 30.6389Z" fill="#CAD309"/>
<g id="Group_107">
<g id="Group_108">
<path id="Vector_167" fill-rule="evenodd" clip-rule="evenodd" d="M87.4428 40.6453C87.497 41.1018 86.2271 40.9529 86.2423 40.5888C86.2572 40.2139 87.3969 40.2924 87.4428 40.6453Z" fill="white"/>
<path id="Vector_168" fill-rule="evenodd" clip-rule="evenodd" d="M86.6971 39.6931C86.5021 39.9542 85.8224 39.9681 85.3646 39.8202C85.2032 39.7664 85.0382 39.671 85.0705 39.4888C85.126 39.2059 85.6151 39.304 85.9723 39.3168C86.34 39.33 86.7549 39.2577 86.6971 39.6931Z" fill="white"/>
</g>
</g>
</g>
<g id="Group_109">
<path id="Vector_169" fill-rule="evenodd" clip-rule="evenodd" d="M77.3157 23.221C77.789 22.7268 76.097 22.1901 76.1977 22.8579C76.2502 23.2061 76.9869 23.279 77.3157 23.221Z" fill="white"/>
<path id="Vector_170" fill-rule="evenodd" clip-rule="evenodd" d="M78.4646 22.8981C78.319 22.9096 78.0296 23.0126 78.0751 23.2998C78.1329 23.6761 78.8472 23.9563 79.1069 24.1213C79.4251 24.3214 79.9338 24.8416 80.3074 24.6409C80.8392 24.3554 79.9615 23.7058 79.6493 23.4948C79.4836 23.3826 79.3109 23.2885 79.166 23.2011C78.9171 23.0502 78.7425 22.875 78.4646 22.8981Z" fill="white"/>
</g>
</g>
<g id="Group_110">
<path id="Vector_171" fill-rule="evenodd" clip-rule="evenodd" d="M71.0834 34.1064C70.8246 35.1175 68.5309 41.2962 67.5644 43.8487C66.7188 46.0794 63.5659 51.8917 63.0694 52.5558C62.7889 52.8651 62.5209 53.1635 62.3132 53.3797C61.9396 53.7708 61.5501 54.1785 61.1857 54.5488C60.8421 54.8987 59.7053 56.0431 60.1185 56.4557C60.4615 56.7967 61.424 55.5817 61.7911 55.3757C61.524 55.9913 61.2689 57.031 61.2943 58.1025C61.3002 58.3853 61.2808 58.9795 61.5593 59.0039C61.9396 59.0366 61.9766 58.5619 62.0386 58.3454C62.1264 58.0434 62.2254 57.8255 62.2509 57.5601C62.335 57.9387 62.272 58.8181 62.4453 59.2465C62.5007 59.3848 62.6321 59.53 62.773 59.5135C63.1025 59.4766 63.0718 59.0125 63.119 58.7002C63.1813 58.2777 63.2569 58.0028 63.2929 57.7133C63.2906 57.7004 63.2893 57.6876 63.2886 57.6753C63.2899 57.6866 63.2916 57.6965 63.2946 57.706C63.2946 57.7087 63.2929 57.711 63.2929 57.713C63.3328 58.0312 63.2959 58.9488 63.4484 59.3693C63.5104 59.538 63.6405 59.7169 63.8227 59.6891C64.2062 59.6327 64.1627 58.8649 64.1904 58.5939C64.2353 58.1213 64.3 57.7925 64.3254 57.3911C64.4304 57.7024 64.3802 58.6494 64.5429 59.1963C64.6102 59.4241 64.7363 59.672 64.9714 59.6284C65.2631 59.5723 65.3107 58.9333 65.3354 58.7174C65.4467 57.6813 65.5794 56.5257 65.851 55.7071C66.0596 55.0839 66.3148 54.5277 66.6396 53.9861C68.2197 51.7858 71.062 47.1525 72.1317 44.7257C73.2362 42.2188 75.6778 36.7085 76.2105 34.6438C75.283 34.7871 71.9337 34.2124 71.0834 34.1064Z" fill="#FCD2C0"/>
<g id="Group_111">
<g id="Group_112">
<path id="Vector_172" d="M74.6468 24.0727C72.7396 24.3114 71.791 26.2232 71.1533 27.4329C69.7382 30.1148 68.9127 32.7911 68.1152 35.6291L75.0693 38.0776C75.6133 36.8236 76.1167 35.5591 76.5497 34.287C76.9273 33.1822 77.3165 31.9454 77.5538 30.6046C77.7789 29.3451 77.8869 27.8373 77.4264 26.3985C76.9716 24.9748 75.9255 23.9107 74.6468 24.0727Z" fill="#B1BC00"/>
</g>
<g id="Group_113">
<g id="Group_114">
<path id="Vector_173" fill-rule="evenodd" clip-rule="evenodd" d="M72.9242 27.7062C72.5852 27.9257 72.1422 28.8945 72.5294 29.0731C72.9308 29.2546 73.3345 28.2528 73.2939 27.8716C73.2378 27.7692 73.0638 27.6937 72.9242 27.7062Z" fill="white"/>
<path id="Vector_174" fill-rule="evenodd" clip-rule="evenodd" d="M71.1886 29.306C70.7618 28.8905 70.462 29.752 70.3023 30.3125C70.1937 30.6904 70.1065 31.1472 70.3907 31.2268C70.7915 31.3403 71.3585 29.7596 71.2664 29.4107C71.2585 29.38 71.214 29.3318 71.1886 29.306Z" fill="white"/>
</g>
<path id="Vector_175" fill-rule="evenodd" clip-rule="evenodd" d="M72.768 26.0149C72.4214 26.1053 71.5916 27.5303 72.1656 27.7396C72.5409 27.8759 73.1994 26.7236 73.1132 26.2146C73.0525 26.1235 72.9383 26.0562 72.768 26.0149Z" fill="white"/>
</g>
</g>
</g>
</g>
</g>
<g id="Group_115">
<path id="Vector_176" fill-rule="evenodd" clip-rule="evenodd" d="M97.2976 32.6554C94.4441 35.6254 92.0048 38.7252 89.2945 41.7388L88.4023 40.8866C90.6182 37.9449 93.1647 35.1072 95.7449 32.2808C95.7453 32.2808 97.3253 32.6273 97.2976 32.6554Z" fill="#EFAD1B"/>
<path id="Vector_177" d="M93.1032 38.3032L92.0635 39.5436C91.7611 39.9034 91.2231 39.9509 90.863 39.6489L90.1338 39.0382C89.775 38.7352 89.7265 38.1969 90.0289 37.8361L91.0696 36.5967C91.3719 36.2369 91.91 36.1893 92.2694 36.491L92.9996 37.103C93.3584 37.405 93.4049 37.944 93.1032 38.3032ZM90.5283 38.2543C90.4556 38.3398 90.4659 38.4675 90.5517 38.5382L91.2818 39.1508C91.3667 39.2214 91.4944 39.2105 91.5647 39.1257L92.6061 37.8846C92.6774 37.7998 92.6662 37.6727 92.58 37.6014L91.8522 36.9895C91.7667 36.9182 91.6383 36.9291 91.5687 37.0145L90.5283 38.2543Z" fill="white"/>
</g>
</g>
</g>
</g>
</g>
</svg>
