<svg width="167" height="167" viewBox="0 0 167 167" fill="none" xmlns="http://www.w3.org/2000/svg">
<g id="books 1">
<g id="Group">
<g id="Group_2">
<g id="Group_3">
<g id="Group_4">
<g id="Group_5">
<path id="Vector" fill-rule="evenodd" clip-rule="evenodd" d="M151.518 41.8542C140.434 35.0441 130.019 26.5855 120.429 17.7032C119.148 16.5185 117.087 15.1926 117.639 12.8067C119.417 11.7753 122.092 14.0265 123.655 15.0908C128.557 18.4367 131.935 21.5168 136.853 25.3731C141.166 28.7568 145.606 32.0854 149.903 35.9795C151.478 37.4069 153.176 39.0045 153.571 40.223C153.692 40.5988 153.865 42.1024 153.865 42.3428C153.866 44.3961 152.802 46.0795 152.104 47.8923C148.115 58.2607 143.757 67.6026 139.053 77.4285C138.718 78.1278 138.284 79.0665 137.879 79.8754C137.433 80.7721 136.796 81.581 136.707 82.1612C136.57 83.0351 136.847 84.3861 136.853 85.5896C136.864 87.9498 137.448 123.308 135.644 123.727C132.091 124.55 133.774 94.2407 133.774 92.0974C133.774 86.4697 134.431 78.8043 135.973 74.9822C140.495 63.7687 146.855 52.9304 151.518 41.8542Z" fill="#FF5000"/>
</g>
</g>
<g id="Group_6" opacity="0.21">
<g id="Group_7" opacity="0.21">
<path id="Vector_2" opacity="0.21" fill-rule="evenodd" clip-rule="evenodd" d="M151.518 41.8542C140.434 35.0441 130.019 26.5855 120.429 17.7032C119.148 16.5185 117.087 15.1926 117.639 12.8067C119.417 11.7753 122.092 14.0265 123.655 15.0908C128.557 18.4367 131.935 21.5168 136.853 25.3731C141.166 28.7568 145.606 32.0854 149.903 35.9795C151.478 37.4069 153.176 39.0045 153.571 40.223C153.692 40.5988 153.865 42.1024 153.865 42.3428C153.866 44.3961 152.802 46.0795 152.104 47.8923C148.115 58.2607 143.757 67.6026 139.053 77.4285C138.718 78.1278 138.284 79.0665 137.879 79.8754C137.433 80.7721 136.796 81.581 136.707 82.1612C136.57 83.0351 136.847 84.3861 136.853 85.5896C136.864 87.9498 137.448 123.308 135.644 123.727C132.091 124.55 133.774 94.2407 133.774 92.0974C133.774 86.4697 134.431 78.8043 135.973 74.9822C140.495 63.7687 146.855 52.9304 151.518 41.8542Z" fill="black"/>
</g>
</g>
<g id="Group_8">
<path id="Vector_3" fill-rule="evenodd" clip-rule="evenodd" d="M156.286 42.4868C156.286 44.9973 154.455 47.0362 152.197 47.0362C149.942 47.0362 148.111 44.9973 148.111 42.4868C148.111 39.9762 149.942 37.938 152.197 37.938C154.455 37.9383 156.286 39.9766 156.286 42.4868Z" fill="#FF5000"/>
<path id="Vector_4" fill-rule="evenodd" clip-rule="evenodd" d="M154.144 42.4868C154.144 43.6858 153.273 44.6536 152.196 44.6536C151.122 44.6536 150.25 43.6858 150.25 42.4868C150.25 41.2904 151.122 40.3201 152.196 40.3201C153.273 40.3204 154.144 41.2904 154.144 42.4868Z" fill="white"/>
</g>
<path id="Vector_5" fill-rule="evenodd" clip-rule="evenodd" d="M126.076 0.0344579C129.425 -0.231046 132.439 1.07429 134.453 2.69145C136.405 4.25904 138.096 6.39775 138.358 9.12878C138.809 13.8889 136.603 17.4566 136.243 21.9327C135.442 31.8604 140.043 37.8639 145.267 43.2014C149.216 47.2325 153.195 51.143 152.831 58.5931C152.722 60.8022 152.12 62.9155 151.448 64.6814C148.657 72.0193 143.407 77.06 140.552 84.48C140.063 85.7502 138.964 110.841 138.731 113.338C138.653 114.171 138.61 115.599 138.569 116.838C138.534 117.98 138.58 119.329 137.268 119.357C135.73 119.386 135.998 117.841 136.049 116.838C136.157 114.708 136.76 90.0651 137.137 88.1416C138.153 82.9438 140.895 78.3245 143.397 74.2643C145.365 71.0789 147.532 67.8221 148.927 64.3321C150.389 60.6816 150.877 55.7247 149.093 51.8775C147.563 48.5848 144.642 45.9014 142.097 43.2014C137.157 37.9627 132.589 31.2246 133.802 21.2327C134.054 19.1609 134.574 17.0737 135.104 15.0064C135.6 13.0654 136.224 10.6794 135.674 8.42947C135.072 5.98318 132.972 4.06855 130.631 2.97164C128.433 1.94256 125.287 1.85515 122.906 3.11189C122.224 3.47068 121.645 4.05877 121.034 4.58097C120.337 5.17982 119.322 5.71637 118.677 5.0712C118.011 4.40777 118.866 3.68432 119.407 3.18169C121.154 1.56355 122.982 0.278761 126.076 0.0344579Z" fill="#4D3D87"/>
</g>
<path id="Vector_6" fill-rule="evenodd" clip-rule="evenodd" d="M157.529 126.213C157.318 124.645 157.217 122.426 156.304 121.347C154.647 119.385 151.654 120.321 149.304 119.204C147.981 118.573 147.366 115.924 145.629 115.116C144.666 114.666 143.655 114.809 142.655 114.725C141.432 114.619 140.134 114.569 138.796 114.542C138.796 114.537 138.796 114.534 138.798 114.529C138.586 114.53 138.369 114.529 138.153 114.529C137.019 114.515 135.858 114.516 134.687 114.521C133.518 114.516 132.357 114.515 131.223 114.529C131.008 114.529 130.792 114.53 130.58 114.529C130.582 114.533 130.582 114.537 130.582 114.542C129.241 114.569 127.944 114.619 126.723 114.725C125.724 114.809 124.709 114.666 123.747 115.116C122.01 115.924 121.396 118.573 120.072 119.204C117.722 120.32 114.728 119.385 113.071 121.347C112.158 122.426 112.058 124.645 111.848 126.213C119.815 126.416 149.562 126.416 157.529 126.213Z" fill="#FF5000"/>
<g id="Group_9">
<g id="Group_10">
<g id="Group_11">
<path id="Vector_7" fill-rule="evenodd" clip-rule="evenodd" d="M113.046 45.3617C103.164 39.8732 94.3111 33.3136 86.1852 26.0132C83.4969 23.5982 80.8689 21.1017 78.5215 18.3485C83.9372 13.756 90.1906 9.61817 99.162 8.78643C109.212 7.85684 115.64 13.5293 117.752 21.0029C118.937 25.204 118.585 30.4889 117.524 34.5866C116.458 38.7026 114.953 42.144 113.046 45.3617Z" fill="#FF5000"/>
<path id="Vector_8" opacity="0.21" d="M117.754 21.0032C116.181 15.4381 112.21 10.8703 106.135 9.28711C108.996 11.5093 110.964 14.6409 111.964 18.1802C113.15 22.3796 112.798 27.6662 111.737 31.7623C110.717 35.6956 109.292 39.0111 107.505 42.1065C109.316 43.2285 111.163 44.3153 113.047 45.3617C114.954 42.144 116.459 38.7026 117.525 34.587C118.586 30.4889 118.939 25.2043 117.754 21.0032Z" fill="black"/>
</g>
<g id="Group_12">
<path id="Vector_9" fill-rule="evenodd" clip-rule="evenodd" d="M113.047 45.3617C112.608 46.0431 110.909 44.8144 110.088 44.3751C104.309 41.2931 99.2342 37.1099 94.2291 33.2213C89.8949 29.8542 85.7267 26.2967 81.6329 22.5975C80.9946 22.0212 80.3041 21.3509 79.6606 20.7012C79.0562 20.0919 78.0679 18.9102 78.5219 18.3488C78.8288 17.9698 80.2917 18.9425 81.2533 19.5632C83.5498 21.0456 86.1286 22.5065 88.2343 24.0409C91.2867 26.2618 94.1064 28.6037 96.8081 30.7933C101.149 34.3091 105.235 37.5995 109.404 41.1877C110.057 41.7507 110.797 42.3332 111.454 42.9347C112.048 43.4778 113.489 44.6758 113.047 45.3617Z" fill="#8F7ECE"/>
<path id="Vector_10" d="M96.8078 30.7929C95.0207 29.3451 93.1775 27.8284 91.2528 26.3247C90.0642 26.9174 88.9301 27.5472 88.0915 28.2416C87.7901 28.4915 87.5262 28.7491 87.3116 29.016C84.5803 32.4388 85.1364 37.4266 88.5582 40.1613C91.9801 42.8949 96.9712 42.3381 99.7058 38.9163C99.9283 38.6351 100.129 38.3063 100.311 37.9384C100.782 36.9847 101.122 35.7788 101.416 34.5289C99.9025 33.2963 98.3724 32.0608 96.8078 30.7929Z" fill="#EFAD1B"/>
</g>
<g id="Group_13">
<g id="Group_14">
<path id="Vector_11" fill-rule="evenodd" clip-rule="evenodd" d="M96.7408 12.0957C95.9341 10.9359 99.5527 10.3912 99.1323 11.7151C98.9131 12.4076 97.3915 12.3205 96.7408 12.0957Z" fill="white"/>
<path id="Vector_12" fill-rule="evenodd" clip-rule="evenodd" d="M94.5011 11.067C94.7923 11.1374 95.3485 11.4372 95.1629 12.0106C94.9231 12.7585 93.3816 13.098 92.7958 13.3505C92.0841 13.6542 90.8822 14.5502 90.1868 14.0224C89.1955 13.2699 91.193 12.2285 91.894 11.8997C92.2681 11.7252 92.6497 11.5895 92.9739 11.4564C93.5271 11.2291 93.942 10.9323 94.5011 11.067Z" fill="white"/>
</g>
<g id="Group_15">
<path id="Vector_13" fill-rule="evenodd" clip-rule="evenodd" d="M109.554 38.022C109.462 37.1593 110.086 35.8373 110.779 34.5767C111.074 34.0356 111.57 33.1696 112.082 33.3803C112.698 33.6324 112.293 34.7058 112.148 35.0881C111.684 36.3018 110.88 37.6747 110.239 38.2784C110.044 38.3423 109.708 38.2031 109.554 38.022Z" fill="white"/>
<path id="Vector_14" fill-rule="evenodd" clip-rule="evenodd" d="M110.505 32.6451C109.135 32.3695 110.232 29.5161 111.261 30.0494C111.707 30.282 111.693 31.8597 111.207 32.4409C111.032 32.6457 110.743 32.6927 110.505 32.6451Z" fill="white"/>
<path id="Vector_15" fill-rule="evenodd" clip-rule="evenodd" d="M113.378 27.4228C112.885 27.3758 112.67 26.6892 112.723 25.9716C112.765 25.3946 113.108 24.3108 113.719 24.5668C113.993 24.6797 114.239 25.2051 114.209 25.8023C114.178 26.5026 114.018 27.4815 113.378 27.4228Z" fill="white"/>
</g>
</g>
</g>
<g id="Group_16">
<path id="Vector_16" fill-rule="evenodd" clip-rule="evenodd" d="M121.925 7.26897C121.529 4.91107 117.785 3.09071 115.248 3.32327C112.849 3.54408 111.301 4.89965 109.708 6.43527C108.737 7.37041 107.676 8.38806 106.748 9.3943C106.69 9.45758 106.639 9.5127 106.588 9.56196C107.541 9.74592 108.181 10.3591 108.502 11.1227C109.378 11.8602 110.186 12.7076 110.961 13.4688C112.33 14.8048 113.433 16.3636 114.682 17.8063C114.891 18.0499 115.051 18.3043 115.168 18.562C115.764 18.4312 116.397 17.4338 116.918 16.7547C117.573 15.8995 118.08 15.2292 118.511 14.631C119.605 13.1055 120.619 11.8419 121.394 10.1543C121.697 9.49052 122.113 8.39035 121.925 7.26897ZM110.467 10.381C110.064 10.7913 109.509 11.3879 108.797 11.1396C108.523 10.5812 109.075 9.99381 109.481 9.47095C110.339 8.36066 112.174 6.30285 113.349 5.82663C113.58 5.73498 113.813 5.76466 114.032 5.97928C113.994 6.62934 113.476 7.18286 113.046 7.64798C112.18 8.58605 111.402 9.42562 110.467 10.381ZM111.454 13.3394C111.086 12.6205 111.87 11.9104 112.363 11.2916C113.663 9.66209 115.82 7.61047 117.297 6.43527C117.51 6.26371 117.947 6.35145 118.131 6.58629C118.038 7.44999 117.37 8.10397 116.841 8.71163C115.774 9.94097 114.564 10.9019 113.349 12.0506C112.811 12.5608 112.314 13.431 111.454 13.3394ZM116.765 13.415C116.446 13.7595 116.05 14.1401 115.704 14.477C115.339 14.8332 114.95 15.253 114.412 15.3117C113.949 14.6369 114.815 13.8074 115.322 13.188C116.14 12.1958 116.875 11.2476 117.904 10.532C118.197 10.4664 118.172 10.7186 118.359 10.759C118.091 11.8132 117.416 12.7098 116.765 13.415Z" fill="#FF5000"/>
<path id="Vector_17" opacity="0.21" fill-rule="evenodd" clip-rule="evenodd" d="M121.925 7.26897C121.529 4.91107 117.785 3.09071 115.248 3.32327C112.849 3.54408 111.301 4.89965 109.708 6.43527C108.737 7.37041 107.676 8.38806 106.748 9.3943C106.69 9.45758 106.639 9.5127 106.588 9.56196C107.541 9.74592 108.181 10.3591 108.502 11.1227C109.378 11.8602 110.186 12.7076 110.961 13.4688C112.33 14.8048 113.433 16.3636 114.682 17.8063C114.891 18.0499 115.051 18.3043 115.168 18.562C115.764 18.4312 116.397 17.4338 116.918 16.7547C117.573 15.8995 118.08 15.2292 118.511 14.631C119.605 13.1055 120.619 11.8419 121.394 10.1543C121.697 9.49052 122.113 8.39035 121.925 7.26897ZM110.467 10.381C110.064 10.7913 109.509 11.3879 108.797 11.1396C108.523 10.5812 109.075 9.99381 109.481 9.47095C110.339 8.36066 112.174 6.30285 113.349 5.82663C113.58 5.73498 113.813 5.76466 114.032 5.97928C113.994 6.62934 113.476 7.18286 113.046 7.64798C112.18 8.58605 111.402 9.42562 110.467 10.381ZM111.454 13.3394C111.086 12.6205 111.87 11.9104 112.363 11.2916C113.663 9.66209 115.82 7.61047 117.297 6.43527C117.51 6.26371 117.947 6.35145 118.131 6.58629C118.038 7.44999 117.37 8.10397 116.841 8.71163C115.774 9.94097 114.564 10.9019 113.349 12.0506C112.811 12.5608 112.314 13.431 111.454 13.3394ZM116.765 13.415C116.446 13.7595 116.05 14.1401 115.704 14.477C115.339 14.8332 114.95 15.253 114.412 15.3117C113.949 14.6369 114.815 13.8074 115.322 13.188C116.14 12.1958 116.875 11.2476 117.904 10.532C118.197 10.4664 118.172 10.7186 118.359 10.759C118.091 11.8132 117.416 12.7098 116.765 13.415Z" fill="black"/>
</g>
</g>
</g>
<g id="Group_17">
<g id="Group_18">
<path id="Vector_18" fill-rule="evenodd" clip-rule="evenodd" d="M30.1024 55.7188C30.3578 55.7289 30.6419 55.436 30.728 56.346C30.8085 57.1885 30.345 58.302 30.1908 59.1188C29.9129 60.5986 29.5078 62.6144 29.4751 62.7872C28.9412 65.6814 28.57 68.0996 28.2223 70.3039C27.339 75.898 26.7549 80.8281 26.1668 85.7823C25.2241 93.6992 24.9029 101.77 24.5552 110.477C24.4394 113.354 24.549 116.55 23.6608 118.35C23.2325 119.217 22.224 120.341 21.3336 120.587C20.3704 120.855 18.7118 120.584 17.8442 120.409C17.0284 120.244 15.8372 119.958 14.9814 119.781C13.1741 119.413 10.4208 118.974 9.7013 117.188C9.26815 116.113 9.53137 114.126 9.79067 112.625C10.5135 108.444 11.9721 104.024 13.0123 100.456C14.5401 95.2133 16.1373 90.185 17.7545 84.7086C19.3628 79.2625 20.8381 73.7499 22.496 68.873C23.2652 66.6116 24.1664 63.9875 25.2705 61.3557C26.1593 59.2359 27.7174 56.5296 29.8343 55.7184C29.8943 55.6953 30.0368 55.7171 30.1024 55.7188Z" fill="#8F7ECE"/>
<g id="Group_19">
<g id="Group_20">
<g id="Group_21">
<path id="Vector_19" fill-rule="evenodd" clip-rule="evenodd" d="M56.8548 52.5883C61.5076 52.3658 67.0649 52.3955 71.8864 52.5883C76.731 52.7824 81.5033 52.6995 86.4715 53.0345C90.9577 53.3375 95.5642 53.8114 100.25 54.2883C104.63 54.7332 109.554 55.3024 112.418 57.0611C114.478 58.3256 115.344 60.0351 115.998 62.6983C117.643 69.4083 117.958 80.5865 118.414 87.7512C118.596 90.6352 118.724 93.6367 118.86 96.5191C118.998 99.4148 119.308 102.317 119.308 105.198C119.306 111.013 120.124 117.712 118.143 121.93C117.567 123.158 116.811 124.048 115.191 124.614C112.461 125.568 108.081 124.929 104.633 124.614C93.9555 123.641 82.1439 123.521 70.9914 124.255C63.4647 124.753 56.4862 124.769 48.8903 125.42C45.6061 125.7 41.6917 126.096 37.9746 126.135C31.7291 126.2 25.8185 125.778 24.1962 121.303C23.4639 119.284 23.2 116.346 23.0327 113.519C22.5402 105.193 22.9293 95.3559 23.3021 87.4821C23.7852 77.243 23.9943 67.6193 26.5227 59.387C27.042 57.6981 27.7169 55.912 29.2062 55.0036C30.6061 54.1516 32.812 53.7357 35.2019 53.4813C39.7053 53.0045 44.7182 52.9151 49.4285 52.7664C51.8621 52.69 54.3234 52.7073 56.8548 52.5883Z" fill="white"/>
<path id="Vector_20" fill-rule="evenodd" clip-rule="evenodd" d="M56.8548 52.5883C61.5076 52.3658 67.0649 52.3955 71.8864 52.5883C76.731 52.7824 81.5033 52.6995 86.4715 53.0345C90.9577 53.3375 95.5642 53.8114 100.25 54.2883C104.63 54.7332 109.554 55.3024 112.418 57.0611C114.478 58.3256 115.344 60.0351 115.998 62.6983C117.643 69.4083 117.958 80.5865 118.414 87.7512C118.596 90.6352 118.724 93.6367 118.86 96.5191C118.998 99.4148 119.308 102.317 119.308 105.198C119.306 111.013 120.124 117.712 118.143 121.93C117.567 123.158 116.811 124.048 115.191 124.614C112.461 125.568 108.081 124.929 104.633 124.614C93.9555 123.641 82.1439 123.521 70.9914 124.255C63.4647 124.753 56.4862 124.769 48.8903 125.42C45.6061 125.7 41.6917 126.096 37.9746 126.135C31.7291 126.2 25.8185 125.778 24.1962 121.303C23.4639 119.284 23.2 116.346 23.0327 113.519C22.5402 105.193 22.9293 95.3559 23.3021 87.4821C23.7852 77.243 23.9943 67.6193 26.5227 59.387C27.042 57.6981 27.7169 55.912 29.2062 55.0036C30.6061 54.1516 32.812 53.7357 35.2019 53.4813C39.7053 53.0045 44.7182 52.9151 49.4285 52.7664C51.8621 52.69 54.3234 52.7073 56.8548 52.5883Z" fill="#8F7ECE"/>
<path id="Vector_21" opacity="0.57" fill-rule="evenodd" clip-rule="evenodd" d="M56.8548 52.5883C61.5076 52.3658 67.0649 52.3955 71.8864 52.5883C76.731 52.7824 81.5033 52.6995 86.4715 53.0345C90.9577 53.3375 95.5642 53.8114 100.25 54.2883C104.63 54.7332 109.554 55.3024 112.418 57.0611C114.478 58.3256 115.344 60.0351 115.998 62.6983C117.643 69.4083 117.958 80.5865 118.414 87.7512C118.596 90.6352 118.724 93.6367 118.86 96.5191C118.998 99.4148 119.308 102.317 119.308 105.198C119.306 111.013 120.124 117.712 118.143 121.93C117.567 123.158 116.811 124.048 115.191 124.614C112.461 125.568 108.081 124.929 104.633 124.614C93.9555 123.641 82.1439 123.521 70.9914 124.255C63.4647 124.753 56.4862 124.769 48.8903 125.42C45.6061 125.7 41.6917 126.096 37.9746 126.135C31.7291 126.2 25.8185 125.778 24.1962 121.303C23.4639 119.284 23.2 116.346 23.0327 113.519C22.5402 105.193 22.9293 95.3559 23.3021 87.4821C23.7852 77.243 23.9943 67.6193 26.5227 59.387C27.042 57.6981 27.7169 55.912 29.2062 55.0036C30.6061 54.1516 32.812 53.7357 35.2019 53.4813C39.7053 53.0045 44.7182 52.9151 49.4285 52.7664C51.8621 52.69 54.3234 52.7073 56.8548 52.5883Z" fill="white"/>
<g id="Group_22" opacity="0.78">
<path id="Vector_22" opacity="0.78" fill-rule="evenodd" clip-rule="evenodd" d="M98.9083 64.13C99.1174 66.6343 99.1956 69.2691 99.1754 72.0044C96.7487 72.1408 94.2447 72.2024 91.7498 72.2732C91.8578 69.4511 91.467 66.6493 91.6598 64.0409C94.0682 64.0775 96.6391 63.9529 98.9083 64.13Z" fill="white"/>
<path id="Vector_23" opacity="0.78" fill-rule="evenodd" clip-rule="evenodd" d="M89.1546 64.13C89.1653 66.8943 89.1066 69.7258 89.2446 72.3616C86.2304 72.45 83.1233 72.4448 80.209 72.631C80.2677 69.8863 80.3326 67.1481 80.2967 64.3094C83.2897 64.2866 86.1039 64.0915 89.1546 64.13Z" fill="#B1BC00"/>
<path id="Vector_24" opacity="0.78" fill-rule="evenodd" clip-rule="evenodd" d="M101.234 64.3984C106.337 64.3945 109.614 66.9935 110.272 71.735C107.424 71.782 104.641 71.8916 101.772 71.9151C101.697 69.306 101.58 66.7374 101.234 64.3984Z" fill="white"/>
<path id="Vector_25" opacity="0.78" fill-rule="evenodd" clip-rule="evenodd" d="M77.8807 64.3984C77.7907 67.1722 77.7427 69.9864 77.6129 72.7201C73.9223 72.8173 70.3305 73.0123 66.6973 73.1663C66.7175 70.4108 66.9148 67.4687 66.6973 64.7562C70.3765 64.5912 74.1477 64.5129 77.8807 64.3984Z" fill="white"/>
<path id="Vector_26" opacity="0.78" fill-rule="evenodd" clip-rule="evenodd" d="M64.2824 64.8454C64.4161 67.4561 64.0811 70.3691 64.1923 73.2571C61.2692 73.4655 58.2152 73.5421 55.2461 73.7042C55.2461 70.8117 55.2461 67.9173 55.2461 65.0248C58.1966 64.9645 61.5402 64.818 64.2824 64.8454Z" fill="white"/>
<path id="Vector_27" opacity="0.78" fill-rule="evenodd" clip-rule="evenodd" d="M41.6452 65.1143C41.4916 68.0929 41.5569 71.2903 41.3775 74.2415C37.8982 74.2242 34.474 74.2572 31.1758 74.4193C31.5861 71.7068 31.9573 68.937 33.4136 67.1721C35.0869 65.1439 38.0375 65.2239 41.6452 65.1143Z" fill="white"/>
<path id="Vector_28" opacity="0.78" fill-rule="evenodd" clip-rule="evenodd" d="M52.8282 65.1143C52.8031 68.043 52.5856 70.7766 52.6488 73.7927C49.7893 73.9463 46.8896 74.0589 43.9688 74.1505C44.1309 71.1233 43.9312 67.9996 44.0598 65.1143C47.296 65.1439 49.5394 65.1188 52.8282 65.1143Z" fill="white"/>
<path id="Vector_29" opacity="0.78" fill-rule="evenodd" clip-rule="evenodd" d="M111.791 81.3996C108.407 81.4146 104.934 81.3425 101.681 81.4879C101.615 79.0668 101.825 76.9189 101.771 74.5095C104.536 74.1908 107.812 74.5437 110.181 74.3311C110.781 74.2769 110.786 74.1657 110.986 74.8667C111.491 76.6391 111.51 79.6829 111.791 81.3996Z" fill="white"/>
<path id="Vector_30" opacity="0.78" fill-rule="evenodd" clip-rule="evenodd" d="M99.1752 74.5996C99.1181 76.8687 99.291 79.3669 99.0858 81.488C96.7116 81.6188 94.2044 81.6172 91.7496 81.668C91.8083 79.4005 91.6305 76.8978 91.839 74.777C94.386 74.8204 96.6601 74.5878 99.1752 74.5996Z" fill="white"/>
<path id="Vector_31" opacity="0.78" fill-rule="evenodd" clip-rule="evenodd" d="M89.0646 74.8662C89.3934 75.1503 89.244 75.8747 89.244 76.4768C89.244 78.0813 89.244 79.9816 89.244 81.6675C86.0397 81.6245 83.0797 81.8257 79.8496 81.7559C79.9403 79.55 80.0257 77.3402 80.118 75.1353C83.0507 74.9947 86.1539 75.0293 89.0646 74.8662Z" fill="white"/>
<path id="Vector_32" opacity="0.78" fill-rule="evenodd" clip-rule="evenodd" d="M77.523 75.2244C77.5755 77.5438 77.3123 79.5478 77.3436 81.846C73.7424 82.0032 70.0227 82.041 66.517 82.2945C66.4694 80.0393 66.6752 78.0379 66.607 75.7622C70.1372 75.4739 73.9234 75.4419 77.523 75.2244Z" fill="white"/>
<path id="Vector_33" opacity="0.78" fill-rule="evenodd" clip-rule="evenodd" d="M64.1013 75.8508C64.0081 77.9957 64.0779 80.3018 63.922 82.3831C61.0435 82.5474 58.1321 82.676 55.2441 82.8302C55.2441 80.6227 55.2441 78.4162 55.2441 76.2103C58.2772 76.1711 61.0921 75.9141 64.1013 75.8508Z" fill="#FF5000"/>
<path id="Vector_34" opacity="0.78" fill-rule="evenodd" clip-rule="evenodd" d="M52.6505 76.3884C52.6505 78.5646 52.6505 80.7415 52.6505 82.919C49.5936 83.0241 46.5302 83.1219 43.6133 83.3669C43.6625 81.0899 43.7424 78.8432 43.8817 76.6569C46.9256 76.6885 49.6442 76.3946 52.6505 76.3884Z" fill="white"/>
<path id="Vector_35" opacity="0.78" fill-rule="evenodd" clip-rule="evenodd" d="M30.9072 76.7456C34.3956 76.6993 37.8856 76.9908 41.2873 76.7456C41.2419 79.0258 41.1402 81.2519 41.0178 83.4572C37.5559 83.7517 33.8209 83.7742 30.2812 83.9937C30.6433 81.7298 30.3432 78.805 30.9072 76.7456Z" fill="white"/>
<path id="Vector_36" opacity="0.78" fill-rule="evenodd" clip-rule="evenodd" d="M111.97 83.9051C112.341 86.2464 112.355 88.9487 112.506 91.5095C108.866 91.7156 105.1 91.7968 101.503 92.0467C101.451 89.3114 101.66 86.8354 101.592 84.0838C104.947 83.9191 108.442 83.894 111.97 83.9051Z" fill="white"/>
<path id="Vector_37" opacity="0.78" fill-rule="evenodd" clip-rule="evenodd" d="M99.0851 84.0836C99.0476 86.7585 98.9488 89.3754 98.9957 92.1358C96.5886 92.2946 94.1494 92.4186 91.6585 92.4936C91.602 89.634 91.7345 86.9614 91.7485 84.172C94.2913 84.2405 96.584 84.0578 99.0851 84.0836Z" fill="#FF5000"/>
<path id="Vector_38" opacity="0.78" fill-rule="evenodd" clip-rule="evenodd" d="M89.155 84.1724C89.097 86.9774 89.2741 90.018 89.0657 92.6734C85.7863 92.7024 82.7151 92.9418 79.4922 93.0296C79.5235 90.0784 79.6331 87.2051 79.7616 84.3524C82.7875 84.1864 86.1523 84.3619 89.155 84.1724Z" fill="white"/>
<path id="Vector_39" opacity="0.78" fill-rule="evenodd" clip-rule="evenodd" d="M77.1643 84.4407C77.1564 87.385 76.9222 90.1037 76.9849 93.1201C73.6145 93.3566 69.9947 93.3458 66.6071 93.5666C66.398 90.8219 66.5757 87.6929 66.517 84.7988C70.055 84.6693 73.5069 84.4518 77.1643 84.4407Z" fill="white"/>
<path id="Vector_40" opacity="0.78" fill-rule="evenodd" clip-rule="evenodd" d="M63.8354 84.8872C63.9981 87.707 63.912 90.7766 64.0141 93.6573C61.0714 93.7255 58.2259 93.8938 55.334 94.0151C55.1279 91.2994 55.3034 88.1995 55.2456 85.3357C58.1574 85.2356 61.0476 85.1149 63.8354 84.8872Z" fill="white"/>
<path id="Vector_41" opacity="0.78" fill-rule="evenodd" clip-rule="evenodd" d="M52.3809 85.425C52.8626 85.4463 52.6385 86.1103 52.6496 86.3201C52.7641 88.7478 52.6636 91.6347 52.739 94.1038C49.6068 94.2235 46.512 94.3794 43.2539 94.3732C43.1825 91.4377 43.4131 88.8058 43.4333 85.9626C46.2182 85.5839 49.4639 85.67 52.3809 85.425Z" fill="white"/>
<path id="Vector_42" opacity="0.78" fill-rule="evenodd" clip-rule="evenodd" d="M40.9272 86.0518C40.7775 88.7932 40.7511 91.66 40.6601 94.4618C37.1365 94.6076 33.33 94.4703 29.9222 94.7302C29.9049 91.8791 29.9881 89.1292 30.1022 86.4096C33.789 86.3678 37.3896 86.2409 40.9272 86.0518Z" fill="white"/>
<path id="Vector_43" opacity="0.78" fill-rule="evenodd" clip-rule="evenodd" d="M112.597 94.1035C112.814 97.1379 112.777 100.426 112.775 103.676C109.078 103.676 105.379 103.676 101.682 103.676C101.592 100.665 101.458 97.6976 101.503 94.5513C105.222 94.4238 108.802 94.156 112.597 94.1035Z" fill="white"/>
<path id="Vector_44" opacity="0.78" fill-rule="evenodd" clip-rule="evenodd" d="M98.9087 94.73C99.0819 97.6274 98.9305 100.85 99.1758 103.677C96.7602 103.677 94.3436 103.677 91.9296 103.677C91.8183 100.836 91.7042 97.9969 91.6602 95.0888C94.0239 94.9179 96.4555 94.8128 98.9087 94.73Z" fill="white"/>
<path id="Vector_45" opacity="0.78" fill-rule="evenodd" clip-rule="evenodd" d="M89.1539 95.178C89.1359 98.1191 89.2517 100.925 89.4233 103.676C86.0921 103.657 82.9592 103.834 79.581 103.768C79.4799 101.181 79.3987 98.1067 79.581 95.5351C82.848 95.4944 85.9316 95.2651 89.1539 95.178Z" fill="white"/>
<path id="Vector_46" opacity="0.78" fill-rule="evenodd" clip-rule="evenodd" d="M76.8975 95.7151C76.8388 98.4879 77.0501 100.989 76.9852 103.768C73.6345 103.718 70.3166 103.637 66.8762 103.676C66.8511 101.077 66.7046 98.5988 66.6074 96.0729C70.0613 95.9767 73.4355 95.8028 76.8975 95.7151Z" fill="#B1BC00"/>
<path id="Vector_47" opacity="0.78" fill-rule="evenodd" clip-rule="evenodd" d="M64.101 96.1616C64.1394 98.7182 64.2865 101.168 64.3697 103.677C61.5177 103.837 58.4719 103.804 55.6903 104.037C55.6417 101.491 55.385 99.1513 55.4215 96.5194C58.3603 96.4464 61.214 96.2875 64.101 96.1616Z" fill="white"/>
<path id="Vector_48" opacity="0.78" fill-rule="evenodd" clip-rule="evenodd" d="M52.7384 96.6101C53.0587 98.9429 52.9608 101.694 53.1855 104.123C49.9147 104.284 46.5365 104.336 43.2533 104.483C43.1805 102.021 43.1359 99.531 43.1655 96.9663C46.3353 96.8286 49.6642 96.845 52.7384 96.6101Z" fill="white"/>
<path id="Vector_49" opacity="0.78" fill-rule="evenodd" clip-rule="evenodd" d="M40.6605 97.0563C40.6605 99.5629 40.6605 102.067 40.6605 104.571C36.9261 104.656 33.2929 104.839 29.7448 105.109C29.5374 102.544 29.7151 99.5949 29.9226 97.1453C33.3317 96.947 37.1039 97.1098 40.6605 97.0563Z" fill="white"/>
<path id="Vector_50" opacity="0.78" fill-rule="evenodd" clip-rule="evenodd" d="M77.0763 106.274C77.0942 109.327 77.1875 112.305 77.3451 115.219C74.1267 115.342 70.7978 115.354 67.5929 115.489C67.3391 112.52 67.1427 109.497 67.0566 106.361C67.1215 106.278 67.2187 106.225 67.3238 106.183C70.4501 106.336 73.8178 106.251 77.0763 106.274Z" fill="white"/>
<path id="Vector_51" opacity="0.78" fill-rule="evenodd" clip-rule="evenodd" d="M99.2657 106.274C99.3401 109.003 99.3133 111.833 99.4435 114.505C97.1694 114.526 94.9104 114.565 92.7342 114.682C92.5088 111.957 92.2517 109.26 92.1076 106.452C92.1037 106.299 92.1735 106.219 92.286 106.183C94.5845 106.242 97.1163 106.065 99.2657 106.274Z" fill="white"/>
<path id="Vector_52" opacity="0.78" fill-rule="evenodd" clip-rule="evenodd" d="M64.4598 106.274C64.6213 109.394 64.8372 112.458 64.9961 115.577C62.1121 115.646 59.3324 115.819 56.5861 116.024C56.2847 112.927 56.0433 109.769 55.8711 106.541C58.7169 106.436 61.4884 106.253 64.4598 106.274Z" fill="white"/>
<path id="Vector_53" opacity="0.78" fill-rule="evenodd" clip-rule="evenodd" d="M89.513 106.274C89.77 109.088 89.8998 112.029 90.2286 114.773C86.6828 114.805 83.4096 115.112 79.8501 115.131C79.7702 112.259 79.5846 109.013 79.6707 106.274C82.951 106.274 86.232 106.274 89.513 106.274Z" fill="white"/>
<path id="Vector_54" opacity="0.78" fill-rule="evenodd" clip-rule="evenodd" d="M101.86 106.274C105.469 106.274 109.078 106.274 112.687 106.274C112.604 108.803 112.479 110.77 111.523 112.178C109.839 114.649 105.976 114.245 101.95 114.415C102.032 111.648 101.712 108.805 101.86 106.274Z" fill="white"/>
<path id="Vector_55" opacity="0.78" fill-rule="evenodd" clip-rule="evenodd" d="M53.0961 106.63C53.5802 106.762 53.3375 107.405 53.3656 107.705C53.6043 110.323 53.7977 113.394 53.9905 116.115C50.6678 116.43 47.2107 116.61 43.7017 116.742C43.3964 113.647 43.3775 110.263 43.2539 106.99C46.5632 106.897 49.9186 106.85 53.0961 106.63Z" fill="white"/>
<path id="Vector_56" opacity="0.78" fill-rule="evenodd" clip-rule="evenodd" d="M40.7497 107.078C40.7513 110.446 40.9587 113.61 41.1068 116.83C37.9214 116.494 35.0664 116.273 33.1446 114.773C31.122 113.194 30.245 110.66 29.834 107.436C33.5605 107.406 37.1422 107.229 40.7497 107.078Z" fill="white"/>
</g>
</g>
<g id="Group_23">
<path id="Vector_57" fill-rule="evenodd" clip-rule="evenodd" d="M33.2153 68.4647C30.8496 68.4725 33.5346 62.9677 34.9623 64.807C35.7069 65.7656 34.141 67.782 33.2153 68.4647Z" fill="#8F7ECE"/>
</g>
<g id="Group_24">
<path id="Vector_58" fill-rule="evenodd" clip-rule="evenodd" d="M112.535 75.1008C111.759 74.1712 111.461 72.1535 111.287 70.1527C111.211 69.2952 111.115 67.9077 111.873 67.7544C112.783 67.5711 113.145 69.1302 113.271 69.6863C113.675 71.4551 113.803 73.6705 113.526 74.8679C113.35 75.0933 112.851 75.1941 112.535 75.1008Z" fill="#8F7ECE"/>
<path id="Vector_59" fill-rule="evenodd" clip-rule="evenodd" d="M109.473 68.1225C107.671 68.8649 106.732 64.7023 108.343 64.5222C109.041 64.4478 110.246 66.2904 110.132 67.3403C110.087 67.7154 109.788 67.9917 109.473 68.1225Z" fill="#8F7ECE"/>
</g>
</g>
<g id="Group_25">
<path id="Vector_60" fill-rule="evenodd" clip-rule="evenodd" d="M34.8057 59.8611C34.638 58.4133 35.4296 57.5098 35.9763 56.6177C36.613 55.5818 37.4353 54.1926 37.1469 52.2036C37.0765 51.6993 36.8305 51.0258 36.4274 50.9407C35.4172 50.7277 35.0885 52.1527 34.895 53.1935C34.6977 54.2679 34.7933 55.9272 33.9051 55.8975C33.2576 55.8747 33.0877 54.7128 33.0939 53.7347C33.1063 51.2587 34.5245 48.085 37.2386 48.9579C38.8358 49.4732 39.905 52.4606 39.7609 55.086C39.6888 56.4125 39.313 57.6905 38.6803 58.7796C37.8831 60.1557 36.0304 61.6786 34.8057 59.8611Z" fill="#4D3D87"/>
<path id="Vector_61" fill-rule="evenodd" clip-rule="evenodd" d="M49.4551 58.7455C49.0337 57.6055 49.8074 56.4541 50.2647 55.412C50.9523 53.849 51.981 51.6838 50.8968 49.825C50.069 49.9548 49.8443 50.6848 49.5452 51.3567C49.2735 51.9666 49.2076 52.9432 48.4639 53.0694C47.9 52.6653 48.4959 51.7641 48.734 50.9966C49.1342 49.7076 49.9711 47.4094 51.8874 48.292C53.1216 48.8621 53.5695 51.5119 53.4191 53.6096C53.3297 54.8578 52.8897 56.4411 52.2485 57.3941C51.6336 58.3055 50.5971 59.2272 49.4551 58.7455Z" fill="#4D3D87"/>
<path id="Vector_62" fill-rule="evenodd" clip-rule="evenodd" d="M43.5975 49.9148C42.8669 50.1043 42.6784 50.8457 42.4269 51.5365C42.1777 52.2201 42.1624 53.123 41.6157 53.5183C40.8662 53.3898 41.1183 51.8848 41.254 51.1761C41.543 49.6829 43.0339 47.1325 45.0392 48.5638C46.1622 49.3648 46.4205 51.6914 46.3015 53.3389C46.1795 55.0383 45.5428 57.0592 44.6791 58.1141C44.3963 58.4611 43.7834 59.0247 43.4168 59.1053C42.589 59.2902 41.7285 58.8812 41.7067 58.3858C41.6653 57.4907 42.6787 56.4884 43.059 55.6812C43.6376 54.4469 44.1546 53.0463 44.1386 51.5365C44.1341 51.087 44.12 50.3518 43.5975 49.9148Z" fill="#4D3D87"/>
<path id="Vector_63" fill-rule="evenodd" clip-rule="evenodd" d="M57.1142 58.0437C56.9482 56.5975 57.7382 55.6914 58.2865 54.8003C58.9231 53.7627 59.7438 52.3752 59.4571 50.3862C59.3866 49.882 59.1407 49.2084 58.7375 49.1233C57.7274 48.9103 57.397 50.3353 57.2052 51.3761C57.0079 52.4499 57.1034 54.1098 56.2136 54.0801C55.5662 54.0573 55.3979 52.8955 55.4024 51.9173C55.4165 49.4413 56.834 46.2676 59.5487 47.1405C61.1463 47.6558 62.2136 50.6432 62.071 53.2686C61.9989 54.5951 61.6216 55.8731 60.9904 56.9622C60.1916 58.3383 58.3386 59.8612 57.1142 58.0437Z" fill="#4D3D87"/>
<path id="Vector_64" fill-rule="evenodd" clip-rule="evenodd" d="M95.8952 58.5957C95.7285 57.1471 96.5178 56.2443 97.0668 55.3516C97.7025 54.3156 98.5232 52.9265 98.2374 50.9358C98.1663 50.4339 97.9204 49.7613 97.5179 49.6752C96.5071 49.4622 96.178 50.8866 95.9862 51.929C95.7872 53.0002 95.8844 54.662 94.9933 54.6314C94.3475 54.6095 94.1772 53.4474 94.1838 52.4695C94.1962 49.9935 95.6144 46.8189 98.3284 47.6921C99.926 48.2074 100.995 51.1955 100.851 53.8185C100.779 55.1467 100.404 56.4253 99.7701 57.5147C98.9726 58.8879 97.12 60.4134 95.8952 58.5957Z" fill="#4D3D87"/>
<path id="Vector_65" fill-rule="evenodd" clip-rule="evenodd" d="M79.9111 58.1653C79.7445 56.7158 80.5351 55.813 81.0818 54.9212C81.7185 53.8846 82.5391 52.4968 82.2531 50.5071C82.1816 50.0029 81.936 49.3287 81.5325 49.2448C80.5224 49.0318 80.192 50.4562 80.0002 51.4977C79.8029 52.5705 79.9001 54.2297 79.0106 54.2007C78.3628 54.1788 78.1929 53.0167 78.1994 52.0385C78.2121 49.5615 79.63 46.3866 82.3441 47.2611C83.9417 47.7771 85.0089 50.7645 84.867 53.3902C84.7943 54.7157 84.4175 55.993 83.7854 57.0837C82.987 58.4598 81.1366 59.9827 79.9111 58.1653Z" fill="#4D3D87"/>
<path id="Vector_66" fill-rule="evenodd" clip-rule="evenodd" d="M71.9811 58.3139C71.563 57.1739 72.335 56.0235 72.7939 54.9811C73.4799 53.418 74.5086 51.2513 73.4257 49.3931C72.5966 49.5239 72.3742 50.2535 72.0728 50.9248C71.8011 51.5357 71.7358 52.5113 70.9912 52.6375C70.4272 52.2334 71.0235 51.3322 71.2613 50.5657C71.6631 49.276 72.4971 46.9801 74.4163 47.8627C75.6489 48.4305 76.0984 51.081 75.947 53.179C75.857 54.4272 75.4186 56.0104 74.7758 56.9625C74.1613 57.8739 73.1244 58.7963 71.9811 58.3139Z" fill="#4D3D87"/>
<path id="Vector_67" fill-rule="evenodd" clip-rule="evenodd" d="M66.1245 49.4844C65.3939 49.673 65.2044 50.4147 64.9539 51.1062C64.705 51.7921 64.6893 52.692 64.1427 53.0873C63.3931 52.9588 63.6456 51.4548 63.7826 50.7451C64.0716 49.2525 65.5609 46.7015 67.5678 48.1328C68.6908 48.9339 68.9475 51.2604 68.8284 52.9079C68.7078 54.6079 68.0711 56.6289 67.2057 57.6831C66.9229 58.0298 66.3114 58.5938 65.9451 58.676C65.116 58.8599 64.2552 58.4512 64.2333 57.9538C64.1919 57.0595 65.2044 56.0581 65.584 55.2499C66.1643 54.0182 66.6809 52.6157 66.6653 51.1058C66.6607 50.6567 66.6467 49.9222 66.1245 49.4844Z" fill="#4D3D87"/>
<path id="Vector_68" fill-rule="evenodd" clip-rule="evenodd" d="M103.665 60.902C103.245 59.7634 104.017 58.6116 104.476 57.5685C105.162 56.0072 106.19 53.8397 105.106 51.9832C104.28 52.1123 104.053 52.8413 103.754 53.5139C103.482 54.1232 103.419 55.0994 102.673 55.2263C102.109 54.8222 102.706 53.9193 102.943 53.1528C103.343 51.8631 104.18 49.5672 106.098 50.4498C107.33 51.0177 107.778 53.6682 107.629 55.7651C107.539 57.0134 107.1 58.5989 106.457 59.5504C105.843 60.461 104.805 61.3844 103.665 60.902Z" fill="#4D3D87"/>
<path id="Vector_69" fill-rule="evenodd" clip-rule="evenodd" d="M89.0898 49.135C88.3585 49.3238 88.169 50.0646 87.9185 50.7577C87.6696 51.442 87.6546 52.3432 87.1073 52.7395C86.3587 52.611 86.6102 51.106 86.7462 50.3972C87.0352 48.904 88.5262 46.3521 90.5324 47.7843C91.6555 48.5854 91.9105 50.9116 91.7931 52.5601C91.6711 54.2601 91.0367 56.2804 90.1714 57.3353C89.8886 57.6807 89.2747 58.2449 88.9091 58.3275C88.0799 58.5098 87.2198 58.1011 87.199 57.6053C87.1575 56.7119 88.1693 55.7096 88.5506 54.9014C89.1299 53.6681 89.6462 52.2672 89.6306 50.7573C89.6254 50.3079 89.611 49.5733 89.0898 49.135Z" fill="#4D3D87"/>
</g>
</g>
</g>
<g id="Group_26">
<g id="Group_27">
<g id="Group_28">
<g id="Group_29">
<path id="Vector_70" fill-rule="evenodd" clip-rule="evenodd" d="M146.059 134.824C145.991 136.335 144.89 137.879 144.803 139.679C144.737 141.011 144.911 142.545 145.392 143.907C146.316 146.533 148.919 147.454 149.895 149.472C139.539 154.089 128.01 157.997 116.28 162.256C112.88 163.489 107.089 165.663 103.874 164.481C100.692 163.31 98.1369 156.659 100.549 153.117C102.071 150.886 106.53 148.936 110.537 147.528C118.088 144.882 127.334 142.43 134.341 139.604C138.583 137.895 142.428 136.247 146.059 134.824Z" fill="#8F7ECE"/>
<path id="Vector_71" opacity="0.81" fill-rule="evenodd" clip-rule="evenodd" d="M146.059 134.824C145.991 136.335 144.89 137.879 144.803 139.679C144.737 141.011 144.911 142.545 145.392 143.907C146.316 146.533 148.919 147.454 149.895 149.472C139.539 154.089 128.01 157.997 116.28 162.256C112.88 163.489 107.089 165.663 103.874 164.481C100.692 163.31 98.1369 156.659 100.549 153.117C102.071 150.886 106.53 148.936 110.537 147.528C118.088 144.882 127.334 142.43 134.341 139.604C138.583 137.895 142.428 136.247 146.059 134.824Z" fill="white"/>
<g id="Group_30">
<path id="Vector_72" fill-rule="evenodd" clip-rule="evenodd" d="M137.496 143.449C137.607 144.784 105.139 156.354 104.582 154.968C104.189 154.007 112.528 151.542 120.638 148.757C129.129 145.841 137.426 142.634 137.496 143.449Z" fill="#8F7ECE"/>
<path id="Vector_73" fill-rule="evenodd" clip-rule="evenodd" d="M144.664 144.764C144.775 146.095 112.307 157.667 111.744 156.281C111.355 155.321 119.696 152.856 127.805 150.071C136.3 147.152 144.594 143.947 144.664 144.764Z" fill="#8F7ECE"/>
</g>
</g>
<g id="Group_31">
<path id="Vector_74" fill-rule="evenodd" clip-rule="evenodd" d="M103.362 152.642C101.16 155.139 101.663 160.709 104.639 162.28C117.71 158.084 131.117 153.207 144.905 149.414C146.602 148.948 149.797 147.282 150.601 149.414C151.435 151.602 147.754 152.225 146.142 152.875C135.155 157.308 123.107 162.365 110.127 165.381C107.807 165.922 105.033 166.712 103.087 166.442C101.547 166.23 99.6018 164.647 98.0945 163.534C90.7433 158.125 82.9901 151.394 76.3685 145.156C73.8495 142.786 70.0212 139.638 68.7775 136.761C66.2239 130.852 70.4469 128.389 75.2439 126.007C78.6902 124.296 82.2576 123.165 85.3673 122.073C93.2659 119.303 99.1797 116.568 105.382 114.229C110.066 112.458 115.697 116.462 119.243 118.059C126.969 121.539 132.141 123.867 139.808 128.216C141.794 129.348 148.366 132.958 147.986 135.142C147.583 137.468 140.044 139.097 137.47 140.057C125.977 144.34 114.705 148.597 103.362 152.642Z" fill="#4D3D87"/>
<path id="Vector_75" opacity="0.21" fill-rule="evenodd" clip-rule="evenodd" d="M98.3393 154.026C95.9299 155.462 70.5814 132.979 71.4804 131.787C72.0678 131 77.4558 136.194 83.6968 141.373C90.9329 147.377 99.0745 153.59 98.3393 154.026Z" fill="black"/>
</g>
</g>
<g id="Group_32">
<g id="Group_33">
<path id="Vector_76" fill-rule="evenodd" clip-rule="evenodd" d="M76.4258 125.908C76.8524 123.878 78.3293 122.914 78.861 120.954C79.2204 119.629 79.1125 117.681 79.4093 116.16C81.2417 116.199 83.0738 118.857 84.5243 120.481C87.5525 123.865 89.6126 126.562 92.9389 130.23C94.1637 131.584 96.2684 134.149 97.5614 134.359C100.459 134.832 105.247 132.363 108.236 131.331C115.367 128.87 120.635 126.845 128.58 124.645C133.046 123.407 139.153 122.228 140.163 126.765C141.119 131.062 136.749 133.387 133.262 135.182C129.617 137.059 125.706 138.736 122.509 140.117C119.067 141.604 115.654 143.305 111.267 144.855C107.655 146.134 102.365 148.39 98.6844 147.807C96.6021 147.479 93.8936 144.63 92.3488 143.11C86.4755 137.316 82.2173 131.762 76.4258 125.908Z" fill="#8F7ECE"/>
<path id="Vector_77" opacity="0.81" fill-rule="evenodd" clip-rule="evenodd" d="M76.4258 125.908C76.8524 123.878 78.3293 122.914 78.861 120.954C79.2204 119.629 79.1125 117.681 79.4093 116.16C81.2417 116.199 83.0738 118.857 84.5243 120.481C87.5525 123.865 89.6126 126.562 92.9389 130.23C94.1637 131.584 96.2684 134.149 97.5614 134.359C100.459 134.832 105.247 132.363 108.236 131.331C115.367 128.87 120.635 126.845 128.58 124.645C133.046 123.407 139.153 122.228 140.163 126.765C141.119 131.062 136.749 133.387 133.262 135.182C129.617 137.059 125.706 138.736 122.509 140.117C119.067 141.604 115.654 143.305 111.267 144.855C107.655 146.134 102.365 148.39 98.6844 147.807C96.6021 147.479 93.8936 144.63 92.3488 143.11C86.4755 137.316 82.2173 131.762 76.4258 125.908Z" fill="white"/>
<g id="Group_34">
<path id="Vector_78" fill-rule="evenodd" clip-rule="evenodd" d="M75.5552 124.128C76.6303 123.174 88.2814 135.858 93.3714 141.123C95.2351 143.051 97.076 146.267 99.0533 146.587C101.649 147.007 107.938 144.156 110.183 143.284C117.493 140.456 123.136 138.131 130.137 134.729C132.576 133.543 138.045 131.46 138.728 129.501C139.13 128.332 139.147 126.335 138.414 125.726C136.991 124.541 131.323 126.606 128.111 127.535C119.715 129.96 112.1 133.047 103.636 135.993C101.891 136.6 99.8406 137.471 98.5258 137.367C96.4383 137.207 94.5371 134.318 92.9013 132.612C87.7739 127.269 78.4164 117.851 78.9004 115.724C79.4242 113.414 104.81 105.108 115.23 104.142C116.443 104.028 118.854 103.721 120.72 104.396C126.285 106.416 132.693 113.963 136.682 119.215C138.195 121.21 140.261 123.59 140.773 125.53C142.209 130.997 139.554 132.337 136.034 134.236C127.464 138.861 119.541 141.914 109.907 145.681C108.452 146.25 106.385 147.15 104.386 147.809C102.348 148.477 99.8377 149.319 98.0718 149.047C96.1471 148.75 93.6639 145.232 92.1551 143.599C88.1976 139.32 74.6696 124.918 75.5552 124.128Z" fill="#EFAD1B"/>
<path id="Vector_79" opacity="0.12" fill-rule="evenodd" clip-rule="evenodd" d="M132.145 122.131C131.757 122.976 129.736 120.96 128.664 119.823C126.618 117.637 122.238 113.871 120.013 111.157C118.696 109.554 116.17 106.598 116.958 105.946C117.577 105.437 119.604 107.774 120.665 108.929C122.903 111.364 127.28 115.458 129.647 117.974C130.585 118.972 132.639 121.054 132.145 122.131Z" fill="white"/>
</g>
<g id="Group_35">
<path id="Vector_80" d="M94.9073 138.985C96.1892 140.127 97.4247 141.304 98.7066 142.347C99.1919 142.728 99.7402 143.122 100.139 143.285C100.237 143.327 100.31 143.322 100.251 143.312C100.164 143.327 100.32 143.298 100.348 143.289L100.541 143.235C100.826 143.147 101.133 143.043 101.434 142.937C102.656 142.517 103.895 142.071 105.126 141.602C107.605 140.718 110.086 139.816 112.607 139.01C114.22 138.49 115.841 137.985 117.484 137.539C118.407 137.286 118.722 137.721 117.934 138.138C116.367 138.964 114.772 139.725 113.163 140.448C110.749 141.549 108.291 142.53 105.798 143.458C104.54 143.89 103.291 144.337 101.991 144.712C101.663 144.804 101.339 144.896 100.981 144.972L100.691 145.027C100.553 145.049 100.548 145.064 100.294 145.072C99.9075 145.065 99.6554 144.962 99.4551 144.867C98.6518 144.466 98.1912 143.976 97.6814 143.491C96.4208 142.205 95.3392 140.825 94.3183 139.406C93.7869 138.668 94.2057 138.355 94.9073 138.985Z" fill="#8F7ECE"/>
<path id="Vector_81" fill-rule="evenodd" clip-rule="evenodd" d="M136.128 127.066C136.239 128.401 103.77 139.97 103.212 138.586C102.821 137.626 111.16 135.158 119.271 132.374C127.761 129.457 136.057 126.252 136.128 127.066Z" fill="#8F7ECE"/>
</g>
</g>
<g id="Group_36">
<path id="Vector_82" fill-rule="evenodd" clip-rule="evenodd" d="M96.2148 127.912C96.3988 129.01 97.6242 130.426 98.9139 131.746C99.4651 132.309 100.374 133.209 100.935 132.771C101.607 132.25 100.738 131.064 100.427 130.641C99.439 129.304 97.9716 127.888 96.9732 127.362C96.7113 127.351 96.3434 127.637 96.2148 127.912Z" fill="white"/>
<path id="Vector_83" fill-rule="evenodd" clip-rule="evenodd" d="M97.5617 132.915C95.9641 133.724 98.3002 136.87 99.388 135.855C99.8586 135.416 99.2979 133.472 98.4975 132.926C98.2101 132.73 97.8396 132.774 97.5617 132.915Z" fill="white"/>
</g>
</g>
</g>
<g id="Group_37">
<g id="Group_38">
<path id="Vector_84" fill-rule="evenodd" clip-rule="evenodd" d="M80.0151 122.026C79.5461 121.779 79.5546 120.879 79.5797 120.307C79.6782 118.034 81.4552 117.18 83.5052 115.885C86.2444 114.153 88.9999 112.608 91.696 111.11C93.4462 110.136 95.7725 108.625 98.302 108.415C101.39 108.161 104.327 108.573 107.222 108.947C114.244 109.854 120.614 111.056 127.419 112.542C128.789 112.842 130.778 113.004 130.94 113.812C131.249 115.358 128.955 115.16 127.418 114.884C126.33 114.689 124.54 114.304 123.351 114.051C116.248 112.528 109.947 111.491 102.474 110.509C100.446 110.244 98.4119 109.936 96.5397 110.708C95.1042 111.299 93.762 112.589 92.3888 113.588C89.6591 115.572 87.0484 117.585 84.4002 119.614C83.1258 120.588 81.8919 121.97 80.0151 122.026Z" fill="#4D3D87"/>
<path id="Vector_85" fill-rule="evenodd" clip-rule="evenodd" d="M125.944 131.773C126.919 132.128 127.721 129.761 127.777 129.219C127.921 127.801 124.485 122.684 122.986 120.168C122.012 118.533 120.821 116.182 118.844 114.805C116.429 113.122 113.822 112.058 111.265 110.985C105.065 108.38 99.2613 106.328 92.9617 104.303C91.6932 103.896 89.9827 103.08 89.4654 103.667C88.4732 104.788 90.4527 105.721 91.8458 106.225C92.8331 106.585 94.4862 107.126 95.5851 107.483C102.144 109.621 107.815 111.774 114.419 114.534C116.211 115.283 118.028 116.001 119.197 117.527C120.094 118.698 120.582 120.398 121.234 121.872C122.528 124.805 124.269 131.162 125.944 131.773Z" fill="#4D3D87"/>
<path id="Vector_86" fill-rule="evenodd" clip-rule="evenodd" d="M98.5066 97.6827C103.523 97.2222 107.952 99.8142 108.91 104.393C109.597 107.679 108.021 110.443 106.48 112.17C104.004 114.944 99.5001 117.301 95.2018 117.612C89.5372 118.026 84.8469 115.2 85.0912 109.35C85.207 106.547 87.0143 104.205 88.5913 102.545C90.5692 100.462 92.6639 99.0155 95.6888 98.1697C96.5372 97.9309 97.3679 97.7884 98.5066 97.6827ZM92.4803 102.253C90.8703 103.299 88.9149 105.137 88.2025 106.921C86.176 111.993 90.6886 114.865 95.3972 114.503C100.027 114.147 104.471 111.18 105.993 107.988C106.331 107.278 106.705 106.266 106.675 105.073C106.572 101.304 102.716 99.6505 99.0908 100.015C96.2717 100.302 94.3541 101.034 92.4803 102.253Z" fill="#4D3D87"/>
<path id="Vector_87" fill-rule="evenodd" clip-rule="evenodd" d="M123.821 102.014C128.839 101.552 133.268 104.144 134.224 108.721C134.913 112.009 133.336 114.773 131.794 116.499C129.318 119.274 124.815 121.631 120.517 121.944C114.852 122.356 110.163 119.532 110.408 113.679C110.523 110.877 112.329 108.536 113.907 106.874C115.884 104.791 117.98 103.345 121.004 102.5C121.852 102.263 122.683 102.119 123.821 102.014ZM117.795 106.583C116.186 107.63 114.23 109.466 113.517 111.25C111.492 116.323 116.003 119.196 120.712 118.832C125.341 118.476 129.786 115.51 131.308 112.319C131.648 111.608 132.02 110.596 131.99 109.403C131.89 105.636 128.033 103.981 124.406 104.347C121.586 104.632 119.669 105.365 117.795 106.583Z" fill="#4D3D87"/>
<path id="Vector_88" opacity="0.6" fill-rule="evenodd" clip-rule="evenodd" d="M92.4786 102.253C90.8687 103.299 88.9133 105.137 88.2009 106.921C86.1744 111.993 90.687 114.865 95.3956 114.503C100.026 114.147 104.47 111.18 105.991 107.988C106.33 107.278 106.703 106.266 106.673 105.073C106.57 101.304 102.715 99.6505 99.0892 100.015C96.2701 100.302 94.3525 101.034 92.4786 102.253Z" fill="white"/>
<path id="Vector_89" opacity="0.6" fill-rule="evenodd" clip-rule="evenodd" d="M117.794 106.584C116.185 107.63 114.229 109.466 113.517 111.251C111.492 116.323 116.003 119.196 120.711 118.832C125.341 118.476 129.786 115.51 131.308 112.319C131.648 111.608 132.019 110.596 131.989 109.403C131.889 105.636 128.032 103.981 124.405 104.347C121.585 104.632 119.668 105.365 117.794 106.584Z" fill="white"/>
</g>
<g id="Group_39">
<path id="Vector_90" fill-rule="evenodd" clip-rule="evenodd" d="M125.448 103.898C126.019 104.77 124.236 105.197 123.312 105.402C122.344 105.62 121.343 105.903 121.167 105.308C121.076 105.004 121.38 104.782 121.62 104.555C122.193 104.004 124.576 103.474 125.136 103.651C125.239 103.685 125.386 103.798 125.448 103.898Z" fill="white"/>
<path id="Vector_91" fill-rule="evenodd" clip-rule="evenodd" d="M122.622 106.946C123.289 107.996 120.551 108.63 120.375 107.635C120.226 106.793 122.263 106.377 122.622 106.946Z" fill="white"/>
<path id="Vector_92" fill-rule="evenodd" clip-rule="evenodd" d="M119.72 105.714C119.816 105.86 119.886 106.073 119.821 106.266C119.616 106.85 117.197 107.776 116.978 106.689C116.89 106.251 117.601 105.811 118.308 105.567C118.872 105.37 119.468 105.33 119.72 105.714Z" fill="white"/>
</g>
<g id="Group_40">
<path id="Vector_93" fill-rule="evenodd" clip-rule="evenodd" d="M98.5485 113.079C98.2439 114.583 102.087 113.569 101.097 112.428C100.58 111.834 99.1001 112.577 98.5485 113.079Z" fill="white"/>
<path id="Vector_94" fill-rule="evenodd" clip-rule="evenodd" d="M96.7599 115.069C97.0192 114.873 97.4458 114.332 97.0143 113.842C96.452 113.199 94.7699 113.523 94.0778 113.525C93.2376 113.528 91.6533 113.153 91.1876 113.978C90.5228 115.153 92.9629 115.332 93.8028 115.36C94.2506 115.373 94.6907 115.344 95.069 115.337C95.7184 115.324 96.2612 115.443 96.7599 115.069Z" fill="white"/>
</g>
</g>
</g>
<g id="Group_41">
<path id="Vector_95" fill-rule="evenodd" clip-rule="evenodd" d="M43.4545 86.1232C42.7144 83.251 43.1006 78.9732 41.0786 75.7572C40.6168 75.0203 39.8102 74.1606 39.1467 74.4659C38.089 74.9522 38.6793 78.2119 38.7654 79.1252C38.9432 80.956 39.1797 82.4313 39.4843 84.1072C38.6748 82.5412 38.0638 80.5193 36.9708 78.4699C36.1965 77.0214 34.5608 74.0826 33.3233 74.5578C31.6053 75.2164 33.5503 80.0346 34.0842 81.5389C34.8556 83.7063 36.1022 86.8027 37.6581 89.3403C39.2054 91.8671 42.1511 95.0134 44.5615 92.2135C45.1111 91.5713 45.6522 90.5504 46.0837 89.674C46.9341 87.941 47.4008 86.2253 47.7453 84.3247C47.9136 83.3896 48.1439 82.3576 48.0851 81.5089C48.0281 80.6436 47.7962 79.7065 46.8666 79.4299C45.404 79.9465 44.9121 81.3419 44.4656 82.443C43.9832 83.6254 43.7004 84.9079 43.4118 86.045C43.4261 86.0724 43.4405 86.0991 43.4545 86.1232Z" fill="#FF5000"/>
<g id="Group_42">
<g id="Group_43">
<g id="Group_44">
<path id="Vector_96" fill-rule="evenodd" clip-rule="evenodd" d="M61.6349 124.763C61.6209 127.184 61.5628 129.779 61.3789 132.114C61.3218 132.904 61.3554 133.756 61.1284 134.396C60.7265 135.532 59.17 136.574 58.6782 137.946C58.1129 139.521 58.2655 141.772 58.17 143.862C58.0711 145.978 58.0346 148.065 57.9169 150.031C57.6615 154.231 58.2271 158.738 56.985 161.863C56.9804 161.873 56.923 161.992 56.9028 162.031C55.2224 165.098 49.5421 166.191 45.4092 166.678C38.7902 167.457 30.4724 167.095 28.3403 162.453C27.973 161.654 27.8305 160.548 27.6638 159.494C26.8298 154.248 26.6292 148.616 25.9722 143.186C25.8437 142.106 25.6944 141.023 25.5518 139.973C25.407 138.913 25.2661 137.853 24.9608 137.017C24.4542 135.645 23.0948 135.053 22.5921 133.806C21.6681 131.503 22.1169 127.559 22.0869 124.51C23.04 123.567 24.2223 122.851 25.4673 122.143C29.0741 120.098 33.7012 119.021 39.2412 118.763C43.6162 118.561 48.5613 119.17 52.3403 119.947C56.3976 120.782 60.0765 122.109 61.6349 124.763Z" fill="#4D3D87"/>
<path id="Vector_97" fill-rule="evenodd" clip-rule="evenodd" d="M59.2168 126.61C59.3202 127.325 58.555 127.642 58.0703 127.924C50.8802 132.109 36.9849 132.043 26.9816 129.547C26.3762 129.396 25.6237 129.225 25.2362 128.727C25.1452 128.324 25.5337 128.331 25.7617 128.153C26.2715 127.753 26.854 127.158 27.5025 126.774C29.3714 125.673 31.8373 124.783 34.3557 124.223C41.6688 122.595 52.6431 122.79 58.5442 126.417C58.7135 126.864 59.1503 126.235 59.2168 126.61Z" fill="#EFAD1B"/>
<g id="Group_45">
<path id="Vector_98" fill-rule="evenodd" clip-rule="evenodd" d="M41.0987 118.596C45.4502 118.388 49.8228 118.748 53.4371 119.608C55.2601 120.045 56.5951 120.332 58.5058 121.215C60.0075 121.905 61.7813 123.147 61.9708 124.425C62.2487 126.296 60.7767 127.882 59.5222 128.737C58.0688 129.725 56.3319 130.24 54.704 130.679C51.0502 131.658 46.6149 131.863 42.45 131.863C38.5526 131.863 33.8841 131.767 30.0284 130.849C28.4693 130.476 26.7498 129.82 25.1297 128.989C23.6622 128.237 22.0069 127 21.833 125.608C21.382 122.069 26.8245 120.806 29.4381 120.116C33.1179 119.144 36.5783 118.811 41.0987 118.596ZM27.241 127.637C31.4649 129.092 36.7825 129.394 42.1989 129.581C48.0093 129.782 52.7036 128.884 56.6476 127.214C57.5153 126.847 60.0013 125.971 59.9426 124.848C59.8934 123.896 57.5404 122.915 56.4793 122.482C52.257 120.762 46.7421 120.262 40.8456 120.537C36.0704 120.766 30.5115 121.668 26.9024 123.158C25.6395 123.678 24.2917 124.364 23.7747 125.523C24.4871 126.68 25.902 127.176 27.241 127.637Z" fill="#8F7ECE"/>
</g>
</g>
<path id="Vector_99" opacity="0.21" fill-rule="evenodd" clip-rule="evenodd" d="M27.4102 137.779C33.427 138.733 37.9628 139.039 43.466 138.791C49.5386 138.516 58.5061 136.51 58.5061 136.51C58.5061 136.51 53.2971 140.101 43.5504 140.481C37.4514 140.72 31.5264 140.001 27.4102 137.779Z" fill="black"/>
<g id="Group_46">
<path id="Vector_100" fill-rule="evenodd" clip-rule="evenodd" d="M32.4601 158.636C31.2817 158.949 31.4758 163.051 32.9683 162.66C34.0131 162.388 33.5245 158.971 32.4601 158.636Z" fill="white"/>
<path id="Vector_101" fill-rule="evenodd" clip-rule="evenodd" d="M30.9289 156.029C31.9077 155.974 31.7567 154.935 31.7896 154.123C31.8187 153.404 32.0222 152.515 32.0026 151.891C31.9808 151.066 31.7616 150.029 31.1608 149.734C30.4608 150.344 30.3434 151.684 30.2524 152.736C30.1637 153.77 30.0251 155.183 30.9289 156.029Z" fill="white"/>
<path id="Vector_102" fill-rule="evenodd" clip-rule="evenodd" d="M30.5263 146.158C31.5074 145.193 31.357 143.659 31.3978 142.222C31.1998 142.21 31.0361 142.127 30.9125 141.976C30.188 142.175 29.9392 143.335 29.8452 144.083C29.7519 144.84 29.5875 146.052 30.5263 146.158Z" fill="white"/>
<path id="Vector_103" fill-rule="evenodd" clip-rule="evenodd" d="M35.0923 151.01C36.0062 150.473 36.1784 148.151 34.9866 147.802C33.7987 148.188 33.8982 150.696 35.0923 151.01Z" fill="white"/>
</g>
</g>
<g id="Group_47">
<g id="Group_48">
<path id="Vector_104" fill-rule="evenodd" clip-rule="evenodd" d="M35.3369 123.194C35.5874 124.38 35.8461 125.564 36.1201 126.744H47.7501C48.2341 126.083 48.5645 124.586 48.9011 123.499C49.9902 119.99 51.0177 116.538 51.4593 112.911C51.7802 110.249 51.6925 107.772 51.5337 105.378C51.3588 102.777 50.9479 99.7016 49.8953 97.3463C48.8835 95.0693 47.1672 92.9736 45.6551 92.3324C43.7515 91.5251 39.902 92.2039 37.4228 93.3135C34.7557 94.5076 33.0753 96.2204 32.3495 98.0652C31.4953 100.233 31.6049 103.284 31.8782 106.016C32.4402 111.655 34.1412 117.526 35.3369 123.194Z" fill="#B1BC00"/>
<g id="Group_49">
<path id="Vector_105" opacity="0.21" d="M36.4767 125.316C36.5338 125.794 36.6065 126.268 36.678 126.744H38.3552C37.9292 123.163 37.3819 119.526 36.9989 115.923C36.6574 112.708 36.3225 109.466 36.1727 106.138C36.0286 103.001 35.6411 99.5201 36.4875 96.7551C36.9246 95.3301 37.7625 94.1477 38.4882 92.8945C38.1148 93.0253 37.756 93.1662 37.4239 93.3133C37.286 93.3753 37.1623 93.4441 37.0293 93.5074C36.572 94.2279 36.132 94.9732 35.8185 95.697C34.6613 98.3563 34.7741 102.174 34.8563 105.225C35.0341 111.801 35.6639 118.526 36.4767 125.316Z" fill="black"/>
<path id="Vector_106" opacity="0.21" d="M40.7395 126.744H42.3266C42.4049 122.032 42.1952 117.204 42.0964 112.371C42.0282 108.918 41.4629 105.24 41.3282 101.545C41.2679 99.8566 41.412 98.0359 41.4949 96.2906C41.5647 94.8668 41.7046 93.4379 41.6851 92.1162C41.4104 92.1544 41.1332 92.2023 40.8549 92.2565C39.5369 98.6087 40.4117 105.356 40.5927 112.067C40.7215 116.927 40.5666 121.809 40.7395 126.744Z" fill="black"/>
<path id="Vector_107" opacity="0.21" d="M44.9566 100.81C46.4429 109.802 45.6308 118.342 44.8391 126.744H46.2965C46.5346 125.208 46.7176 123.598 46.8493 122.172C47.1612 118.836 47.1876 115.32 47.2708 112.022C47.3575 108.607 47.197 105.095 46.5496 101.473C45.9873 98.3194 44.8737 95.2419 43.9099 91.9894C43.5928 91.9753 43.2591 91.9766 42.916 91.9933C42.9685 92.2386 43.0289 92.4789 43.0752 92.7082C43.6144 95.3082 44.5149 98.1475 44.9566 100.81Z" fill="black"/>
</g>
</g>
<g id="Group_50">
<g id="Group_51">
<path id="Vector_108" fill-rule="evenodd" clip-rule="evenodd" d="M33.252 98.9703C33.5948 100.172 34.7735 100.498 35.526 101.09C35.6545 101.545 34.9255 101.753 35.2276 102.261C35.5479 102.518 36.0818 102.084 36.5564 101.853C37.3252 101.89 38.0623 103.121 38.9081 102.207C38.8562 101.539 38.1572 101.237 37.7508 101.007C38.0258 100.337 38.9834 99.865 38.3931 98.9413C37.6445 98.8686 37.2733 99.7832 36.6803 100.166C35.4468 100.053 34.6284 98.6142 33.252 98.9703Z" fill="white"/>
<path id="Vector_109" fill-rule="evenodd" clip-rule="evenodd" d="M46.4792 100.367C45.9961 99.9923 45.6334 99.2287 44.9592 99.4613C44.999 99.5395 44.8943 99.5757 44.8418 99.6266C44.9162 100.301 45.5529 100.881 45.9325 101.27C45.8526 101.777 44.7971 102.002 44.9889 102.586C45.3099 102.483 45.6285 102.383 45.9912 102.149C46.1941 102.692 45.8386 103.359 45.7499 103.999C45.6592 104.67 45.6034 105.38 45.7146 106.045C46.1563 105.707 46.4038 104.974 46.5676 104.372C46.7421 103.726 46.8135 103.019 46.9711 102.434C47.671 102.943 48.581 103.688 49.2386 104.354C49.4405 104.56 49.4767 105.028 49.8564 104.932C50.4451 104.567 49.8352 103.863 49.6245 103.537C49.0889 102.716 48.0044 101.896 47.5112 101.331C47.9903 100.81 49.143 100.48 48.5683 99.6508C48.2748 99.6139 47.7884 99.9632 47.6058 100.168C47.5644 99.3148 48.2268 98.6683 47.9574 97.7505C46.7329 98.1487 46.9848 99.5395 46.4792 100.367Z" fill="white"/>
<path id="Vector_110" fill-rule="evenodd" clip-rule="evenodd" d="M39.9472 107.015C39.4642 107.694 40.0709 108.687 40.5314 109.638C40.0327 109.604 39.7114 108.993 39.1445 109.169C39.3017 109.986 40.1263 110.422 40.6377 110.796C40.4522 111.271 39.5643 111.544 39.6974 112.112C40.1609 112.051 40.7389 111.622 41.2588 111.375C42.1287 112.578 42.8329 114.312 43.737 115.41C44.2139 114.644 43.3352 113.482 42.9846 112.473C43.752 112.569 44.2374 113.582 45.1826 113.114C44.9713 111.728 43.2399 111.696 42.4222 110.85C42.8515 110.336 43.9578 110.017 44.0087 109.39C43.936 109.259 43.8678 109.129 43.7957 108.999C43.1271 108.902 42.5524 109.657 41.8351 109.95C41.3097 109.003 40.9809 107.121 39.9472 107.015Z" fill="white"/>
<path id="Vector_111" fill-rule="evenodd" clip-rule="evenodd" d="M40.955 121.36C40.8141 121.961 39.8314 122.316 40.2221 123.069C40.7186 123.095 40.9981 122.566 41.503 122.38C42.0324 123.331 42.7607 124.82 43.3276 125.802H43.5752C43.7898 124.835 43.0357 123.59 42.7992 122.494C43.4186 122.576 43.8391 123.294 44.63 122.829C44.8296 121.868 43.5628 121.668 42.9753 121.287C43.3498 120.636 44.8923 120.124 44.5524 119.425C44.128 118.55 42.8149 119.927 42.1071 120.436C41.4782 119.903 41.4446 117.883 40.393 118.015C39.9599 118.53 40.3493 119.284 40.6413 120.01C40.1425 120.186 39.8715 119.625 39.3438 119.897C39.5196 120.719 40.3944 121.067 40.955 121.36Z" fill="white"/>
</g>
<g id="Group_52">
<path id="Vector_112" fill-rule="evenodd" clip-rule="evenodd" d="M33.252 98.9703C33.5948 100.172 34.7735 100.498 35.526 101.09C35.6545 101.545 34.9255 101.753 35.2276 102.261C35.5479 102.518 36.0818 102.084 36.5564 101.853C37.3252 101.89 38.0623 103.121 38.9081 102.207C38.8562 101.539 38.1572 101.237 37.7508 101.007C38.0258 100.337 38.9834 99.865 38.3931 98.9413C37.6445 98.8686 37.2733 99.7832 36.6803 100.166C35.4468 100.053 34.6284 98.6142 33.252 98.9703Z" fill="#B1BC00"/>
<path id="Vector_113" fill-rule="evenodd" clip-rule="evenodd" d="M46.4792 100.367C45.9961 99.9923 45.6334 99.2287 44.9592 99.4613C44.999 99.5395 44.8943 99.5757 44.8418 99.6266C44.9162 100.301 45.5529 100.881 45.9325 101.27C45.8526 101.777 44.7971 102.002 44.9889 102.586C45.3099 102.483 45.6285 102.383 45.9912 102.149C46.1941 102.692 45.8386 103.359 45.7499 103.999C45.6592 104.67 45.6034 105.38 45.7146 106.045C46.1563 105.707 46.4038 104.974 46.5676 104.372C46.7421 103.726 46.8135 103.019 46.9711 102.434C47.671 102.943 48.581 103.688 49.2386 104.354C49.4405 104.56 49.4767 105.028 49.8564 104.932C50.4451 104.567 49.8352 103.863 49.6245 103.537C49.0889 102.716 48.0044 101.896 47.5112 101.331C47.9903 100.81 49.143 100.48 48.5683 99.6508C48.2748 99.6139 47.7884 99.9632 47.6058 100.168C47.5644 99.3148 48.2268 98.6683 47.9574 97.7505C46.7329 98.1487 46.9848 99.5395 46.4792 100.367Z" fill="#B1BC00"/>
<path id="Vector_114" fill-rule="evenodd" clip-rule="evenodd" d="M39.9472 107.015C39.4642 107.694 40.0709 108.687 40.5314 109.638C40.0327 109.604 39.7114 108.993 39.1445 109.169C39.3017 109.986 40.1263 110.422 40.6377 110.796C40.4522 111.271 39.5643 111.544 39.6974 112.112C40.1609 112.051 40.7389 111.622 41.2588 111.375C42.1287 112.578 42.8329 114.312 43.737 115.41C44.2139 114.644 43.3352 113.482 42.9846 112.473C43.752 112.569 44.2374 113.582 45.1826 113.114C44.9713 111.728 43.2399 111.696 42.4222 110.85C42.8515 110.336 43.9578 110.017 44.0087 109.39C43.936 109.259 43.8678 109.129 43.7957 108.999C43.1271 108.902 42.5524 109.657 41.8351 109.95C41.3097 109.003 40.9809 107.121 39.9472 107.015Z" fill="#B1BC00"/>
<path id="Vector_115" fill-rule="evenodd" clip-rule="evenodd" d="M40.955 121.36C40.8141 121.961 39.8314 122.316 40.2221 123.069C40.7186 123.095 40.9981 122.566 41.503 122.38C42.0324 123.331 42.7607 124.82 43.3276 125.802H43.5752C43.7898 124.835 43.0357 123.59 42.7992 122.494C43.4186 122.576 43.8391 123.294 44.63 122.829C44.8296 121.868 43.5628 121.668 42.9753 121.287C43.3498 120.636 44.8923 120.124 44.5524 119.425C44.128 118.55 42.8149 119.927 42.1071 120.436C41.4782 119.903 41.4446 117.883 40.393 118.015C39.9599 118.53 40.3493 119.284 40.6413 120.01C40.1425 120.186 39.8715 119.625 39.3438 119.897C39.5196 120.719 40.3944 121.067 40.955 121.36Z" fill="#B1BC00"/>
</g>
<g id="Group_53" opacity="0.21">
<path id="Vector_116" opacity="0.21" fill-rule="evenodd" clip-rule="evenodd" d="M33.252 98.9703C33.5948 100.172 34.7735 100.498 35.526 101.09C35.6545 101.545 34.9255 101.753 35.2276 102.261C35.5479 102.518 36.0818 102.084 36.5564 101.853C37.3252 101.89 38.0623 103.121 38.9081 102.207C38.8562 101.539 38.1572 101.237 37.7508 101.007C38.0258 100.337 38.9834 99.865 38.3931 98.9413C37.6445 98.8686 37.2733 99.7832 36.6803 100.166C35.4468 100.053 34.6284 98.6142 33.252 98.9703Z" fill="black"/>
<path id="Vector_117" opacity="0.21" fill-rule="evenodd" clip-rule="evenodd" d="M46.4792 100.367C45.9961 99.9923 45.6334 99.2287 44.9592 99.4613C44.999 99.5395 44.8943 99.5757 44.8418 99.6266C44.9162 100.301 45.5529 100.881 45.9325 101.27C45.8526 101.777 44.7971 102.002 44.9889 102.586C45.3099 102.483 45.6285 102.383 45.9912 102.149C46.1941 102.692 45.8386 103.359 45.7499 103.999C45.6592 104.67 45.6034 105.38 45.7146 106.045C46.1563 105.707 46.4038 104.974 46.5676 104.372C46.7421 103.726 46.8135 103.019 46.9711 102.434C47.671 102.943 48.581 103.688 49.2386 104.354C49.4405 104.56 49.4767 105.028 49.8564 104.932C50.4451 104.567 49.8352 103.863 49.6245 103.537C49.0889 102.716 48.0044 101.896 47.5112 101.331C47.9903 100.81 49.143 100.48 48.5683 99.6508C48.2748 99.6139 47.7884 99.9632 47.6058 100.168C47.5644 99.3148 48.2268 98.6683 47.9574 97.7505C46.7329 98.1487 46.9848 99.5395 46.4792 100.367Z" fill="black"/>
<path id="Vector_118" opacity="0.21" fill-rule="evenodd" clip-rule="evenodd" d="M39.9472 107.015C39.4642 107.694 40.0709 108.687 40.5314 109.638C40.0327 109.604 39.7114 108.993 39.1445 109.169C39.3017 109.986 40.1263 110.422 40.6377 110.796C40.4522 111.271 39.5643 111.544 39.6974 112.112C40.1609 112.051 40.7389 111.622 41.2588 111.375C42.1287 112.578 42.8329 114.312 43.737 115.41C44.2139 114.644 43.3352 113.482 42.9846 112.473C43.752 112.569 44.2374 113.582 45.1826 113.114C44.9713 111.728 43.2399 111.696 42.4222 110.85C42.8515 110.336 43.9578 110.017 44.0087 109.39C43.936 109.259 43.8678 109.129 43.7957 108.999C43.1271 108.902 42.5524 109.657 41.8351 109.95C41.3097 109.003 40.9809 107.121 39.9472 107.015Z" fill="black"/>
<path id="Vector_119" opacity="0.21" fill-rule="evenodd" clip-rule="evenodd" d="M40.955 121.36C40.8141 121.961 39.8314 122.316 40.2221 123.069C40.7186 123.095 40.9981 122.566 41.503 122.38C42.0324 123.331 42.7607 124.82 43.3276 125.802H43.5752C43.7898 124.835 43.0357 123.59 42.7992 122.494C43.4186 122.576 43.8391 123.294 44.63 122.829C44.8296 121.868 43.5628 121.668 42.9753 121.287C43.3498 120.636 44.8923 120.124 44.5524 119.425C44.128 118.55 42.8149 119.927 42.1071 120.436C41.4782 119.903 41.4446 117.883 40.393 118.015C39.9599 118.53 40.3493 119.284 40.6413 120.01C40.1425 120.186 39.8715 119.625 39.3438 119.897C39.5196 120.719 40.3944 121.067 40.955 121.36Z" fill="black"/>
</g>
<g id="Group_54" opacity="0.21">
<path id="Vector_120" opacity="0.21" fill-rule="evenodd" clip-rule="evenodd" d="M33.252 98.9703C33.5948 100.172 34.7735 100.498 35.526 101.09C35.6545 101.545 34.9255 101.753 35.2276 102.261C35.5479 102.518 36.0818 102.084 36.5564 101.853C37.3252 101.89 38.0623 103.121 38.9081 102.207C38.8562 101.539 38.1572 101.237 37.7508 101.007C38.0258 100.337 38.9834 99.865 38.3931 98.9413C37.6445 98.8686 37.2733 99.7832 36.6803 100.166C35.4468 100.053 34.6284 98.6142 33.252 98.9703Z" fill="black"/>
<path id="Vector_121" opacity="0.21" fill-rule="evenodd" clip-rule="evenodd" d="M46.4792 100.367C45.9961 99.9923 45.6334 99.2287 44.9592 99.4613C44.999 99.5395 44.8943 99.5757 44.8418 99.6266C44.9162 100.301 45.5529 100.881 45.9325 101.27C45.8526 101.777 44.7971 102.002 44.9889 102.586C45.3099 102.483 45.6285 102.383 45.9912 102.149C46.1941 102.692 45.8386 103.359 45.7499 103.999C45.6592 104.67 45.6034 105.38 45.7146 106.045C46.1563 105.707 46.4038 104.974 46.5676 104.372C46.7421 103.726 46.8135 103.019 46.9711 102.434C47.671 102.943 48.581 103.688 49.2386 104.354C49.4405 104.56 49.4767 105.028 49.8564 104.932C50.4451 104.567 49.8352 103.863 49.6245 103.537C49.0889 102.716 48.0044 101.896 47.5112 101.331C47.9903 100.81 49.143 100.48 48.5683 99.6508C48.2748 99.6139 47.7884 99.9632 47.6058 100.168C47.5644 99.3148 48.2268 98.6683 47.9574 97.7505C46.7329 98.1487 46.9848 99.5395 46.4792 100.367Z" fill="black"/>
<path id="Vector_122" opacity="0.21" fill-rule="evenodd" clip-rule="evenodd" d="M39.9472 107.015C39.4642 107.694 40.0709 108.687 40.5314 109.638C40.0327 109.604 39.7114 108.993 39.1445 109.169C39.3017 109.986 40.1263 110.422 40.6377 110.796C40.4522 111.271 39.5643 111.544 39.6974 112.112C40.1609 112.051 40.7389 111.622 41.2588 111.375C42.1287 112.578 42.8329 114.312 43.737 115.41C44.2139 114.644 43.3352 113.482 42.9846 112.473C43.752 112.569 44.2374 113.582 45.1826 113.114C44.9713 111.728 43.2399 111.696 42.4222 110.85C42.8515 110.336 43.9578 110.017 44.0087 109.39C43.936 109.259 43.8678 109.129 43.7957 108.999C43.1271 108.902 42.5524 109.657 41.8351 109.95C41.3097 109.003 40.9809 107.121 39.9472 107.015Z" fill="black"/>
<path id="Vector_123" opacity="0.21" fill-rule="evenodd" clip-rule="evenodd" d="M40.955 121.36C40.8141 121.961 39.8314 122.316 40.2221 123.069C40.7186 123.095 40.9981 122.566 41.503 122.38C42.0324 123.331 42.7607 124.82 43.3276 125.802H43.5752C43.7898 124.835 43.0357 123.59 42.7992 122.494C43.4186 122.576 43.8391 123.294 44.63 122.829C44.8296 121.868 43.5628 121.668 42.9753 121.287C43.3498 120.636 44.8923 120.124 44.5524 119.425C44.128 118.55 42.8149 119.927 42.1071 120.436C41.4782 119.903 41.4446 117.883 40.393 118.015C39.9599 118.53 40.3493 119.284 40.6413 120.01C40.1425 120.186 39.8715 119.625 39.3438 119.897C39.5196 120.719 40.3944 121.067 40.955 121.36Z" fill="black"/>
</g>
</g>
</g>
</g>
</g>
</g>
</g>
</g>
</svg>
