<svg width="171" height="171" viewBox="0 0 171 171" fill="none" xmlns="http://www.w3.org/2000/svg">
<g id="book (1) 1" clip-path="url(#clip0_318_33739)">
<g id="Group">
<g id="Group_2">
<g id="Group_3">
<g id="Group_4">
<path id="Vector" fill-rule="evenodd" clip-rule="evenodd" d="M49.0732 13.863C54.6972 13.3169 61.3298 15.26 66.0446 16.439C76.7178 19.1049 86.8124 21.5557 97.1112 24.4703C102.067 25.8724 107.214 27.4415 112.265 28.8642C122.615 31.7839 131.894 34.021 142.724 37.5024C147.372 38.996 152.59 40.3834 157.573 42.2012C161.748 43.7205 167.106 45.8016 169.394 49.778C169.914 50.6821 170.735 52.489 170.91 53.87C171.368 57.4897 169.987 61.5109 169.09 64.7806C166.378 74.6972 162.659 83.9777 159.696 93.5734C156.484 103.977 154.279 113.015 151.815 123.88C150.211 130.959 149.468 139.346 140.147 138.275C138.756 138.117 137.564 137.69 136.207 137.367C133.357 136.688 130.251 136.67 127.722 136.155C122.262 135.043 116.774 133.561 111.961 132.366C101.07 129.662 91.2718 127.073 81.0485 124.335C65.6492 120.211 51.9795 114.892 36.1918 110.545C30.9532 109.101 23.4903 108.34 21.0382 104.939C20.5035 104.195 19.6251 102.422 19.2187 101.15C18.5136 98.9405 19.2284 96.448 19.6749 93.726C21.6534 81.5997 24.9969 69.112 28.0081 58.2639C30.8958 47.8623 34.3595 40.0076 37.4045 30.0766C38.3503 26.9899 39.0907 23.6514 40.4347 20.6803C42.0649 17.0796 45.5163 14.2083 49.0732 13.863Z" fill="#FF5000"/>
<g id="Group_5">
<path id="Vector_2" fill-rule="evenodd" clip-rule="evenodd" d="M107.453 35.9333C109.417 34.6999 111.31 33.3734 114.419 33.0554C119.781 32.5047 125.768 33.6963 130.181 34.7223C134.615 35.7533 138.847 37.451 143.291 38.8126C147.408 40.0768 151.743 41.3663 156.563 42.7553C160.378 43.8521 167.227 45.4886 168.176 48.2089C168.748 49.8455 168.025 52.2542 167.347 53.9678C165.407 58.8657 163.565 64.3133 162.038 69.425C160.008 76.2246 157.332 82.9213 155.068 90.0338C152.924 96.7723 150.805 103.792 148.266 110.795C147.116 113.975 145.776 117.19 144.452 120.797C143.16 124.305 142.373 128.618 138.812 129.437C136.733 129.909 135.132 129.003 133.001 127.919C131.174 126.987 129.158 126.179 127.861 125.494C124.456 123.705 121.143 121.698 118.069 120.343C110.735 117.108 100.096 115.968 92.5176 118.523C87.9247 120.076 85.2845 122.106 81.069 125.04C74.255 115.987 66.9802 110.224 55.5172 106.096C51.8059 104.76 47.7958 103.628 43.2399 103.369C37.7332 103.056 28.5746 105.139 25.9859 101.55C25.4188 100.768 24.9823 98.7187 25.1556 96.7015C25.4689 93.0624 26.699 89.3815 27.4778 85.7925C28.2503 82.2353 29.0773 78.6493 29.9687 75.1822C31.6406 68.6621 34.1602 62.6077 36.2736 55.1802C39.1032 45.2265 41.8959 35.1077 44.8991 24.4169C45.6185 21.8636 47.1876 15.4768 50.2098 15.4768C52.5497 15.4768 55.267 16.3024 57.679 16.9928C64.6119 18.9746 70.7592 21.0283 78.2495 22.7517C85.2979 24.3705 92.4492 26.0391 98.3253 28.9651C102.1 30.8394 105.452 32.4566 107.453 35.9333Z" fill="#C0B7E4"/>
<path id="Vector_3" fill-rule="evenodd" clip-rule="evenodd" d="M108.778 29.1692C110.574 27.9328 112.303 26.6062 115.144 26.2899C120.041 25.7392 125.509 26.9305 129.54 27.9535C133.587 28.9862 137.454 30.6851 141.512 32.0471C145.271 33.3092 149.233 34.5988 153.633 35.9881C157.118 37.0866 163.372 38.7231 164.242 41.4418C164.764 43.08 164.104 45.4887 163.484 47.2007C161.711 52.0989 160.03 57.5462 158.634 62.6595C156.781 69.4574 154.337 76.1541 152.27 83.2683C150.311 90.0068 148.376 97.0264 146.057 104.03C145.005 107.208 143.782 110.425 142.572 114.03C141.394 117.537 140.677 121.851 137.42 122.668C135.525 123.145 134.061 122.235 132.114 121.152C130.444 120.219 128.607 119.411 127.417 118.727C124.311 116.938 121.286 114.931 118.478 113.577C111.778 110.343 102.059 109.203 95.1406 111.757C90.9445 113.307 88.5338 115.339 84.6846 118.273C78.4585 109.22 71.8148 103.458 61.3471 99.3326C57.9585 97.9947 54.294 96.8628 50.1329 96.604C45.1048 96.2907 36.7378 98.3721 34.3738 94.7844C33.8552 94.0009 33.4554 91.9516 33.616 89.936C33.9019 86.2952 35.0245 82.6144 35.7375 79.0254C36.4425 75.4681 37.1974 71.8821 38.0116 68.4167C39.5389 61.895 41.8371 55.8408 43.7688 48.4134C46.3559 38.46 48.9062 28.3392 51.6492 17.6517C52.3045 15.0967 53.7386 8.71163 56.496 8.70996C58.6335 8.70996 61.118 9.53691 63.3163 10.2259C69.6499 12.2074 75.2659 14.2601 82.1089 15.9848C88.5438 17.6066 95.0752 19.2739 100.444 22.1983C103.891 24.0736 106.954 25.6907 108.778 29.1692Z" fill="#E2DFF2"/>
<g id="Group_6">
<g id="Group_7">
<g id="Group_8">
<path id="Vector_4" fill-rule="evenodd" clip-rule="evenodd" d="M144.69 98.8701C144.3 99.3951 143.701 98.9439 143.341 98.8156C142.111 98.3788 140.891 97.6029 139.641 97.0652C137.914 96.3218 136.09 95.7129 134.25 95.0416C130.725 93.7568 127.044 92.3741 123.265 91.2486C116.49 89.2266 109.095 87.8924 102.126 86.0067C101.27 85.7739 100.244 85.6183 99.6211 84.9242C99.7513 84.274 100.416 84.3511 100.948 84.3445C101.94 84.3301 103.084 84.6577 104.237 84.8762C107.274 85.4479 110.395 86.3039 113.142 87.001C117.182 88.0273 121.114 89.0613 124.937 89.9801C131.03 91.4413 136.887 92.8016 141.243 95.6071C141.922 96.0456 142.603 96.585 143.255 97.0876C143.818 97.5258 144.775 98.0124 144.69 98.8701Z" fill="white"/>
<path id="Vector_5" fill-rule="evenodd" clip-rule="evenodd" d="M137.945 114.226C137.552 114.751 136.956 114.3 136.595 114.171C135.365 113.733 134.144 112.959 132.895 112.419C131.17 111.677 129.345 111.069 127.505 110.397C123.979 109.112 120.299 107.73 116.519 106.603C109.744 104.582 102.348 103.248 95.3802 101.362C94.5259 101.13 93.4982 100.974 92.875 100.282C93.0066 99.6296 93.6716 99.7064 94.2029 99.6984C95.1939 99.6853 96.3371 100.013 97.492 100.23C100.529 100.802 103.649 101.659 106.394 102.358C110.436 103.383 114.367 104.417 118.192 105.335C124.284 106.797 130.14 108.159 134.497 110.964C135.177 111.401 135.856 111.94 136.508 112.443C137.073 112.88 138.029 113.368 137.945 114.226Z" fill="white"/>
<path id="Vector_6" fill-rule="evenodd" clip-rule="evenodd" d="M139.729 110.452C139.339 110.979 138.739 110.528 138.38 110.397C137.15 109.962 135.929 109.186 134.678 108.647C132.953 107.904 131.131 107.296 129.289 106.625C125.764 105.339 122.085 103.957 118.304 102.83C111.529 100.81 104.134 99.4754 97.1654 97.5901C96.3094 97.3573 95.2817 97.2013 94.6602 96.5076C94.7901 95.8573 95.455 95.9342 95.9884 95.9261C96.9793 95.9134 98.1209 96.2408 99.2775 96.4592C102.313 97.0293 105.435 97.8883 108.181 98.5853C112.221 99.61 116.153 100.644 119.978 101.562C126.069 103.024 131.926 104.384 136.282 107.19C136.961 107.628 137.642 108.168 138.294 108.672C138.857 109.108 139.814 109.594 139.729 110.452Z" fill="white"/>
<path id="Vector_7" fill-rule="evenodd" clip-rule="evenodd" d="M141.629 102.158C140.662 102.416 139.644 101.923 138.795 101.584C132.816 99.2011 126.329 96.752 119.638 94.7478C113.982 93.0535 107.831 91.6421 101.985 89.8786C101.105 89.6121 100.069 89.2861 99.1924 88.9471C98.425 88.6516 97.3472 88.3627 97.3776 87.3076C98.431 86.7873 100.172 87.2996 101.776 87.5965C108.977 88.9311 116.022 90.932 122.18 92.9396C127.725 94.7461 132.714 96.8338 137.605 99.1978C138.343 99.5541 139.153 99.9893 139.914 100.439C140.548 100.813 141.65 101.173 141.629 102.158Z" fill="white"/>
<path id="Vector_8" fill-rule="evenodd" clip-rule="evenodd" d="M141.629 106.619C140.662 106.877 139.644 106.384 138.795 106.045C132.816 103.662 126.329 101.213 119.638 99.2091C113.982 97.5132 107.831 96.1031 101.985 94.34C101.105 94.0751 100.069 93.7488 99.1924 93.4085C98.425 93.1129 97.3472 92.824 97.3776 91.7686C98.431 91.2483 100.172 91.7589 101.776 92.0579C108.977 93.3925 116.022 95.3934 122.18 97.4006C127.725 99.2075 132.714 101.295 137.605 103.659C138.343 104.015 139.153 104.449 139.914 104.9C140.548 105.275 141.65 105.634 141.629 106.619Z" fill="white"/>
</g>
<g id="Group_9">
<path id="Vector_9" fill-rule="evenodd" clip-rule="evenodd" d="M121.791 31.3133C121.387 33.6662 120.846 35.9063 120.274 38.1176C117.868 37.5268 115.527 36.8745 112.832 36.5679C113.192 35.6107 113.519 34.5396 113.99 33.4972C114.367 32.667 115 31.3935 115.776 31.0208C116.485 30.6788 117.56 30.6434 118.334 30.6818C119.508 30.7415 120.656 31.2539 121.791 31.3133Z" fill="#8F7ECE"/>
<path id="Vector_10" fill-rule="evenodd" clip-rule="evenodd" d="M123.433 31.6331C125.736 32.1597 127.716 33.0077 129.865 33.6904C129.115 35.7781 128.328 37.8402 127.728 40.0548C125.696 39.6901 123.984 39.0094 122.006 38.5886C122.534 36.3145 123.005 33.9907 123.433 31.6331Z" fill="#8F7ECE"/>
<path id="Vector_11" fill-rule="evenodd" clip-rule="evenodd" d="M131.346 34.2473C133.087 34.8158 134.751 35.466 136.482 36.0492C136.112 38.2074 135.347 40.0353 134.844 42.0843C133.008 41.5769 131.232 41.0148 129.377 40.5282C130.007 38.4131 130.694 36.3464 131.346 34.2473Z" fill="#8F7ECE"/>
<path id="Vector_12" fill-rule="evenodd" clip-rule="evenodd" d="M144.321 38.8982C143.823 40.851 143.311 42.7908 142.85 44.7726C140.752 44.0402 138.6 43.3625 136.5 42.6351C137.041 40.6696 137.608 38.7262 138.053 36.6802C140.206 37.3565 142.22 38.1691 144.321 38.8982Z" fill="#8F7ECE"/>
<path id="Vector_13" fill-rule="evenodd" clip-rule="evenodd" d="M119.908 39.6836C119.499 41.1852 119.062 42.6657 118.726 44.2267C116.002 43.9763 113.74 43.2712 110.711 43.321C111.257 41.5335 111.792 39.738 112.376 37.9829C115.021 38.4148 117.449 39.065 119.908 39.6836Z" fill="#8F7ECE"/>
<path id="Vector_14" fill-rule="evenodd" clip-rule="evenodd" d="M127.195 41.6267C126.742 43.1186 126.26 44.5865 125.748 46.027C124.009 45.5083 122.224 45.0297 120.371 44.6232C120.794 43.157 121.189 41.6668 121.556 40.1555C123.54 40.5459 125.268 41.1835 127.195 41.6267Z" fill="#8F7ECE"/>
<path id="Vector_15" fill-rule="evenodd" clip-rule="evenodd" d="M150.412 41.0486C149.839 43.0111 149.132 44.8627 148.596 46.8573C147.13 46.4719 145.949 45.8052 144.504 45.4008C145.003 43.4513 145.325 41.3522 145.885 39.4539C147.404 39.9759 148.874 40.546 150.412 41.0486Z" fill="#8F7ECE"/>
<path id="Vector_16" fill-rule="evenodd" clip-rule="evenodd" d="M128.843 42.1003C130.815 42.4985 132.541 43.1377 134.395 43.6517C133.977 45.1967 133.465 46.6629 133.131 48.2754C131.173 47.7837 129.471 47.0386 127.484 46.5731C127.8 44.9703 128.499 43.6821 128.843 42.1003Z" fill="#8F7ECE"/>
<path id="Vector_17" fill-rule="evenodd" clip-rule="evenodd" d="M151.893 41.6057C153.359 42.097 156.218 42.9964 156.979 44.2619C158.02 45.9899 156.568 48.1531 156.446 50.0174C154.289 49.2626 152.325 48.3198 150.17 47.5667C150.751 45.5855 151.434 43.6904 151.893 41.6057Z" fill="#8F7ECE"/>
<path id="Vector_18" fill-rule="evenodd" clip-rule="evenodd" d="M118.189 45.7989C117.904 47.726 117.266 49.3642 116.871 51.1998C114.215 50.8287 111.478 50.5381 108.686 50.302C109.158 48.3783 109.651 46.4736 110.34 44.7295C113.176 44.8708 115.564 45.4506 118.189 45.7989Z" fill="#8F7ECE"/>
<path id="Vector_19" fill-rule="evenodd" clip-rule="evenodd" d="M136.049 44.2024C138.215 44.8931 140.334 45.6302 142.486 46.3365C142.051 47.9427 141.614 49.5468 141.228 51.193C138.996 50.5154 136.987 49.6159 134.787 48.9045C135.089 47.2393 135.632 45.7731 136.049 44.2024Z" fill="#8F7ECE"/>
<path id="Vector_20" fill-rule="evenodd" clip-rule="evenodd" d="M125.298 47.5945C124.741 49.247 124.28 50.9814 123.707 52.6209C122.069 52.1888 120.342 51.8438 118.6 51.5161C119.049 49.724 119.501 47.9331 120.008 46.1877C121.831 46.5989 123.629 47.0341 125.298 47.5945Z" fill="#8F7ECE"/>
<path id="Vector_21" fill-rule="evenodd" clip-rule="evenodd" d="M144.054 46.9695C145.48 47.3676 146.682 47.9845 148.059 48.4293C147.6 50.0642 147.072 51.6413 146.545 53.2197C145.289 52.8135 144.115 52.3316 142.887 51.8998C143.149 50.1494 143.78 48.7072 144.054 46.9695Z" fill="#8F7ECE"/>
<path id="Vector_22" fill-rule="evenodd" clip-rule="evenodd" d="M132.595 49.8493C132.214 51.5225 131.685 53.0739 131.256 54.7087C129.287 54.1723 127.402 53.5541 125.438 53.0144C125.93 51.3572 126.467 49.735 126.947 48.0681C128.887 48.6045 130.721 49.2471 132.595 49.8493Z" fill="#8F7ECE"/>
<path id="Vector_23" fill-rule="evenodd" clip-rule="evenodd" d="M149.635 49.1392C151.874 49.8379 153.803 50.8431 155.996 51.5866C155.511 53.1987 154.981 54.7745 154.569 56.4494C152.504 55.5259 150.388 54.6522 148.201 53.8477C148.644 52.2516 149.26 50.7951 149.635 49.1392Z" fill="#8F7ECE"/>
<path id="Vector_24" fill-rule="evenodd" clip-rule="evenodd" d="M140.697 52.844C140.353 54.4485 139.847 55.921 139.432 57.4674C137.363 56.6257 135.187 55.8919 132.908 55.2594C133.355 53.6646 133.832 52.0955 134.252 50.4771C136.494 51.1741 138.637 51.9673 140.697 52.844Z" fill="#8F7ECE"/>
<path id="Vector_25" fill-rule="evenodd" clip-rule="evenodd" d="M116.335 52.7716C115.845 54.9285 115.22 56.9742 114.624 59.0412C112.063 58.6044 109.511 58.1578 106.689 57.9781C107.125 55.9498 107.669 54.0131 108.156 52.0282C108.148 51.8949 108.212 51.8258 108.318 51.7891C111.154 51.9557 113.71 52.3976 116.335 52.7716Z" fill="#8F7ECE"/>
<path id="Vector_26" fill-rule="evenodd" clip-rule="evenodd" d="M123.252 54.111C122.645 56.1971 121.99 58.2414 121.455 60.3856C119.761 60.0356 118.06 59.6949 116.352 59.3579C116.933 57.2765 117.564 55.2372 118.064 53.0884C119.925 53.3018 121.499 53.7948 123.252 54.111Z" fill="#8F7ECE"/>
<path id="Vector_27" fill-rule="evenodd" clip-rule="evenodd" d="M142.354 53.4722C143.652 53.8062 144.702 54.3843 146.006 54.7136C145.668 56.4513 145 57.9128 144.58 59.5781C143.422 59.1028 142.323 58.5711 141.09 58.1747C141.434 56.5425 141.98 55.078 142.354 53.4722Z" fill="#8F7ECE"/>
<path id="Vector_28" fill-rule="evenodd" clip-rule="evenodd" d="M130.805 56.2777C130.229 58.2899 129.663 60.3085 129.084 62.3158C127.043 61.8485 125.192 61.1966 123.102 60.7821C123.718 58.7298 124.32 56.6678 124.902 54.5847C126.975 55.0459 128.828 55.7236 130.805 56.2777Z" fill="#8F7ECE"/>
<path id="Vector_29" fill-rule="evenodd" clip-rule="evenodd" d="M154.12 58.0183C153.719 59.9504 153.12 61.7182 152.726 63.6566C150.525 62.5695 148.35 61.4567 146.238 60.2827C146.593 58.5627 147.249 57.0902 147.664 55.4199C149.955 56.1507 152.009 57.1142 154.12 58.0183Z" fill="#8F7ECE"/>
<path id="Vector_30" fill-rule="evenodd" clip-rule="evenodd" d="M138.982 59.0363C138.391 61.1097 137.712 63.1073 137.093 65.1583C134.954 64.4405 133.003 63.5378 130.74 62.9436C131.285 60.8816 131.888 58.8693 132.457 56.8284C134.787 57.4115 136.909 58.2014 138.982 59.0363Z" fill="#8F7ECE"/>
<path id="Vector_31" fill-rule="evenodd" clip-rule="evenodd" d="M114.176 60.6121C113.67 62.5553 113.034 64.3925 112.527 66.3373C109.901 65.9101 107.571 65.1924 104.916 64.794C105.425 63.0258 105.831 61.1742 106.32 59.3884C109.021 59.7144 111.638 60.1239 114.176 60.6121Z" fill="#8F7ECE"/>
<path id="Vector_32" fill-rule="evenodd" clip-rule="evenodd" d="M140.555 59.7466C141.878 60.0839 142.925 60.6924 144.13 61.147C143.502 63.1896 142.829 65.1939 142.329 67.3427C141.051 66.9075 139.859 66.3855 138.748 65.7884C139.276 63.7133 140.049 61.839 140.555 59.7466Z" fill="#8F7ECE"/>
<path id="Vector_33" fill-rule="evenodd" clip-rule="evenodd" d="M120.919 61.8806C120.501 63.949 119.867 65.8377 119.454 67.9077C117.572 67.6602 115.978 67.1352 114.176 66.8109C114.764 64.8581 115.348 62.9036 115.904 60.9268C117.638 61.1836 119.199 61.6108 120.919 61.8806Z" fill="#8F7ECE"/>
<path id="Vector_34" fill-rule="evenodd" clip-rule="evenodd" d="M128.55 63.8866C128.052 65.8892 127.358 67.7281 126.818 69.6936C124.869 69.2728 122.966 68.8072 121.1 68.3046C121.644 66.3438 122.108 64.3138 122.653 62.3513C124.752 62.7334 126.61 63.3486 128.55 63.8866Z" fill="#8F7ECE"/>
<path id="Vector_35" fill-rule="evenodd" clip-rule="evenodd" d="M145.708 61.9336C147.924 63.0304 150.172 64.0985 152.198 65.383C151.793 67.4113 151.286 69.3561 150.905 71.402C148.533 70.35 146.193 69.2662 143.906 68.129C144.423 65.9948 145.082 63.9779 145.708 61.9336Z" fill="#8F7ECE"/>
<path id="Vector_36" fill-rule="evenodd" clip-rule="evenodd" d="M136.558 66.7306C136.099 68.6143 135.416 70.3149 134.986 72.2196C132.738 71.6382 130.749 70.7985 128.471 70.2445C129.059 68.2933 129.625 66.3245 130.287 64.4358C132.421 65.1552 134.529 65.9067 136.558 66.7306Z" fill="#8F7ECE"/>
<path id="Vector_37" fill-rule="evenodd" clip-rule="evenodd" d="M111.992 67.9093C111.409 69.9633 110.81 72.0043 110.188 74.0279C107.844 73.5123 105.526 72.9695 102.928 72.703C103.541 70.5976 103.936 68.3125 104.635 66.2778C107.19 66.7194 109.483 67.4197 111.992 67.9093Z" fill="#8F7ECE"/>
<path id="Vector_38" fill-rule="evenodd" clip-rule="evenodd" d="M119.004 69.4766C118.596 71.6268 118.047 73.6601 117.637 75.8103C115.777 75.3027 113.887 74.8211 111.92 74.4196C112.511 72.372 113.088 70.3116 113.723 68.301C115.43 68.7442 117.191 69.1346 119.004 69.4766Z" fill="#8F7ECE"/>
<path id="Vector_39" fill-rule="evenodd" clip-rule="evenodd" d="M138.217 67.437C139.458 67.9333 140.746 68.3892 141.801 69.0702C141.4 70.8767 140.907 72.6098 140.478 74.3939C139.142 73.909 137.926 73.3051 136.555 72.8522C137.123 71.0584 137.632 69.2182 138.217 67.437Z" fill="#8F7ECE"/>
<path id="Vector_40" fill-rule="evenodd" clip-rule="evenodd" d="M126.283 71.2658C125.755 73.4401 125.074 75.4877 124.489 77.6172C122.793 77.1627 121.159 76.6457 119.373 76.2793C119.718 74.0777 120.271 72.046 120.74 69.9473C122.66 70.315 124.46 70.8016 126.283 71.2658Z" fill="#8F7ECE"/>
<path id="Vector_41" fill-rule="evenodd" clip-rule="evenodd" d="M143.46 69.7754C145.848 70.8385 148.151 71.985 150.542 73.0451C150.173 74.9031 149.723 76.6952 149.314 78.5211C146.889 77.4113 144.456 76.3115 142.137 75.0988C142.524 73.2812 142.997 71.5325 143.46 69.7754Z" fill="#8F7ECE"/>
<path id="Vector_42" fill-rule="evenodd" clip-rule="evenodd" d="M128.017 71.7361C130.171 72.4107 132.323 73.0897 134.451 73.7931C133.926 75.9707 133.312 78.0744 132.833 80.2907C130.654 79.56 128.473 78.8292 126.227 78.1646C126.704 75.9212 127.406 73.8672 128.017 71.7361Z" fill="#8F7ECE"/>
<path id="Vector_43" fill-rule="evenodd" clip-rule="evenodd" d="M109.738 75.5969C109.192 77.532 108.56 79.3966 108.005 81.3254C106.155 80.7713 103.314 80.2893 102.489 78.6114C101.906 77.4278 102.386 75.7739 102.57 74.4233C102.567 74.3461 102.564 74.2676 102.561 74.1921C105.235 74.3845 107.398 75.0765 109.738 75.5969Z" fill="#8F7ECE"/>
<path id="Vector_44" fill-rule="evenodd" clip-rule="evenodd" d="M136.106 74.4214C137.477 74.9 138.786 75.4397 140.032 76.0402C139.644 78.2068 139.038 80.1916 138.756 82.4464C137.246 82.0242 136 81.3432 134.49 80.9207C134.979 78.7124 135.537 76.5639 136.106 74.4214Z" fill="#8F7ECE"/>
<path id="Vector_45" fill-rule="evenodd" clip-rule="evenodd" d="M117.275 77.3748C116.949 79.4689 116.409 81.3863 116.07 83.4694C113.862 83.0068 111.779 82.4207 109.656 81.8763C110.247 79.9024 110.85 77.9386 111.471 75.9905C113.515 76.3422 115.381 76.8722 117.275 77.3748Z" fill="#8F7ECE"/>
<path id="Vector_46" fill-rule="evenodd" clip-rule="evenodd" d="M141.695 76.8237C144.146 77.8788 146.589 78.9402 148.784 80.2474C148.394 82.2643 147.722 84.0455 147.488 86.191C145.055 85.2548 142.84 84.0986 140.332 83.2329C140.741 81.0603 141.188 78.9165 141.695 76.8237Z" fill="#8F7ECE"/>
<path id="Vector_47" fill-rule="evenodd" clip-rule="evenodd" d="M124.125 79.1812C123.576 81.1661 123.155 83.2555 122.663 85.2872C121.009 84.8456 119.341 84.4168 117.719 83.9429C118.165 81.9243 118.56 79.8622 119.01 77.845C120.794 78.213 122.427 78.7284 124.125 79.1812Z" fill="#8F7ECE"/>
<path id="Vector_48" fill-rule="evenodd" clip-rule="evenodd" d="M132.474 81.934C132.159 83.9623 131.615 85.8012 131.35 87.8713C128.96 87.2641 126.739 86.4919 124.402 85.835C124.717 83.6798 125.306 81.756 125.779 79.7324C128.083 80.397 130.348 81.0971 132.474 81.934Z" fill="#8F7ECE"/>
<path id="Vector_49" fill-rule="evenodd" clip-rule="evenodd" d="M134.129 82.562C135.716 82.9087 136.919 83.6331 138.395 84.0893C138.128 86.0598 137.675 87.873 137.435 89.8643C136.087 89.6024 134.536 88.8463 133.004 88.4993C133.275 86.4356 133.813 84.5903 134.129 82.562Z" fill="#8F7ECE"/>
<path id="Vector_50" fill-rule="evenodd" clip-rule="evenodd" d="M140.058 84.8728C142.493 85.7819 144.854 86.7662 147.046 87.9127C146.696 89.5973 146.461 91.6016 144.727 91.9613C143.667 92.183 142.569 91.7652 141.619 91.4713C140.686 91.1821 139.784 90.9092 139.092 90.4918C139.363 88.5777 139.76 86.7645 140.058 84.8728Z" fill="#8F7ECE"/>
</g>
</g>
<g id="Group_10">
<g id="Group_11" opacity="0.94">
<g id="Group_12" opacity="0.94">
<path id="Vector_51" opacity="0.94" fill-rule="evenodd" clip-rule="evenodd" d="M104.367 33.9007C103.949 34.4611 103.314 33.9812 102.93 33.8446C101.623 33.379 100.325 32.5551 98.9938 31.9816C97.1599 31.1901 95.2181 30.5445 93.2606 29.8297C89.5107 28.4631 85.5957 26.9919 81.5758 25.7939C74.3685 23.645 66.5011 22.2256 59.0897 20.2197C58.1793 19.9722 57.0855 19.8069 56.4238 19.0681C56.5638 18.3744 57.2718 18.4579 57.8369 18.4499C58.8903 18.4355 60.1077 18.7839 61.3347 19.0153C64.5657 19.6242 67.8838 20.536 70.8065 21.2781C75.1039 22.3685 79.2857 23.4683 83.3536 24.4449C89.8353 25.9996 96.0644 27.4481 100.698 30.4319C101.422 30.8975 102.145 31.4726 102.839 32.0073C103.439 32.4712 104.455 32.9899 104.367 33.9007Z" fill="#8F7ECE"/>
<path id="Vector_52" opacity="0.94" fill-rule="evenodd" clip-rule="evenodd" d="M101.109 37.3998C100.081 37.6743 98.9987 37.1493 98.0963 36.7896C91.7336 34.2553 84.8344 31.6489 77.7156 29.5164C71.6998 27.7146 65.1558 26.213 58.939 24.3373C58.0028 24.0548 56.9027 23.7078 55.9682 23.3464C55.1523 23.0318 54.0057 22.7265 54.0378 21.6023C55.1586 21.0483 57.0089 21.5926 58.7176 21.9106C66.3761 23.3304 73.8728 25.4582 80.4218 27.594C86.3187 29.5164 91.628 31.7358 96.8278 34.2507C97.6147 34.6314 98.477 35.0923 99.2849 35.5692C99.9589 35.969 101.131 36.3511 101.109 37.3998Z" fill="#8F7ECE"/>
</g>
<g id="Group_13" opacity="0.94">
<g id="Group_14" opacity="0.94">
<path id="Vector_53" opacity="0.94" fill-rule="evenodd" clip-rule="evenodd" d="M86.5107 81.1215C85.1795 80.7875 83.8242 80.4616 82.4575 80.1339C78.3896 79.159 74.2078 78.0575 69.9104 76.9671C66.989 76.225 63.6682 75.3129 60.4369 74.706C59.2115 74.4732 57.9941 74.1262 56.9391 74.1406C56.3753 74.1469 55.6673 74.0651 55.5273 74.7588C56.189 75.4975 57.2828 75.6612 58.1932 75.9087C65.6046 77.9146 73.4703 79.334 80.6777 81.4845C82.3657 81.9855 84.0326 82.5379 85.6771 83.108C85.9246 82.4494 86.2008 81.7878 86.5107 81.1215Z" fill="#8F7ECE"/>
<path id="Vector_54" opacity="0.94" fill-rule="evenodd" clip-rule="evenodd" d="M84.9917 85.2131C83.2186 84.5384 81.4024 83.8945 79.525 83.2827C72.9746 81.1468 65.4797 79.019 57.8211 77.5992C56.1124 77.2829 54.2621 76.7385 53.1413 77.291C53.1092 78.4152 54.2558 78.7218 55.07 79.0367C56.0062 79.3981 57.1063 79.7447 58.0408 80.026C64.259 81.9016 70.8047 83.4032 76.8191 85.2051C79.3901 85.9759 81.9277 86.8125 84.4249 87.6812C84.5772 86.8416 84.7653 86.0227 84.9917 85.2131Z" fill="#8F7ECE"/>
</g>
<g id="Group_15" opacity="0.94">
<path id="Vector_55" opacity="0.94" fill-rule="evenodd" clip-rule="evenodd" d="M84.9912 90.0519C83.6583 89.7179 82.3046 89.3953 80.938 89.066C76.87 88.0898 72.6866 86.9896 68.3892 85.8975C65.4695 85.157 62.1483 84.2449 58.9174 83.6364C57.6907 83.4053 56.4733 83.0566 55.4196 83.071C54.8541 83.0773 54.1461 82.9955 54.0078 83.6892C54.6694 84.428 55.7632 84.5933 56.6737 84.8391C64.0835 86.845 71.9508 88.2661 79.1582 90.415C80.8461 90.9176 82.513 91.47 84.1576 92.0418C84.4051 91.3802 84.6813 90.7185 84.9912 90.0519Z" fill="#8F7ECE"/>
<path id="Vector_56" opacity="0.94" fill-rule="evenodd" clip-rule="evenodd" d="M83.4725 94.1439C81.6981 93.4709 79.8832 92.827 78.0042 92.2152C71.4551 90.0793 63.9605 87.9498 56.2999 86.5301C54.5929 86.2138 52.7413 85.6711 51.6218 86.2235C51.5897 87.346 52.7363 87.6543 53.5505 87.9675C54.4867 88.3306 55.5851 88.6756 56.5216 88.9585C62.7398 90.8341 69.2839 92.3357 75.2996 94.1376C77.8706 94.9084 80.4065 95.745 82.9054 96.6124C83.0584 95.7724 83.2444 94.9532 83.4725 94.1439Z" fill="#8F7ECE"/>
</g>
</g>
<g id="Group_16" opacity="0.94">
<path id="Vector_57" opacity="0.94" fill-rule="evenodd" clip-rule="evenodd" d="M71.7871 34.1462C72.1515 32.6285 74.2539 32.9418 75.8053 33.0671C79.1424 33.3369 81.7889 33.8489 84.5286 34.93C85.3749 35.264 87.795 36.1153 87.5669 37.0866C87.3197 38.1306 84.0724 37.1924 83.5474 37.0866C80.623 36.4874 78.4518 35.8742 75.5114 35.3218C74.1591 35.0666 72.6945 34.9815 71.7871 34.1462Z" fill="white"/>
<path id="Vector_58" opacity="0.94" fill-rule="evenodd" clip-rule="evenodd" d="M72.2767 37.0865C75.0534 36.6319 77.748 37.4689 80.5087 38.2621C81.6346 38.5851 85.8341 39.4521 85.606 40.7129C85.3972 41.8675 83.1716 41.2316 81.9799 41.0051C79.1504 40.4688 77.0433 39.9451 74.2362 39.3399C73.1424 39.1038 71.0533 38.9191 71.0018 37.9685C70.9614 37.1783 71.591 37.1974 72.2767 37.0865Z" fill="white"/>
<path id="Vector_59" opacity="0.94" fill-rule="evenodd" clip-rule="evenodd" d="M69.0078 42.9017C69.3739 41.3841 71.4746 41.6987 73.026 41.8243C76.3632 42.0925 79.0096 42.6048 81.7493 43.6856C82.5956 44.0212 85.0157 44.8709 84.7879 45.8425C84.5408 46.8878 81.2951 45.95 80.7697 45.8425C77.8454 45.245 75.6725 44.6314 72.7321 44.0773C71.3798 43.8235 69.9169 43.7367 69.0078 42.9017Z" fill="white"/>
<path id="Vector_60" opacity="0.94" fill-rule="evenodd" clip-rule="evenodd" d="M69.4975 45.8424C72.2743 45.3878 74.9672 46.2245 77.7296 47.0193C78.8551 47.342 83.0516 48.2093 82.8252 49.4685C82.6181 50.6247 80.3921 49.9888 79.1991 49.7624C76.3696 49.226 74.2641 48.7026 71.457 48.0971C70.3619 47.861 68.2725 47.6763 68.2227 46.7241C68.1806 45.9339 68.8118 45.9546 69.4975 45.8424Z" fill="white"/>
<path id="Vector_61" opacity="0.94" fill-rule="evenodd" clip-rule="evenodd" d="M68.0338 50.448C71.8079 50.0929 76.7348 51.3023 80.0913 52.5053C81.3825 52.9712 82.8841 53.6358 82.8344 54.3683C82.7412 55.7463 79.8459 54.8051 78.8162 54.5643C75.4934 53.7935 73.6161 53.2457 70.0945 52.6052C69.2963 52.4605 66.1071 52.2872 66.1729 51.2321C66.2193 50.4994 67.1778 50.5284 68.0338 50.448Z" fill="white"/>
</g>
<g id="Group_17" opacity="0.94">
<path id="Vector_62" opacity="0.94" fill-rule="evenodd" clip-rule="evenodd" d="M55.8496 28.8065C55.9702 28.7791 56.7554 28.6779 57.3205 28.7086C60.1086 28.8579 63.5049 29.6738 66.3364 30.4717C67.5184 30.8057 68.554 31.1397 68.4929 31.8447C68.4064 32.8404 66.2285 32.5034 64.9647 32.3347C62.3727 31.9894 60.2208 31.6039 57.7122 30.9634C56.8676 30.7466 54.7925 30.2937 54.7718 29.5903C54.7541 29.0283 55.4031 28.9127 55.8496 28.8065Z" fill="white"/>
<path id="Vector_63" opacity="0.94" fill-rule="evenodd" clip-rule="evenodd" d="M51.9062 34.3905C52.271 32.8712 54.3731 33.1861 55.9244 33.3114C59.2616 33.5812 61.9064 34.0919 64.6461 35.1743C65.4924 35.5083 67.9125 36.3596 67.6847 37.3295C67.4389 38.3749 64.1919 37.4387 63.6665 37.3295C60.7421 36.732 58.5709 36.1202 55.6305 35.5661C54.2785 35.3123 52.8137 35.2258 51.9062 34.3905Z" fill="white"/>
<path id="Vector_64" opacity="0.94" fill-rule="evenodd" clip-rule="evenodd" d="M52.3943 37.3293C55.1711 36.8747 57.8656 37.713 60.6264 38.5062C61.7522 38.8289 65.9501 39.6962 65.722 40.957C65.5149 42.1116 63.2889 41.4757 62.0972 41.2509C59.2677 40.7129 57.1606 40.1895 54.3535 39.584C53.2597 39.3479 51.1689 39.1632 51.1192 38.2127C51.0774 37.4208 51.707 37.4415 52.3943 37.3293Z" fill="white"/>
<path id="Vector_65" opacity="0.94" fill-rule="evenodd" clip-rule="evenodd" d="M49.125 43.146C49.491 41.6283 51.5918 41.9429 53.1432 42.0682C56.4803 42.338 59.1268 42.8487 61.8665 43.9295C62.7128 44.2635 65.1346 45.1148 64.9051 46.0863C64.658 47.1317 61.4123 46.1939 60.8869 46.0863C57.9609 45.4892 55.7913 44.8757 52.8493 44.3216C51.497 44.0677 50.0324 43.9826 49.125 43.146Z" fill="white"/>
<path id="Vector_66" opacity="0.94" fill-rule="evenodd" clip-rule="evenodd" d="M49.615 46.0864C52.3917 45.6318 55.088 46.4701 57.8487 47.262C58.9746 47.5863 63.1724 48.452 62.9443 49.7144C62.7372 50.8674 60.5112 50.2331 59.3182 50.0067C56.4887 49.4703 54.3833 48.9469 51.5761 48.3414C50.4823 48.1036 48.3916 47.9206 48.3418 46.9684C48.2998 46.1779 48.9307 46.1986 49.615 46.0864Z" fill="white"/>
</g>
<path id="Vector_67" opacity="0.94" fill-rule="evenodd" clip-rule="evenodd" d="M47.4536 51.6173C48.3096 51.3604 50.3573 51.7105 51.3736 51.9112C53.7055 52.3737 55.9842 52.5778 58.2343 53.3807C58.9166 53.6265 60.3073 54.3556 60.5869 55.1455C60.9352 56.1347 60.5611 57.956 60.2913 59.1636C59.7259 61.7043 59.1527 63.3889 58.43 66.1222C58.1488 67.1823 57.773 68.7159 56.9591 69.0643C55.8687 69.5282 54.0909 68.9774 53.137 68.7687C51.9166 68.5022 50.7874 68.2066 49.6088 67.9852C47.6977 67.6255 43.9094 67.3573 43.2381 65.5344C42.8383 64.4503 43.4131 62.949 43.7293 61.7123C44.3686 59.2021 45.1074 57.1611 45.6885 54.6559C45.9924 53.3466 46.2606 51.9753 47.4536 51.6173Z" fill="#8F7ECE"/>
<path id="Vector_68" opacity="0.94" fill-rule="evenodd" clip-rule="evenodd" d="M67.3039 56.4012C68.1615 56.1443 70.2075 56.4927 71.2238 56.6967C73.5557 57.1576 75.8362 57.3617 78.0859 58.1646C78.7685 58.4104 80.1576 59.1378 80.4371 59.9297C80.7855 60.9173 80.4131 62.7402 80.1432 63.9475C79.5778 66.4865 79.0047 68.1728 78.2819 70.9061C78.001 71.9662 77.625 73.4998 76.8107 73.8465C75.7186 74.3104 73.9425 73.7613 72.9869 73.5526C71.7666 73.2861 70.6374 72.9888 69.4604 72.7691C67.5477 72.4094 63.7593 72.1412 63.0896 70.3183C62.6899 69.2342 63.2646 67.7329 63.5796 66.4962C64.2188 63.9846 64.9593 61.945 65.5387 59.4398C65.844 58.1292 66.1105 56.7592 67.3039 56.4012Z" fill="#8F7ECE"/>
</g>
<path id="Vector_69" d="M76.4236 102.666C78.1997 102.538 80.8078 96.0594 81.3235 94.982C81.1308 98.3335 80.4531 104.393 81.9387 104.857C84.5662 105.678 88.062 89.9829 89.4594 84.5099C94.571 64.5323 99.3664 44.0694 104.669 24.686C103.38 23.7882 101.949 23.0191 100.442 22.1985C99.0611 21.447 97.6012 20.7773 96.087 20.1702C90.1641 43.3741 83.2332 66.1528 77.8598 89.3023C76.9647 93.1591 74.7437 102.789 76.4236 102.666Z" fill="#889922"/>
</g>
<g id="Group_18">
<g id="Group_19">
<path id="Vector_70" opacity="0.37" fill-rule="evenodd" clip-rule="evenodd" d="M99.0056 63.713C96.9853 62.1038 105.236 36.8202 107.111 36.7447C108.684 36.6803 100.817 65.1581 99.0056 63.713Z" fill="#8F7ECE"/>
<path id="Vector_71" opacity="0.37" fill-rule="evenodd" clip-rule="evenodd" d="M97.1106 67.6604C99.4071 67.0261 96.7606 78.6996 95.5947 82.0544C95.087 83.5109 89.3862 106.934 88.0082 106.813C85.3166 106.574 95.5222 68.0972 97.1106 67.6604Z" fill="#8F7ECE"/>
</g>
<g id="Group_20">
<g id="Group_21">
<path id="Vector_72" fill-rule="evenodd" clip-rule="evenodd" d="M58.7261 13.2834C61.4544 13.0666 59.6382 17.5938 58.9589 19.0213C58.318 20.3685 57.4607 22.3905 56.0312 21.949C54.7544 21.5522 55.6007 18.88 56.0312 17.499C56.6207 15.6136 56.9066 13.4263 58.7261 13.2834Z" fill="white"/>
<path id="Vector_73" fill-rule="evenodd" clip-rule="evenodd" d="M64.6955 14.1026C65.786 13.947 67.2104 14.1942 67.0384 15.625C66.8343 17.3176 63.0299 16.9789 63.2901 15.0405C63.3676 14.4687 63.5873 14.2616 64.6955 14.1026Z" fill="white"/>
</g>
<g id="Group_22">
<path id="Vector_74" fill-rule="evenodd" clip-rule="evenodd" d="M159.212 42.0649C159.195 44.5638 158.585 46.9952 157.849 49.0362C157.178 50.8911 156.444 53.3643 154.363 53.886C153.216 52.7521 154.245 49.977 154.817 47.5199C155.467 44.7214 156.217 39.8954 159.212 42.0649Z" fill="white"/>
<path id="Vector_75" fill-rule="evenodd" clip-rule="evenodd" d="M149.058 56.6117C148.701 54.3924 151.396 51.2609 152.239 53.5828C152.766 55.0266 150.555 58.8213 149.058 56.6117Z" fill="white"/>
</g>
<g id="Group_23">
<path id="Vector_76" fill-rule="evenodd" clip-rule="evenodd" d="M46.042 74.4774C45.9008 77.4388 45.4382 79.5763 44.677 82.3578C44.1841 84.1596 43.4243 88.1951 41.3415 88.1183C38.2776 88.0028 40.8743 80.8355 41.4958 79.0256C41.9103 77.8099 42.4627 76.9332 42.7085 76.297C43.2399 74.9176 43.2112 73.559 44.6774 73.7209C45.4863 73.8094 45.6022 74.0536 46.042 74.4774Z" fill="white"/>
<path id="Vector_77" fill-rule="evenodd" clip-rule="evenodd" d="M49.8308 82.8141C51.2666 84.2098 49.5129 87.4695 48.1639 87.5116C45.5542 87.5917 47.3867 84.4249 48.4675 83.116C48.6328 82.9136 49.2641 82.6968 49.8308 82.8141Z" fill="white"/>
<path id="Vector_78" fill-rule="evenodd" clip-rule="evenodd" d="M41.1921 89.6326C42.9362 89.3083 49.6957 90.1834 48.7689 93.1191C48.2822 94.6624 45.1782 93.6588 43.6171 93.4193C41.9439 93.1672 39.111 93.1545 39.2219 91.1486C39.2907 89.9088 40.5174 89.7579 41.1921 89.6326Z" fill="white"/>
</g>
</g>
</g>
</g>
</g>
</g>
</g>
<g id="Group_24">
<path id="Vector_79" fill-rule="evenodd" clip-rule="evenodd" d="M57.99 55.1851C57.6607 55.5431 56.8304 55.108 56.2283 54.9891C54.3396 54.6133 52.1603 54.1491 50.3071 53.775C49.3405 57.0641 48.2273 60.9791 47.3363 64.6152C47.2047 65.1482 47.203 65.8436 46.7131 66.1939C46.2972 65.8937 46.3677 65.24 46.355 64.7678C46.3149 63.2148 46.4225 61.4163 46.2956 59.8746C45.8507 59.9758 45.8748 60.8512 45.2422 60.6391C45.2903 60.0095 45.9038 59.4474 46.3293 59.0957C47.0023 59.6097 46.8256 60.6518 46.84 61.5031C46.853 62.4072 46.9138 63.3564 46.8897 64.19C47.9802 60.7082 48.7671 56.7241 49.9347 53.3676C51.2562 53.2887 53.0471 53.9247 54.5567 54.1063C55.3996 54.2092 56.4821 54.5141 57.3768 54.7984C57.5709 54.8608 58.0655 54.8221 57.99 55.1851Z" fill="white"/>
<path id="Vector_80" fill-rule="evenodd" clip-rule="evenodd" d="M53.1767 56.5225C52.9566 57.0669 52.4973 57.2099 52.1423 57.5295C52.1971 58.0465 52.8507 58.4577 52.5758 58.9733C51.9496 58.8464 52.0187 58.2987 51.8113 57.9199C51.2589 58.0886 51.1257 58.9463 50.4062 58.8354C50.427 58.1978 51.1804 57.9009 51.5304 57.4574C51.5064 56.9243 51.0004 56.6832 51.1707 56.0312C51.7632 56.1565 51.7265 56.6655 51.8614 57.0673C52.3494 57.0205 52.6049 56.086 53.1767 56.5225Z" fill="white"/>
<path id="Vector_81" fill-rule="evenodd" clip-rule="evenodd" d="M57.7059 61.4885C57.4377 61.6184 57.2403 61.3021 57.1648 61.1208C56.5223 61.3793 56.3489 63.0462 56.5657 63.5715C56.9157 63.634 57.0329 63.4446 57.232 63.7352C57.1371 64.2008 56.6893 64.0902 56.2314 63.9616C55.9037 63.4556 55.8409 61.9207 56.3857 61.087C56.7681 60.5039 57.7767 60.4398 57.7059 61.4885Z" fill="white"/>
<path id="Vector_82" fill-rule="evenodd" clip-rule="evenodd" d="M55.3477 61.148C54.9319 61.3103 54.0502 61.2091 53.5859 60.9519C53.7576 60.4379 55.3283 60.6002 55.3477 61.148Z" fill="white"/>
<path id="Vector_83" fill-rule="evenodd" clip-rule="evenodd" d="M52.8076 60.9182C52.5137 61.3501 51.645 60.9486 50.9526 60.7786C50.2974 60.6196 49.3659 60.5682 49.2246 60.1187C49.4561 59.767 50.087 60.0946 50.5415 60.2052C51.3992 60.4156 52.4462 60.4733 52.8076 60.9182Z" fill="white"/>
<path id="Vector_84" fill-rule="evenodd" clip-rule="evenodd" d="M55.2782 62.0746C54.9489 62.3846 53.9904 62.1548 53.5712 61.9718C53.5261 61.4514 55.2091 61.6201 55.2782 62.0746Z" fill="white"/>
<path id="Vector_85" fill-rule="evenodd" clip-rule="evenodd" d="M49.9727 61.5623C50.5331 61.7503 50.2602 62.4406 50.5348 62.8003C50.9362 62.6267 50.9506 61.8191 51.5882 62.0358C51.5624 62.5996 50.9619 62.985 50.6857 63.4683C50.7144 64.019 51.0825 64.366 50.9345 65.0243C50.4175 65.1175 50.4269 64.485 50.3741 64.0992C49.9663 64.1553 50.0368 65.0016 49.4313 64.7334C49.3782 64.2067 49.9356 63.8454 50.1477 63.4149C50.127 62.8117 49.613 62.1901 49.9727 61.5623Z" fill="white"/>
</g>
<g id="Group_25">
<path id="Vector_86" fill-rule="evenodd" clip-rule="evenodd" d="M69.0832 60.0001C68.9162 60.5686 68.4456 60.437 68.0732 60.7516C66.5797 62.0154 65.8906 65.0216 66.5429 66.8525C66.6842 67.2493 66.9991 67.6153 66.8866 68.0345C66.1478 68.0201 65.8893 67.0325 65.7497 66.3786C65.2357 63.9729 66.5927 60.6407 68.6757 59.8054C68.8825 59.8281 69.003 59.9036 69.0832 60.0001Z" fill="white"/>
<path id="Vector_87" fill-rule="evenodd" clip-rule="evenodd" d="M76.324 61.7246L76.4943 61.768C77.2795 62.3926 77.9926 64.1513 77.8466 65.4839C77.6603 67.1829 76.8477 68.3859 76.0174 69.1357C75.7829 69.3495 75.4763 69.9019 75.1774 69.5662C74.8434 69.1184 75.4987 68.8772 75.6737 68.6845C76.2953 68.0085 77.0357 67.1989 77.2445 65.699C77.4418 64.2906 76.7819 63.0619 76.2599 61.9811L76.324 61.7246Z" fill="white"/>
<path id="Vector_88" fill-rule="evenodd" clip-rule="evenodd" d="M75.59 63.9137C75.4871 64.4725 75.3218 64.9304 74.9461 65.0316C75.6398 65.5279 75.773 66.3388 75.2012 66.9233C74.9668 67.1657 74.5733 67.1223 74.212 67.2218C73.9421 67.299 73.6789 67.5688 73.4395 67.3935C73.5727 66.1424 74.1555 64.2444 74.4094 63.1619C75.0069 63.0223 75.418 63.5634 75.59 63.9137ZM74.6872 64.6027C74.8335 64.4391 74.9988 64.3055 75.0326 63.9588C74.9234 63.9268 74.9411 63.8175 74.7964 63.8079C74.7901 64.0533 74.5156 64.4611 74.6872 64.6027ZM74.085 66.6437C74.5282 66.6534 74.9153 66.5682 74.9875 65.9564C74.923 65.7025 74.5683 65.6224 74.387 65.4407L74.085 66.6437Z" fill="white"/>
<path id="Vector_89" fill-rule="evenodd" clip-rule="evenodd" d="M69.4919 62.0204C69.9769 62.5551 69.4131 63.7211 69.7247 64.3617C69.3009 64.8516 69.6493 65.8873 69.0357 66.0159C68.477 65.8425 69.026 65.0009 68.9522 64.5337L68.2649 64.3617C67.7863 64.4148 67.8938 65.4488 67.3608 65.412C66.94 64.9785 67.5856 64.1579 67.9005 63.6296C68.3083 62.9422 68.6921 62.3093 69.2334 61.9563L69.4919 62.0204ZM68.482 63.867L68.996 63.9969C69.0908 63.5988 69.1469 63.2244 69.0828 62.9225C68.8577 63.1957 68.6279 63.4656 68.482 63.867Z" fill="white"/>
<path id="Vector_90" fill-rule="evenodd" clip-rule="evenodd" d="M72.0254 63.2024L72.2822 63.2682C72.353 63.5427 72.356 63.8577 72.2181 64.2558C72.4205 64.5256 73.1993 64.4468 72.9472 64.9882C72.7448 65.1358 72.2501 64.7955 72.0461 64.9431C71.8407 65.3399 72.1456 66.1588 71.5725 66.1044C71.1724 65.9294 71.4793 65.3302 71.508 64.9017C71.4793 64.6736 70.8688 64.7972 71.0792 64.4278C71.1049 64.1065 71.3988 64.2304 71.659 64.2992C71.7859 63.9425 71.7972 63.3934 72.0254 63.2024Z" fill="white"/>
</g>
</g>
<g id="Group_26">
<g id="Group_27">
<g id="Group_28">
<path id="Vector_91" d="M114.507 15.0025C112.978 14.8539 107.864 15.5977 107.714 17.1257C107.563 18.6506 112.434 20.3807 113.961 20.535C115.488 20.6853 116.848 19.5708 117 18.0428C117.151 16.5135 116.032 15.1551 114.507 15.0025Z" fill="#EFAD1B"/>
<path id="Vector_92" d="M105.314 16.8792L105.313 16.8969C105.266 17.3858 105.619 17.8153 106.108 17.8695L108.215 18.0749L108.39 16.2897L106.284 16.0826C105.797 16.0335 105.362 16.3909 105.314 16.8792Z" fill="#FF5000"/>
<path id="Vector_93" d="M157.738 21.6792C157.67 22.4203 158.21 23.0732 158.953 23.1437L161.583 23.3902C162.322 23.46 162.976 22.9202 163.044 22.1808C163.116 21.4414 162.573 20.7867 161.837 20.7169L159.201 20.4681C158.463 20.399 157.807 20.9387 157.738 21.6792Z" fill="#FF5000"/>
<path id="Vector_94" d="M160.539 19.3732L159.992 24.9063L144.889 23.4144L145.433 17.8843L160.539 19.3732Z" fill="#4D3D87"/>
<path id="Vector_95" d="M143.824 17.7228L143.279 23.2553L113.965 20.5356L114.509 15.0032L143.824 17.7228Z" fill="#4D3D87"/>
<path id="Vector_96" d="M145.434 17.8842L144.888 23.4143L143.279 23.257L143.825 17.7222L145.434 17.8842Z" fill="#EFAD1B"/>
<path id="Vector_97" d="M160.73 17.4613L159.996 24.9055L159.191 24.825L159.923 17.3801L160.73 17.4613Z" fill="#EFAD1B"/>
<path id="Vector_98" d="M160.73 17.4615L160.616 18.6127L144.672 17.0356L144.783 15.8867L160.73 17.4615Z" fill="#EFAD1B"/>
</g>
<g id="Group_29">
<g id="Group_30">
<path id="Vector_99" fill-rule="evenodd" clip-rule="evenodd" d="M157.597 21.0755C158.496 20.0187 155.161 19.328 154.895 20.328C154.583 21.4973 156.824 21.51 157.504 21.1686C157.546 21.1476 157.565 21.1122 157.597 21.0755Z" fill="white"/>
<path id="Vector_100" fill-rule="evenodd" clip-rule="evenodd" d="M153.499 20.8289C154.103 19.8814 151.328 19.1443 151.247 20.3029C151.188 21.183 153.083 21.4849 153.499 20.8289Z" fill="white"/>
</g>
<g id="Group_31">
<path id="Vector_101" fill-rule="evenodd" clip-rule="evenodd" d="M114.004 20.0999C114.775 20.2772 116.017 20.3848 116.171 19.8283C116.369 19.1079 115.533 19.0648 114.899 18.9747C114.267 18.8832 113.478 18.794 113.36 19.3768C113.23 20.017 113.703 20.0284 114.004 20.0999Z" fill="white"/>
<path id="Vector_102" fill-rule="evenodd" clip-rule="evenodd" d="M117.967 19.1932C118.529 19.3699 119.139 19.2784 119.212 18.7741C119.337 17.9101 117.401 17.6178 117.321 18.4728C117.292 18.7981 117.501 19.0473 117.967 19.1932Z" fill="white"/>
</g>
</g>
</g>
<g id="Group_32">
<g id="Group_33">
<g id="Group_34">
<path id="Vector_103" fill-rule="evenodd" clip-rule="evenodd" d="M103.471 103.732C103.357 105.252 104.759 106.111 105.692 106.796C108.665 108.98 111.716 111.036 114.739 113.212C118.652 116.029 122.799 118.789 126.798 121.766C130.576 124.574 134.991 127.82 137.944 132.252C139.414 134.459 140.763 137.833 141.627 140.985C141.986 142.297 142.231 143.934 142.586 145.467C142.92 146.911 143.461 148.886 144.558 149.184C145.247 149.371 146.417 148.874 146.818 148.536C148.868 146.805 146.904 142.331 145.472 139.372C143.575 135.452 141.303 131.207 138.844 128.475C137.163 126.606 135.171 125.056 133.302 123.54C129.474 120.434 125.764 117.525 121.788 114.713C117.906 111.968 113.822 109.525 109.767 106.949C108.807 106.341 107.758 105.671 106.758 105.051C105.81 104.463 104.819 103.225 103.471 103.732Z" fill="#4D3D87"/>
<path id="Vector_104" fill-rule="evenodd" clip-rule="evenodd" d="M148.236 132.866C146.893 133.587 145.539 132.654 144.534 132.075C141.337 130.243 138.218 128.284 135.006 126.403C130.845 123.966 126.643 121.292 122.303 118.838C118.205 116.522 113.45 113.8 108.2 112.894C105.589 112.445 101.956 112.576 98.7251 113.063C97.3808 113.265 95.7847 113.705 94.2397 114.001C92.7815 114.28 90.7579 114.584 90.0419 113.704C89.5907 113.148 89.5713 111.876 89.7192 111.374C90.4707 108.796 95.3576 108.783 98.645 108.894C102.997 109.04 107.797 109.4 111.292 110.542C113.681 111.324 115.904 112.516 118.046 113.611C122.437 115.854 126.601 118.07 130.781 120.566C134.862 123.002 138.748 125.748 142.747 128.413C143.691 129.044 144.73 129.734 145.702 130.396C146.62 131.024 148.154 131.43 148.236 132.866Z" fill="#4D3D87"/>
<path id="Vector_105" d="M152.591 129.503C152.172 128.669 151.022 127.796 150.109 127.124C147.514 125.218 144.539 123.471 141.957 121.872C138.829 119.935 136.587 118.629 133.092 117.992C131.997 117.793 130.871 117.831 129.707 117.656C128.767 117.513 127.728 116.985 126.797 116.606C126.074 115.907 125.17 115.171 124.659 114.372C124.028 113.378 123.608 112.332 122.979 111.41C120.983 108.475 118.883 106.952 115.844 104.877C113.334 103.164 110.533 101.148 107.741 99.549C106.756 98.9869 105.494 98.2899 104.56 98.2434C103.262 98.176 102.538 99.191 102.321 99.7884C102.035 100.577 102.311 101.449 102.025 102.406C101.815 103.115 101.129 103.909 100.654 104.698C99.3113 106.932 97.4613 109.405 97.0662 112.187C96.6117 115.405 99.2071 117.163 100.944 118.556C103.104 120.284 105.314 121.472 108.059 122.577C109.812 123.282 111.465 124.006 113.413 123.642C115.264 123.295 116.928 121.836 118.308 120.684C119.372 119.794 121.083 117.974 122.314 117.791C123.72 117.582 124.414 118.258 125.369 118.801C126.252 119.455 127.152 119.814 127.529 121.184C127.861 122.386 126.888 124.685 126.506 126.02C126.011 127.746 125.351 129.858 125.783 131.692C126.239 133.621 127.572 134.84 128.926 136.156C131.047 138.218 133.028 139.758 135.483 141.034C137.458 142.06 140.119 143.72 142.877 142C145.259 140.515 146.773 137.822 148.271 135.691C148.801 134.934 149.249 133.987 149.811 133.505C150.571 132.856 151.48 132.76 152.085 132.177C152.545 131.737 153.179 130.664 152.591 129.503ZM119.018 116.005C117.92 117.28 116.636 118.554 115.066 119.623C113.964 120.375 112.974 121.121 111.274 121.04C110.189 120.986 108.941 120.286 107.932 119.744C105.906 118.657 104.015 117.384 102.37 115.854C101.229 114.791 100.173 114.022 100.216 111.955C100.238 110.887 100.717 109.817 101.062 109.133C101.838 107.59 102.9 106.098 103.982 104.696C104.414 104.139 105.194 102.892 105.943 102.685C105.978 102.676 106.005 102.58 106.1 102.592C107.817 102.819 109.28 103.711 110.619 104.45C113.9 106.26 116.948 108.561 119.424 111.592C119.866 112.135 120.471 112.981 120.473 113.707C120.475 114.579 119.55 115.388 119.018 116.005ZM144.051 137.112C143.565 137.703 142.781 138.574 141.814 139.029C139.941 139.906 138.81 139.25 137.377 138.637C135.31 137.752 133.381 136.538 131.566 135.127C130.662 134.423 129.516 133.566 129.029 132.596C128.266 131.075 128.548 129.866 128.788 128.554C129.132 126.686 129.776 124.998 130.495 123.476C130.844 122.74 131.21 121.568 132.01 121.216C132.675 120.922 133.691 121.133 134.367 121.319C138.143 122.355 141.478 124.21 144.462 126.479C145.68 127.402 147.089 128.379 147.992 129.858C148.04 129.94 147.965 130.002 147.97 130.037C148.084 130.807 147.262 132.024 146.926 132.646C146.084 134.205 145.148 135.777 144.051 137.112Z" fill="#4D3D87"/>
<path id="Vector_106" opacity="0.62" d="M119.424 111.592C116.948 108.562 113.9 106.26 110.619 104.45C109.28 103.712 107.817 102.819 106.1 102.592C106.005 102.58 105.978 102.676 105.943 102.686C105.194 102.893 104.414 104.139 103.982 104.696C102.899 106.098 101.838 107.59 101.062 109.134C100.717 109.818 100.239 110.887 100.216 111.955C100.173 114.022 101.229 114.791 102.37 115.854C104.016 117.385 105.906 118.657 107.933 119.744C108.941 120.287 110.189 120.987 111.274 121.04C112.973 121.122 113.964 120.375 115.066 119.623C116.637 118.554 117.92 117.28 119.018 116.005C119.55 115.389 120.475 114.579 120.473 113.707C120.471 112.981 119.866 112.135 119.424 111.592Z" fill="white"/>
<path id="Vector_107" opacity="0.62" d="M147.969 130.037C147.964 130.002 148.039 129.94 147.991 129.858C147.089 128.379 145.679 127.402 144.461 126.479C141.478 124.21 138.142 122.355 134.366 121.319C133.69 121.133 132.674 120.922 132.009 121.216C131.209 121.568 130.843 122.74 130.494 123.476C129.775 124.998 129.131 126.686 128.787 128.554C128.547 129.865 128.265 131.075 129.028 132.596C129.515 133.566 130.661 134.423 131.566 135.127C133.38 136.538 135.309 137.753 137.376 138.637C138.808 139.251 139.941 139.906 141.813 139.029C142.78 138.574 143.564 137.702 144.05 137.112C145.147 135.777 146.083 134.205 146.925 132.646C147.261 132.024 148.083 130.807 147.969 130.037Z" fill="white"/>
</g>
</g>
<g id="Group_35">
<path id="Vector_108" fill-rule="evenodd" clip-rule="evenodd" d="M115.042 132.564C114.901 132.673 114.772 132.421 114.658 132.373C114.051 132.119 113.389 132.784 112.712 133.351C108.79 136.627 105.392 140.062 101.912 143.552C100.341 145.125 98.9956 146.479 97.3384 148.18C97.0221 148.506 96.6801 148.936 96.3137 149.386C95.949 149.837 95.5269 150.287 95.588 150.685C95.6474 151.058 96.0535 151.454 96.3782 151.753C97.0461 152.371 97.5231 152.789 98.2779 153.406C98.5524 153.629 99.0167 153.986 99.3203 153.932C99.7715 153.854 100.269 153.253 100.624 152.872C101.694 151.727 102.776 150.518 103.815 149.423C106.699 146.38 109.619 143.386 112.864 140.467C113.639 139.771 114.489 139.129 115.381 138.341C115.728 138.032 116.142 137.62 116.579 137.238C117.216 136.679 117.899 136.303 117.454 135.352C118.615 133.785 120.483 131.899 121.745 130.146C121.956 129.85 122.277 129.522 122.213 129.169C121.981 127.914 120.597 128.816 119.898 129.253C118.182 130.33 116.465 131.525 115.042 132.564Z" fill="#889922"/>
<path id="Vector_109" fill-rule="evenodd" clip-rule="evenodd" d="M111.956 138.578C111.716 137.449 109.857 138.536 109.018 139.052C107.523 139.972 106.285 141.093 105.22 142.185C104.054 143.381 103.259 144.412 102.578 145.8C102.352 146.259 102.044 146.876 102.31 147.26C102.427 147.425 102.626 147.528 103.118 147.317C103.958 146.959 104.583 146.144 105.093 145.676C106.909 144.016 108.573 142.905 110.266 141.234C110.923 140.587 111.909 139.598 112 138.69C112.004 138.66 111.962 138.612 111.956 138.578Z" fill="#4D3D87"/>
<path id="Vector_110" d="M112.712 133.351C112.5 133.529 112.291 133.709 112.082 133.889C112.658 134.562 113.253 135.218 113.845 135.885C114.475 136.59 115.055 137.345 115.684 138.061C115.961 137.804 116.264 137.513 116.579 137.237C116.602 137.217 116.622 137.198 116.645 137.181C115.39 135.841 114.123 134.537 112.858 133.225C112.81 133.267 112.762 133.309 112.712 133.351Z" fill="#4D3D87"/>
<path id="Vector_111" d="M97.9784 147.524C97.7697 147.736 97.5576 147.955 97.3378 148.18C97.3057 148.213 97.272 148.252 97.2383 148.286C98.5502 149.597 99.7869 151.086 101.126 152.328C101.361 152.076 101.595 151.822 101.83 151.567C100.574 150.152 99.2889 148.806 97.9784 147.524Z" fill="#4D3D87"/>
</g>
<g id="Group_36">
<path id="Vector_112" fill-rule="evenodd" clip-rule="evenodd" d="M92.2378 136.991C92.0661 137.033 92.1847 137.29 92.1513 137.409C91.9746 138.043 91.0448 138.151 90.1791 138.332C85.1767 139.386 80.3767 139.93 75.4818 140.504C73.2738 140.764 71.3771 140.982 69.0162 141.231C68.565 141.279 68.0142 141.282 67.4345 141.289C66.8547 141.297 66.2398 141.352 65.9649 141.054C65.7111 140.78 65.6486 140.214 65.6149 139.776C65.5428 138.867 65.509 138.234 65.493 137.26C65.4883 136.905 65.4963 136.32 65.7258 136.115C66.0648 135.809 66.845 135.79 67.3623 135.747C68.925 135.617 70.5438 135.516 72.0468 135.376C76.2239 134.992 80.3817 134.552 84.6837 133.81C85.7084 133.634 86.7394 133.361 87.9117 133.15C88.3696 133.067 88.949 132.998 89.5191 132.892C90.3528 132.736 91.0722 132.433 91.5411 133.37C93.4922 133.428 96.1294 133.128 98.2876 133.223C98.6506 133.239 99.1065 133.191 99.3443 133.461C100.187 134.419 98.6202 134.948 97.8444 135.225C95.9363 135.906 93.9368 136.516 92.2378 136.991Z" fill="#EFAD1B"/>
<path id="Vector_113" fill-rule="evenodd" clip-rule="evenodd" d="M85.604 135.692C86.3445 136.579 84.3385 137.369 83.4134 137.706C81.7675 138.31 80.1197 138.593 78.6037 138.75C76.9415 138.927 75.6393 138.912 74.128 138.589C73.6287 138.482 72.9523 138.342 72.8177 137.896C72.7583 137.701 72.8017 137.483 73.2706 137.226C74.0719 136.789 75.0999 136.802 75.7839 136.69C78.2106 136.291 80.115 135.673 82.4742 135.376C83.3864 135.26 84.7757 135.098 85.5449 135.586C85.5703 135.604 85.5846 135.668 85.604 135.692Z" fill="#4D3D87"/>
<path id="Vector_114" d="M90.1797 138.332C89.9081 138.39 89.6386 138.442 89.3654 138.496C89.1951 137.626 89.0458 136.754 88.8901 135.875C88.7262 134.944 88.49 134.021 88.3184 133.084C88.6908 133.026 89.1069 132.969 89.5197 132.891C89.5501 132.885 89.5775 132.88 89.6049 132.874C89.8794 134.687 90.1205 136.49 90.3677 138.295C90.3049 138.307 90.2421 138.321 90.1797 138.332Z" fill="#4D3D87"/>
<path id="Vector_115" d="M69.9274 141.135C69.6305 141.167 69.3269 141.199 69.0153 141.231C68.9689 141.236 68.9175 141.239 68.8691 141.244C68.6523 139.402 68.2475 137.508 68.1016 135.687C68.4452 135.661 68.7889 135.636 69.1342 135.608C69.4682 137.47 69.7301 139.312 69.9274 141.135Z" fill="#4D3D87"/>
</g>
</g>
<g id="Group_37">
<g id="Group_38">
<g id="Group_39">
<path id="Vector_116" fill-rule="evenodd" clip-rule="evenodd" d="M1.45015 70.0674C3.085 68.4776 6.19072 67.1607 8.17593 66.1551C12.8477 63.7865 16.5396 61.4255 21.4425 59.6093C23.4547 58.8659 26.164 58.3038 27.6429 59.3973C28.5744 60.0863 29.4511 61.6022 30.1274 62.871C31.6644 65.7473 33.7277 70.5393 34.9194 73.1314C37.1404 77.9571 39.2602 82.0875 41.4668 86.9069C43.439 91.2203 45.3838 95.8022 47.5837 100.623C48.5553 102.753 49.6508 105.195 50.46 107.492C51.2212 109.65 52.315 112.532 51.4252 114.016C50.807 115.046 49.3038 115.842 48.1749 116.46C46.8196 117.202 45.7629 117.53 44.7622 118.01C42.1592 119.258 40.3957 120.231 37.9146 121.252C35.9634 122.052 33.6219 122.939 31.1681 123.782C28.9614 124.541 26.3373 125.423 24.481 124.362C22.8011 123.403 21.1826 120.286 20.1209 118.227C16.8031 111.798 14.4054 105.342 11.2706 98.6795C8.95812 93.7686 7.05508 89.6703 5.13266 85.6137C4.19984 83.6512 3.13811 81.4656 2.13281 79.0936C0.714717 75.7438 -1.38738 72.6023 1.2865 70.1903C1.33793 70.1442 1.40206 70.1138 1.45015 70.0674Z" fill="#8F7ECE"/>
<path id="Vector_117" fill-rule="evenodd" clip-rule="evenodd" d="M2.87301 70.7771C2.89539 70.7531 2.89372 70.6342 2.97421 70.5731C6.59727 67.8494 9.708 66.8552 13.824 64.7033C17.4197 62.8226 22.4609 59.1501 25.6117 60.9263C27.309 61.8835 28.7962 64.7404 29.9107 66.9774C33.2993 73.801 36.0357 79.3221 39.2282 86.3001C42.0066 92.3706 45.281 99.2005 48.1813 105.643C49.3329 108.2 50.0957 109.975 48.6165 111.804C47.9806 112.588 46.8307 112.973 45.8334 113.514C41.1152 116.079 36.6682 117.898 31.6307 120.508C29.6075 121.557 27.5037 122.644 25.9604 122.104C24.2276 121.494 22.5076 118.706 21.3801 116.517C19.0035 111.915 17.8228 108.687 15.4028 103.84C11.0717 95.157 6.58792 86.8368 3.02564 78.42C1.80026 75.5164 0.653688 72.9838 2.71103 70.8994C2.75879 70.8509 2.82626 70.8252 2.87301 70.7771Z" fill="white"/>
<path id="Vector_118" opacity="0.26" d="M25.9605 122.104C27.5038 122.644 29.6076 121.556 31.6309 120.508C36.6687 117.898 41.1153 116.079 45.8335 113.514C46.8308 112.973 47.9807 112.588 48.6166 111.804C50.017 110.074 49.4068 108.391 48.3615 106.045C41.4847 109.239 30.6239 114.065 22.1641 117.945C23.2305 119.779 24.5905 121.622 25.9605 122.104Z" fill="#8F7ECE"/>
<g id="Group_40">
<path id="Vector_119" opacity="0.26" d="M25.6115 60.9262C22.4607 59.1501 17.4195 62.8229 13.8238 64.7033C9.70781 66.8551 6.59708 67.8494 2.97402 70.5731C2.89386 70.6342 2.8952 70.7527 2.87282 70.7771C2.82606 70.8252 2.75893 70.8509 2.7105 70.8994C1.42099 72.2049 1.3906 73.6888 1.84983 75.3283C10.4319 71.039 18.9482 67.2392 27.5479 62.8423C26.9444 62.007 26.2971 61.31 25.6115 60.9262Z" fill="#8F7ECE"/>
<path id="Vector_120" fill-rule="evenodd" clip-rule="evenodd" d="M17.1597 65.7552C17.1774 66.828 11.9275 69.4859 10.8611 69.2193C10.3344 69.0894 10.3294 68.4371 10.5752 68.1643C11.5902 67.0384 17.142 64.5733 17.1597 65.7552Z" fill="white"/>
</g>
</g>
<g id="Group_41">
<g id="Group_42">
<path id="Vector_121" fill-rule="evenodd" clip-rule="evenodd" d="M20.7966 110.626C28.6112 105.979 36.0657 103.051 43.5817 99.8359C43.8275 100.218 43.9397 100.575 44.1067 100.941C36.5219 104.498 28.9789 107.851 21.3089 111.808C21.1002 111.46 20.9603 111.124 20.7645 110.779C20.684 110.726 20.7261 110.519 20.7966 110.626Z" fill="#889922"/>
<path id="Vector_122" fill-rule="evenodd" clip-rule="evenodd" d="M21.8066 112.668C29.4622 108.59 36.9812 105.157 44.4825 101.816C44.5901 102.102 44.7039 102.392 44.8599 102.69C37.373 106.212 29.8253 110.031 22.3016 113.728C22.0702 113.36 21.8985 113.005 21.8066 112.668Z" fill="#889922"/>
<path id="Vector_123" fill-rule="evenodd" clip-rule="evenodd" d="M22.8606 114.678C30.3522 110.862 37.9176 106.83 45.3421 103.626C45.4529 103.956 45.6567 104.302 45.7321 104.624C38.1811 108.775 30.9383 111.449 23.3261 115.889C23.1094 115.539 23.0032 115.213 22.8602 114.876C22.8074 114.798 22.8171 114.736 22.8606 114.678Z" fill="#889922"/>
</g>
<g id="Group_43">
<path id="Vector_124" fill-rule="evenodd" clip-rule="evenodd" d="M4.36156 77.321C5.78133 76.2419 8.2271 75.2911 10.3148 74.2427C14.328 72.2271 17.8031 70.2582 22.0574 68.2093C23.379 67.5717 26.7178 65.8149 27.7087 66.2501C28.4522 66.5744 29.0721 68.3235 29.4802 69.1134C30.6638 71.4115 31.5228 73.1636 32.6597 75.3715C33.1881 76.3962 33.8273 77.4192 33.681 78.4181C32.1107 79.7704 29.912 80.3596 27.829 81.2944C23.419 83.2746 19.9262 85.192 15.9435 87.3085C14.5157 88.0666 11.2957 90.3374 10.0914 89.6741C9.34461 89.2646 8.73442 87.7052 8.25749 86.7287C7.22014 84.6025 6.27596 82.7493 5.4036 80.737C4.96374 79.7204 4.54759 78.5177 4.30212 77.7468C4.25703 77.5972 4.27974 77.4543 4.36156 77.321Z" fill="#FF5000"/>
<g id="Group_44">
<path id="Vector_125" d="M11.3341 84.676C11.8367 84.1025 12.7441 83.7158 12.6864 83.0909C12.6075 82.2058 11.6343 81.7803 11.116 81.2072C9.99177 79.9658 9.95804 77.9101 11.2943 77.1329C12.6897 76.317 14.4515 77.52 14.7935 79.211C14.9718 80.0797 14.6826 81.106 15.2657 81.7707C15.6111 82.1594 16.2099 82.0292 16.8154 81.933C17.3324 81.8478 17.7516 81.8351 18.1179 81.9443C18.4102 80.8218 18.3284 79.5981 17.795 78.4675C16.5873 75.9092 13.536 74.8141 10.9764 76.0201C8.42138 77.2261 7.32457 80.2808 8.53193 82.8374C9.05561 83.9486 9.92898 84.7839 10.9587 85.2735C11.0371 85.0711 11.1621 84.8737 11.3341 84.676Z" fill="white"/>
<path id="Vector_126" d="M15.3488 85.2848C16.7766 84.6118 17.7465 83.3607 18.1175 81.9446C17.7515 81.8354 17.3323 81.8484 16.815 81.9333C16.2095 82.0295 15.6106 82.1597 15.2653 81.7709C14.6825 81.106 14.9714 80.08 14.793 79.2113C14.451 77.5203 12.6893 76.3173 11.2939 77.1332C9.95762 77.9104 9.99136 79.9661 11.1155 81.2075C11.6342 81.781 12.6075 82.2065 12.6859 83.0912C12.7437 83.7157 11.8363 84.1028 11.3336 84.6763C11.162 84.874 11.0367 85.0714 10.9579 85.2738C12.2992 85.911 13.9033 85.9671 15.3488 85.2848Z" fill="#8F7ECE"/>
</g>
<g id="Group_45">
<path id="Vector_127" fill-rule="evenodd" clip-rule="evenodd" d="M30.3703 74.3534C29.9688 73.6467 29.2123 72.1611 29.1432 72.0359C27.0989 72.9964 19.6921 76.8569 19.6921 76.8569C19.5588 76.6609 20.2736 78.3843 20.6653 79.0232C20.6657 79.0235 22.7998 78.0182 30.3703 74.3534Z" fill="white"/>
<path id="Vector_128" fill-rule="evenodd" clip-rule="evenodd" d="M27.6277 68.384C20.1585 72.2335 25.2621 69.407 17.8105 73.3333C17.8105 73.3333 18.5122 74.8029 18.9234 75.4435C18.9234 75.4435 21.2329 74.17 28.7018 70.5342C28.3344 69.8232 27.9794 69.1034 27.6277 68.384Z" fill="white"/>
</g>
</g>
</g>
</g>
<g id="Group_46" opacity="0.58">
<g id="Group_47" opacity="0.58">
<path id="Vector_129" opacity="0.58" d="M37.9495 95.5163L37.739 95.6141C37.5687 95.6943 37.397 95.7764 37.225 95.8583C35.5999 93.1363 34.1063 90.3322 32.7877 87.517C32.738 87.4111 32.6899 87.3036 32.6414 87.1974L32.5563 87.011L32.6398 86.8103C32.6799 86.7141 32.6688 86.6146 32.6077 86.5391C32.5369 86.4493 32.4167 86.3945 32.2851 86.4202C31.9848 85.7552 31.6939 85.0986 31.4244 84.4691C31.373 84.3518 31.2621 84.2844 31.1288 84.2924C31.023 84.3004 30.9218 84.3582 30.864 84.4434C30.8109 84.5252 30.8029 84.62 30.8416 84.7115C31.1532 85.4406 31.4889 86.1988 31.8693 87.0274L25.937 101.185L24.9334 101.659C24.7951 101.725 24.7294 101.866 24.7694 102.008C24.8225 102.189 25.0182 102.287 25.2029 102.199L25.2864 102.16C25.386 102.112 25.4872 102.063 25.5884 102.015L25.2864 102.736C25.2464 102.833 25.2557 102.932 25.3185 103.009C25.3843 103.093 25.4999 103.142 25.6157 103.134C25.7346 103.125 25.8342 103.054 25.8809 102.945L26.4367 101.617L35.642 97.2727C36.0835 97.0623 36.5237 96.8535 36.9652 96.6448C37.2541 97.1201 37.545 97.594 37.8402 98.0659C37.906 98.1671 38.0216 98.2232 38.1485 98.2135C38.2641 98.2055 38.3733 98.1414 38.423 98.0529C38.4681 97.9727 38.4631 97.8795 38.4087 97.7944C38.1114 97.3238 37.8242 96.8502 37.535 96.3763C37.7631 96.2687 37.9912 96.1612 38.216 96.055C38.3556 95.9892 38.4217 95.8496 38.3813 95.708C38.3285 95.5243 38.1311 95.4281 37.9495 95.5163ZM34.5468 95.9578C34.5164 96.0349 34.5164 96.1218 34.5515 96.1956C34.5612 96.2166 34.5742 96.2343 34.5869 96.247C34.5902 96.2647 34.5949 96.2841 34.6046 96.3031L34.9145 96.9487L26.7854 100.785L31.1439 90.3853C31.4234 89.7123 31.706 89.038 31.9868 88.3667L32.226 87.7982C33.4143 90.3308 34.7168 92.815 36.0995 95.187L36.1202 95.2254L34.7135 95.7971C34.6367 95.8262 34.5789 95.884 34.5468 95.9578ZM36.6569 96.1265L35.486 96.6772L35.2646 96.2213C35.6547 96.064 36.0451 95.905 36.4305 95.7477C36.506 95.8743 36.5815 95.9995 36.6569 96.1265Z" fill="#8F7ECE"/>
<path id="Vector_130" opacity="0.58" d="M39.3572 89.4698C39.1067 89.2483 38.8529 89.0072 38.5577 88.7103C38.5834 88.6154 38.5593 88.5129 38.4919 88.4454C38.4197 88.3666 38.3055 88.3299 38.2013 88.3489C37.8994 88.0276 37.6135 87.7017 37.35 87.3757C37.2231 87.2201 36.9726 87.2391 36.849 87.3997C36.8022 87.4655 36.7815 87.541 36.7942 87.6152C36.7815 87.6506 36.7749 87.6856 36.7782 87.7227C36.8006 88.2207 36.8634 88.7297 36.9629 89.2356C36.8954 89.2854 36.8553 89.3609 36.8473 89.4461C36.841 89.5265 36.868 89.605 36.9245 89.6611C36.9629 89.7029 37.0177 89.7319 37.0738 89.748C37.199 90.2556 37.3613 90.7566 37.5554 91.2382C37.6051 91.3571 37.7177 91.4262 37.8476 91.4182C37.9535 91.4102 38.0547 91.3508 38.1125 91.2673C38.1672 91.1868 38.1766 91.0906 38.1398 90.9991C37.9408 90.5061 37.7785 89.9938 37.6579 89.4718L38.1028 89.1328C38.3823 89.4123 38.6392 89.6548 38.8866 89.8732C39.0119 89.9858 39.1982 90.0018 39.3252 89.9006C39.3926 89.8475 39.4377 89.7593 39.439 89.6708C39.4424 89.5903 39.4137 89.5182 39.3572 89.4698ZM37.4816 88.4838C37.5457 88.553 37.6098 88.6234 37.6743 88.6926C37.6262 88.7313 37.5781 88.7681 37.528 88.8051C37.5106 88.6989 37.4946 88.5914 37.4816 88.4838Z" fill="#8F7ECE"/>
<path id="Vector_131" opacity="0.58" d="M34.1711 100.584C34.1504 100.363 34.0585 100.151 33.9092 99.9902C33.6267 99.6866 33.1447 99.5824 32.7159 99.7414C32.4895 99.8249 32.2951 99.9792 32.1842 100.167C32.1167 100.279 32.1217 100.411 32.1956 100.506C32.1972 100.565 32.2179 100.626 32.255 100.681L33.5816 102.585C33.6394 102.662 33.7406 102.706 33.8548 102.696C33.8885 102.694 33.9222 102.686 33.9543 102.674C34.0121 102.715 34.0826 102.735 34.158 102.73C34.2208 102.725 34.2833 102.704 34.3394 102.669C34.8213 102.365 35.0909 101.941 35.0782 101.503C35.0675 101.045 34.7221 100.584 34.1711 100.584ZM33.105 100.159L33.1371 100.262C33.1548 100.262 33.1708 100.263 33.2142 100.268C33.2142 100.268 33.2239 100.268 33.2319 100.27C33.2606 100.279 33.288 100.287 33.3057 100.292C33.3091 100.295 33.3281 100.306 33.3331 100.31L33.3571 100.322C33.3652 100.329 33.3748 100.336 33.3829 100.344C33.3829 100.344 33.3892 100.347 33.3942 100.35C33.4136 100.371 33.4343 100.392 33.4634 100.429C33.465 100.43 33.465 100.432 33.4667 100.433C33.4684 100.435 33.4684 100.437 33.47 100.438L33.4861 100.467C33.4958 100.486 33.5054 100.506 33.5198 100.541C33.5198 100.544 33.5215 100.549 33.5245 100.552C33.5261 100.558 33.5278 100.566 33.5308 100.576C33.5355 100.603 33.5388 100.63 33.5405 100.658C33.5405 100.666 33.5405 100.674 33.5422 100.684C33.5422 100.685 33.5422 100.687 33.5422 100.687L33.5342 100.751C33.5308 100.764 33.5308 100.777 33.5295 100.785C33.5198 100.814 33.5071 100.839 33.4894 100.88C33.4734 100.899 33.459 100.918 33.446 100.939C33.3545 101.08 33.3882 101.257 33.5248 101.347C33.6614 101.44 33.8878 101.4 33.973 101.268C33.9794 101.258 33.9857 101.249 33.9937 101.239C34.0017 101.233 34.0131 101.222 34.0275 101.212L34.0722 101.191C34.0786 101.189 34.0852 101.189 34.0916 101.188C34.1059 101.184 34.122 101.181 34.143 101.178C34.159 101.179 34.1717 101.181 34.1881 101.179C34.1991 101.183 34.2121 101.184 34.2218 101.184C34.2395 101.191 34.2572 101.197 34.2796 101.205L34.307 101.221C34.3133 101.228 34.3197 101.229 34.3264 101.234C34.3314 101.239 34.3361 101.245 34.3407 101.252L34.3601 101.271C34.3681 101.277 34.3745 101.287 34.3808 101.297C34.3888 101.309 34.3938 101.322 34.4032 101.338C34.4129 101.36 34.4209 101.377 34.4242 101.39L34.4339 101.424C34.4386 101.448 34.4419 101.47 34.4419 101.47C34.4419 101.47 34.4466 101.52 34.4466 101.523C34.4466 101.544 34.4449 101.567 34.4433 101.586C34.4352 101.661 34.4095 101.733 34.3711 101.802C34.302 101.921 34.1961 102.03 34.0371 102.141C33.6277 101.554 33.2165 100.966 32.8071 100.378C32.8214 100.365 32.8391 100.352 32.8552 100.341C32.8585 100.339 32.8632 100.336 32.8679 100.333C32.8806 100.325 32.8952 100.318 32.9066 100.312C32.9353 100.3 32.9627 100.289 32.9918 100.28C33.0045 100.278 33.0175 100.273 33.0495 100.267L33.0479 100.259C33.0672 100.265 33.0846 100.263 33.112 100.26L33.105 100.159Z" fill="#8F7ECE"/>
</g>
<g id="Group_48" opacity="0.58">
<path id="Vector_132" opacity="0.58" d="M18.4203 99.7078C17.3539 97.4995 16.1593 94.834 14.7686 91.5643C15.3627 91.2784 16.0003 90.9748 16.6442 90.6682C17.5339 90.246 18.4364 89.8172 19.2637 89.4157C19.3889 89.3563 19.5352 89.3015 19.6908 89.2441C20.1243 89.0851 20.5725 88.9211 20.6013 88.5761C20.6029 88.5584 20.5979 88.539 20.5902 88.523C20.5275 88.4058 20.4216 88.3463 20.293 88.356C20.1758 88.364 20.0619 88.4268 19.959 88.4812C19.9156 88.5036 19.8772 88.5263 19.8418 88.539C18.8525 88.8954 18.0914 89.2264 17.5807 89.5203C17.1569 89.7661 16.6572 89.9955 16.1756 90.2173C15.4098 90.5673 14.6196 90.9304 14.0959 91.3719C14.0622 91.3993 14.0508 91.4427 14.0639 91.4811C14.6099 92.9713 15.347 94.5467 16.0584 96.0711C16.5257 97.073 17.0059 98.101 17.4331 99.1046C17.2901 98.9423 17.1442 98.7787 16.9996 98.618C16.8132 98.4123 16.6268 98.2035 16.4472 97.9948C16.3653 97.8999 16.2835 97.7988 16.2014 97.6946C15.827 97.2273 15.4015 96.6973 14.7575 96.7116C14.7111 96.7133 14.6644 96.7454 14.6547 96.7918C14.5455 97.2607 14.4362 97.932 14.7525 98.3735C14.7799 98.4136 14.8313 98.4266 14.8808 98.4123C15.2725 98.2774 15.2291 97.9674 15.1971 97.7426C15.1857 97.6575 15.173 97.5757 15.181 97.5049C15.6884 98.0299 16.1927 98.6434 16.6826 99.2376C17.0039 99.631 17.3379 100.037 17.6605 100.402C17.6976 100.444 17.736 100.487 17.7744 100.533C18.0105 100.816 18.3091 101.168 18.7346 101.148H18.738C18.7831 101.145 18.8231 101.116 18.8358 101.073C18.9611 100.675 18.7493 100.302 18.563 99.973C18.5119 99.8845 18.4634 99.7946 18.4203 99.7078Z" fill="#8F7ECE"/>
<path id="Vector_133" opacity="0.58" d="M18.0862 91.7713C18.0719 91.7266 18.0285 91.6975 17.9804 91.6975L17.937 91.7008C17.5145 91.7312 17.4727 92.0719 17.444 92.3224C17.4296 92.4476 17.4149 92.5665 17.3652 92.653C17.3348 92.6307 17.3024 92.6066 17.272 92.5822C17.0953 92.4506 16.8963 92.3013 16.6264 92.3221C16.5332 92.3284 16.437 92.3541 16.3375 92.4022C16.2861 92.4263 16.262 92.4857 16.2877 92.5338C16.437 92.8568 16.6845 92.9546 16.9029 93.0415C17.0345 93.0959 17.1614 93.1457 17.2643 93.2422C17.258 93.3708 17.2242 93.512 17.1872 93.6597C17.1053 93.9936 17.0152 94.371 17.2546 94.681C17.2773 94.7114 17.3141 94.7261 17.3511 94.7227C17.3655 94.721 17.3815 94.718 17.3962 94.71C17.7656 94.5123 17.7753 94.188 17.7816 93.9021C17.7867 93.7495 17.7913 93.6049 17.8461 93.4863C17.9005 93.5167 17.9553 93.5521 18.0114 93.5892C18.1784 93.6967 18.3665 93.8203 18.6153 93.8026C18.7131 93.7946 18.8113 93.7655 18.9122 93.7174C18.9556 93.6967 18.978 93.6533 18.97 93.6082C18.9088 93.2742 18.6036 93.1714 18.3324 93.0815C18.1831 93.0318 18.0418 92.9837 17.9373 92.9049C17.9567 92.8133 17.987 92.7265 18.0174 92.6367C18.1026 92.3782 18.1908 92.1103 18.0862 91.7713Z" fill="#8F7ECE"/>
<path id="Vector_134" opacity="0.58" d="M24.4945 94.1787C24.2663 94.1113 24.1538 94.1964 24.0576 94.2829C24.0222 94.3183 23.9855 94.3521 23.9324 94.3858C23.6642 94.2045 23.2661 93.6647 23.1358 93.2135C23.089 93.0562 23.0797 92.923 23.1068 92.8201C23.1869 92.8505 23.2945 92.8795 23.4037 92.8715C23.5369 92.8618 23.6415 92.7944 23.6976 92.6852C23.7153 92.6514 23.7119 92.613 23.6909 92.5823C23.4548 92.258 23.2059 92.2016 23.0406 92.2146C22.88 92.2259 22.729 92.3061 22.6101 92.4364C22.4592 92.6033 22.382 92.8348 22.4014 93.0579C22.4785 93.8915 23.3616 94.8517 23.8773 95.0124C23.8916 95.017 23.9063 95.0187 23.9207 95.017C23.932 95.0154 23.9447 95.0137 23.9544 95.009C24.2146 94.9062 24.5085 94.7876 24.5937 94.5705C24.6354 94.4663 24.624 94.3504 24.5582 94.2285C24.5459 94.2045 24.5235 94.1851 24.4945 94.1787Z" fill="#8F7ECE"/>
<path id="Vector_135" opacity="0.58" d="M20.4692 94.3938C20.4852 94.4355 20.5317 94.4629 20.5801 94.4595C20.5834 94.4579 20.5864 94.4579 20.5864 94.4579C21.0697 94.3807 21.7393 93.9826 21.9434 93.6516C21.9658 93.6146 21.9628 93.5681 21.9354 93.5361C21.8776 93.4703 21.7651 93.3981 21.558 93.4125C21.2143 93.4382 20.7534 93.7047 20.551 93.9956C20.4532 94.1369 20.4258 94.2749 20.4692 94.3938Z" fill="#8F7ECE"/>
<path id="Vector_136" opacity="0.58" d="M17.4962 96.1651C17.7644 96.1457 18.0904 95.9837 18.4053 95.8278C18.5306 95.7653 18.6542 95.7042 18.7714 95.6528C18.887 95.603 19.0122 95.5566 19.1391 95.5081C19.6481 95.3154 20.1735 95.1181 20.1444 94.7149C20.1411 94.6715 20.1073 94.6331 20.0609 94.6234C19.6979 94.5463 19.1825 94.7887 18.6492 95.0539C18.4695 95.1454 18.2861 95.2353 18.1064 95.3141C18.0293 95.3478 17.9378 95.3816 17.8463 95.4136C17.4912 95.5389 17.0881 95.6818 17.1188 96.0191C17.1222 96.0495 17.1382 96.0769 17.1669 96.0946C17.2554 96.1504 17.3647 96.1744 17.4962 96.1651Z" fill="#8F7ECE"/>
<path id="Vector_137" opacity="0.58" d="M22.0736 94.0632C21.7139 94.0889 21.1004 94.4389 20.9672 94.7619C20.9174 94.8791 20.9351 94.9883 21.0169 95.0685C21.041 95.0925 21.0714 95.1022 21.1038 95.1006C21.1101 95.1006 21.1181 95.0989 21.1231 95.0972C21.4925 95.004 22.3258 94.6587 22.3949 94.2299C22.4013 94.1961 22.3886 94.1624 22.3629 94.1383C22.2934 94.0806 22.1972 94.0535 22.0736 94.0632Z" fill="#8F7ECE"/>
<path id="Vector_138" opacity="0.58" d="M20.4184 97.5818C20.2881 97.503 20.1662 97.4308 20.0587 97.3233C20.041 97.1837 20.049 97.0327 20.0604 96.8738C20.0781 96.5575 20.0974 96.2282 19.8967 95.968C19.868 95.9309 19.8179 95.9102 19.7731 95.9326C19.3573 96.0722 19.3974 96.3952 19.4261 96.6296C19.4392 96.7245 19.4502 96.816 19.4392 96.8931C19.3587 96.848 19.2802 96.7759 19.2 96.7004C19.0441 96.5545 18.869 96.3871 18.6075 96.4065C18.5561 96.4099 18.5013 96.4209 18.4469 96.4402C18.3971 96.4563 18.3681 96.503 18.3764 96.5528C18.4392 96.9639 18.7732 97.1727 19.0684 97.3574C19.2177 97.4522 19.3607 97.5421 19.4682 97.6529C19.4889 97.7668 19.4859 97.8937 19.4826 98.0287C19.4779 98.3096 19.4712 98.6278 19.7043 98.8539C19.7267 98.8763 19.7574 98.8877 19.7895 98.8843C19.7959 98.8843 19.8022 98.8827 19.8089 98.8827C20.2234 98.7798 20.1703 98.4812 20.1365 98.2852C20.1222 98.208 20.1125 98.1472 20.1141 98.0975C20.2845 98.2598 20.4915 98.4508 20.7243 98.4331C20.8335 98.4251 20.9301 98.3753 21.0166 98.2822C21.0456 98.2518 21.052 98.2067 21.0343 98.17C20.8696 97.8517 20.6418 97.7134 20.4184 97.5818Z" fill="#8F7ECE"/>
</g>
</g>
<g id="Group_49">
<path id="Vector_139" fill-rule="evenodd" clip-rule="evenodd" d="M34.6577 124.9C33.8338 125.338 34.2997 126.167 34.4507 126.663C34.6561 127.342 35.0047 128.073 35.2101 128.64C35.6677 129.896 35.835 131.219 35.8511 132.489C35.8814 134.877 35.461 137.437 34.5822 139.889C32.893 144.613 28.8701 149.381 30.1436 154.415C30.8934 157.38 33.2239 159.708 35.7355 160.933C38.0433 162.059 40.4393 162.43 43.0795 162.244C45.6475 162.062 48.3374 161.568 50.8713 160.18C53.7025 158.632 56.0601 156.141 57.536 153.763C60.2773 149.343 60.8618 144.113 59.9193 138.995C59.4263 136.33 58.6345 133.684 56.9739 131.098C53.4874 125.673 48.0418 121.196 43.6239 118.355C38.912 115.325 34.3177 113.411 29.4309 111.073C26.2577 109.553 22.32 107.366 20.8745 103.165C20.5582 102.241 20.2319 100.955 20.4681 100.285C20.7877 99.3828 21.9646 98.2506 23.19 97.4266C24.9775 96.2223 27.0442 95.893 28.9409 95.8175C34.4654 95.6008 40.0218 96.8953 45.3937 96.9594C52.3282 97.0396 59.3362 96.5259 66.9066 90.5486C67.2823 90.253 67.9426 89.9704 67.8959 89.3232C67.4557 88.8977 66.8648 89.2524 66.4891 89.4564C65.9671 89.7423 65.426 90.1454 64.9795 90.4731C58.034 95.5286 51.6068 95.8482 45.0964 95.6812C39.7423 95.5446 34.2499 94.3196 28.6888 94.5971C26.0566 94.7271 23.1546 95.6716 20.8645 98.1961C21.8023 94.4832 26.6217 92.4406 29.6747 91.6841C33.1241 90.8264 36.5785 90.5135 39.76 90.3866C43.2191 90.247 46.3058 90.3672 49.7294 90.0686C51.2888 89.9337 53.0616 89.6849 54.8124 89.0777C56.8293 88.379 59.7537 86.9756 60.963 84.9343C61.1477 84.621 61.4753 84.1538 61.1991 83.77C58.3035 87.0912 54.8701 88.0771 51.7337 88.6666C48.5652 89.2591 45.392 88.9605 42.4065 89.0086C39.4003 89.055 36.2124 89.1048 33.0439 89.6461C29.8176 90.1952 26.4147 90.7526 23.2174 92.9606C20.8391 94.6035 19.6137 96.7266 19.1608 98.7419C18.6953 100.799 19.0243 102.996 20.102 105.109C22.633 110.083 27.3592 111.833 31.1669 113.613C38.7631 117.157 47.3338 121.027 54.2472 129.784C57.0577 133.345 58.1946 136.845 58.6682 140.337C59.1388 143.811 58.7888 147.191 57.6566 150.201C56.4312 153.462 53.8361 156.855 50.1279 158.901C46.7957 160.737 43.1246 161.241 39.9173 160.827C37.0587 160.462 32.6201 158.426 31.56 154.183C30.7007 150.74 32.6198 147.588 34.1407 144.504C36.32 140.082 38.0687 134.808 36.9575 129.837C36.678 128.583 36.3153 127.3 35.5782 125.951C35.3741 125.583 35.2182 124.963 34.6577 124.9Z" fill="#4D3D87"/>
<path id="Vector_140" fill-rule="evenodd" clip-rule="evenodd" d="M33.0765 126.101C33.494 126.89 34.4689 127.192 35.2591 126.776C36.0459 126.36 36.3479 125.383 35.9321 124.595L34.9989 122.827C34.5831 122.04 33.6065 121.738 32.818 122.154C32.0278 122.57 31.7292 123.546 32.1433 124.335L33.0765 126.101Z" fill="#4D3D87"/>
<g id="Group_50">
<path id="Vector_141" fill-rule="evenodd" clip-rule="evenodd" d="M65.1361 82.0296C63.7341 83.2339 62.3353 84.4399 60.8949 85.6349C60.4981 85.2719 60.0983 84.9299 59.7129 84.5251C61.2432 82.9611 64.025 79.7475 66.9413 78.503C68.1199 77.9987 69.8977 77.9059 70.3042 79.5968C70.6753 81.1515 68.4332 83.459 66.5993 82.9854C66.0162 82.8358 65.6595 82.4377 65.1361 82.0296Z" fill="#4D3D87"/>
<g id="Group_51">
<path id="Vector_142" fill-rule="evenodd" clip-rule="evenodd" d="M66.0621 81.3006C66.184 80.8831 67.4047 79.7235 67.8095 80.2261C68.0793 80.5601 67.5189 80.9826 67.212 81.2461C66.9775 81.4468 66.544 82.0186 66.1666 81.7665C65.9609 81.6315 66.027 81.4161 66.0621 81.3006Z" fill="white"/>
<path id="Vector_143" fill-rule="evenodd" clip-rule="evenodd" d="M69.5968 80.4428C69.6626 80.9037 69.0073 81.2731 68.7201 80.9792C68.365 80.6148 69.4762 79.6416 69.5968 80.4428Z" fill="white"/>
</g>
</g>
<g id="Group_52">
<path id="Vector_144" fill-rule="evenodd" clip-rule="evenodd" d="M70.1109 86.7284C68.5725 87.7497 67.0322 88.7711 65.4922 89.8328C65.7363 90.3147 65.9564 90.7917 66.2406 91.2716C68.1614 90.2229 72.0092 88.4164 73.9958 85.9462C74.7987 84.9456 75.3704 83.261 73.8528 82.4133C72.4588 81.6345 69.6292 83.1648 69.5892 85.0598C69.5745 85.6623 69.859 86.1135 70.1109 86.7284Z" fill="#4D3D87"/>
<g id="Group_53">
<path id="Vector_145" fill-rule="evenodd" clip-rule="evenodd" d="M71.0619 86.0363C71.4987 86.0316 72.9456 85.1689 72.5732 84.6439C72.3243 84.2939 71.7652 84.7194 71.4283 84.9428C71.1714 85.1145 70.5031 85.3763 70.6444 85.8085C70.7182 86.0426 70.9446 86.0363 71.0619 86.0363Z" fill="white"/>
<path id="Vector_146" fill-rule="evenodd" clip-rule="evenodd" d="M72.8449 82.8648C72.4211 82.6768 71.8877 83.2085 72.0918 83.5635C72.3456 84.0047 73.5867 83.1971 72.8449 82.8648Z" fill="white"/>
</g>
</g>
</g>
</g>
</g>
</g>
</g>
<defs>
<clipPath id="clip0_318_33739">
<rect width="171" height="171" fill="white"/>
</clipPath>
</defs>
</svg>
