<svg width="130" height="199" viewBox="0 0 130 199" fill="none" xmlns="http://www.w3.org/2000/svg">
<g id="boy">
<path id="Vector" d="M67.2127 199C101.889 199 130 193.556 130 186.84C130 180.125 101.889 174.68 67.2127 174.68C32.5365 174.68 4.42578 180.125 4.42578 186.84C4.42578 193.556 32.5365 199 67.2127 199Z" fill="#DEE1F3"/>
<path id="Vector_2" d="M108.116 152.673C96.5115 150.955 84.7314 150.77 73.0787 152.122C54.1685 154.394 74.8305 177.753 74.8305 177.753L108.116 152.673Z" fill="#12296B"/>
<path id="Vector_3" d="M64.3602 104.724C59.678 104.745 55.0587 105.805 50.8358 107.827C44.2087 111.139 27.8813 126.422 26.0994 140.333C24.3175 154.244 47.5523 156.526 47.5523 156.526L51.8569 152.222C51.8569 152.222 39.3636 148.489 40.1244 138.741C40.8852 128.994 59.0045 121.097 59.0045 121.097L64.3602 104.724Z" fill="#FF6551"/>
<path id="Vector_4" d="M68.0739 101.752C61.8252 102.205 55.9449 104.878 51.4962 109.288C44.3486 116.594 44.6089 142.585 45.8802 156.876C45.8802 156.876 60.8962 170.887 85.3423 164.012C85.3423 164.012 89.757 128.123 91.7992 122.228C93.8413 116.333 91.679 109.358 91.679 109.358C91.679 109.358 88.2254 99.4098 68.0739 101.752Z" fill="#FFC652"/>
<path id="Vector_5" d="M86.293 104.014C83.6302 106.786 82.8593 109.858 81.8382 113.391C80.5554 117.155 80.0082 121.13 80.2265 125.101C80.647 131.636 80.1164 137.901 74.4003 142.114C69.3049 145.857 59.9249 142.615 55.8005 138.632C53.3779 136.3 52.0365 133.087 50.9053 129.925C49.7669 126.838 49.0922 123.601 48.9031 120.317C48.773 117.835 48.9932 112.591 50.5048 110.509C44.3283 119.066 44.6186 143.315 45.8298 156.946C45.8298 156.946 60.8459 170.957 85.2919 164.082C85.2919 164.082 89.7066 128.193 91.7488 122.298C93.791 116.404 91.6287 109.428 91.6287 109.428C91.6287 109.428 90.6176 106.336 86.293 104.014Z" fill="#F7A845"/>
<path id="Vector_6" d="M32.875 154.594C32.875 154.594 24.9566 164.432 30.3123 171.608C35.668 178.784 53.2368 185.369 62.1863 183.738C71.1358 182.106 87.213 165.093 87.213 165.093L85.9416 153.353L32.875 154.594Z" fill="#12296B"/>
<path id="Vector_7" d="M43.4785 76.061C42.988 76.5815 42.4774 77.0619 41.9369 77.6123C40.4052 79.0535 38.6634 80.2444 36.6212 80.2644C35.0757 80.242 33.5604 79.8326 32.2139 79.0739C30.8674 78.3151 29.7325 77.2311 28.913 75.9209C28.2287 74.5253 27.9911 72.9528 28.2323 71.4173C28.3313 70.6976 28.492 69.9878 28.7128 69.2956C29.0128 68.2857 29.4834 67.3346 30.1042 66.4833C32.8171 62.8905 37.1117 63.7912 40.8057 64.9121L43.4785 76.061Z" fill="#FFBF94"/>
<g id="Vector_8" style="mix-blend-mode:multiply" opacity="0.31">
<path d="M37.3905 72.3682C35.3083 71.3673 34.3272 69.2556 33.8968 67.0739C33.8861 67.0247 33.859 66.9807 33.8198 66.9492C33.7806 66.9176 33.7319 66.9004 33.6816 66.9004C33.6313 66.9004 33.5825 66.9176 33.5433 66.9492C33.5042 66.9807 33.477 67.0247 33.4663 67.0739C33.0058 69.4558 34.4674 71.6676 36.3794 72.9486C35.8263 73.5381 35.3208 74.1706 34.8678 74.8401C34.2957 75.5288 33.9189 76.3583 33.7767 77.2421C33.7578 77.3733 33.7823 77.5071 33.8462 77.6232C33.9102 77.7393 34.0102 77.8315 34.1312 77.8857C34.2522 77.94 34.3875 77.9534 34.5168 77.9239C34.6461 77.8945 34.7623 77.8238 34.8478 77.7225C35.3118 77.0417 35.6885 76.3053 35.969 75.5307C36.4079 74.6799 36.9455 73.8838 37.5707 73.1588C37.619 73.0978 37.653 73.0267 37.6701 72.9508C37.6873 72.875 37.6872 72.7962 37.67 72.7203C37.6527 72.6445 37.6186 72.5735 37.5702 72.5125C37.5219 72.4516 37.4605 72.4022 37.3905 72.3682Z" fill="#DD664A"/>
</g>
<g id="Vector_9" style="mix-blend-mode:multiply" opacity="0.12">
<path d="M41.9369 77.6223C40.4052 79.0635 38.6634 80.2545 36.6212 80.2745C35.0757 80.252 33.5604 79.8427 32.2139 79.084C30.8674 78.3252 29.7325 77.2412 28.913 75.931C28.2287 74.5353 27.9911 72.9628 28.2323 71.4274C28.3313 70.7077 28.492 69.9978 28.7128 69.3057C29.0331 70.997 31.0352 77.6724 41.9369 77.6223Z" fill="#DD664A"/>
</g>
<path id="Vector_10" d="M78.9252 102.182C79.4257 105.535 76.4626 107.657 73.4394 108.457C70.9244 109.072 68.2713 108.744 65.9814 107.536C63.6289 106.245 61.3665 103.173 64.4698 101.281C65.5818 100.692 66.8156 100.37 68.0736 100.341C71.1393 100.09 74.2237 100.201 77.2634 100.671C77.7484 100.687 78.2109 100.879 78.5648 101.211C78.7681 101.498 78.8923 101.833 78.9252 102.182Z" fill="#FF6551"/>
<path id="Vector_11" d="M77.8441 93.8454V100.641C77.8441 100.641 77.4336 104.844 72.3382 106.075C67.2428 107.306 64.9503 103.783 64.9503 103.783L64.8002 102.983L64.0694 100.08L63.0683 96.4575C59.985 82.7065 74.6607 94.9563 74.6607 94.9563L75.6617 94.4559L75.892 95.1465L77.8441 93.8454Z" fill="#EA9573"/>
<g id="Vector_12" style="mix-blend-mode:multiply" opacity="0.31">
<path d="M77.835 97.2882V100.381C76.3447 101.95 74.4441 103.07 72.3491 103.613C69.816 104.021 67.2217 103.804 64.7911 102.983L64.0703 100.08L74.6816 94.9563L75.953 95.1465L77.835 97.2882Z" fill="#DD664A"/>
</g>
<path id="Vector_13" d="M99.2982 75.5308L99.2281 75.9511C98.8558 78.2365 98.1083 80.4447 97.0158 82.4864C95.4741 85.1585 93.0716 87.2302 90.7191 89.2418C86.6987 92.862 82.4084 96.1709 77.8854 99.1398C75.4628 100.641 72.8 101.982 69.9469 102.072C67.6254 102.019 65.338 101.502 63.2198 100.551C56.6956 98.0098 50.5225 94.6466 44.8502 90.5429C42.9284 89.3063 41.2714 87.7007 39.975 85.8191C38.8515 83.7234 38.1476 81.4287 37.9028 79.0636C37.8027 78.4632 37.7126 77.8727 37.6225 77.2822C35.8548 65.7526 35.2912 54.0704 35.9407 42.4242L36.0708 41.4234C35.0397 36.2692 39.1941 31.4954 43.5688 28.523C48.582 25.1528 54.2135 22.809 60.138 21.6272C66.0625 20.4454 72.1625 20.4489 78.0856 21.6375C83.2511 22.6983 88.3465 24.76 92.1806 28.3829C96.4752 32.4462 98.8578 38.1908 99.8889 43.9954C100.92 49.8001 100.69 55.7649 100.459 61.6697C100.399 66.3116 100.011 70.9434 99.2982 75.5308Z" fill="#FFBF94"/>
<g id="Vector_14" style="mix-blend-mode:multiply" opacity="0.09">
<path d="M99.2268 75.9511C98.8545 78.2365 98.1069 80.4446 97.0144 82.4864C95.4728 85.1585 93.0702 87.2302 90.7177 89.2418C86.6973 92.862 82.407 96.1708 77.884 99.1397C75.4614 100.641 72.7986 101.982 69.9456 102.072C67.624 102.019 65.3366 101.502 63.2184 100.551C56.6942 98.0098 50.5212 94.6466 44.8488 90.5428C42.9271 89.3063 41.27 87.7006 39.9736 85.819C38.8501 83.7233 38.1462 81.4287 37.9014 79.0636C37.8013 78.4631 37.7112 77.8726 37.6211 77.2822C37.9314 77.4623 39.0526 76.9819 39.4631 77.6325C44.2381 85.2185 58.6535 95.2866 70.2459 95.5368C81.8382 95.787 97.6851 75.5208 97.6851 75.5208L99.2268 75.9511Z" fill="#DD664A"/>
</g>
<g id="Vector_15" style="mix-blend-mode:multiply" opacity="0.31">
<path d="M38.4127 60.0484L38.6529 62.9407C38.6529 62.9407 45.1098 52.5824 44.0487 44.3258C44.0487 44.3258 50.2153 50.1705 61.6975 51.0412C73.1797 51.9119 79.086 47.5384 79.086 47.5384C79.086 47.5384 75.5122 45.3566 74.2609 43.0347C74.2609 43.0347 84.3416 45.6268 89.7174 41.3234C89.7174 41.3234 88.7163 47.4583 94.1421 53.9835C99.5679 60.5088 100.219 63.0508 100.219 63.0508L99.7481 43.0347L89.9576 27.8125L71.2176 28.8133L45.8506 34.9382L39.664 35.2385C39.664 35.2385 37.5217 41.5135 37.4817 42.7945C37.4416 44.0756 38.4127 60.0484 38.4127 60.0484Z" fill="#DD664A"/>
</g>
<path id="Vector_16" d="M36.5 67.3942C35.5256 65.1657 34.5779 62.9239 33.6569 60.6688L33.3566 59.9282C30.864 53.6732 28.7317 47.0378 29.5325 40.3825C29.9147 37.3058 31.0342 34.3669 32.796 31.8156C33.3343 31.0241 33.9442 30.2838 34.618 29.6038C36.622 27.4502 39.2968 26.0391 42.2061 25.6006L42.2661 25.8808C40.4642 30.2844 40.5343 35.0182 40.8646 39.812C41.2685 43.6146 41.449 47.4375 41.4052 51.2612C41.1427 56.9639 39.4563 62.5101 36.5 67.3942Z" fill="#661E08"/>
<path id="Vector_17" d="M105.494 75.761C102.946 76.578 100.199 76.5252 97.6852 75.6109C97.0619 75.3936 96.4533 75.1362 95.8633 74.8402L98.406 65.5928C99.7875 62.5904 103.191 60.3786 106.415 61.0692C108.025 61.454 109.425 62.4476 110.319 63.8414C111.25 65.2278 111.678 66.8916 111.53 68.5552C111.285 70.1955 110.592 71.7362 109.526 73.0077C108.461 74.2791 107.066 75.2319 105.494 75.761Z" fill="#FFBF94"/>
<path id="Vector_18" d="M104.693 55.5747C103.665 58.6923 102.217 61.6553 100.389 64.3818C100.068 60.1684 97.4755 56.5455 95.6336 52.7425C95.0732 51.6088 94.5818 50.4424 94.162 49.2496C92.7104 45.1602 92.0315 40.8368 92.1599 36.4994L99.9882 29.2936L100.659 28.6831L101.149 28.8733C103.702 29.9942 104.994 33.0066 105.644 35.7688C107.145 42.3335 106.816 49.184 104.693 55.5747Z" fill="#661E08"/>
<g id="Vector_19" style="mix-blend-mode:multiply" opacity="0.32">
<path d="M104.693 55.5748C105.324 49.0095 105.694 38.5611 100.879 40.2324C96.064 41.9038 94.6625 46.5175 94.162 49.2397C92.7104 45.1502 92.0315 40.8268 92.1599 36.4894L99.9882 29.2836L101.149 28.8633C103.702 29.9842 104.994 32.9966 105.644 35.7588C107.147 42.3267 106.818 49.1809 104.693 55.5748Z" fill="#661E08"/>
</g>
<g id="Vector_20" style="mix-blend-mode:multiply" opacity="0.31">
<path d="M103.111 68.8053C105.113 67.5843 106.835 65.3625 106.525 62.9606C106.525 62.8305 106.305 62.7805 106.255 62.9606C105.374 65.2124 104.403 67.214 102.09 68.2949C102.012 68.3282 101.943 68.3809 101.891 68.4481C101.838 68.5153 101.804 68.5948 101.791 68.679C101.778 68.7632 101.787 68.8493 101.816 68.9292C101.846 69.0091 101.895 69.0801 101.96 69.1356C102.644 69.7162 103.177 70.4547 103.512 71.2873C103.659 71.9777 103.93 72.6356 104.313 73.2289C104.335 73.2561 104.363 73.2781 104.395 73.2931C104.427 73.3082 104.462 73.316 104.498 73.316C104.533 73.316 104.568 73.3082 104.6 73.2931C104.632 73.2781 104.66 73.2561 104.683 73.2289C105.564 71.8177 104.232 69.9162 103.111 68.8053Z" fill="#DD664A"/>
</g>
<path id="Vector_21" d="M104.552 32.2359C100.888 35.0982 96.7038 37.5102 92.0989 38.1407C87.494 38.7712 82.4086 37.31 79.5656 33.637C80.1846 36.7941 82.027 39.5786 84.691 41.3833C81.8759 42.4023 78.8164 42.5362 75.923 41.767C73.0296 40.9978 70.4407 39.3622 68.5038 37.0798C68.8688 39.1811 69.684 41.1786 70.8935 42.9354C72.1031 44.6922 73.6783 46.1668 75.5112 47.258C71.6819 48.7093 67.5798 49.2994 63.4966 48.9863C59.4133 48.6732 55.4492 47.4646 51.886 45.4465C48.0019 43.2047 44.2779 39.8921 39.7931 40.0122L37.9512 36.6495L34.4975 30.3644C34.3967 29.1121 34.3967 27.8537 34.4975 26.6014C35.7989 12.2799 50.4145 6.86552 60.4151 6.58529C78.7947 6.10491 84.5208 10.7787 90.4472 9.38755C92.2421 8.98366 93.9975 8.42099 95.6927 7.7062C99.7084 6.08772 103.219 3.42752 105.864 0C106.244 4.5677 105.209 9.14185 102.899 13.1008C100.588 17.0598 97.1147 20.2116 92.9498 22.1278C97.614 23.2997 102.533 22.9239 106.965 21.0569C109.901 19.8585 112.539 18.0308 114.693 15.7026C114.563 22.388 109.828 28.1326 104.552 32.2359Z" fill="#661E08"/>
<path id="Vector_22" d="M36.5008 67.3941C35.5265 65.1657 34.5788 62.9239 33.6578 60.6687L33.3575 59.9281C41.9066 52.6323 32.7969 31.8155 32.7969 31.8155C33.3352 31.0241 33.9451 30.2837 34.6188 29.6038C37.2671 32.6411 39.3794 36.1066 40.8655 39.852C41.2693 43.6546 41.4498 47.4775 41.4061 51.3012C41.1369 56.9902 39.4508 62.5219 36.5008 67.3941Z" fill="#551107"/>
<path id="Vector_23" d="M104.553 32.2359C100.889 35.0982 96.7045 37.5102 92.0996 38.1407C87.4947 38.7712 82.4093 37.31 79.5662 33.6371C80.1853 36.7942 82.0277 39.5786 84.6917 41.3833C81.8766 42.4024 78.8171 42.5363 75.9237 41.767C73.0302 40.9978 70.4414 39.3622 68.5044 37.0798C68.8695 39.1811 69.6847 41.1786 70.8942 42.9355C72.1038 44.6923 73.679 46.1668 75.5119 47.258C71.6826 48.7093 67.5805 49.2994 63.4973 48.9863C59.414 48.6732 55.4499 47.4647 51.8867 45.4466C48.3229 43.4449 44.8793 40.4425 40.875 40.0522C40.875 39.9822 40.875 39.9221 40.875 39.8521C40.1642 38.0649 39.3105 36.3379 38.3223 34.6879C44.6129 36.6054 50.6936 39.1538 56.4716 42.294C64.7504 47.0178 66.7025 39.9021 60.7662 32.6463C54.8299 25.3904 69.2452 34.1775 73.7801 34.748C78.3149 35.3184 75.9123 27.5021 72.779 25.0602C69.6457 22.6182 86.6538 36.1691 97.9258 30.3945C101.973 28.4922 105.18 25.1689 106.935 21.0569C109.872 19.8585 112.51 18.0308 114.664 15.7026C114.564 22.388 109.829 28.1326 104.553 32.2359Z" fill="#551107"/>
<g id="Vector_24" style="mix-blend-mode:screen" opacity="0.28">
<path d="M95.6928 7.70624C95.6227 7.89639 95.5527 8.08654 95.4726 8.26669C94.4356 10.6982 92.7973 12.8262 90.7118 14.4508C88.6262 16.0754 86.1617 17.1433 83.5499 17.5542C79.4455 18.1646 75.251 17.0938 71.1466 17.5542C70.1428 17.6019 69.1765 17.9506 68.3737 18.555C67.2325 19.5558 67.0423 21.4073 65.861 22.398C65.2596 22.8051 64.5641 23.0519 63.8406 23.1149C63.1171 23.178 62.3894 23.0552 61.7266 22.7583C60.3551 22.2679 59.1338 21.4473 57.7223 20.9969C57.0494 20.7194 56.3136 20.6306 55.5939 20.7399C54.8743 20.8493 54.1981 21.1526 53.638 21.6174C52.0162 23.2687 53.1074 26.1411 52.2465 28.2928C51.5057 30.1443 49.4335 31.1251 47.4514 31.4353C42.6863 32.2159 37.8712 30.0442 34.4375 26.5214C35.7389 12.1998 50.3545 6.7855 60.3551 6.50527C78.7347 6.02488 84.4608 10.6986 90.3872 9.30752C92.1999 8.93303 93.9756 8.39713 95.6928 7.70624Z" fill="#661E08"/>
</g>
<g id="Vector_25" style="mix-blend-mode:multiply" opacity="0.12">
<path d="M105.494 75.7609C102.946 76.5779 100.2 76.5251 97.6855 75.6108C109.068 74.61 110.339 63.8413 110.339 63.8413C111.271 65.2277 111.698 66.8915 111.55 68.5551C111.304 70.1977 110.607 71.7401 109.538 73.0118C108.47 74.2834 107.07 75.2349 105.494 75.7609Z" fill="#DD664A"/>
</g>
<path id="Vector_26" d="M49.4438 54.3838C49.3641 54.2109 49.2397 54.0623 49.0834 53.9535C48.8891 53.8503 48.6728 53.7953 48.4528 53.7933C47.0813 53.7333 45.6698 54.654 44.5186 55.3045C43.0647 56.0651 41.8176 57.1676 40.8847 58.5171C40.3541 59.3678 39.6934 60.909 40.9648 61.4595C42.3963 62.05 44.0481 60.7889 45.1492 60.0484C46.6608 58.9475 50.0445 57.0459 49.5639 54.7941C49.5368 54.6539 49.4966 54.5165 49.4438 54.3838Z" fill="#661E08"/>
<path id="Vector_27" d="M88.3156 56.3953C87.6248 54.864 85.3824 53.9933 83.8908 53.603C81.6294 52.9004 79.1855 53.0829 77.0536 54.1134C76.7624 54.2443 76.5179 54.4607 76.3528 54.7339C76.2707 54.9398 76.2487 55.1649 76.2895 55.3828C76.3302 55.6007 76.432 55.8026 76.5831 55.9649C76.8918 56.2818 77.2635 56.5307 77.6742 56.6955C79.0097 57.284 80.3845 57.7789 81.7886 58.1767C83.0778 58.6335 84.4268 58.8998 85.7929 58.9673C87.2144 58.9773 89.0964 58.0466 88.3156 56.3953Z" fill="#661E08"/>
<path id="Vector_28" d="M73.5987 88.2209C72.9979 89.2585 72.1679 90.145 71.172 90.8128C70.1761 91.4806 69.0407 91.912 67.8526 92.074C66.6158 92.2942 65.3456 92.237 64.1337 91.9064C62.9218 91.5758 61.7986 90.9802 60.8451 90.1625C59.4079 88.9156 58.2338 87.3947 57.3914 85.6889C57.1043 85.1663 56.8534 84.6246 56.6406 84.0676C56.9009 84.0676 68.263 85.849 75.3005 80.905C75.3338 81.7812 75.2903 82.6586 75.1704 83.5271C74.9602 85.1798 74.4262 86.7748 73.5987 88.2209Z" fill="#AA2626"/>
<path id="Vector_29" d="M75.1704 83.4871C72.809 85.3483 69.9781 86.5191 66.9917 86.8698C63.7369 87.2066 60.448 86.8029 57.3714 85.6889C57.0911 85.1657 56.8469 84.624 56.6406 84.0676C56.9009 84.0676 68.263 85.849 75.3005 80.905C75.3315 81.7679 75.2879 82.6318 75.1704 83.4871Z" fill="white"/>
<path id="Vector_30" d="M73.5993 88.221C72.9985 89.2585 72.1685 90.145 71.1726 90.8128C70.1767 91.4806 69.0413 91.912 67.8532 92.0741C66.6164 92.2943 65.3462 92.2371 64.1343 91.9065C62.9224 91.5759 61.7992 90.9802 60.8457 90.1625C61.7767 89.6343 62.8071 89.3047 63.8719 89.1944C64.9367 89.0842 66.0128 89.1957 67.0323 89.522C67.0323 89.522 67.9533 87.5905 73.5993 88.221Z" fill="#FF6551"/>
<path id="Vector_31" d="M63.6797 94.4258C64.3179 95.035 65.0921 95.4835 65.9381 95.7341C66.7842 95.9847 67.6777 96.0303 68.5449 95.867C69.4659 95.6768 71.6382 94.716 71.3779 93.4951C71.3729 93.4597 71.3546 93.4275 71.3267 93.4052C71.2988 93.3829 71.2634 93.3721 71.2278 93.375C70.7573 93.4851 70.6371 93.7853 70.2267 94.1056C69.6496 94.5794 68.96 94.8965 68.2246 95.0263C66.7024 95.2412 65.1545 94.8847 63.8799 94.0255C63.6196 93.8554 63.3894 94.2757 63.5996 94.4658L63.6797 94.4258Z" fill="#DD664A"/>
<g id="Vector_32" style="mix-blend-mode:multiply" opacity="0.12">
<path d="M69.5459 73.3789C69.255 72.9173 68.8703 72.5219 68.4167 72.2185C67.9632 71.915 67.4509 71.7103 66.9131 71.6175C65.8357 71.4336 64.7299 71.5126 63.6896 71.8477C62.2581 72.268 60.8566 73.0086 60.4161 74.5399C60.304 74.864 60.304 75.2165 60.4161 75.5407C60.4857 75.762 60.6379 75.9479 60.8412 76.0598C61.0445 76.1716 61.2831 76.2008 61.5073 76.1411C61.7257 76.0383 61.9253 75.8996 62.0979 75.7308C63.1142 75.0268 64.3552 74.7238 65.5816 74.8801C66.7985 75.0378 68.033 74.9939 69.2355 74.75C69.3433 74.7219 69.445 74.6744 69.5359 74.6099C69.8762 74.3097 69.7661 73.7592 69.5459 73.3789Z" fill="#DD664A"/>
</g>
<path id="Vector_33" d="M69.2752 76.3714C68.7246 75.1004 66.0918 75.5107 65.0006 75.7008C64.233 75.7604 63.4865 75.98 62.8089 76.3454C62.1313 76.7108 61.5378 77.214 61.0664 77.8226C61.0664 77.8226 61.0664 77.9527 61.1565 77.9426C62.568 77.7025 63.8494 77.0319 65.3009 76.8718C66.0981 76.7899 66.9025 76.8135 67.6935 76.9418C68.2841 77.0519 68.6145 77.2321 69.115 76.8317C69.19 76.7846 69.2467 76.7133 69.2758 76.6296C69.3049 76.546 69.3047 76.4549 69.2752 76.3714Z" fill="#DD664A"/>
<path id="Vector_34" d="M51.0798 77.6192C54.5666 76.8458 56.766 73.3929 55.9924 69.9071C55.2187 66.4212 51.765 64.2224 48.2782 64.9958C44.7914 65.7692 42.592 69.2221 43.3656 72.7079C44.1393 76.1938 47.593 78.3927 51.0798 77.6192Z" fill="white"/>
<path id="Vector_35" d="M50.1953 77.4844C52.8671 76.8918 54.5524 74.246 53.9596 71.575C53.3668 68.9039 50.7203 67.219 48.0486 67.8117C45.3768 68.4043 43.6915 71.0501 44.2843 73.7211C44.8771 76.3922 47.5236 78.0771 50.1953 77.4844Z" fill="#191818"/>
<path id="Vector_36" d="M47.5018 72.9688C48.2482 72.9688 48.8533 72.3639 48.8533 71.6177C48.8533 70.8715 48.2482 70.2666 47.5018 70.2666C46.7555 70.2666 46.1504 70.8715 46.1504 71.6177C46.1504 72.3639 46.7555 72.9688 47.5018 72.9688Z" fill="white"/>
<path id="Vector_37" d="M81.7775 74.2528C85.2697 73.4782 87.4725 70.02 86.6977 66.5287C85.9228 63.0375 82.4637 60.8352 78.9716 61.6099C75.4794 62.3845 73.2766 65.8427 74.0514 69.3339C74.8262 72.8252 78.2853 75.0274 81.7775 74.2528Z" fill="white"/>
<path id="Vector_38" d="M84.5543 69.0906C84.5924 66.2941 82.3556 63.9962 79.5583 63.9581C76.761 63.92 74.4625 66.1562 74.4244 68.9527C74.3863 71.7493 76.6231 74.0472 79.4204 74.0853C82.2177 74.1234 84.5162 71.8872 84.5543 69.0906Z" fill="#191818"/>
<path id="Vector_39" d="M82.0878 67.4243C82.1503 67.7065 82.1277 68.0009 82.0228 68.2702C81.9179 68.5396 81.7355 68.7718 81.4986 68.9375C81.2617 69.1032 80.981 69.1949 80.6919 69.2011C80.4029 69.2072 80.1185 69.1275 79.8747 68.9721C79.631 68.8166 79.4388 68.5924 79.3226 68.3278C79.2063 68.0631 79.1712 67.7699 79.2216 67.4853C79.2721 67.2007 79.4058 66.9374 79.6059 66.7288C79.8061 66.5202 80.0636 66.3756 80.3459 66.3134C80.7242 66.2299 81.1202 66.3001 81.4468 66.5084C81.7734 66.7167 82.004 67.0461 82.0878 67.4243Z" fill="white"/>
<path id="Vector_40" d="M62.1689 178.914C62.1689 178.914 50.2762 182.917 45.5411 183.698C40.8061 184.478 34.0389 187.771 37.2823 191.154C40.5258 194.536 44.46 195.737 50.3863 194.046C56.3126 192.355 66.7838 183.658 66.7838 183.658L62.1689 178.914Z" fill="#FF6551"/>
<path id="Vector_41" d="M62.1672 178.914C62.1672 178.914 55.9405 181.026 50.705 182.477C50.2645 182.597 49.5537 185.539 49.3735 186.02C49.0997 186.981 48.6101 187.868 47.942 188.612C47.1494 189.434 46.1784 190.063 45.1039 190.45C44.0294 190.837 42.8803 190.971 41.7454 190.843C40.7291 190.668 39.7881 190.195 39.0425 189.482C38.7622 189.192 37.3707 187.271 37.8512 186.86C36.3697 188.121 35.7991 189.612 37.2506 191.114C40.4841 194.466 44.4283 195.697 50.3546 194.006C56.2809 192.315 66.7521 183.618 66.7521 183.618L62.1672 178.914Z" fill="#E1574C"/>
<path id="Vector_42" d="M58.3438 178.854C58.3438 178.854 85.2625 159.268 99.868 154.024C114.474 148.78 117.577 159.268 113.743 166.934C109.909 174.6 95.3132 179.634 90.0976 180.825C84.882 182.016 67.3634 187.3 67.3634 187.3C67.3634 187.3 60.8364 186.75 58.3438 178.854Z" fill="#243976"/>
<path id="Vector_43" d="M113.002 154.814C117.126 177.743 79.6966 174.941 60.5762 183.217C62.2053 185.403 64.6219 186.867 67.3134 187.301C67.3134 187.301 84.782 182.026 90.0476 180.825C95.3132 179.624 109.919 174.61 113.743 166.934C115.845 162.721 115.855 157.657 113.002 154.814Z" fill="#12296B"/>
<path id="Vector_44" d="M60.3755 178.914C61.0963 179.394 69.9457 180.595 78.0844 182.987C86.2231 185.379 87.4144 187.991 85.7426 190.643C84.8162 192.216 83.4834 193.511 81.8841 194.391C80.2847 195.272 78.4778 195.706 76.6529 195.647C72.3383 195.407 60.4956 189.422 57.3223 185.839L60.3755 178.914Z" fill="#FF6551"/>
<path id="Vector_45" d="M80.8173 183.888C82.3389 186.75 82.7093 189.763 79.0955 190.974C70.9668 193.405 64.1596 188.592 58.1331 183.968L57.3223 185.819C60.4956 189.402 72.3383 195.387 76.6529 195.627C78.4778 195.686 80.2847 195.252 81.8841 194.371C83.4834 193.491 84.8162 192.196 85.7426 190.623C87.2041 188.341 86.4734 186.03 80.8173 183.888Z" fill="#E1574C"/>
<path id="Vector_46" d="M19.9329 152.603C19.9329 152.603 12.515 154.504 11.0735 158.467C9.63192 162.431 12.0745 167.935 18.9719 173.67C25.8692 179.404 53.0082 188.301 59.1747 189.472C60.9394 188.12 62.2978 186.309 63.1012 184.237C63.9046 182.164 64.122 179.911 63.7296 177.723C63.7296 177.723 47.212 167.194 39.5538 161.71C31.8957 156.226 25.3186 151.902 19.9329 152.603Z" fill="#243976"/>
<path id="Vector_47" d="M33.0352 169.957C38.9114 169.116 44.0469 168.295 49.723 168.635C45.969 166.143 42.215 163.631 39.5421 161.69C31.8839 156.185 25.3069 151.902 19.9212 152.603C19.9212 152.603 12.5033 154.504 11.0617 158.467C9.6202 162.43 12.0628 167.935 18.9602 173.67C25.8575 179.404 52.9965 188.301 59.163 189.472C60.5909 188.376 61.7542 186.974 62.5668 185.368C63.3795 183.762 63.8208 181.994 63.858 180.195C53.2968 183.297 36.659 179.885 33.0352 169.957Z" fill="#12296B"/>
<path id="Vector_48" d="M87.0032 153.353H26.9392L16.418 163.241L73.8292 165.683L87.0032 153.353Z" fill="#49A4F7"/>
<path id="Vector_49" d="M64.7202 151.242C63.9781 151.646 63.3028 152.163 62.718 152.773C62.5987 152.878 62.5236 153.025 62.5078 153.183C62.5078 153.583 63.0784 153.674 63.5089 153.613L66.6622 153.123C65.932 153.238 65.2343 153.506 64.6149 153.91C63.9956 154.314 63.4685 154.843 63.0684 155.465C63.8374 155.696 64.65 155.744 65.4409 155.605C64.973 155.976 64.4777 156.31 63.9594 156.606C68.334 159.548 77.1835 156.306 81.0376 153.603C82.0792 152.99 82.8807 152.041 83.31 150.911C84.7716 145.747 74.0101 147.909 71.7977 148.529C69.3459 149.17 66.9723 150.08 64.7202 151.242Z" fill="#FFBF94"/>
<path id="Vector_50" d="M82.2287 106.996C82.2287 106.996 78.6549 110.999 82.2287 119.526C85.8025 128.053 88.7356 129.614 88.7356 135.539C88.7356 141.464 77.834 146.818 77.834 146.818C77.834 146.818 82.1286 151.152 79.6359 154.544C79.6359 154.544 94.6519 152.843 99.5772 142.415C106.755 127.402 91.929 107.326 91.929 107.326C91.929 107.326 87.0939 101.221 82.2287 106.996Z" fill="#FF6551"/>
<path id="Vector_51" d="M82.2287 106.996C82.0309 107.246 81.8567 107.514 81.7082 107.797C83.7103 107.416 86.7135 107.727 89.7167 111.26C94.9623 117.445 99.8275 131.216 95.8933 138.992C92.6999 145.307 83.5301 149.45 80.2166 150.771C80.4364 151.406 80.5011 152.085 80.4053 152.75C80.3095 153.415 80.0561 154.047 79.666 154.594C79.666 154.594 94.682 152.893 99.6073 142.465C106.785 127.453 91.9591 107.376 91.9591 107.376C91.9591 107.376 87.0939 101.222 82.2287 106.996Z" fill="#E1574C"/>
<path id="Vector_52" d="M0.00124337 124.41L13.0852 167.245C13.3387 168.27 13.9295 169.181 14.7627 169.831C15.596 170.48 16.6234 170.831 17.6801 170.827L71.8679 170.427L87.2443 159.949L86.974 153.353L73.1793 163.241L64.6402 120.907C64.4202 119.829 63.8289 118.862 62.9692 118.174C62.1095 117.486 61.0359 117.122 59.9352 117.144L5.87751 118.335C2.83426 118.405 -0.0688313 122.298 0.00124337 124.41Z" fill="#3E8CE1"/>
<path id="Vector_53" d="M0.141789 126.001L9.55182 168.035C9.79846 169.062 10.386 169.976 11.2187 170.627C12.0513 171.277 13.0799 171.627 14.1367 171.618L68.9652 171.248C69.347 171.244 69.7233 171.156 70.0667 170.989C70.4102 170.822 70.7122 170.581 70.9509 170.283C71.1895 169.985 71.3588 169.638 71.4465 169.266C71.5342 168.895 71.5381 168.508 71.4578 168.135L62.1579 122.809C61.9379 121.73 61.3466 120.763 60.487 120.075C59.6273 119.388 58.5536 119.023 57.4529 119.046L4.58653 120.207C3.88579 120.222 3.19755 120.395 2.57252 120.712C1.94749 121.03 1.4016 121.483 0.975076 122.039C0.548554 122.595 0.252268 123.24 0.108052 123.925C-0.0361636 124.611 -0.0246347 125.321 0.141789 126.001Z" fill="#49A4F7"/>
<path id="Vector_54" d="M57.4529 119.016L4.58653 120.207C3.88579 120.223 3.19755 120.395 2.57252 120.713C1.94749 121.03 1.4016 121.483 0.975076 122.039C0.548554 122.595 0.252268 123.24 0.108052 123.925C-0.0361636 124.611 -0.0246347 125.321 0.141789 126.001L3.85575 142.625L60.6063 120.157C59.7296 119.404 58.608 118.999 57.4529 119.016Z" fill="#49B3F7"/>
<path id="Vector_55" d="M64.8011 135.699L7.74023 159.899L9.56218 168.025C9.80881 169.053 10.3964 169.966 11.229 170.617C12.0617 171.267 13.0903 171.617 14.1471 171.608H18.2815L67.1336 147.038L64.8011 135.699Z" fill="#49B3F7"/>
<path id="Vector_56" d="M34.4168 152.553C39.1494 152.553 42.9859 148.717 42.9859 143.986C42.9859 139.254 39.1494 135.419 34.4168 135.419C29.6842 135.419 25.8477 139.254 25.8477 143.986C25.8477 148.717 29.6842 152.553 34.4168 152.553Z" fill="#6CBFF3"/>
</g>
</svg>
