<svg width="158" height="158" viewBox="0 0 158 158" fill="none" xmlns="http://www.w3.org/2000/svg">
<g id="online-class 1" clip-path="url(#clip0_318_34631)">
<g id="Group">
<g id="Group_2">
<g id="Group_3">
<path id="Vector" fill-rule="evenodd" clip-rule="evenodd" d="M129.365 103.734C129.082 106.083 129.902 109.335 128.815 110.796C127.907 112.017 125.094 111.878 122.302 111.991C117.293 112.19 112.52 112.652 107.533 112.631C100.124 112.602 92.5476 112.082 85.0583 112.082C80.114 112.082 75.1904 112.357 70.015 112.357C59.9326 112.355 49.8311 112.357 39.4682 112.357C34.7452 112.357 29.3782 112.164 24.241 112.357C22.0833 112.438 19.2381 112.328 16.7193 112.173C14.17 112.016 11.8861 111.482 11.0313 110.247C10.0935 108.894 10.3407 105.662 10.5718 103.734C20.1682 103.957 29.821 103.55 39.7429 103.55C42.9242 103.55 46.1931 103.515 49.376 103.367C55.334 103.089 63.1605 103.276 69.7391 103.275C76.4776 103.275 83.2157 103.424 89.7366 103.459C103.182 103.532 116.387 104.275 129.365 103.734Z" fill="#8F7ECE"/>
<g id="Group_4">
<path id="Vector_2" fill-rule="evenodd" clip-rule="evenodd" d="M45.8878 68.1423C51.2367 67.8874 57.6403 68.2145 63.2249 68.3256C68.8543 68.4367 74.6389 68.2654 80.4707 68.2336C88.9453 68.1885 97.6115 67.9278 106.156 68.4169C107.391 68.4876 108.866 68.5582 110.376 68.6018C112.083 68.648 113.672 68.5218 114.595 68.8764C117.229 69.887 118.392 73.6041 119.64 76.3061C122.948 83.471 126.061 90.4869 128.63 98.5066C129.136 100.08 129.747 102.454 129.181 103.917C127.962 107.059 121.194 106.578 116.247 106.578C105.753 106.578 95.585 106.355 85.4252 106.762C80.201 106.97 75.2119 106.419 70.2892 106.302C67.7674 106.243 65.2826 106.535 62.8595 106.67C60.3087 106.811 57.7548 106.801 55.153 106.762C50.3038 106.689 45.1247 106.487 39.8344 106.486C34.9701 106.486 29.6944 106.578 24.3319 106.578C19.8363 106.578 11.7854 107.162 10.6643 103.917C10.1486 102.426 10.8337 100.086 11.3053 98.5964C13.679 91.0961 16.9642 83.4124 20.2955 76.3061C21.4015 73.9478 22.9991 69.4581 25.7076 68.6931C26.9497 68.3401 28.9405 68.5913 30.6609 68.5083C35.6922 68.2716 40.834 68.3827 45.8878 68.1423Z" fill="#4D3D87"/>
<g id="Group_5">
<path id="Vector_3" fill-rule="evenodd" clip-rule="evenodd" d="M60.474 72.729C60.1932 74.3133 59.8399 75.8245 59.5569 77.407C57.9698 77.5934 56.0599 77.4563 54.3284 77.4989C54.6567 75.8396 55.1671 74.3608 55.613 72.82C57.2875 72.8447 58.753 72.6583 60.474 72.729Z" fill="#8F7ECE"/>
<path id="Vector_4" fill-rule="evenodd" clip-rule="evenodd" d="M65.9778 72.9123C65.6356 74.4037 65.2727 75.8754 64.97 77.407C63.5943 77.407 62.2176 77.407 60.8419 77.407C61.1042 75.7733 61.5356 74.3087 61.8504 72.729C63.1088 72.908 64.7419 72.7123 65.9778 72.9123Z" fill="#8F7ECE"/>
<path id="Vector_5" fill-rule="evenodd" clip-rule="evenodd" d="M54.2365 72.8203C53.768 74.3408 53.4233 75.9834 52.9518 77.4992C51.1083 77.493 48.8046 77.5069 47.2638 77.4992C47.8822 76.0664 48.4115 74.5475 48.9157 73.0036C50.6969 72.9496 52.4673 72.8851 54.2365 72.8203Z" fill="#8F7ECE"/>
<path id="Vector_6" fill-rule="evenodd" clip-rule="evenodd" d="M71.6661 73.0036C71.7285 74.47 71.8837 75.8442 71.9399 77.3143C69.955 77.2557 68.1698 77.3973 66.254 77.4072C66.549 75.8368 66.9592 74.3827 67.3539 72.9125C68.8391 72.8956 70.129 73.0727 71.6661 73.0036Z" fill="#8F7ECE"/>
<path id="Vector_7" fill-rule="evenodd" clip-rule="evenodd" d="M47.3583 73.0037C47.6861 73.1518 47.2997 73.7286 47.1744 74.1035C46.801 75.2215 46.3711 76.5676 45.8897 77.5906C43.8712 77.5906 41.8536 77.5906 39.8361 77.5906C40.3397 76.0155 41.0103 74.6077 41.5793 73.095C43.4864 73.0456 45.5984 73.2015 47.3583 73.0037Z" fill="#8F7ECE"/>
<path id="Vector_8" fill-rule="evenodd" clip-rule="evenodd" d="M77.0777 73.095C77.2419 74.3995 77.2419 75.8665 77.3514 77.2231C75.685 77.1601 74.7475 77.3373 73.224 77.3144C73.0126 76.0297 73.0546 74.4889 72.9493 73.095C74.0013 73.0592 75.7316 73.1225 77.0777 73.095Z" fill="#8F7ECE"/>
<path id="Vector_9" fill-rule="evenodd" clip-rule="evenodd" d="M40.1108 73.0949C39.618 74.6511 39.0156 76.099 38.4589 77.5905C37.0199 77.5318 35.3446 77.7105 34.0571 77.4991C33.7751 77.3988 34.2435 76.9119 34.4237 76.5804C34.9409 75.6312 35.5714 74.3543 35.8908 73.1868C37.31 73.1686 38.6172 73.0378 40.1108 73.0949Z" fill="#8F7ECE"/>
<path id="Vector_10" fill-rule="evenodd" clip-rule="evenodd" d="M78.3615 73.187C79.6461 73.187 80.9305 73.187 82.2142 73.187C82.5117 74.5103 82.7429 75.8999 83.04 77.2231C81.5427 77.2231 80.0436 77.2231 78.5444 77.2231C78.4772 75.8847 78.5077 74.4489 78.3615 73.187Z" fill="#8F7ECE"/>
<path id="Vector_11" fill-rule="evenodd" clip-rule="evenodd" d="M34.33 73.2798C34.3917 73.2798 34.4531 73.2798 34.5133 73.2798C33.9504 74.7956 33.215 76.1395 32.4948 77.4992C31.119 77.4992 29.743 77.4992 28.3673 77.4992C28.5667 76.8314 28.8685 76.1901 29.1925 75.5726C29.4807 75.0227 29.7912 74.2682 30.2939 73.9217C31.2838 73.2378 32.7922 73.6356 34.33 73.2798Z" fill="#8F7ECE"/>
<path id="Vector_12" fill-rule="evenodd" clip-rule="evenodd" d="M83.5919 73.2798C85.0352 73.3338 86.7025 73.1656 87.9937 73.3696C88.1437 74.8116 88.581 75.9636 88.8204 77.3143C87.4142 77.1912 85.8542 77.223 84.3248 77.223C84.019 75.9698 83.803 74.6274 83.5919 73.2798Z" fill="#8F7ECE"/>
<path id="Vector_13" fill-rule="evenodd" clip-rule="evenodd" d="M89.2775 73.3696C91.0281 73.3026 92.4967 73.5156 94.2316 73.4631C94.5183 74.8882 95.0241 76.0945 95.2401 77.5906C93.6255 77.4011 91.8193 77.4042 90.1042 77.3144C89.8005 76.0269 89.5305 74.7064 89.2775 73.3696Z" fill="#8F7ECE"/>
<path id="Vector_14" fill-rule="evenodd" clip-rule="evenodd" d="M100.744 73.4631C101.318 74.845 101.761 76.3599 102.213 77.8668C100.301 77.7899 98.3326 77.7693 96.5248 77.5906C96.2983 76.1667 95.8805 74.9317 95.6077 73.5545C97.3552 73.5603 99.1158 73.577 100.744 73.4631Z" fill="#8F7ECE"/>
<path id="Vector_15" fill-rule="evenodd" clip-rule="evenodd" d="M102.213 73.4631C104.847 73.6516 107.374 73.0486 108.909 74.1034C110.079 74.911 110.383 76.7379 111.018 78.2324C108.639 78.0438 106.129 77.9852 103.589 77.9562C103.084 76.5058 102.656 74.9749 102.213 73.4631Z" fill="#8F7ECE"/>
<path id="Vector_16" fill-rule="evenodd" clip-rule="evenodd" d="M77.078 78.6005C77.2141 80.1139 77.4316 81.5467 77.7198 82.9113C75.9174 82.9699 74.3917 82.7523 72.5824 82.8193C72.4454 81.3658 72.2151 80.0062 71.9396 78.6903C73.4724 78.4802 75.3943 78.6588 77.078 78.6005Z" fill="#8F7ECE"/>
<path id="Vector_17" fill-rule="evenodd" clip-rule="evenodd" d="M78.2697 78.6006C79.6142 78.6006 80.9597 78.6006 82.3058 78.6006C82.756 80.0152 83.1038 81.531 83.4982 83.0024C81.9398 83.0008 80.3443 83.0373 78.9115 82.911C78.8322 81.34 78.4375 80.0828 78.2697 78.6006Z" fill="#8F7ECE"/>
<path id="Vector_18" fill-rule="evenodd" clip-rule="evenodd" d="M83.5919 78.6903C85.2734 78.4773 87.3518 78.6606 89.1864 78.6005C89.7447 80.0598 90.1378 81.6852 90.7454 83.0936C88.8899 83.3599 86.9016 82.9634 84.8757 83.0936C84.4665 81.6071 84.0869 80.0919 83.5919 78.6903Z" fill="#8F7ECE"/>
<path id="Vector_19" fill-rule="evenodd" clip-rule="evenodd" d="M31.8531 78.783C31.4673 80.2615 30.8384 81.499 30.294 82.8191C28.9479 82.8191 27.6025 82.8191 26.2579 82.8191C26.7622 81.4274 27.3386 80.1078 27.817 78.6901C29.2248 78.6605 30.4064 78.8537 31.8531 78.783Z" fill="#8F7ECE"/>
<path id="Vector_20" fill-rule="evenodd" clip-rule="evenodd" d="M70.748 78.6902C70.9282 80.0394 71.1322 81.3641 71.297 82.7278C69.4633 82.7278 67.6281 82.7278 65.7938 82.7278C65.7818 81.2768 65.9216 79.9807 66.07 78.6902C67.6281 78.6902 69.1874 78.6902 70.748 78.6902Z" fill="#8F7ECE"/>
<path id="Vector_21" fill-rule="evenodd" clip-rule="evenodd" d="M90.5626 78.6902C92.5972 78.7068 94.4839 78.8673 96.4333 78.9664C96.8431 80.4837 97.34 81.9134 97.718 83.462C95.8152 83.4376 94.0195 83.3077 92.1229 83.2771C91.6365 81.715 91.0166 80.285 90.5626 78.6902Z" fill="#8F7ECE"/>
<path id="Vector_22" fill-rule="evenodd" clip-rule="evenodd" d="M52.5853 78.7831C52.231 80.2325 51.7752 81.5802 51.3009 82.9111C49.4284 82.8732 47.6657 82.9438 45.8888 83.0025C46.1962 81.5049 46.726 80.231 47.1735 78.875C49.0784 78.9457 50.7007 78.7322 52.5853 78.7831Z" fill="#8F7ECE"/>
<path id="Vector_23" fill-rule="evenodd" clip-rule="evenodd" d="M59.4655 78.783C59.3865 80.171 59.1569 81.4106 59.006 82.7277C56.828 82.6586 54.8937 82.8342 52.7697 82.8191C53.0403 81.502 53.5316 80.4021 53.7772 79.0582C53.8281 78.9258 53.921 78.8345 54.0519 78.783C55.8577 78.783 57.6609 78.783 59.4655 78.783Z" fill="#8F7ECE"/>
<path id="Vector_24" fill-rule="evenodd" clip-rule="evenodd" d="M64.7867 78.783C64.7731 80.1769 64.4596 81.269 64.5105 82.7277C63.1043 82.7277 61.6974 82.7277 60.2911 82.7277C60.4926 81.46 60.5451 80.047 60.7506 78.783C62.0952 78.783 63.4406 78.783 64.7867 78.783Z" fill="#8F7ECE"/>
<path id="Vector_25" fill-rule="evenodd" clip-rule="evenodd" d="M38.3661 78.875C37.9174 80.2615 37.2878 81.4663 36.8984 82.9111C35.2169 82.8509 33.5406 82.7818 31.7618 82.8191C32.1862 81.4706 32.7771 80.2881 33.1376 78.875C34.8805 78.875 36.6228 78.875 38.3661 78.875Z" fill="#8F7ECE"/>
<path id="Vector_26" fill-rule="evenodd" clip-rule="evenodd" d="M45.7972 78.875C45.4229 80.3343 44.8785 81.6264 44.4205 83.0025C42.3777 82.9667 40.1761 83.0886 38.2755 82.9111C38.6785 81.511 39.2473 80.2745 39.6512 78.875C42.1012 78.9907 42.6653 78.8843 45.7972 78.875Z" fill="#8F7ECE"/>
<path id="Vector_27" fill-rule="evenodd" clip-rule="evenodd" d="M97.7169 79.1496C99.3117 78.9321 101.156 79.2576 102.854 79.2425C103.408 80.6738 103.812 82.2587 104.321 83.7365C102.589 83.6659 100.886 83.5656 99.0926 83.5532C98.6964 82.0214 98.2403 80.5519 97.7169 79.1496Z" fill="#8F7ECE"/>
<path id="Vector_28" fill-rule="evenodd" clip-rule="evenodd" d="M104.322 79.2424C106.671 79.4319 109.285 79.3551 111.57 79.609C112.076 80.9681 112.364 82.5447 112.763 84.0127C110.792 84.0263 108.203 83.8627 106.065 83.7365C105.576 83.2292 105.319 82.4305 105.057 81.718C104.783 80.9789 104.618 80.2077 104.323 79.5171C104.322 79.4254 104.322 79.3335 104.322 79.2424Z" fill="#8F7ECE"/>
<path id="Vector_29" fill-rule="evenodd" clip-rule="evenodd" d="M82.1238 84.3781C82.3969 84.6373 82.5984 85.214 82.7657 85.6627C83.2341 86.9184 83.6152 88.4743 83.9575 89.975C73.2249 89.8395 62.4914 89.9448 51.8517 90.341C52.2495 88.2617 52.6648 86.2015 53.1364 84.1951C62.829 83.8664 71.9448 84.0769 82.1238 84.3781Z" fill="#8F7ECE"/>
<path id="Vector_30" fill-rule="evenodd" clip-rule="evenodd" d="M30.5691 84.1023C29.8307 86.5155 28.9265 88.7584 28.0936 91.075C26.571 90.916 24.9176 90.887 24.3322 89.7903C24.3596 87.4015 25.1802 85.8067 25.8912 84.1023C27.4517 84.1023 29.0101 84.1023 30.5691 84.1023Z" fill="#8F7ECE"/>
<path id="Vector_31" fill-rule="evenodd" clip-rule="evenodd" d="M32.1294 84.1021C33.4199 84.2496 34.9243 84.182 36.3479 84.1949C35.9128 86.6035 35.2292 88.7643 34.6046 90.9834C33.0317 91.121 31.2629 91.0655 29.5607 91.0747C29.8313 89.9734 30.3599 88.8692 30.7531 87.6805C31.1703 86.4202 31.3567 85.0161 32.1294 84.1021Z" fill="#8F7ECE"/>
<path id="Vector_32" fill-rule="evenodd" clip-rule="evenodd" d="M51.8504 84.1948C51.3752 86.2871 50.9308 88.4111 50.3824 90.4327C48.1322 90.4457 45.9927 90.5673 43.8693 90.7089C44.3933 88.4173 45.2518 86.4642 45.8878 84.2871C47.9655 84.347 49.8424 84.2056 51.8504 84.1948Z" fill="#8F7ECE"/>
<path id="Vector_33" fill-rule="evenodd" clip-rule="evenodd" d="M44.5138 84.2871C43.9 86.5466 43.0924 88.6161 42.3129 90.7089C40.3576 90.925 38.1413 90.8787 36.0743 90.9836C36.511 88.7895 37.1877 86.8364 37.5429 84.5618C37.5383 84.4059 37.6105 84.3244 37.7262 84.2871C39.9885 84.2871 42.2512 84.2871 44.5138 84.2871Z" fill="#8F7ECE"/>
<path id="Vector_34" fill-rule="evenodd" clip-rule="evenodd" d="M83.5919 84.3781C86.2835 84.3469 88.7278 84.5614 91.3888 84.5614C92.0178 86.408 92.5418 88.3617 93.0398 90.3407C90.4708 90.2806 88.0675 90.0541 85.4262 90.0661C84.8877 88.0963 84.2983 86.179 83.5919 84.3781Z" fill="#8F7ECE"/>
<path id="Vector_35" fill-rule="evenodd" clip-rule="evenodd" d="M92.7657 84.6542C94.9821 84.6375 96.958 84.8625 99.1864 84.8375C99.7202 86.8721 100.322 88.8372 100.93 90.8002C98.7506 90.6847 96.5976 90.5456 94.4164 90.4329C93.972 88.4005 93.2981 86.5974 92.7657 84.6542Z" fill="#8F7ECE"/>
<path id="Vector_36" fill-rule="evenodd" clip-rule="evenodd" d="M100.469 85.0208C102.036 84.8301 103.911 85.1258 105.606 85.1122C106.574 86.9261 106.954 89.33 107.716 91.3507C106.066 91.4707 104.235 90.9773 102.396 90.9835C101.749 89.0014 101.102 87.0171 100.469 85.0208Z" fill="#8F7ECE"/>
<path id="Vector_37" fill-rule="evenodd" clip-rule="evenodd" d="M107.074 85.1123C108.996 85.3009 111.152 85.253 113.037 85.4795C113.22 86.2948 113.569 87.2425 113.771 88.2319C113.967 89.1931 114.24 90.5688 113.862 91.2579C113.147 92.5691 110.594 91.6406 109.092 91.6252C108.573 89.2996 107.722 87.3086 107.074 85.1123Z" fill="#8F7ECE"/>
</g>
<path id="Vector_38" opacity="0.75" fill-rule="evenodd" clip-rule="evenodd" d="M57.0792 93.001C58.7607 92.7029 61.6683 92.9097 63.9596 92.9097C68.5586 92.9097 72.7749 93.093 77.2591 93.093C79.0508 93.093 82.233 92.6063 83.4976 93.3676C84.7388 94.1144 85.1828 96.7328 85.4238 98.781C85.471 99.1778 85.6642 100.442 85.3325 100.89C84.8495 101.539 82.7681 101.215 81.571 101.165C73.3057 100.832 66.1833 100.982 57.2613 100.982C56.2954 100.982 54.1151 101.278 53.6844 100.431C53.231 99.5416 54.121 97.9252 54.5095 96.6714C55.1008 94.7625 55.1594 93.3417 57.0792 93.001Z" fill="white"/>
<g id="Group_6">
<path id="Vector_39" fill-rule="evenodd" clip-rule="evenodd" d="M30.6193 98.9129C30.7288 97.8686 30.909 95.6859 32.0718 96.1445C32.7532 96.4114 32.6748 97.9661 32.5875 99.0048C32.4795 100.298 32.3656 101.477 31.9897 102.52C31.8148 103.001 31.4735 103.417 31.1312 103.399C30.4727 103.362 30.0672 102.437 29.7796 101.945C29.0488 100.705 28.6146 100.008 27.9126 98.629C27.6534 98.1195 27.1892 97.2023 27.6349 96.67C27.7321 96.5543 28.0373 96.4404 28.2159 96.454C28.8729 96.5003 29.3065 97.1332 29.6595 97.5612C30.0761 98.0686 30.3551 98.4596 30.6193 98.9129Z" fill="#FF5000"/>
<path id="Vector_40" fill-rule="evenodd" clip-rule="evenodd" d="M22.0196 96.9218C21.0728 96.0905 19.7122 94.7657 18.5251 94.3503C18.2118 94.2408 17.6224 94.1084 17.2361 94.4568C16.9966 94.6759 16.9935 95.1863 17.0849 95.5369C17.3191 96.4312 17.9449 97.2443 18.5192 97.9439C19.0623 98.604 19.6715 99.156 20.2554 99.6544C20.726 100.057 21.4462 100.66 22.1322 101.044C22.7056 101.366 23.8647 101.882 24.543 101.426C25.3203 100.904 25.1225 99.3918 25.0207 98.3577C24.8778 96.9067 24.5263 94.7496 23.4419 93.2144C23.1567 92.8114 22.7139 92.4043 22.2973 92.5558C21.6014 92.8083 21.7064 94.0281 21.711 94.5605C21.7159 95.3853 21.7641 96.0812 22.0196 96.9218Z" fill="#FF5000"/>
</g>
</g>
<g id="Group_7">
<path id="Vector_41" fill-rule="evenodd" clip-rule="evenodd" d="M13.1325 105.274C14.1389 104.983 15.8438 105.455 17.4896 106.016C18.1947 106.255 19.33 106.664 19.1847 107.318C19.0137 108.104 17.6516 107.847 17.1656 107.751C15.6232 107.453 13.8222 106.781 12.969 106.142C12.852 105.922 12.9492 105.492 13.1325 105.274Z" fill="white"/>
<path id="Vector_42" fill-rule="evenodd" clip-rule="evenodd" d="M21.0766 104.389C21.1186 102.7 24.7446 103.411 24.3249 104.75C24.1422 105.33 22.2592 105.64 21.4682 105.182C21.1846 105.017 21.0692 104.682 21.0766 104.389Z" fill="white"/>
<path id="Vector_43" fill-rule="evenodd" clip-rule="evenodd" d="M24.8088 106.86C24.7616 106.262 25.5343 105.864 26.3999 105.776C27.0949 105.705 28.4586 105.889 28.2814 106.673C28.2067 107.022 27.6272 107.422 26.91 107.514C26.0697 107.622 24.8712 107.63 24.8088 106.86Z" fill="white"/>
</g>
</g>
<g id="Group_8">
<g id="Group_9">
<path id="Vector_44" fill-rule="evenodd" clip-rule="evenodd" d="M33.3232 6.90116C40.2959 6.56819 47.5154 7.03664 54.4212 6.90116C61.2432 6.76662 68.2036 6.71261 75.1519 6.99189C81.4194 7.24525 88.5174 7.45046 95.6999 7.45046C100.046 7.45046 106.187 7.00948 111.111 7.08323C113.959 7.12829 115.749 7.36992 116.615 9.10236C117.314 10.4978 117.158 12.9764 117.074 15.9822C117.006 18.3917 117.03 21.2443 116.982 23.5038C116.877 28.4564 116.707 33.1557 116.707 38.4567C116.706 43.4862 116.736 48.361 116.614 53.4087C116.483 58.8875 117.462 66.8582 114.139 68.8193C113.13 69.4133 110.915 69.4611 108.91 69.4611C106.899 69.4611 104.848 69.3334 103.221 69.2778C91.7073 68.881 80.0292 68.9106 68.5467 68.9106C61.1041 68.9122 53.6944 68.5449 45.5222 68.5449C39.9848 68.5449 33.8694 68.7714 28.5517 67.9021C26.7782 67.6133 24.7749 66.9871 24.149 65.8845C23.3238 64.4274 23.0705 61.9876 22.8647 59.5537C21.8386 47.4683 22.4974 35.3196 22.4974 22.3105C22.4974 19.9596 22.6656 17.2196 22.7736 14.9721C22.8955 12.4213 22.8245 9.67727 23.8735 8.55183C24.6798 7.68777 26.4123 7.4628 28.0944 7.26808C29.9395 7.05237 31.7602 6.97492 33.3232 6.90116Z" fill="#8F7ECE"/>
<path id="Vector_45" fill-rule="evenodd" clip-rule="evenodd" d="M30.7552 9.92715C33.8612 9.55838 37.9087 10.016 41.3045 10.1105C44.7703 10.2064 48.2034 10.3613 51.5779 10.4777C58.4598 10.715 65.4794 10.5888 72.4916 10.2938C79.5214 9.99782 86.0321 9.83581 93.4062 9.83581C96.6961 9.83581 100.208 9.92715 103.955 9.92715C105.678 9.92715 107.534 9.78026 109.093 9.92715C110.715 10.0808 112.178 10.607 112.763 11.5781C113.51 12.8215 113.312 15.875 113.312 17.7232C113.312 20.1796 113.221 22.2499 113.221 24.2373C113.221 28.8597 113.496 33.0223 113.496 37.2636C113.496 41.8999 113.534 45.7246 113.68 50.3813C113.746 52.5032 113.614 54.7408 113.68 56.8016C113.744 58.8278 113.83 61.9422 113.038 63.1324C112.391 64.1014 110.793 64.7257 109.002 64.6908C103.886 64.5921 97.9512 65.1099 92.7659 64.8741C85.3819 64.5396 78.0466 64.9655 71.2992 64.967C63.6664 64.967 56.8999 65.138 49.2835 64.8741C44.2457 64.7001 38.2587 65.0408 33.0478 64.6908C31.1767 64.5652 29.2413 64.5578 28.3698 63.8656C27.352 63.0556 27.0715 60.3952 26.9027 58.2696C26.3652 51.5373 26.6503 44.5511 26.9941 37.8145C27.2237 33.3158 27.2237 29.0942 27.4533 24.2376C27.5492 22.2101 27.5446 19.9876 27.5446 17.5411C27.5446 13.9953 27.0897 10.0413 30.5707 9.92746C30.6305 9.92561 30.6953 9.93487 30.7552 9.92715Z" fill="#4D3D87"/>
</g>
<g id="Group_10">
<g id="Group_11">
<g id="Group_12">
<path id="Vector_46" opacity="0.75" fill-rule="evenodd" clip-rule="evenodd" d="M39.7802 37.876C40.0761 39.4183 40.3915 41.3943 40.6174 43.214C40.7886 44.5617 41.2555 45.9087 40.7673 46.8974C39.9542 46.8693 39.4373 46.0753 38.9331 45.6001C37.3694 44.1222 35.6453 42.6681 34.049 41.1196C35.1972 39.4992 37.0179 38.3561 39.7802 37.876Z" fill="white"/>
<path id="Vector_47" fill-rule="evenodd" clip-rule="evenodd" d="M39.1086 47.1006C36.6279 47.5591 33.766 47.7227 31.3268 47.7949C30.9343 45.6326 31.8561 43.8187 32.9065 42.4445C32.959 42.4352 33.0099 42.4263 33.0624 42.418C34.0449 43.2021 35.0969 43.9869 36.1319 44.7932C37.1481 45.5835 38.3757 46.1661 39.1086 47.1006Z" fill="#8F7ECE"/>
<path id="Vector_48" fill-rule="evenodd" clip-rule="evenodd" d="M41.9502 38.5567C45.9234 38.5407 49.3207 40.6169 51.0698 43.4242C51.6614 44.3709 52.1172 45.5445 52.2076 47.0764C52.5041 52.0457 47.5731 57.0211 42.282 57.7398C38.1623 58.2981 34.5718 56.279 32.8597 53.3501C32.2666 52.3385 31.6232 51.0662 31.7114 49.6272C32.4635 49.285 33.3861 49.2325 34.2789 49.1443C36.0015 48.9718 37.7676 48.745 39.5136 48.3808C40.2369 48.2302 41.5725 48.1654 41.9299 47.8429C42.2129 47.588 42.1771 46.3879 42.1663 45.7667C42.1305 43.501 41.7311 40.7268 41.7623 38.8002C41.7882 38.6922 41.8515 38.6107 41.9502 38.5567Z" fill="#EFAD1B"/>
<g id="Group_13">
<path id="Vector_49" fill-rule="evenodd" clip-rule="evenodd" d="M53.9843 45.1606C53.7167 44.4524 53.7377 43.3945 53.7578 42.3398C53.7738 41.4257 53.5776 40.1296 54.0741 39.7396C54.7897 39.3044 56.2478 39.5609 57.3443 39.601C60.2861 39.7099 63.1014 39.6451 66.3336 39.588C68.175 39.5547 70.2793 39.6238 72.3311 39.6025C73.2279 39.5942 74.3814 39.5957 75.3328 39.6467C76.2722 39.6976 77.4812 39.7889 77.8281 40.2688C78.3064 40.9335 78.1626 42.3009 78.0814 43.3057C78.0166 44.0608 77.975 45.5788 77.5491 45.9333C77.0782 46.3249 75.3498 46.2111 74.5123 46.1882C69.5596 46.046 64.6323 45.83 59.6149 45.7349C58.6231 45.7173 57.5813 45.7189 56.6123 45.6914C55.6778 45.6661 54.6802 45.7895 53.9843 45.1606Z" fill="#B1BC00"/>
<path id="Vector_50" fill-rule="evenodd" clip-rule="evenodd" d="M67.8015 47.8488C67.8379 47.8328 67.8509 47.7683 67.9354 47.7575C69.6275 47.5279 70.7455 47.9445 72.7921 47.9963C73.7663 48.0183 76.876 47.867 77.3355 48.6398C77.6503 49.169 77.4154 50.3577 77.3605 51.049C77.292 51.909 77.2167 52.5694 77.1596 53.4159C77.0744 54.6934 77.2013 57.2193 76.2607 57.6991C75.608 58.0337 74.5656 57.7609 73.779 57.7334C72.8847 57.7022 72.1079 57.6945 71.2899 57.6961C69.7521 57.7007 67.4216 57.9257 66.8618 56.8169C66.5903 56.2799 66.7014 55.3119 66.7646 54.4173C66.8171 53.6766 66.8618 52.8644 66.9032 52.1343C66.9495 51.2893 66.9251 50.7419 66.9594 49.7859C66.9884 49.0011 67.1535 48.1189 67.8015 47.8488Z" fill="#8F7ECE"/>
<g id="Group_14">
<path id="Vector_51" opacity="0.75" fill-rule="evenodd" clip-rule="evenodd" d="M65.3509 48.7174C65.2969 49.0855 65.2491 49.4574 65.2861 49.8953C61.4151 49.9181 57.7706 49.6435 53.9215 49.6376C53.8592 49.3167 53.8453 48.5119 54.0212 48.1628C57.7768 48.3745 61.6713 48.4069 65.3509 48.7174Z" fill="white"/>
<path id="Vector_52" opacity="0.75" fill-rule="evenodd" clip-rule="evenodd" d="M65.0443 51.3898C65.1486 51.6438 65.0625 52.2498 64.9782 52.568C61.1208 52.6593 57.5272 52.4029 53.7072 52.4433C53.784 52.0502 53.6973 51.533 53.8334 51.1846C57.5828 51.237 61.168 51.5024 65.0443 51.3898Z" fill="white"/>
<path id="Vector_53" opacity="0.75" fill-rule="evenodd" clip-rule="evenodd" d="M64.8752 54.5559C64.8243 54.9698 64.8228 55.4215 64.749 55.8147C61.1487 55.5941 57.4844 55.4604 53.6705 55.5172C53.6347 54.9725 53.6378 54.46 53.6887 53.9795C57.4196 54.169 61.0558 54.4806 64.8752 54.5559Z" fill="white"/>
</g>
</g>
<g id="Group_15">
<path id="Vector_54" fill-rule="evenodd" clip-rule="evenodd" d="M84.0973 45.5126C83.8304 44.8047 83.8532 43.7468 83.8724 42.6927C83.889 41.7783 83.6928 40.4825 84.1896 40.0924C84.9037 39.6582 86.3624 39.9138 87.4592 39.9539C90.401 40.0619 93.2178 39.9971 96.4494 39.9403C98.2908 39.9076 100.396 39.9767 102.445 39.957C103.342 39.9462 104.498 39.9477 105.447 39.9986C106.388 40.0495 107.596 40.1415 107.943 40.6214C108.423 41.2861 108.279 42.6528 108.196 43.6582C108.134 44.4128 108.09 45.9313 107.664 46.2859C107.194 46.6769 105.464 46.5643 104.628 46.5408C99.6742 46.3995 94.7469 46.1835 89.7289 46.0875C88.737 46.0693 87.6974 46.0708 86.7269 46.0443C85.7918 46.0187 84.7938 46.1418 84.0973 45.5126Z" fill="#B1BC00"/>
<path id="Vector_55" fill-rule="evenodd" clip-rule="evenodd" d="M97.9141 48.202C97.9505 48.1853 97.966 48.122 98.0481 48.1106C99.7416 47.881 100.86 48.2992 102.905 48.3485C103.878 48.3729 106.989 48.2217 107.448 48.9944C107.763 49.5221 107.527 50.7102 107.474 51.4036C107.405 52.2615 107.33 52.9216 107.273 53.7681C107.187 55.0481 107.314 57.5715 106.374 58.0523C105.721 58.3868 104.68 58.1131 103.893 58.0865C102.998 58.0569 102.22 58.0476 101.403 58.0492C99.8651 58.0538 97.5346 58.2788 96.9757 57.17C96.7035 56.634 96.8146 55.665 96.8776 54.7704C96.9316 54.0288 96.9772 53.2172 97.0161 52.4865C97.0624 51.6422 97.038 51.0947 97.0747 50.1387C97.101 49.3558 97.2661 48.4735 97.9141 48.202Z" fill="#8F7ECE"/>
<g id="Group_16">
<path id="Vector_56" opacity="0.75" fill-rule="evenodd" clip-rule="evenodd" d="M95.4633 49.0722C95.4093 49.4378 95.3614 49.8122 95.3988 50.2485C91.5278 50.2704 87.8833 49.9961 84.0348 49.9905C83.9731 49.669 83.958 48.8651 84.1335 48.5151C87.8907 48.7268 91.7845 48.7602 95.4633 49.0722Z" fill="white"/>
<path id="Vector_57" opacity="0.75" fill-rule="evenodd" clip-rule="evenodd" d="M95.1569 51.7431C95.2619 51.9965 95.1751 52.6025 95.093 52.9219C91.2332 53.0124 87.6414 52.7553 83.8204 52.7963C83.8979 52.4047 83.8112 51.8854 83.9457 51.5376C87.6961 51.5904 91.2798 51.857 95.1569 51.7431Z" fill="white"/>
<path id="Vector_58" opacity="0.75" fill-rule="evenodd" clip-rule="evenodd" d="M94.9887 54.9083C94.9368 55.3227 94.9369 55.7745 94.8625 56.1676C91.2612 55.9485 87.5972 55.8149 83.7846 55.8702C83.7472 55.3255 83.7519 54.8123 83.8012 54.334C87.5327 54.5219 91.168 54.8354 94.9887 54.9083Z" fill="white"/>
</g>
</g>
</g>
<path id="Vector_59" fill-rule="evenodd" clip-rule="evenodd" d="M46.9306 18.9231C46.5914 17.9343 46.4538 16.5114 46.8766 15.8124C47.5718 15.3486 49.0898 15.5532 50.1711 15.4823C53.1555 15.2829 56.1412 15.2153 59.1287 15.0694C68.999 14.5833 78.5741 14.6497 88.0821 15.0231C89.6779 15.086 92.7382 14.833 93.4057 15.6489C94.1152 16.5173 93.938 19.0021 93.506 19.3891C92.9965 19.8439 91.677 19.7433 90.5339 19.7375C87.805 19.7208 84.067 19.7375 81.7294 19.7192C77.5989 19.6865 73.9575 19.4341 70.2189 19.3566C64.3581 19.2335 58.5081 19.2067 52.5334 19.3338C51.5638 19.3551 50.5643 19.3773 49.5786 19.3582C48.7056 19.3412 47.678 19.5109 46.9306 18.9231Z" fill="#EFAD1B"/>
<path id="Vector_60" opacity="0.75" fill-rule="evenodd" clip-rule="evenodd" d="M88.339 22.7354C81.752 22.7079 75.1512 22.7141 68.5698 22.6465C56.3054 22.5163 43.4846 22.5749 30.4064 23.2168L30.6764 25.2032C36.6619 24.9949 42.5505 24.6647 48.3261 24.5323C62.0523 24.2191 75.0679 24.5672 88.1094 24.6804C94.6827 24.736 101.293 24.6644 107.889 24.8471C108.045 24.1636 108.269 23.5124 108.221 22.7304C101.46 23.0844 94.9234 22.7635 88.339 22.7354Z" fill="white"/>
<path id="Vector_61" opacity="0.75" fill-rule="evenodd" clip-rule="evenodd" d="M31.1456 26.65C44.4944 26.584 95.0797 27.9643 108.274 28.114C108.292 28.7429 108.213 29.3042 108.177 29.8952C101.878 29.4912 57.4001 28.8228 50.8521 28.641C44.3435 28.4608 37.7298 28.5778 31.1292 28.4189C31.1024 27.8051 31.0074 27.1481 31.1456 26.65Z" fill="white"/>
<path id="Vector_62" opacity="0.75" fill-rule="evenodd" clip-rule="evenodd" d="M108.242 32.4428C108.184 33.202 108.179 33.9972 108.255 34.8492C97.7751 34.3471 42.1789 33.2757 31.3938 33.189C31.3596 32.4339 31.3534 31.6997 31.2365 30.8884C42.0829 30.9156 97.6437 32.071 108.242 32.4428Z" fill="white"/>
</g>
<g id="Group_17">
<g id="Group_18">
<path id="Vector_63" fill-rule="evenodd" clip-rule="evenodd" d="M113.133 12.6879C113.969 12.8591 113.723 14.7391 113.527 15.9127C113.382 16.7814 113.055 17.722 112.43 17.4643C112.092 17.3282 111.972 16.7221 111.904 16.2719C111.744 15.223 111.863 13.4032 112.302 12.9931C112.506 12.8021 112.847 12.6317 113.133 12.6879Z" fill="white"/>
<path id="Vector_64" fill-rule="evenodd" clip-rule="evenodd" d="M112.977 20.1798C113.423 20.8523 113.343 22.5764 112.286 22.2264C111.29 21.8965 112.149 18.9273 112.977 20.1798Z" fill="white"/>
</g>
<g id="Group_19">
<path id="Vector_65" fill-rule="evenodd" clip-rule="evenodd" d="M26.7938 50.8813C27.6486 51.6 28.1361 56.1154 26.5907 56.1867C25.3304 56.2407 24.9913 52.2472 25.7745 51.1878C25.9769 50.9147 26.1868 50.8082 26.7938 50.8813Z" fill="white"/>
<path id="Vector_66" fill-rule="evenodd" clip-rule="evenodd" d="M26.9987 58.122C28.4025 57.8952 28.608 61.3481 27.3045 61.387C26.7537 61.4036 26.5935 61.0379 26.3849 60.367C26.0797 59.3771 26.0158 58.281 26.9987 58.122Z" fill="white"/>
</g>
</g>
</g>
</g>
</g>
<g id="Group_20">
<g id="Group_21">
<g id="Group_22">
<path id="Vector_67" fill-rule="evenodd" clip-rule="evenodd" d="M154.739 89.2059L153.687 87.0735L96.6283 129.198L60.6812 115.11L58.5167 116.791C58.5167 116.791 58.7068 119.267 58.5167 119.267C58.3241 119.267 87.1021 131.857 87.1021 131.857L95.7988 134.485L99.0471 133.768L155.41 93.383C154.181 92.4276 153.958 90.5109 154.739 89.2059Z" fill="#8F7ECE"/>
</g>
<path id="Vector_68" fill-rule="evenodd" clip-rule="evenodd" d="M59.7518 116.221C59.4188 117.051 59.3 118.093 59.0179 118.973C62.264 119.798 65.3515 120.957 68.3748 122.183C75.7116 125.159 82.9367 128.277 90.2985 131.54C92.4865 132.511 94.4815 134.115 97.3607 133.284C98.579 132.933 100.006 131.798 101.305 130.899C109.811 125.018 118.722 118.91 126.991 112.919C135.994 106.396 144.775 99.5441 154.327 93.4734C154.923 93.0933 155.636 92.477 156.437 92.6467C156.426 93.5077 155.66 94.0474 155.153 94.573C151.61 98.2502 147.07 101.275 142.861 104.388C133.161 111.562 123.626 118.511 113.416 125.579C109.776 128.098 105.914 130.611 101.948 133.101C100.655 133.912 99.1799 134.821 97.8202 135.21C95.6267 135.837 93.1931 134.853 91.1237 134.2C85.7795 132.517 81.1416 130.547 76.1724 128.331C73.3842 127.086 69.6919 125.394 66.7226 123.927C65.2883 123.217 63.8045 122.429 62.0462 121.634C60.7214 121.034 58.1924 120.125 57.8252 118.972C56.9787 116.321 59.503 115.022 61.2188 113.928C65.0809 111.469 68.9611 108.268 72.5942 105.764C80.6232 100.227 88.2362 95.4506 95.9859 90.0774C102.307 85.696 108.835 81.4682 114.975 76.5017C115.517 76.0638 116.184 75.5114 116.809 75.034C117.501 74.5048 118.453 73.646 119.194 73.6583C119.577 73.6645 119.978 73.7293 120.391 73.8305C120.66 73.8969 120.439 74.5218 120.715 74.6128C120.968 74.6964 121.718 74.245 121.973 74.3394C122.714 74.615 123.455 74.9168 124.148 75.126C125.419 75.5096 126.67 75.8932 127.906 76.2786C128.203 76.3712 127.885 76.7196 128.181 76.8122C128.328 76.8585 129.089 76.6492 129.236 76.6955C131.061 77.272 132.858 77.854 134.64 78.4489C134.911 78.5394 134.91 78.9091 135.18 79.0001C135.478 79.1004 136.048 78.922 136.345 79.0232C140.244 80.349 144.102 81.7466 148.089 83.2895C149.055 83.6632 150.113 84.0644 151.207 84.4918C151.478 84.598 151.416 84.9192 151.691 85.0288C151.829 85.0837 152.303 84.9254 152.442 84.981C153.285 85.3198 154.136 85.6734 154.97 86.0413C155.743 86.3835 156.685 86.9158 156.712 87.417C156.771 88.4702 153.858 89.8478 153.135 90.3536C149.413 92.9507 145.346 95.8135 141.76 98.3332C136.37 102.121 131.81 105.64 126.992 109.341C122.09 113.107 117.359 116.746 112.406 120.624C109.388 122.99 105.105 126.301 101.215 128.79C99.8285 129.676 98.1242 130.99 96.3538 130.899C94.9552 130.828 93.1938 129.633 91.8582 128.972C87.5956 126.865 82.9577 124.904 78.3739 123.194C75.1521 121.992 72.0091 120.895 68.9256 119.8C65.7928 118.687 62.5924 117.799 59.7518 116.221Z" fill="#FF5000"/>
</g>
<g id="Group_23">
<path id="Vector_69" d="M69.5961 114.783C70.4105 114.273 71.2091 113.739 71.9516 113.255C72.3271 112.885 72.3867 112.504 72.15 112.203C71.8692 111.85 71.4998 111.819 71.1477 112.034C70.3012 112.549 69.4683 113.09 68.6401 113.635C68.3867 113.8 68.2744 114.067 68.3654 114.367C68.57 115.038 69.3338 114.947 69.5961 114.783Z" fill="white"/>
<path id="Vector_70" d="M73.6551 108.675C74.0041 108.509 75.5808 107.113 75.8088 106.909C76.6303 106.17 75.7542 105.11 74.916 105.758C74.2057 106.307 73.5305 106.903 72.8398 107.479C72.1631 108.173 72.7531 109.104 73.6551 108.675Z" fill="white"/>
<path id="Vector_71" d="M83.7528 112.509C84.5073 112.134 85.1362 111.574 85.7226 111.105C86.1203 110.642 86.1546 110.259 85.8784 109.955C85.5939 109.648 85.2075 109.618 84.794 109.951C84.2145 110.419 83.6204 110.863 82.9946 111.267C82.1608 111.804 82.8415 112.963 83.7528 112.509Z" fill="white"/>
<path id="Vector_72" d="M80.7196 108.068C81.3936 107.628 82.0216 107.118 82.5662 106.714C82.9375 106.309 83.0498 105.967 82.7761 105.608C82.5008 105.244 82.1114 105.242 81.7753 105.471C81.1334 105.912 80.5196 106.388 79.9059 106.864C79.4677 107.205 79.3704 107.544 79.5695 107.897C79.7759 108.263 80.2481 108.375 80.7196 108.068Z" fill="white"/>
<path id="Vector_73" d="M76.58 114.92C77.2198 114.491 77.8181 114 78.3717 113.582C78.7322 113.19 78.7757 112.817 78.5307 112.524C78.2424 112.182 77.8706 112.149 77.5342 112.386C76.9044 112.83 76.2998 113.314 75.699 113.797C74.9355 114.413 75.6947 115.513 76.58 114.92Z" fill="white"/>
<path id="Vector_74" d="M88.1517 106.117C87.6839 106.418 87.5503 106.751 87.7388 107.113C88.2347 108.063 89.3809 107.169 90.2165 106.521C90.5301 106.186 90.6365 105.868 90.4113 105.532C89.9345 104.824 89.2818 105.391 88.1517 106.117Z" fill="white"/>
<path id="Vector_75" d="M81.3536 100.9C82.1689 100.391 82.9666 99.8556 83.7097 99.3711C84.0847 99.0023 84.1448 98.6206 83.9075 98.3194C83.8816 98.2876 83.8551 98.2608 83.8285 98.2349C82.6216 99.0304 81.4107 99.8321 80.1954 100.639C80.4636 101.131 81.1132 101.049 81.3536 100.9Z" fill="white"/>
<path id="Vector_76" d="M95.5063 98.6251C96.2608 98.2501 96.8897 97.6903 97.4761 97.221C97.8738 96.7587 97.9081 96.3745 97.6313 96.0733C97.3492 95.7638 96.9619 95.7342 96.5475 96.0671C95.9686 96.535 95.3739 96.979 94.7487 97.3827C93.9146 97.9199 94.5953 99.0799 95.5063 98.6251Z" fill="white"/>
<path id="Vector_77" d="M91.3246 94.0132C91.5298 94.3807 92.0016 94.4915 92.4738 94.1844C93.1478 93.745 93.7758 93.2346 94.321 92.8322C94.6914 92.4261 94.804 92.0854 94.5309 91.725C94.3803 91.5271 94.1964 91.4383 94.0053 91.4346C93.1604 92.012 92.3161 92.5853 91.4727 93.1519C91.2015 93.4352 91.1583 93.7203 91.3246 94.0132Z" fill="white"/>
<path id="Vector_78" d="M88.3357 101.037C88.9744 100.608 89.5737 100.117 90.1274 99.6997C90.4856 99.3066 90.5304 98.9332 90.2857 98.6419C89.9984 98.2981 89.6256 98.2654 89.288 98.5027C88.6597 98.9468 88.0551 99.4297 87.4549 99.9142C86.6915 100.53 87.4503 101.631 88.3357 101.037Z" fill="white"/>
<path id="Vector_79" d="M101.972 92.6375C102.286 92.3027 102.393 91.9848 102.168 91.6503C101.69 90.9409 101.039 91.509 99.9074 92.2336C99.4395 92.5354 99.3059 92.8687 99.4951 93.23C99.9904 94.1799 101.137 93.2856 101.972 92.6375Z" fill="white"/>
<path id="Vector_80" d="M90.307 122.217C89.4612 122.732 88.6277 123.272 87.8003 123.818C87.5463 123.984 87.4352 124.251 87.5251 124.549C87.7296 125.222 88.4931 125.131 88.7557 124.967C89.571 124.458 90.3687 123.923 91.1118 123.438C91.4868 123.069 91.5466 122.688 91.3096 122.386C91.0288 122.035 90.6613 122.002 90.307 122.217Z" fill="white"/>
<path id="Vector_81" d="M93.7704 117.835C94.1194 117.669 95.696 116.273 95.924 116.069C96.7455 115.331 95.8694 114.27 95.0319 114.919C94.3209 115.468 93.6454 116.063 92.9551 116.639C92.2783 117.333 92.8683 118.266 93.7704 117.835Z" fill="white"/>
<path id="Vector_82" d="M102.911 122.692C103.665 122.317 104.296 121.757 104.88 121.287C105.278 120.826 105.312 120.441 105.037 120.14C104.754 119.831 104.366 119.8 103.952 120.133C103.373 120.602 102.778 121.046 102.153 121.449C101.319 121.987 101.999 123.147 102.911 122.692Z" fill="white"/>
<path id="Vector_83" d="M99.877 118.252C100.551 117.811 101.179 117.301 101.724 116.899C102.096 116.494 102.207 116.15 101.934 115.792C101.658 115.427 101.269 115.425 100.933 115.657C100.293 116.095 99.677 116.572 99.0638 117.049C98.6275 117.388 98.5278 117.729 98.7278 118.081C98.933 118.448 99.4061 118.559 99.877 118.252Z" fill="white"/>
<path id="Vector_84" d="M96.6902 122.569C96.0619 123.014 95.4573 123.496 94.8574 123.981C94.0936 124.596 94.8528 125.697 95.7381 125.103C96.3769 124.676 96.9762 124.183 97.5298 123.766C97.8897 123.373 97.9344 123.001 97.6881 122.709C97.4005 122.365 97.0293 122.331 96.6902 122.569Z" fill="white"/>
<path id="Vector_85" d="M83.8682 118.144C83.1646 118.682 83.8765 119.791 84.6523 119.329C85.317 118.935 85.9444 118.471 86.4891 118.102C87.2726 117.208 86.378 116.436 85.7034 116.867C85.0745 117.267 84.4591 117.691 83.8682 118.144Z" fill="white"/>
<path id="Vector_86" d="M107.312 116.301C106.844 116.602 106.71 116.935 106.899 117.297C107.395 118.246 108.542 117.353 109.378 116.704C109.691 116.371 109.799 116.051 109.572 115.715C109.094 115.007 108.444 115.576 107.312 116.301Z" fill="white"/>
<path id="Vector_87" d="M109.443 121.438C108.974 121.738 108.841 122.071 109.03 122.433C109.164 122.688 109.344 122.808 109.552 122.836C110.348 122.227 111.107 121.639 111.809 121.091C111.791 121.011 111.756 120.932 111.702 120.852C111.226 120.143 110.574 120.712 109.443 121.438Z" fill="white"/>
<path id="Vector_88" d="M102.581 127.136C102.113 127.436 101.98 127.769 102.169 128.131C102.174 128.14 102.179 128.146 102.185 128.155C103.026 127.598 103.877 127.012 104.725 126.41C104.259 125.934 103.624 126.467 102.581 127.136Z" fill="white"/>
<path id="Vector_89" d="M130.132 106.345C129.655 105.636 129.004 106.204 127.872 106.93C127.404 107.23 127.271 107.563 127.46 107.925C127.665 108.318 127.983 108.393 128.343 108.301C128.975 107.817 129.604 107.334 130.233 106.854C130.275 106.686 130.249 106.516 130.132 106.345Z" fill="white"/>
<path id="Vector_90" d="M90.676 112.069C91.4228 111.544 92.5439 110.722 91.9582 110.032C91.6805 109.703 91.2518 109.7 90.7954 110.061C90.431 110.349 90.0647 110.647 89.7496 110.986C89.1139 111.673 89.9746 112.564 90.676 112.069Z" fill="white"/>
<path id="Vector_91" d="M100.512 111.083C101.326 110.575 102.124 110.041 102.867 109.555C103.242 109.185 103.304 108.804 103.065 108.505C102.785 108.152 102.417 108.119 102.064 108.335C101.217 108.849 100.384 109.39 99.5559 109.934C99.3019 110.101 99.1908 110.368 99.2812 110.666C99.4852 111.338 100.249 111.247 100.512 111.083Z" fill="white"/>
<path id="Vector_92" d="M106.788 101.035C106.077 101.584 105.401 102.18 104.71 102.756C104.035 103.449 104.624 104.382 105.526 103.952C105.875 103.785 107.453 102.39 107.681 102.186C108.501 101.447 107.625 100.388 106.788 101.035Z" fill="white"/>
<path id="Vector_93" d="M114.984 109.976C115.738 109.601 116.366 109.041 116.954 108.57C117.351 108.11 117.386 107.726 117.108 107.422C116.826 107.115 116.439 107.083 116.025 107.418C115.446 107.884 114.852 108.328 114.224 108.734C113.391 109.271 114.073 110.431 114.984 109.976Z" fill="white"/>
<path id="Vector_94" d="M113.69 101.908C113.414 101.545 113.026 101.543 112.689 101.773C112.048 102.212 111.434 102.69 110.82 103.165C110.383 103.504 110.284 103.845 110.484 104.198C110.689 104.564 111.162 104.676 111.633 104.368C112.307 103.927 112.936 103.418 113.48 103.015C113.852 102.61 113.963 102.268 113.69 101.908Z" fill="white"/>
<path id="Vector_95" d="M108.448 108.687C107.818 109.131 107.213 109.613 106.613 110.098C105.85 110.715 106.609 111.814 107.494 111.22C108.134 110.792 108.732 110.3 109.286 109.883C109.645 109.49 109.69 109.118 109.444 108.826C109.157 108.482 108.786 108.449 108.448 108.687Z" fill="white"/>
<path id="Vector_96" d="M95.6239 104.261C94.9203 104.8 95.6331 105.909 96.4074 105.448C97.0737 105.052 97.7004 104.588 98.2448 104.219C99.028 103.324 98.1337 102.553 97.4591 102.984C96.8302 103.385 96.2148 103.81 95.6239 104.261Z" fill="white"/>
<path id="Vector_97" d="M97.6301 128.871C97.1524 128.161 96.5016 128.73 95.37 129.456C94.9022 129.756 94.7692 130.091 94.9577 130.45C94.9836 130.502 95.0133 130.544 95.0413 130.584C95.3151 130.688 95.5835 130.774 95.8431 130.828C96.3519 130.7 96.9472 130.238 97.4348 129.86C97.7489 129.525 97.8554 129.205 97.6301 128.871Z" fill="white"/>
<path id="Vector_98" d="M102.431 98.1856C103.178 97.6622 104.299 96.8386 103.716 96.1483C103.436 95.8196 103.007 95.8184 102.551 96.1788C102.186 96.4671 101.821 96.7636 101.506 97.1028C100.869 97.79 101.731 98.6806 102.431 98.1856Z" fill="white"/>
<path id="Vector_99" d="M71.8429 118.61C71.5667 118.245 71.1782 118.241 70.8421 118.473C70.2154 118.901 69.6161 119.367 69.0177 119.833C69.5729 120.029 70.1327 120.227 70.694 120.425C71.027 120.175 71.3436 119.93 71.6333 119.715C72.0049 119.31 72.116 118.968 71.8429 118.61Z" fill="white"/>
<path id="Vector_100" d="M76.8052 120.113C77.3011 121.064 78.4488 120.17 79.2844 119.521C79.5961 119.187 79.7026 118.867 79.4776 118.532C79.0008 117.823 78.3491 118.392 77.2181 119.118C76.7506 119.418 76.6166 119.751 76.8052 120.113Z" fill="white"/>
<path id="Vector_101" d="M62.974 115.787C63.7193 115.262 64.8404 114.438 64.2568 113.75C63.9785 113.421 63.548 113.418 63.0916 113.778C62.7274 114.068 62.3614 114.364 62.0467 114.703C61.4104 115.389 62.272 116.281 62.974 115.787Z" fill="white"/>
<path id="Vector_102" d="M81.027 123.033C80.7477 122.704 80.3191 122.701 79.8627 123.062C79.6679 123.215 79.4726 123.375 79.2853 123.54C79.8087 123.738 80.3317 123.94 80.8557 124.144C81.1754 123.778 81.3282 123.388 81.027 123.033Z" fill="white"/>
<path id="Vector_103" d="M115.451 114.794C114.74 115.343 114.065 115.937 113.375 116.513C112.698 117.206 113.288 118.139 114.19 117.71C114.54 117.542 116.118 116.147 116.344 115.944C117.165 115.205 116.29 114.146 115.451 114.794Z" fill="white"/>
<path id="Vector_104" d="M120.958 110.069C120.593 110.357 120.227 110.654 119.912 110.993C119.276 111.68 120.137 112.572 120.84 112.076C121.585 111.552 122.706 110.729 122.122 110.039C121.843 109.711 121.414 109.708 120.958 110.069Z" fill="white"/>
<path id="Vector_105" d="M134.638 79.0497C134.991 79.7273 135.676 79.465 136.344 79.0237C135.777 78.8321 135.207 78.6426 134.638 78.4519C134.53 78.6414 134.529 78.8404 134.638 79.0497Z" fill="white"/>
<path id="Vector_106" d="M105.4 86.7845C106.154 86.408 106.784 85.8482 107.37 85.3782C107.766 84.9175 107.803 84.5333 107.524 84.2305C107.241 83.921 106.856 83.8914 106.441 84.2244C105.863 84.6919 105.268 85.1363 104.641 85.5399C103.807 86.0787 104.488 87.2387 105.4 86.7845Z" fill="white"/>
<path id="Vector_107" d="M112.658 80.9567C112.971 80.6234 113.079 80.304 112.853 79.9695C112.376 79.26 111.724 79.8288 110.593 80.5543C110.125 80.8545 109.992 81.1894 110.18 81.5492C110.678 82.4987 111.824 81.6044 112.658 80.9567Z" fill="white"/>
<path id="Vector_108" d="M111.196 99.4041C112.011 98.8946 112.809 98.3598 113.554 97.8753C113.927 97.5063 113.989 97.1239 113.75 96.8234C113.471 96.4706 113.102 96.4391 112.749 96.6536C111.901 97.1684 111.07 97.7099 110.241 98.2531C109.987 98.4197 109.876 98.6866 109.967 98.9869C110.17 99.6596 110.934 99.5674 111.196 99.4041Z" fill="white"/>
<path id="Vector_109" d="M116.21 92.271C116.559 92.1059 118.137 90.7095 118.363 90.5064C119.185 89.767 118.31 88.7076 117.471 89.3557C116.76 89.9047 116.085 90.5003 115.395 91.0752C114.718 91.7683 115.308 92.7021 116.21 92.271Z" fill="white"/>
<path id="Vector_110" d="M125.352 97.1299C126.106 96.7528 126.735 96.1945 127.32 95.7252C127.718 95.2629 127.754 94.8787 127.477 94.576C127.193 94.268 126.807 94.2368 126.393 94.5713C125.814 95.0392 125.218 95.4817 124.593 95.8869C123.758 96.4241 124.439 97.5838 125.352 97.1299Z" fill="white"/>
<path id="Vector_111" d="M124.375 90.2275C124.099 89.8646 123.71 89.8615 123.374 90.0945C122.733 90.5308 122.119 91.0094 121.505 91.4871C121.068 91.8254 120.97 92.1648 121.169 92.5175C121.375 92.8832 121.847 92.9959 122.318 92.6885C122.992 92.2491 123.621 91.7371 124.166 91.3347C124.537 90.9301 124.648 90.5879 124.375 90.2275Z" fill="white"/>
<path id="Vector_112" d="M118.179 99.5408C118.82 99.1118 119.417 98.6205 119.972 98.2024C120.331 97.8108 120.376 97.4374 120.131 97.1445C119.843 96.8023 119.471 96.768 119.133 97.0069C118.503 97.451 117.899 97.9339 117.299 98.4169C116.535 99.0334 117.294 100.133 118.179 99.5408Z" fill="white"/>
<path id="Vector_113" d="M107.092 93.7669C107.759 93.3713 108.384 92.9091 108.929 92.5403C109.714 91.646 108.818 90.8733 108.143 91.3038C107.514 91.7046 106.899 92.1289 106.307 92.5823C105.604 93.1189 106.316 94.2292 107.092 93.7669Z" fill="white"/>
<path id="Vector_114" d="M129.751 90.7375C129.283 91.0393 129.15 91.3726 129.339 91.7324C129.835 92.6838 130.981 91.7895 131.817 91.1399C132.129 90.8069 132.237 90.4888 132.011 90.1527C131.535 89.4433 130.883 90.0114 129.751 90.7375Z" fill="white"/>
<path id="Vector_115" d="M113.118 86.5071C113.864 85.9816 114.986 85.1579 114.401 84.4682C114.123 84.1405 113.693 84.138 113.237 84.4978C112.873 84.7861 112.506 85.0836 112.191 85.4233C111.555 86.1106 112.416 87.0005 113.118 86.5071Z" fill="white"/>
<path id="Vector_116" d="M122.951 85.5212C123.765 85.0108 124.563 84.4763 125.308 83.9918C125.681 83.6231 125.743 83.2404 125.504 82.9402C125.224 82.5881 124.856 82.5563 124.502 82.7707C123.657 83.287 122.825 83.8271 121.995 84.3717C121.741 84.5368 121.63 84.8038 121.721 85.1043C121.926 85.7758 122.69 85.6845 122.951 85.5212Z" fill="white"/>
<path id="Vector_117" d="M126.754 79.1068C127.104 78.9401 128.681 77.5447 128.908 77.3407C129.135 77.1361 129.229 76.9081 129.234 76.6979C128.793 76.5587 128.35 76.4189 127.904 76.281C127.235 76.8044 126.593 77.3642 125.938 77.9101C125.264 78.6041 125.853 79.5357 126.754 79.1068Z" fill="white"/>
<path id="Vector_118" d="M136.315 84.029C137.068 83.6525 137.698 83.0943 138.283 82.6249C138.681 82.1626 138.717 81.7784 138.439 81.4772C138.156 81.1677 137.768 81.1365 137.356 81.4711C136.777 81.9389 136.183 82.3829 135.555 82.7854C134.721 83.3239 135.402 84.4839 136.315 84.029Z" fill="white"/>
<path id="Vector_119" d="M129.933 85.6574C130.575 85.2285 131.171 84.7378 131.726 84.3187C132.085 83.9271 132.13 83.5537 131.884 83.2609C131.597 82.9193 131.225 82.8859 130.888 83.1232C130.257 83.5673 129.653 84.0503 129.053 84.5332C128.289 85.1501 129.048 86.2496 129.933 85.6574Z" fill="white"/>
<path id="Vector_120" d="M119.549 79.8842C120.216 79.4895 120.841 79.0257 121.386 78.6566C122.171 77.7623 121.276 76.9911 120.6 77.4216C119.971 77.8209 119.355 78.2452 118.765 78.6985C118.061 79.2367 118.773 80.3458 119.549 79.8842Z" fill="white"/>
<path id="Vector_121" d="M120.07 103.307C119.594 102.598 118.941 103.167 117.81 103.893C117.342 104.194 117.208 104.527 117.398 104.888C117.893 105.838 119.04 104.944 119.875 104.296C120.188 103.963 120.295 103.643 120.07 103.307Z" fill="white"/>
<path id="Vector_122" d="M120.607 75.6448C121.099 75.2985 121.752 74.8211 121.972 74.3397C121.465 74.1502 120.959 73.9762 120.464 73.8506C120.19 74.0728 119.92 74.3039 119.679 74.5616C119.043 75.2485 119.904 76.1385 120.607 75.6448Z" fill="white"/>
<path id="Vector_123" d="M149.369 85.9089C148.605 86.5242 149.365 87.6253 150.25 87.0316C150.889 86.6042 151.488 86.1123 152.042 85.6947C152.286 85.4278 152.381 85.1714 152.343 84.9418C151.962 84.7903 151.585 84.6412 151.21 84.4946C151.207 84.4962 151.206 84.4977 151.202 84.4993C150.574 84.943 149.969 85.4247 149.369 85.9089Z" fill="white"/>
<path id="Vector_124" d="M143.487 86.0594C144.153 85.6631 144.778 85.2009 145.323 84.8318C146.107 83.9375 145.212 83.1648 144.537 83.5953C143.908 83.9961 143.293 84.4204 142.702 84.8738C141.999 85.4129 142.711 86.521 143.487 86.0594Z" fill="white"/>
<path id="Vector_125" d="M125.706 102.462C124.994 103.013 124.32 103.606 123.629 104.183C122.952 104.876 123.542 105.809 124.443 105.378C124.793 105.212 126.372 103.816 126.599 103.613C127.419 102.875 126.544 101.816 125.706 102.462Z" fill="white"/>
<path id="Vector_126" d="M131.522 100.579C131.157 100.867 130.792 101.164 130.476 101.503C129.84 102.19 130.7 103.08 131.402 102.587C132.148 102.061 133.27 101.239 132.685 100.549C132.407 100.221 131.978 100.218 131.522 100.579Z" fill="white"/>
<path id="Vector_127" d="M138.856 92.3309C139.677 91.5934 138.802 90.534 137.963 91.1817C137.253 91.7307 137.162 91.9949 136.472 92.5713C135.796 93.2641 136.386 94.1973 137.288 93.7683C137.636 93.6002 138.63 92.5355 138.856 92.3309Z" fill="white"/>
<path id="Vector_128" d="M143.455 93.1807C144.129 92.7409 144.759 92.2308 145.302 91.8269C145.674 91.4223 145.785 91.0801 145.512 90.7212C145.236 90.3567 144.849 90.3552 144.511 90.5851C143.869 91.0233 143.256 91.5016 142.642 91.9778C142.205 92.3185 142.106 92.657 142.306 93.0113C142.513 93.3766 142.984 93.4877 143.455 93.1807Z" fill="white"/>
<path id="Vector_129" d="M139.316 100.033C139.956 99.6054 140.554 99.1132 141.108 98.6957C141.467 98.3026 141.512 97.9292 141.267 97.6363C140.978 97.2941 140.608 97.2614 140.27 97.4987C139.641 97.9427 139.035 98.4257 138.435 98.9086C137.672 99.5271 138.431 100.625 139.316 100.033Z" fill="white"/>
<path id="Vector_130" d="M131.923 97.4386C132.589 97.0423 133.215 96.5801 133.76 96.2113C134.545 95.317 133.65 94.5443 132.973 94.976C132.345 95.3753 131.729 95.8005 131.14 96.2529C130.436 96.7924 131.147 97.9011 131.923 97.4386Z" fill="white"/>
<path id="Vector_131" d="M150.89 91.2312C150.425 91.5287 150.292 91.857 150.472 92.2153C151.319 91.6213 152.16 91.0334 152.983 90.4585C152.522 90.0654 151.896 90.5847 150.89 91.2312Z" fill="white"/>
<path id="Vector_132" d="M137.124 87.2331C136.486 87.9201 137.348 88.8097 138.051 88.3163C138.795 87.7908 139.917 86.9687 139.332 86.279C139.055 85.9503 138.626 85.9472 138.17 86.3086C137.804 86.5965 137.439 86.8924 137.124 87.2331Z" fill="white"/>
</g>
<path id="Vector_133" fill-rule="evenodd" clip-rule="evenodd" d="M116.169 81.2599C117.134 81.0537 118.802 81.5793 119.931 81.9931C125.571 84.0703 129.881 86.0971 135.25 88.5072C136.163 88.918 137.403 89.4024 138.278 89.8829C139.16 90.3674 140.381 91.296 140.387 92.0854C140.398 93.3737 137.502 94.951 136.626 95.5709C132.912 98.1946 129.735 100.444 125.71 102.818C124.904 103.292 124.051 103.886 123.233 103.919C122.25 103.957 121.167 103.325 120.114 102.818C117.179 101.404 114.779 100.053 111.767 98.6883C109.113 97.4882 106.052 96.1094 103.327 94.5609C102.567 94.1304 101.184 93.3858 101.126 92.6347C101.03 91.4012 103.651 89.9295 104.428 89.3339C106.799 87.5111 109.361 85.4105 111.858 83.7373C113.141 82.8785 114.454 81.8854 115.986 81.3515C116.031 81.3358 116.076 81.2803 116.169 81.2599Z" fill="#4D3D87"/>
</g>
<g id="Group_24">
<g id="Group_25">
<path id="Vector_134" fill-rule="evenodd" clip-rule="evenodd" d="M145.729 112.737C142.02 113.68 138.451 114.618 135.282 116.062C130.955 118.034 127.232 120.684 123.781 123.306C116.503 128.835 110.164 135.087 102.908 140.425C99.2969 143.083 95.5049 145.594 90.8381 146.99C86.2141 148.373 80.8202 149.139 74.5604 148.618C68.4403 148.11 62.8961 146.725 58.4774 144.52C54.1574 142.365 50.5268 139.56 49.4544 134.435C56.5928 134.084 63.5713 132.682 68.2691 129.017C69.9781 127.685 72.4406 124.828 71.4031 122.055C70.2388 118.945 65.3538 118.582 61.7513 119.075C59.0804 119.445 56.8702 120.357 55.0221 121.315C50.8925 123.454 47.667 126.236 46.7573 131.993C37.8241 131.955 29.3076 130.792 22.52 128.433C15.5998 126.028 10.1044 122.336 6.17846 117.463C4.15161 114.953 2.61698 112.09 2.50743 108.247C2.38121 103.802 4.12816 100.6 6.2303 98.1892C7.94608 96.2201 9.96459 94.699 12.2812 93.5285C12.2812 93.5285 13.7384 90.3229 13.7415 90.3C13.0974 90.3973 11.9831 90.7824 11.2607 91.1579C8.13247 92.7787 5.51406 94.87 3.4545 97.5486C1.25824 100.409 -0.240909 104.42 0.0321963 108.659C0.29913 112.778 1.73965 115.849 3.8745 118.598C7.94022 123.834 13.6322 127.837 21.0767 130.509C28.4333 133.147 37.2168 134.554 46.9273 134.528C48.3197 142.25 55.0924 146.622 62.9594 149.01C69.4534 150.981 77.0513 151.623 83.4824 150.982C85.6126 150.77 87.6272 150.251 89.7028 150.039C91.7614 149.826 93.9456 149.57 96.203 149.511C100.849 149.389 105.858 149.876 110.277 149.654C112.503 149.542 114.658 149.249 116.711 148.965C123.675 147.998 130.733 146.141 136.484 143.396C137.481 142.92 138.547 142.459 138.531 141.609C138.493 139.481 134.996 141.493 134.43 141.719C129.817 143.562 125.01 144.964 120.132 145.884C113.255 147.178 105.539 147.481 97.3664 147.018C106.33 141.96 113.483 134.968 121.439 128.451C127.191 123.738 133.147 118.962 141.218 116.586C142.423 116.232 143.68 115.86 145.174 115.441C146.147 115.169 148.581 115.03 148.64 113.623C148.715 111.901 146.76 112.473 145.729 112.737ZM55.0924 124.076C57.9392 122.389 61.5834 121.172 65.2492 121.354C66.8798 121.435 68.8616 122.021 69.1066 123.111C69.5037 124.877 67.0584 126.807 66.1222 127.491C61.8411 130.619 55.8306 131.461 49.4421 131.917C49.8469 128.05 52.3021 125.729 55.0924 124.076Z" fill="#8F7ECE"/>
<path id="Vector_135" opacity="0.75" fill-rule="evenodd" clip-rule="evenodd" d="M145.729 112.737C142.02 113.68 138.451 114.618 135.282 116.062C130.955 118.034 127.232 120.684 123.781 123.306C116.503 128.835 110.164 135.087 102.908 140.425C99.2969 143.083 95.5049 145.594 90.8381 146.99C86.2141 148.373 80.8202 149.139 74.5604 148.618C68.4403 148.11 62.8961 146.725 58.4774 144.52C54.1574 142.365 50.5268 139.56 49.4544 134.435C56.5928 134.084 63.5713 132.682 68.2691 129.017C69.9781 127.685 72.4406 124.828 71.4031 122.055C70.2388 118.945 65.3538 118.582 61.7513 119.075C59.0804 119.445 56.8702 120.357 55.0221 121.315C50.8925 123.454 47.667 126.236 46.7573 131.993C37.8241 131.955 29.3076 130.792 22.52 128.433C15.5998 126.028 10.1044 122.336 6.17846 117.463C4.15161 114.953 2.61698 112.09 2.50743 108.247C2.38121 103.802 4.12816 100.6 6.2303 98.1892C7.94608 96.2201 9.96459 94.699 12.2812 93.5285C12.2812 93.5285 13.7384 90.3229 13.7415 90.3C13.1894 90.3618 11.9831 90.7824 11.2607 91.1579C8.13247 92.7787 5.51406 94.87 3.4545 97.5486C1.25824 100.409 -0.240909 104.42 0.0321963 108.659C0.29913 112.778 1.73965 115.849 3.8745 118.598C7.94022 123.834 13.6322 127.837 21.0767 130.509C28.4333 133.147 37.2168 134.554 46.9273 134.528C48.3197 142.25 55.0924 146.622 62.9594 149.01C69.4534 150.981 77.0513 151.623 83.4824 150.982C85.6126 150.77 87.6272 150.251 89.7028 150.039C91.7614 149.826 93.9456 149.57 96.203 149.511C100.849 149.389 105.858 149.876 110.277 149.654C112.503 149.542 114.658 149.249 116.711 148.965C123.675 147.998 130.733 146.141 136.484 143.396C137.481 142.92 138.547 142.459 138.531 141.609C138.493 139.481 134.996 141.493 134.43 141.719C129.817 143.562 125.01 144.964 120.132 145.884C113.255 147.178 105.539 147.481 97.3664 147.018C106.33 141.96 113.483 134.968 121.439 128.451C127.191 123.738 133.147 118.962 141.218 116.586C142.423 116.232 143.68 115.86 145.174 115.441C146.147 115.169 148.581 115.03 148.64 113.623C148.715 111.901 146.76 112.473 145.729 112.737ZM55.0924 124.076C57.9392 122.389 61.5834 121.172 65.2492 121.354C66.8798 121.435 68.8616 122.021 69.1066 123.111C69.5037 124.877 67.0584 126.807 66.1222 127.491C61.8411 130.619 55.8306 131.461 49.4421 131.917C49.8469 128.05 52.3021 125.729 55.0924 124.076Z" fill="white"/>
</g>
<g id="Group_26">
<path id="Vector_136" fill-rule="evenodd" clip-rule="evenodd" d="M143.27 137.026C140.535 138.419 137.798 139.812 135.055 141.273C135.364 142.111 135.637 142.941 136.017 143.79C139.385 142.423 146.077 140.17 149.828 136.47C151.345 134.975 152.609 132.301 150.263 130.612C148.109 129.062 143.149 131.053 142.722 134.172C142.585 135.164 142.971 135.963 143.27 137.026Z" fill="#8F7ECE"/>
<g id="Group_27">
<path id="Vector_137" fill-rule="evenodd" clip-rule="evenodd" d="M144.97 136.062C145.69 136.136 148.244 134.989 147.726 134.051C147.381 133.428 146.381 134.023 145.781 134.325C145.322 134.559 144.172 134.867 144.322 135.607C144.4 136.009 144.772 136.042 144.97 136.062Z" fill="white"/>
<path id="Vector_138" fill-rule="evenodd" clip-rule="evenodd" d="M148.516 131.168C147.849 130.775 146.871 131.551 147.139 132.176C147.477 132.953 149.673 131.857 148.516 131.168Z" fill="white"/>
</g>
</g>
<g id="Group_28">
<path id="Vector_139" fill-rule="evenodd" clip-rule="evenodd" d="M148.417 114.954C145.446 115.723 142.474 116.491 139.454 117.216C139.127 116.383 138.783 115.58 138.504 114.695C141.933 113.486 148.438 110.736 153.699 111.019C155.824 111.137 158.543 112.3 157.906 115.118C157.32 117.706 152.286 119.504 149.9 117.453C149.142 116.8 148.899 115.949 148.417 114.954Z" fill="#8F7ECE"/>
<g id="Group_29">
<path id="Vector_140" fill-rule="evenodd" clip-rule="evenodd" d="M150.329 114.547C150.818 114.013 153.492 113.181 153.727 114.226C153.883 114.921 152.736 115.14 152.087 115.309C151.589 115.435 150.525 115.97 150.145 115.317C149.94 114.964 150.196 114.696 150.329 114.547Z" fill="white"/>
<path id="Vector_141" fill-rule="evenodd" clip-rule="evenodd" d="M156.229 115.863C155.993 116.596 154.743 116.665 154.533 116.018C154.266 115.215 156.641 114.58 156.229 115.863Z" fill="white"/>
</g>
</g>
</g>
<g id="Group_30">
<g id="Group_31">
<path id="Vector_142" fill-rule="evenodd" clip-rule="evenodd" d="M16.2438 114.82C16.0133 115.612 15.8948 116.418 15.548 117.198C14.6027 116.951 13.7729 116.64 12.6672 116.2C12.109 115.978 9.90194 115.291 10.5006 114.577C10.9086 114.085 15.3091 114.536 16.2438 114.82Z" fill="#8F7ECE"/>
<path id="Vector_143" d="M47.1022 126.377C49.8317 126.951 52.5377 127.56 55.3274 128.048C55.5283 128.082 55.7474 128.123 55.977 128.163C57.1179 126.763 56.8328 125.199 56.435 123.618C53.5981 122.772 50.6671 122.181 47.7922 121.449C45.6398 120.901 43.4753 120.393 41.3185 119.884C41.0661 121.536 40.8096 123.186 40.1915 124.795C42.4909 125.362 44.7961 125.896 47.1022 126.377Z" fill="#B1BC00"/>
<path id="Vector_144" d="M14.1036 116.765C15.3914 117.654 17.7633 118.405 19.721 119.026C21.5836 119.62 23.4827 120.217 25.1544 120.7C29.5805 121.984 34.0814 123.253 38.6112 124.404C38.5739 124.379 38.5322 124.362 38.4918 124.337C38.9473 122.726 39.2287 121.094 39.5657 119.47C38.643 119.249 37.7206 119.027 36.8035 118.796C31.3155 117.422 25.7447 116.25 20.3206 115.125C18.4968 114.747 16.5841 114.262 14.7282 114.521C14.3965 115.253 14.1789 116.002 14.1036 116.765Z" fill="#B1BC00"/>
<g id="Group_32">
<path id="Vector_145" d="M56.7021 126.12C56.8163 125.533 57.5137 125.165 58.2565 125.301L61.1418 125.826C61.8864 125.961 62.3959 126.549 62.279 127.138C62.1648 127.724 61.4689 128.093 60.7243 127.958L57.8396 127.433C57.0952 127.296 56.5864 126.709 56.7021 126.12Z" fill="#4D3D87"/>
<path id="Vector_146" fill-rule="evenodd" clip-rule="evenodd" d="M38.5064 117.717C39.2152 117.441 40.0435 117.686 40.7606 117.793C44.3329 118.315 47.928 119.044 51.7296 120.017C52.3974 120.187 53.0294 120.358 53.932 120.651C55.2766 121.087 56.5505 121.647 56.282 122.862C56.2218 123.14 55.9953 123.731 55.4355 123.663C54.7557 123.582 54.8908 122.48 54.5069 122.137C54.186 121.846 53.2605 121.728 52.5409 121.53C50.6076 120.991 48.7063 120.441 46.7381 120.003C43.833 119.352 41.0735 118.945 38.9989 118.2C38.7933 118.128 38.4736 118.121 38.5064 117.717Z" fill="#4D3D87"/>
<path id="Vector_147" d="M38.6101 124.403C39.1372 124.534 39.6642 124.664 40.1904 124.795C40.8088 123.187 41.0649 121.536 41.3174 119.884C40.7317 119.746 40.15 119.61 39.5643 119.469C39.2273 121.093 38.9458 122.725 38.4904 124.337C38.5311 124.361 38.5731 124.379 38.6101 124.403Z" fill="#4D3D87"/>
<path id="Vector_148" d="M55.9767 128.163C56.8139 128.311 57.7548 128.442 58.1692 128.19C58.3547 128.077 58.5936 127.593 58.7244 127.309C59.1694 126.355 59.2043 125.252 58.7571 124.382C57.9921 124.1 57.2163 123.851 56.4346 123.618C56.8324 125.198 57.1176 126.763 55.9767 128.163Z" fill="#4D3D87"/>
</g>
</g>
<g id="Group_33">
<g id="Group_34">
<path id="Vector_149" fill-rule="evenodd" clip-rule="evenodd" d="M52.9264 125.087C53.3939 125.944 50.6036 125.608 50.6212 124.928C50.6425 124.134 52.4129 124.639 52.8714 125.005C52.902 125.029 52.9094 125.054 52.9264 125.087Z" fill="white"/>
<path id="Vector_150" fill-rule="evenodd" clip-rule="evenodd" d="M49.633 124.298C49.8923 125.023 47.534 124.843 47.737 124.109C47.8898 123.552 49.454 123.799 49.633 124.298Z" fill="white"/>
</g>
<g id="Group_35">
<path id="Vector_151" fill-rule="evenodd" clip-rule="evenodd" d="M18.2893 115.71C18.9358 115.776 19.9427 115.993 19.9366 116.375C19.9298 116.862 19.2589 116.699 18.738 116.609C18.2177 116.521 17.5737 116.396 17.6153 116.009C17.6595 115.584 18.0359 115.683 18.2893 115.71Z" fill="white"/>
<path id="Vector_152" fill-rule="evenodd" clip-rule="evenodd" d="M21.2107 117.176C21.6951 117.196 22.1537 117.39 22.096 117.723C21.9963 118.283 20.4015 118.02 20.5354 117.475C20.5861 117.267 20.8082 117.159 21.2107 117.176Z" fill="white"/>
</g>
</g>
</g>
</g>
</g>
<defs>
<clipPath id="clip0_318_34631">
<rect width="158" height="158" fill="white"/>
</clipPath>
</defs>
</svg>
