<svg width="70" height="70" viewBox="0 0 70 70" fill="none" xmlns="http://www.w3.org/2000/svg">
<g id="family 1">
<path id="Union" fill-rule="evenodd" clip-rule="evenodd" d="M22.874 32.7778C22.874 33.0432 22.9656 33.3031 23.1321 33.5097C23.4873 33.9506 23.4179 34.5962 22.977 34.9514C22.7875 35.104 22.5601 35.1782 22.3344 35.1782C22.0347 35.1782 21.7377 35.0475 21.5351 34.7961C21.076 34.2262 20.8232 33.5094 20.8232 32.7777V30.4974C19.7749 30.8814 18.6443 31.0935 17.4647 31.0935C16.2851 31.0935 15.1546 30.8815 14.1064 30.4974V32.7777C14.1064 34.0682 13.3297 35.2213 12.1715 35.7259L16.3424 38.1093C17.0347 38.505 17.895 38.505 18.5873 38.1093L20.055 37.2707C20.5466 36.9896 21.1731 37.1604 21.454 37.6523C21.735 38.1438 21.5641 38.7702 21.0725 39.0512L19.6048 39.8899C18.9448 40.267 18.2046 40.4557 17.4647 40.4557C16.7247 40.4557 15.9849 40.2672 15.3248 39.8899L9.41705 36.5141L4.52566 37.848C3.06838 38.2455 2.05078 39.5778 2.05078 41.0881V45.4115C2.05078 46.0546 2.574 46.5779 3.21727 46.5779H6.57562V43.2196C6.57562 42.6532 7.03473 42.1942 7.60102 42.1942C8.1673 42.1942 8.62641 42.6532 8.62641 43.2196V62.9467C8.62641 63.5132 8.1673 63.9721 7.60102 63.9721C7.03473 63.9721 6.57562 63.5132 6.57562 62.9467V48.6287H3.21727C3.20203 48.6287 3.18691 48.6282 3.17179 48.6277L3.14672 48.627V60.7549C3.14672 61.3213 2.68762 61.7803 2.12133 61.7803C1.55504 61.7803 1.09594 61.3213 1.09594 60.7549V47.8273C0.424785 47.2372 0 46.3733 0 45.4115V41.0881C0 38.6555 1.63912 36.5096 3.98604 35.8695L11.196 33.9032C11.7022 33.7652 12.0556 33.3024 12.0556 32.7778V29.4578C9.68475 27.8802 8.03592 25.2997 7.72502 22.3258H7.60115C6.65602 22.3258 5.76242 21.9127 5.14965 21.1921C4.53715 20.4719 4.27383 19.5183 4.42723 18.5758C4.54604 17.8447 4.93295 17.2017 5.47982 16.7272V12.5328C5.47982 9.01885 8.28037 6.14652 11.7668 6.03127C12.3718 5.3418 13.2505 4.93164 14.1769 4.93164H21.8486C26.04 4.93164 29.4498 8.34154 29.4498 12.5328V16.7272C29.9966 17.2017 30.3834 17.8449 30.5024 18.5758C30.6558 19.5183 30.3924 20.4719 29.7799 21.1921C29.1672 21.9127 28.2737 22.3258 27.3284 22.3258H27.2046C26.8935 25.2997 25.2448 27.8803 22.874 29.4578V32.7778ZM11.985 8.07836C9.52889 8.07836 7.53061 10.0766 7.53061 12.5328H7.53047V15.8995L7.57454 15.8969C7.62236 15.894 7.67013 15.8912 7.71846 15.8912H8.69709C9.34021 15.8912 9.86357 15.3679 9.86357 14.7247C9.86357 13.8717 10.2345 13.0713 10.8812 12.5235C11.5279 11.9757 12.378 11.7413 13.2141 11.8808L24.2092 13.7131C24.7037 13.7955 25.066 14.2232 25.066 14.7245C25.066 15.3677 25.5892 15.891 26.2325 15.891H27.2111C27.2596 15.891 27.3075 15.8939 27.3554 15.8968L27.3991 15.8994V12.5327C27.3991 9.47221 24.9092 6.98229 21.8487 6.98229H14.1771C13.7635 6.98229 13.389 7.20145 13.1753 7.56867C12.9917 7.88422 12.6541 8.07836 12.2891 8.07836H11.985ZM8.69709 20.275C9.26338 20.275 9.72248 20.7341 9.72248 21.3004C9.72248 25.5695 13.1957 29.0428 17.4649 29.0425C21.7339 29.0425 25.2071 25.5693 25.2071 21.3003C25.2071 20.734 25.6662 20.2749 26.2325 20.2749H27.3284C27.6712 20.2749 27.9954 20.1249 28.2178 19.8634C28.4432 19.5984 28.5357 19.258 28.4782 18.905C28.3903 18.3649 27.8339 17.9419 27.2111 17.9419H26.2325C24.7669 17.9419 23.5271 16.9569 23.1402 15.6142L12.8771 13.9037C12.5486 13.8491 12.316 13.996 12.2068 14.0884C12.0976 14.1808 11.9144 14.3859 11.9144 14.7192C11.9144 16.4989 10.4712 17.9421 8.69709 17.9421H7.71846C7.0957 17.9421 6.53926 18.3651 6.45135 18.905C6.39393 19.2581 6.48648 19.5986 6.7118 19.8635C6.93424 20.1251 7.2584 20.275 7.60115 20.275H8.69709ZM15.2031 19.1086V20.2046C15.2031 20.7709 14.744 21.23 14.1777 21.23C13.6114 21.23 13.1523 20.7709 13.1523 20.2046V19.1086C13.1523 18.5424 13.6114 18.0833 14.1777 18.0833C14.744 18.0833 15.2031 18.5424 15.2031 19.1086ZM20.752 18.0833C20.1857 18.0833 19.7266 18.5424 19.7266 19.1086V20.2046C19.7266 20.7709 20.1857 21.23 20.752 21.23C21.3182 21.23 21.7773 20.7709 21.7773 20.2046V19.1086C21.7773 18.5424 21.3182 18.0833 20.752 18.0833ZM16.1302 23.4738C16.9919 23.9298 17.9351 23.9297 18.7967 23.4738C19.2973 23.2089 19.9178 23.4 20.1829 23.9005C20.4477 24.4011 20.2566 25.0216 19.7561 25.2865C19.0267 25.6724 18.2553 25.8682 17.4636 25.8682C16.6719 25.8682 15.9005 25.6724 15.1711 25.2865C14.6704 25.0216 14.4794 24.4011 14.7443 23.9005C15.0091 23.3999 15.6295 23.2089 16.1302 23.4738ZM66.0128 40.2533L62.416 39.2724C63.4157 38.9098 64.3788 38.4938 65.2962 38.0218C66.2183 37.5474 66.6556 36.4454 66.3136 35.4586C65.9949 34.539 65.6149 33.0476 65.6149 31.1641V21.3006C65.6149 14.0877 59.7468 8.21973 52.534 8.21973C45.3211 8.21986 39.4531 14.0881 39.4531 21.301V28.9723C39.4531 29.5387 39.9122 29.9977 40.4785 29.9977C41.0448 29.9977 41.5039 29.5387 41.5039 28.9723V27.5866C41.8714 27.7295 42.2661 27.8058 42.6704 27.8058H42.7943C43.3087 32.7253 47.4806 36.5734 52.5341 36.5734C53.7137 36.5734 54.8442 36.3614 55.8924 35.9775V37.1619C55.8924 38.6087 56.8673 39.885 58.2631 40.2658L60.7699 40.9494C59.4618 44.3012 56.1872 46.5782 52.534 46.5782C51.8705 46.5782 51.2093 46.5045 50.5688 46.3592C50.0164 46.2338 49.4672 46.58 49.3418 47.1323C49.2165 47.6845 49.5626 48.2339 50.1149 48.3593C50.904 48.5384 51.7179 48.6291 52.5338 48.6291C57.1073 48.6291 61.1997 45.7319 62.7574 41.4916L65.473 42.2322C66.9304 42.6292 67.948 43.9617 67.948 45.472V49.7953C67.948 50.4386 67.4247 50.9618 66.7815 50.9618H63.4232V48.6994C63.4232 48.1331 62.9641 47.674 62.3978 47.674C61.8315 47.674 61.3724 48.1331 61.3724 48.6994V62.9467C61.3724 63.5132 61.8315 63.9721 62.3978 63.9721C62.9641 63.9721 63.4232 63.5132 63.4232 62.9467V53.0126H66.7815C66.8052 53.0126 66.8286 53.0114 66.8521 53.0108V60.7549C66.8521 61.3213 67.3112 61.7803 67.8775 61.7803C68.4438 61.7803 68.9029 61.3213 68.9029 60.7549V52.2112C69.574 51.6211 69.9988 50.7572 69.9988 49.7953V45.472C69.9988 43.0394 68.3597 40.8933 66.0128 40.2533ZM41.504 21.3008C41.504 15.2188 46.4522 10.2705 52.5342 10.2704C58.6162 10.2704 63.5643 15.2184 63.5643 21.3004V21.6236C63.1657 21.4626 62.7319 21.371 62.2804 21.371H61.3017C60.6585 21.371 60.1352 20.8476 60.1352 20.2045C60.1352 19.7033 59.7729 19.2755 59.2784 19.193L48.2836 17.3606C47.4473 17.2212 46.5974 17.4555 45.9507 18.0033C45.304 18.5512 44.9331 19.3514 44.9331 20.2045C44.9331 20.8478 44.4097 21.371 43.7666 21.371H42.788C42.3364 21.371 41.9026 21.4626 41.504 21.6236V21.3008ZM44.7919 26.7803C44.7919 26.214 44.3328 25.7549 43.7665 25.7549H42.6705C42.3278 25.7549 42.0037 25.6049 41.7812 25.3433C41.5559 25.0784 41.4633 24.7379 41.5207 24.3849C41.6086 23.8449 42.1651 23.4219 42.7878 23.4219H43.7665C45.5405 23.4219 46.9837 21.9786 46.9837 20.1992C46.9837 19.8658 47.1669 19.6608 47.2762 19.5683C47.3853 19.4758 47.6173 19.3288 47.9465 19.3836L58.2096 21.0941C58.5965 22.4368 59.8362 23.4219 61.3019 23.4219H62.2805C62.9032 23.4219 63.4597 23.8449 63.5476 24.3849C63.605 24.7379 63.5126 25.0784 63.2871 25.3433C63.0647 25.605 62.7405 25.7549 62.3978 25.7549H61.3019C60.7356 25.7549 60.2765 26.214 60.2765 26.7803C60.2765 31.0494 56.8033 34.5225 52.5342 34.5225C48.2651 34.5225 44.7919 31.0493 44.7919 26.7803ZM62.2739 27.8056H62.3978C62.8022 27.8056 63.1968 27.7295 63.5643 27.5865V31.164C63.5643 33.3328 64.0057 35.0617 64.376 36.13C64.3857 36.1582 64.3743 36.1898 64.3581 36.1981C62.6204 37.0923 60.7026 37.7757 58.6573 38.2355C58.2306 38.0554 57.9434 37.6339 57.9434 37.1614V34.9373C60.3142 33.3601 61.9629 30.7795 62.2739 27.8056ZM50.2734 24.5886V25.6846C50.2734 26.2509 49.8143 26.71 49.248 26.71C48.6818 26.71 48.2227 26.2509 48.2227 25.6846V24.5886C48.2227 24.0223 48.6818 23.5632 49.248 23.5632C49.8143 23.5632 50.2734 24.0223 50.2734 24.5886ZM55.8223 23.5632C55.256 23.5632 54.7969 24.0223 54.7969 24.5886V25.6846C54.7969 26.2509 55.256 26.71 55.8223 26.71C56.3886 26.71 56.8477 26.2509 56.8477 25.6846V24.5886C56.8477 24.0223 56.3886 23.5632 55.8223 23.5632ZM51.2024 28.9533C52.0642 29.4094 53.0072 29.4094 53.8691 28.9533C54.3695 28.6884 54.9901 28.8796 55.255 29.3801C55.5199 29.8808 55.3287 30.5012 54.8282 30.766C54.0987 31.152 53.3274 31.3478 52.5358 31.3478C51.7442 31.3478 50.9729 31.152 50.2433 30.766C49.7428 30.5012 49.5517 29.8808 49.8165 29.3801C50.0813 28.8796 50.7017 28.6883 51.2024 28.9533ZM35.0005 31.2349C28.3921 31.2349 23.0156 36.6112 23.0156 43.2198V45.4116C23.0156 45.4168 23.016 45.4219 23.0163 45.4269L23.0167 45.4318L23.017 45.4384C23.0244 46.1901 23.2903 46.9177 23.7814 47.4952C24.3942 48.2157 25.2878 48.6289 26.2329 48.6289H26.3626C26.5929 50.6097 27.4893 52.4334 28.9443 53.8453C29.4763 54.3615 30.062 54.8 30.6873 55.1587V56.8225C30.6873 57.3416 30.3533 57.7907 29.8559 57.9399L26.0895 59.0699C24.2509 59.6214 23.0156 61.2817 23.0156 63.2012V64.0429C23.0156 64.6092 23.4747 65.0683 24.041 65.0683C24.6073 65.0683 25.0664 64.6092 25.0664 64.0429V63.2012C25.0664 62.1943 25.7143 61.3235 26.6787 61.0341L28.5679 60.4673C30.3518 62.0241 32.6171 62.8762 35.0004 62.8762C37.3856 62.8762 39.6481 62.0238 41.4319 60.4668L43.3223 61.034C44.2867 61.3233 44.9346 62.1942 44.9346 63.2011V64.0427C44.9346 64.609 45.3937 65.0681 45.96 65.0681C46.5263 65.0681 46.9854 64.609 46.9854 64.0427V63.2011C46.9854 61.2816 45.7502 59.6212 43.9117 59.0697L40.1451 57.9397C39.6479 57.7906 39.3137 57.3415 39.3137 56.8223V55.0969C40.2184 54.5531 41.0215 53.8438 41.6861 53.0124H43.7682C45.5422 53.0124 46.9854 51.569 46.9854 49.7951V43.2194C46.9854 36.6112 41.609 31.2349 35.0005 31.2349ZM39.0302 59.6947C37.8273 60.4302 36.4425 60.8257 35.0005 60.8257C33.5596 60.8257 32.1744 60.4299 30.9713 59.6944C32.0467 59.156 32.7381 58.0624 32.7381 56.8227V56.0035C33.4663 56.1982 34.2237 56.3008 34.9974 56.3008C35.0871 56.3008 35.1772 56.2994 35.2674 56.2967C35.955 56.276 36.6228 56.168 37.2631 55.9866V56.8226C37.2629 58.0625 37.9546 59.1561 39.0302 59.6947ZM35.2057 54.2468C33.3893 54.3017 31.6732 53.6361 30.3723 52.3736C29.0709 51.1108 28.3541 49.4167 28.3541 47.6035C28.3541 47.0372 27.895 46.5781 27.3287 46.5781H26.2327C25.89 46.5781 25.5658 46.4282 25.3434 46.1666C25.1179 45.9015 25.0255 45.5612 25.0829 45.2082C25.1709 44.6682 25.7273 44.2452 26.3501 44.2452H27.3287C29.1028 44.2452 30.546 42.8018 30.546 41.0279V40.3565C30.546 40.3448 30.546 40.3204 30.5752 40.2993C30.6045 40.2783 30.6277 40.2858 30.6388 40.2896L38.4959 42.9086C40.3804 43.5368 41.6465 45.2935 41.6465 47.282C41.6468 51.0158 38.7574 54.1402 35.2057 54.2468ZM44.9346 49.7955C44.9346 50.4388 44.4113 50.962 43.7682 50.962H42.9249C43.4195 49.8329 43.6976 48.5857 43.6976 47.2799C43.6976 44.4094 41.8679 41.8708 39.1446 40.963L31.2875 38.344C30.6426 38.1289 29.9281 38.2379 29.3763 38.6355C28.8245 39.033 28.4953 39.6764 28.4953 40.3563V41.0278C28.4953 41.6709 27.9719 42.1942 27.3288 42.1942H26.3502C25.9116 42.1942 25.4895 42.2804 25.1004 42.433C25.5032 37.322 29.7878 33.2855 35.0005 33.2855C40.4782 33.2855 44.9346 37.742 44.9346 43.2196V49.7955ZM31.7223 44.3862C32.2886 44.3862 32.7477 44.8453 32.7477 45.4116C32.7477 45.9779 32.2886 46.437 31.7223 46.437C31.156 46.437 30.6914 45.9779 30.6914 45.4116C30.6914 44.8453 31.145 44.3862 31.7113 44.3862H31.7223ZM38.2984 44.3862H38.2875C37.7212 44.3862 37.2676 44.8453 37.2676 45.4116C37.2676 45.9779 37.7321 46.437 38.2984 46.437C38.8647 46.437 39.3238 45.9779 39.3238 45.4116C39.3238 44.8453 38.8649 44.3862 38.2984 44.3862ZM35.0004 49.8657C35.5491 49.8657 36.0839 49.6563 36.506 49.276C36.9268 48.8969 37.5752 48.9309 37.9541 49.3515C38.3332 49.7721 38.2994 50.4206 37.8786 50.7996C37.0792 51.5198 36.057 51.9164 35.0004 51.9164C33.9438 51.9164 32.9217 51.5198 32.1222 50.7996C31.7015 50.4206 31.6678 49.7723 32.0467 49.3515C32.4259 48.9308 33.0742 48.897 33.4949 49.276C33.9169 49.6562 34.4518 49.8657 35.0004 49.8657Z" fill="#49B3F7"/>
</g>
</svg>
