<svg width="70" height="70" viewBox="0 0 70 70" fill="none" xmlns="http://www.w3.org/2000/svg">
<g id="sports 1" clip-path="url(#clip0_318_37199)">
<g id="Group">
<path id="Vector" d="M61.1037 5.49401C60.6829 5.11531 60.0346 5.14935 59.6556 5.57043C59.2768 5.99138 59.311 6.63968 59.7321 7.01852C59.7325 7.01879 59.7327 7.0192 59.7332 7.01947L46.7826 19.9701L40.8761 14.0634C44.022 10.5983 45.8012 6.32209 45.8677 2.07504C49.4422 1.90784 52.871 2.73387 55.7896 4.26986C56.2912 4.53386 56.9108 4.34095 57.1745 3.84003C57.4384 3.33883 57.2458 2.71883 56.7448 2.45511C48.3913 -1.9411 38.2119 -0.292866 31.6377 6.27506C26.4392 11.4735 24.1033 19.2016 26.0314 26.7312C13.0468 25.225 1.80469 35.4227 1.80469 48.2925C1.80469 53.8066 3.87838 59.0632 7.62588 63.0859C8.01155 63.5001 8.66054 63.5234 9.07506 63.1371C9.4893 62.7512 9.51241 62.1025 9.12632 61.688C8.80545 61.3436 8.49839 60.9892 8.205 60.6257H12.3829C13.671 60.6257 14.8193 61.4489 15.222 62.6885L16.5148 66.667C15.1706 66.155 13.8803 65.4937 12.666 64.6886C12.1939 64.3755 11.5577 64.5048 11.2447 64.9767C10.9318 65.4487 11.0607 66.0849 11.5326 66.3978C15.0707 68.7433 19.2406 70.0001 23.5124 70.0001C37.6574 70.0001 48.1687 56.5553 44.4948 42.7158C51.1434 43.425 57.4887 40.9994 61.9273 36.5649C70.5885 27.896 70.243 13.7176 61.1037 5.49401ZM43.8093 2.28107C43.6787 5.88583 42.0938 9.62239 39.4222 12.6097L33.8389 7.02645C36.5738 4.56475 40.0108 2.86881 43.8093 2.28107ZM32.3888 8.47672L37.9721 14.06C34.9858 16.7306 31.2511 18.3154 27.6437 18.445C28.2317 14.6474 29.9274 11.211 32.3888 8.47672ZM27.4374 20.5027C31.6853 20.4364 35.9612 18.6582 39.4252 15.5133L45.3321 21.4202L32.3887 34.3638C28.9869 30.5846 27.1962 25.6507 27.4374 20.5027ZM36.5129 42.9903L31.6814 44.56C31.3433 44.0115 30.8961 43.5217 30.3501 43.1249L26.4726 40.3078C25.8807 39.8778 25.2204 39.595 24.5379 39.4525V34.2873C25.2204 34.1447 25.8807 33.8618 26.4726 33.4317L28.2473 32.1424C30.2731 35.6309 33.2684 38.5172 36.8856 40.4101C36.8201 40.6858 36.3636 41.6178 36.5129 42.9903ZM30.2292 48.1217L28.7481 52.68C28.3472 53.9138 27.2063 54.7427 25.9089 54.7427H21.116C19.8187 54.7427 18.6776 53.9138 18.2767 52.68L16.7956 48.1217C16.3946 46.888 16.8306 45.5466 17.8802 44.784L21.7576 41.9667C22.8015 41.2083 24.2223 41.2077 25.267 41.9667L29.1445 44.784C30.1942 45.5466 30.6301 46.8879 30.2292 48.1217ZM26.7118 28.8967C26.8897 29.3728 27.0837 29.8409 27.2938 30.3003L25.267 31.7727C24.2195 32.5339 22.8066 32.5347 21.7577 31.7727L18.3778 29.317C21.0887 28.5827 23.9239 28.4403 26.7118 28.8967ZM16.0725 30.099C16.5657 30.5928 16.6395 30.5645 20.5524 33.4317C21.1443 33.8618 21.8047 34.1447 22.4871 34.2871V39.4524C21.8047 39.5948 21.1443 39.8777 20.5524 40.3077L16.675 43.1248C16.1289 43.5216 15.6817 44.0114 15.3436 44.56L10.5122 42.9903C10.5877 42.2971 10.5201 41.5809 10.2939 40.885C8.7993 36.3469 8.82801 36.2237 8.51275 35.6032C10.5401 33.2104 13.1282 31.3074 16.0725 30.099ZM7.05564 37.5548L8.34349 41.5187C8.73997 42.7389 8.31697 44.0877 7.25893 44.8564L3.87988 47.3114C4.0572 43.724 5.20137 40.3871 7.05564 37.5548ZM14.4526 59.0181C13.8166 58.7321 13.1147 58.5751 12.383 58.5751C7.52607 58.5945 7.48301 58.5285 6.79588 58.6383C5.13534 55.9608 4.14238 52.9198 3.90942 49.7469C4.53147 49.4307 4.54418 49.3396 8.46449 46.5153C9.05646 46.0852 9.53209 45.5456 9.87853 44.9405L14.6476 46.49C14.5424 47.2327 14.602 48.0057 14.8457 48.7553L16.3267 53.3136C16.542 53.9763 16.8844 54.5692 17.3209 55.0703L14.4526 59.0181ZM28.1864 67.3867C26.6878 67.7536 25.1227 67.9497 23.5124 67.9497C21.9235 67.9497 20.3568 67.7573 18.8386 67.3871C18.7304 66.6991 18.6499 66.6651 17.1723 62.055C16.9461 61.359 16.5799 60.7401 16.1115 60.2236L18.9559 56.3089C19.6155 56.6214 20.3495 56.7936 21.1161 56.7936H25.909C26.6757 56.7936 27.4098 56.6214 28.0693 56.3089L30.9135 60.2236C30.445 60.7401 30.0787 61.3592 29.8526 62.055C28.3737 66.669 28.294 66.702 28.1864 67.3867ZM30.5125 66.6603L31.803 62.6886C32.2018 61.4613 33.3414 60.6258 34.6423 60.6258H38.8069C36.6405 63.3069 33.7853 65.4088 30.5125 66.6603ZM40.2202 58.637C39.5387 58.5293 39.4902 58.5942 34.6423 58.5751C33.9106 58.5751 33.2087 58.7322 32.5727 59.0181L29.7044 55.0703C30.1409 54.5692 30.4833 53.9762 30.6984 53.3135L32.1796 48.7553C32.4231 48.0057 32.4827 47.2325 32.3777 46.49L37.1467 44.9405C37.4932 45.5456 37.9687 46.0852 38.5607 46.5152C42.5095 49.36 42.4942 49.4308 43.1159 49.7467C42.8774 52.991 41.8477 56.018 40.2202 58.637ZM39.7659 44.8563C38.7255 44.1003 38.2793 42.7564 38.6815 41.5187L38.7597 41.2778C39.8809 41.7325 41.049 42.0945 42.2547 42.3551C42.7631 43.9607 43.0613 45.6216 43.1444 47.311L39.7659 44.8563ZM47.6998 40.7654C42.56 41.0063 37.6239 39.221 33.8389 35.8141L46.7824 22.8705L52.6891 28.7771C49.5443 32.2413 47.7659 36.5175 47.6998 40.7654ZM49.758 40.5591C49.8883 36.9538 51.4726 33.2172 54.1426 30.2307L59.726 35.8141C56.9917 38.2753 53.5557 39.9711 49.758 40.5591ZM61.1763 34.364L55.5929 28.7805C58.5805 26.1093 62.3169 24.5249 65.9217 24.3939C65.334 28.1923 63.638 31.6291 61.1763 34.364ZM66.1277 22.3352C61.882 22.4017 57.6046 24.1809 54.1393 27.3268L48.2327 21.4202L61.1826 8.47029C64.5327 12.2002 66.3697 17.1611 66.1277 22.3352Z" fill="#49B3F7"/>
</g>
</g>
<defs>
<clipPath id="clip0_318_37199">
<rect width="70" height="70" fill="white"/>
</clipPath>
</defs>
</svg>
