<svg width="21" height="27" viewBox="0 0 21 27" fill="none" xmlns="http://www.w3.org/2000/svg">
<g id="icon">
<path id="Vector" d="M10.1381 19.9634C9.99922 19.5698 10.0271 19.2042 10.1104 18.8949H2.49966C2.02748 18.8949 1.63864 18.5012 1.63864 18.0233V2.67088C1.63864 2.1929 2.0275 1.79927 2.49966 1.79927H9.99933C10.2216 1.79927 10.4159 1.99619 10.4159 2.22096L10.4161 5.06097C10.4161 5.70764 10.9439 6.24193 11.5827 6.24193H14.3881C14.6103 6.24193 14.8047 6.43885 14.8047 6.66362V12.6246C14.9992 12.5403 15.2491 12.484 15.4991 12.484C15.8602 12.484 16.1658 12.5964 16.4434 12.737L16.4436 6.2985C16.4436 5.62362 16.1937 4.97696 15.7215 4.49895L12.1105 0.843566C11.6383 0.365585 10.9995 0.112549 10.3328 0.112549H2.49979C1.13869 0.112549 0 1.23717 0 2.64306V17.9955C0 19.3733 1.11096 20.526 2.49979 20.526H10.4717C10.3329 20.3854 10.2217 20.1886 10.1384 19.9637L10.1381 19.9634Z" fill="#243976"/>
<path id="Vector_2" d="M3.49978 16.1392C3.49978 16.5892 3.86093 16.9546 4.3052 16.9546H10.0549C10.0549 16.7859 10.0827 16.6172 10.1383 16.4203C10.3328 15.858 10.7217 15.5204 11.0826 15.2957H4.30513C3.86066 15.3237 3.49951 15.6893 3.49951 16.1392H3.49978Z" fill="#243976"/>
<path id="Vector_3" d="M12.9433 12.568C12.9433 12.1181 12.5822 11.7527 12.1379 11.7527H4.30493C3.86046 11.7527 3.49951 12.1183 3.49951 12.568C3.49951 13.0179 3.86067 13.3833 4.30493 13.3833H12.1101C12.5823 13.3835 12.9435 13.0179 12.9435 12.568H12.9433Z" fill="#243976"/>
<path id="Vector_4" d="M12.1101 8.15356H4.30493C3.86046 8.15356 3.49951 8.51916 3.49951 8.96888C3.49951 9.41882 3.86067 9.78421 4.30493 9.78421H12.1101C12.5546 9.78421 12.9156 9.41861 12.9156 8.96888C12.9435 8.51895 12.5823 8.15356 12.1101 8.15356Z" fill="#243976"/>
<path id="Vector_5" d="M4.30493 6.24192H7.94361C8.38808 6.24192 8.74903 5.87633 8.74903 5.4266C8.74903 4.97667 8.38788 4.61128 7.94361 4.61128L4.30493 4.61108C3.86046 4.61108 3.49951 4.97668 3.49951 5.4264C3.49932 5.87634 3.86047 6.24193 4.30493 6.24193V6.24192Z" fill="#243976"/>
<path id="Vector_6" d="M13.9157 23.1125C13.7212 23.1406 13.5268 23.1969 13.3046 23.1969C12.888 23.1969 12.4992 23.0845 12.1936 22.8313C11.8881 22.6063 11.7215 22.3252 11.5826 22.072L10.0548 24.8838C9.88817 25.1651 10.1381 25.5305 10.4437 25.5024L11.8325 25.39L12.4713 26.6553C12.6379 26.9646 13.0547 26.9646 13.1934 26.6553L14.7489 23.7872C14.4158 23.5905 14.1103 23.3094 13.9157 23.1125L13.9157 23.1125Z" fill="#243976"/>
<path id="Vector_7" d="M20.9436 24.8838L19.4158 22.072C19.3048 22.3533 19.1103 22.6063 18.8048 22.8313C18.4992 23.0562 18.1103 23.1969 17.6938 23.1969C17.4715 23.1969 17.2493 23.1688 17.0827 23.1125C16.8882 23.3375 16.6105 23.6185 16.2217 23.7874L17.7771 26.6555C17.9437 26.9367 18.3605 26.9367 18.4993 26.6555L19.1381 25.3902L20.5269 25.5026C20.8882 25.5305 21.1105 25.1649 20.9437 24.8838L20.9436 24.8838Z" fill="#243976"/>
<path id="Vector_8" d="M16.6098 21.6786C16.9986 21.538 17.6653 21.9316 17.9986 21.6786C18.3319 21.4256 18.1652 20.6664 18.4152 20.329C18.6651 19.9916 19.4151 19.9073 19.5541 19.5137C19.6651 19.12 19.1096 18.6138 19.1096 18.1921C19.1096 17.7704 19.6651 17.2362 19.5541 16.8706C19.4151 16.4769 18.6651 16.3926 18.4152 16.0553C18.1652 15.7179 18.3319 14.9587 17.9986 14.7056C17.6654 14.4526 16.9987 14.8463 16.6098 14.7056C16.2209 14.5933 15.9154 13.8621 15.4988 13.8621C15.0823 13.8621 14.7767 14.565 14.3879 14.7056C13.999 14.8463 13.3323 14.4526 12.999 14.7056C12.6658 14.9587 12.8324 15.7179 12.5825 16.0553C12.3325 16.3926 11.5825 16.477 11.4436 16.8706C11.3324 17.264 11.8878 17.7703 11.8878 18.1919C11.8878 18.6136 11.3324 19.1479 11.4434 19.5135C11.5823 19.9071 12.3323 19.9914 12.5823 20.3288C12.8322 20.6661 12.6656 21.4254 12.9988 21.6784C13.3321 21.9314 13.9988 21.5378 14.3877 21.6784C14.7765 21.7908 15.0821 22.522 15.4986 22.522C15.9433 22.4939 16.2488 21.791 16.6098 21.6786H16.6098ZM15.6098 19.7104C15.5542 19.6823 15.4709 19.6823 15.4153 19.7104L14.5543 20.2164C14.332 20.357 14.0544 20.1321 14.1098 19.8791L14.3043 18.8948C14.3043 18.8385 14.3043 18.7542 14.2487 18.6979L13.4987 18.023C13.3042 17.8544 13.4154 17.517 13.6653 17.4887L14.6653 17.3764C14.7209 17.3764 14.8042 17.3201 14.8319 17.264L15.2485 16.3361C15.3595 16.0831 15.693 16.0831 15.804 16.3361L16.2205 17.264C16.2483 17.3203 16.3039 17.3764 16.3872 17.3764L17.3871 17.4887C17.6371 17.5168 17.7483 17.8543 17.5538 18.023L16.8037 18.6979C16.7481 18.7542 16.7204 18.8103 16.7481 18.8948L16.9427 19.8791C16.9983 20.1321 16.7204 20.357 16.4982 20.2164L15.6098 19.7104Z" fill="#243976"/>
</g>
</svg>
