<svg width="34" height="35" viewBox="0 0 34 35" fill="none" xmlns="http://www.w3.org/2000/svg">
<g id="vkontakte" clip-path="url(#clip0_4109_88)">
<g id="Layer_2_1_">
<g id="Color_1_">
<path id="_47.VK_1_" d="M17 0.5C7.61115 0.5 0 8.11115 0 17.5C0 26.8888 7.61115 34.5 17 34.5C26.3888 34.5 34 26.8888 34 17.5C34 8.11115 26.3888 0.5 17 0.5ZM26.9763 23.7117L24.0438 23.7519C24.0438 23.7519 23.413 23.8772 22.5854 23.3046C21.4871 22.5507 20.4537 20.5935 19.6485 20.844C18.8432 21.0945 18.8567 22.8572 18.8567 22.8572C18.8592 23.0639 18.7958 23.2661 18.6755 23.4343C18.5062 23.5794 18.2974 23.6705 18.076 23.696H16.7764C16.7764 23.696 13.8685 23.8683 11.3297 21.2154C8.53812 18.3343 6.07982 12.5789 6.07982 12.5789C6.07982 12.5789 5.93506 12.2451 6.09324 12.0197C6.22997 11.8249 6.56718 11.8039 6.73745 11.796C7.47143 11.7617 9.67665 11.7759 9.67665 11.7759C9.86113 11.7713 9.98511 11.781 10.2135 11.881C10.4098 11.9781 10.5587 12.1226 10.6542 12.3552C10.9934 13.2001 11.3872 14.022 11.833 14.8158C13.1438 17.0817 13.7545 17.576 14.1996 17.3344C14.846 16.981 14.647 14.1335 14.647 14.1335C14.647 14.1335 14.647 13.0979 14.3204 12.6393C14.0745 12.3521 13.7278 12.1704 13.3518 12.1316C13.1751 12.1069 13.4659 11.6976 13.8417 11.5142C14.4054 11.2368 15.4031 11.2368 16.5796 11.2368C17.0974 11.2173 17.6153 11.27 18.1185 11.3934C19.2012 11.6551 18.8343 12.6617 18.8343 15.0819C18.8343 15.8559 18.6934 16.9475 19.2526 17.3188C19.4942 17.4731 20.0803 17.3412 21.5521 14.8448C22.0216 14.0187 22.4291 13.159 22.7712 12.2724C22.837 12.1315 22.937 12.0093 23.062 11.9168C23.1941 11.851 23.3427 11.8253 23.4892 11.8429L26.7908 11.8205C26.7908 11.8205 27.7817 11.702 27.9428 12.1516C28.1038 12.6012 27.5714 13.7174 26.2226 15.5068C24.0082 18.4594 23.7621 18.191 25.6008 19.8888C27.3567 21.5194 27.7214 22.3135 27.7817 22.4119C28.5108 23.6155 26.9763 23.7117 26.9763 23.7117Z" fill="#4C75A3"/>
</g>
</g>
</g>
<defs>
<clipPath id="clip0_4109_88">
<rect width="34" height="34" fill="white" transform="translate(0 0.5)"/>
</clipPath>
</defs>
</svg>
