<svg width="34" height="35" viewBox="0 0 34 35" fill="none" xmlns="http://www.w3.org/2000/svg">
<g id="youtube" clip-path="url(#clip0_4109_80)">
<g id="Icons">
<g id="Social-Media-Collection">
<g id="Youtube">
<g id="Fill-314">
<path id="Fill-207" fill-rule="evenodd" clip-rule="evenodd" d="M25.5 18.1418C25.5 19.5177 25.33 20.8936 25.33 20.8936C25.33 20.8936 25.1643 22.0645 24.6543 22.5809C24.0083 23.2577 23.2836 23.2609 22.9511 23.3002C20.5721 23.4723 17 23.4776 17 23.4776C17 23.4776 12.58 23.4373 11.22 23.3076C10.8418 23.2364 9.99175 23.2577 9.34575 22.5809C8.83575 22.0645 8.67 20.8936 8.67 20.8936C8.67 20.8936 8.5 19.5177 8.5 18.1418V16.8519C8.5 15.4759 8.67 14.1011 8.67 14.1011C8.67 14.1011 8.83575 12.9291 9.34575 12.4128C9.99175 11.7359 10.7164 11.7327 11.0489 11.6934C13.4279 11.5213 16.9968 11.5213 16.9968 11.5213H17.0032C17.0032 11.5213 20.5721 11.5213 22.9511 11.6934C23.2836 11.7327 24.0083 11.7359 24.6543 12.4128C25.1643 12.9291 25.33 14.1011 25.33 14.1011C25.33 14.1011 25.5 15.4759 25.5 16.8519V18.1418ZM17 0.5C7.61069 0.5 0 8.11069 0 17.5C0 26.8883 7.61069 34.5 17 34.5C26.3893 34.5 34 26.8883 34 17.5C34 8.11069 26.3893 0.5 17 0.5Z" fill="#EA412C"/>
</g>
<path id="Fill-208" fill-rule="evenodd" clip-rule="evenodd" d="M15.2452 19.7047L19.8384 17.3247L15.2441 14.9277L15.2452 19.7047Z" fill="#EA412C"/>
</g>
</g>
</g>
</g>
<defs>
<clipPath id="clip0_4109_80">
<rect width="34" height="34" fill="white" transform="translate(0 0.5)"/>
</clipPath>
</defs>
</svg>
