<svg width="25" height="24" viewBox="0 0 25 24" fill="none" xmlns="http://www.w3.org/2000/svg">
<g id="phone" clip-path="url(#clip0_318_32646)">
<path id="Vector" d="M7.27234 10.79C8.71234 13.62 11.0323 15.93 13.8623 17.38L16.0623 15.18C16.3323 14.91 16.7323 14.82 17.0823 14.94C18.2023 15.31 19.4123 15.51 20.6523 15.51C21.2023 15.51 21.6523 15.96 21.6523 16.51V20C21.6523 20.55 21.2023 21 20.6523 21C11.2623 21 3.65234 13.39 3.65234 4C3.65234 3.45 4.10234 3 4.65234 3H8.15234C8.70234 3 9.15234 3.45 9.15234 4C9.15234 5.25 9.35234 6.45 9.72234 7.57C9.83234 7.92 9.75234 8.31 9.47234 8.59L7.27234 10.79Z" fill="#323232"/>
</g>
<defs>
<clipPath id="clip0_318_32646">
<rect width="24" height="24" fill="white" transform="translate(0.652344)"/>
</clipPath>
</defs>
</svg>
