<svg width="236" height="67" viewBox="0 0 236 67" fill="none" xmlns="http://www.w3.org/2000/svg">
<g id="logo">
<g id="&#209;&#136;&#208;&#186;&#208;&#190;&#208;&#187;&#208;&#176; &#208;&#177;&#209;&#131;&#208;&#180;&#209;&#131;&#209;&#137;&#208;&#181;&#208;&#179;&#208;&#190;">
<path d="M81.5659 27.257C81.5659 27.8163 81.6901 28.2824 82.0006 28.5932C82.3111 28.935 82.7459 29.0903 83.3048 29.0903H99.1105C99.6695 29.0903 100.135 28.935 100.446 28.5932C100.756 28.2513 100.912 27.8163 100.912 27.257V15.6666C100.912 15.1694 100.756 14.7344 100.446 14.3926C100.135 14.0508 99.7316 13.8644 99.1726 13.8644C98.6137 13.8644 98.21 14.0508 97.8995 14.3926C97.589 14.7344 97.4648 15.1694 97.4648 15.6666V26.1073H92.9621V15.6666C92.9621 15.1694 92.8069 14.7344 92.4964 14.3926C92.1858 14.0508 91.7821 13.8644 91.2232 13.8644C90.6643 13.8644 90.2606 14.0508 89.95 14.3926C89.6395 14.7344 89.5153 15.1694 89.5153 15.6666V26.1073H85.0127V7.38038C85.0127 6.88321 84.8574 6.44818 84.5469 6.10637C84.2364 5.76457 83.8327 5.57812 83.2738 5.57812C82.7148 5.57812 82.3111 5.76457 82.0006 6.10637C81.6901 6.44818 81.5659 6.88321 81.5659 7.38038V27.257Z" fill="#243976"/>
<path d="M105.678 27.2881C105.678 27.8163 105.802 28.2513 106.113 28.5932C106.392 28.935 106.827 29.0903 107.386 29.0903C107.945 29.0903 108.349 28.935 108.659 28.5932C108.97 28.2513 109.125 27.8163 109.125 27.2881V22.4095L114.87 28.2513C115.863 29.3078 116.764 29.37 117.571 28.4999C117.882 28.1892 118.006 27.7852 117.944 27.3191C117.882 26.853 117.664 26.418 117.292 26.0451L112.354 21.4152L116.764 16.7231C117.136 16.3192 117.354 15.8841 117.416 15.4491C117.447 15.0141 117.323 14.6412 117.012 14.3305C116.205 13.5847 115.335 13.709 114.404 14.7655L109.125 20.7627V15.6666C109.125 15.1694 108.97 14.7344 108.659 14.3926C108.349 14.0508 107.945 13.8644 107.386 13.8644C106.827 13.8644 106.423 14.0508 106.113 14.3926C105.802 14.7344 105.678 15.1694 105.678 15.6666V27.2881Z" fill="#243976"/>
<path d="M121.346 21.4773C121.346 23.8389 121.998 25.7344 123.302 27.1949C124.606 28.6864 126.407 29.4011 128.767 29.4011C131.096 29.4011 132.928 28.6864 134.233 27.1949C135.537 25.7033 136.22 23.8078 136.22 21.4773C136.22 19.1779 135.537 17.2824 134.233 15.7909C132.928 14.2994 131.096 13.5536 128.767 13.5536C126.407 13.5536 124.606 14.2994 123.302 15.7598C121.998 17.2514 121.346 19.1468 121.346 21.4773ZM124.948 21.4773C124.948 20.048 125.258 18.8672 125.942 17.935C126.594 17.0028 127.525 16.5367 128.767 16.5367C130.009 16.5367 130.941 17.0028 131.624 17.9039C132.276 18.8361 132.618 20.0169 132.618 21.4773C132.618 22.9689 132.276 24.1497 131.624 25.0508C130.941 25.983 130.009 26.418 128.767 26.418C127.525 26.418 126.594 25.983 125.942 25.0508C125.258 24.1497 124.948 22.9689 124.948 21.4773Z" fill="#243976"/>
<path d="M149.529 34.5385C149.529 35.0668 149.654 35.5018 149.964 35.8436C150.275 36.1854 150.709 36.3408 151.268 36.3408C151.827 36.3408 152.262 36.1854 152.573 35.8436C152.883 35.5018 153.038 35.0668 153.038 34.5385V15.6666C153.038 15.1694 152.883 14.7655 152.573 14.3926C152.262 14.0508 151.827 13.8644 151.268 13.8644H144.437C143.94 13.8644 143.505 14.0197 143.164 14.3305C142.791 14.6412 142.605 15.0762 142.605 15.6666C142.418 20.079 142.108 23.0621 141.673 24.5847C141.394 25.548 140.897 26.0141 140.214 26.0141C139.22 26.0141 138.692 26.5112 138.692 27.4434C138.661 28.0338 138.847 28.4689 139.251 28.7485C139.624 29.0593 140.152 29.1835 140.773 29.1835C142.698 29.1835 144.002 28.0649 144.685 25.8276C145.306 23.87 145.679 20.918 145.803 16.9717H149.529V34.5385Z" fill="#243976"/>
<path d="M167.34 27.2881C167.34 27.8163 167.465 28.2513 167.744 28.5932C168.024 28.935 168.458 29.0903 169.017 29.0903C169.576 29.0903 169.98 28.935 170.259 28.5932C170.539 28.2824 170.694 27.8474 170.694 27.2881V19.3333C170.694 15.4802 168.645 13.5536 164.577 13.5536C162.341 13.5536 160.633 13.9576 159.515 14.7033C158.739 15.2005 158.49 15.822 158.739 16.5367C158.863 16.9096 159.08 17.1271 159.422 17.2514C159.764 17.3757 160.136 17.3757 160.509 17.2514C160.664 17.2203 160.912 17.1581 161.254 17.0339L161.999 16.8163C162.155 16.7542 162.372 16.692 162.62 16.6299C162.869 16.5677 163.148 16.5367 163.397 16.5056C163.645 16.5056 163.894 16.4745 164.173 16.4745C165.415 16.4745 166.254 16.7542 166.688 17.3135C167.123 17.8728 167.34 18.6186 167.34 19.6129V19.9548C166.471 19.8305 165.384 19.7372 164.08 19.7372C162.155 19.7372 160.571 20.1723 159.298 20.9802C158.025 21.7881 157.404 23.0932 157.404 24.8333C157.404 26.2316 157.838 27.3502 158.708 28.1581C159.577 28.9971 160.819 29.4011 162.372 29.4011C164.67 29.4011 166.316 28.531 167.34 26.7288V27.2881ZM163.304 26.6666C162.527 26.6666 161.937 26.4802 161.502 26.1073C161.068 25.7344 160.85 25.2062 160.85 24.5536C160.85 22.8135 162.092 21.9434 164.577 21.9434C165.757 21.9434 166.657 22.0056 167.34 22.0988V22.6271C167.34 23.6836 166.968 24.6468 166.254 25.4547C165.508 26.2626 164.546 26.6666 163.304 26.6666Z" fill="#243976"/>
<path d="M89.1737 39.6553C89.6706 39.4688 90.3537 39.2203 91.2232 38.9095C92.0616 38.6299 92.6516 38.4123 92.9621 38.257C94.0179 37.7598 94.4216 37.0762 94.1111 36.1751C93.8006 35.305 92.9621 35.1186 91.6579 35.5847L88.0558 36.9208C85.2611 38.0084 83.3669 39.3756 82.3422 41.0225C81.2864 42.6694 80.7896 45.0931 80.7896 48.2937C80.7896 51.2146 81.4106 53.4829 82.6527 55.0366C83.8948 56.5903 85.7269 57.3671 88.18 57.3671C90.3848 57.3671 92.1548 56.6835 93.49 55.2541C94.7942 53.8558 95.4774 52.0846 95.4774 49.9095C95.4774 47.7344 94.8874 45.9943 93.7385 44.6892C92.5585 43.3841 90.9748 42.7005 88.9253 42.7005C87.8695 42.7005 86.8448 42.9491 85.8511 43.4462C84.8574 43.9434 84.0811 44.6581 83.5222 45.6524C83.5843 43.9123 84.2674 42.483 85.6027 41.4265C86.2858 40.8982 87.4658 40.3078 89.1737 39.6553ZM91.8753 50.0338C91.8753 51.401 91.5337 52.4886 90.8816 53.2344C90.2295 54.0112 89.329 54.3841 88.149 54.3841C87.0001 54.3841 86.0995 54.0112 85.4785 53.2654C84.8264 52.5197 84.5159 51.4632 84.5159 50.0959C84.5159 48.7287 84.8264 47.6722 85.5095 46.8643C86.1616 46.0875 87.0622 45.6835 88.18 45.6835C89.36 45.6835 90.2606 46.0875 90.9127 46.8332C91.5337 47.6101 91.8753 48.6666 91.8753 50.0338Z" fill="#243976"/>
<path d="M103.907 57.0564C103.441 58.2372 103.007 59.1383 102.603 59.7287C102.168 60.3191 101.64 60.5988 100.988 60.5988C100.647 60.5988 100.088 60.4745 99.3113 60.2259C98.3798 59.9773 97.7898 60.1637 97.4792 60.8473C97.0755 61.7174 97.3861 62.4632 98.4419 63.0225C99.125 63.3954 99.9634 63.5818 100.957 63.5818C102.292 63.5818 103.379 63.1468 104.218 62.2456C105.056 61.3445 105.926 59.6666 106.857 57.2118L111.701 44.3784C112.167 43.0734 111.95 42.2654 111.018 41.9547C109.9 41.5818 109.155 42.0479 108.72 43.3841L105.522 52.8925L101.889 43.2598C101.392 41.9858 100.553 41.5508 99.4355 41.9858C98.8766 42.2033 98.5661 42.5762 98.4419 43.1044C98.3176 43.6327 98.3798 44.1299 98.6282 44.596L103.907 57.0564Z" fill="#243976"/>
<path d="M126.946 57.0564V58.9829C126.946 59.4801 127.07 59.8841 127.319 60.1948C127.567 60.5055 127.971 60.6609 128.468 60.6609C129.461 60.6609 129.958 60.1016 129.958 58.9829V55.8756C129.958 55.4406 129.834 55.0366 129.585 54.7259C129.337 54.4151 128.964 54.2598 128.468 54.2598H127.66V43.6327C127.66 43.1044 127.505 42.6694 127.194 42.3276C126.884 42.0169 126.449 41.8304 125.89 41.8304H118.872C117.692 41.8304 117.102 42.4519 117.04 43.6327C117.04 43.7259 117.009 44.0056 117.009 44.4717C116.978 44.9688 116.947 45.3728 116.947 45.7457C116.916 46.1185 116.885 46.6157 116.854 47.2372C116.792 47.8587 116.761 48.3869 116.699 48.853L116.543 50.4378C116.481 51.0281 116.388 51.5253 116.295 51.9603C116.171 52.3954 116.078 52.7683 115.953 53.1411C115.829 53.514 115.674 53.7937 115.519 53.9801C115.332 54.1666 115.177 54.2598 114.991 54.2598H114.835C114.339 54.2598 113.997 54.4151 113.749 54.7259C113.5 55.0366 113.376 55.4095 113.376 55.8756V58.9829C113.376 60.1016 113.873 60.6609 114.867 60.6609C115.363 60.6609 115.736 60.5055 115.984 60.1948C116.233 59.8841 116.388 59.4801 116.388 58.9829V57.0564H126.946ZM118.841 54.2598C119.555 52.3332 119.959 49.1948 120.083 44.8135H124.213V54.2598H118.841Z" fill="#243976"/>
<path d="M139.13 57.0564C138.664 58.2372 138.23 59.1383 137.826 59.7287C137.391 60.3191 136.863 60.5988 136.211 60.5988C135.87 60.5988 135.311 60.4745 134.535 60.2259C133.603 59.9773 133.013 60.1637 132.702 60.8473C132.299 61.7174 132.609 62.4632 133.665 63.0225C134.348 63.3954 135.187 63.5818 136.18 63.5818C137.516 63.5818 138.602 63.1468 139.441 62.2456C140.279 61.3445 141.149 59.6666 142.08 57.2118L146.924 44.3784C147.39 43.0734 147.173 42.2654 146.241 41.9547C145.123 41.5818 144.378 42.0479 143.943 43.3841L140.745 52.8925L137.112 43.2598C136.615 41.9858 135.777 41.5508 134.659 41.9858C134.1 42.2033 133.789 42.5762 133.665 43.1044C133.541 43.6327 133.603 44.1299 133.851 44.596L139.13 57.0564Z" fill="#243976"/>
<path d="M152.716 57.0564H169.391V58.9829C169.391 59.4801 169.515 59.8841 169.764 60.1948C170.012 60.5055 170.416 60.6609 170.913 60.6609C171.907 60.6609 172.403 60.1016 172.403 58.9829V55.6892C172.403 55.2541 172.279 54.8502 172.031 54.5394C171.782 54.2287 171.41 54.0733 170.913 54.0733H170.323V43.6327C170.323 43.1355 170.168 42.7005 169.857 42.3587C169.547 42.0169 169.143 41.8304 168.584 41.8304C168.025 41.8304 167.621 42.0169 167.311 42.3587C167 42.7005 166.876 43.1355 166.876 43.6327V54.0733H162.373V43.6327C162.373 43.1355 162.218 42.7005 161.908 42.3587C161.597 42.0169 161.193 41.8304 160.634 41.8304C160.076 41.8304 159.672 42.0169 159.361 42.3587C159.051 42.7005 158.927 43.1355 158.927 43.6327V54.0733H154.424V43.6327C154.424 43.1355 154.269 42.7005 153.958 42.3587C153.648 42.0169 153.244 41.8304 152.685 41.8304C152.126 41.8304 151.722 42.0169 151.412 42.3587C151.101 42.7005 150.977 43.1355 150.977 43.6327V55.2231C150.977 55.7824 151.101 56.2485 151.412 56.5592C151.722 56.901 152.157 57.0564 152.716 57.0564Z" fill="#243976"/>
<path d="M187.593 50.7174C188.183 50.7174 188.649 50.5931 188.96 50.3445C189.27 50.0959 189.488 49.7231 189.643 49.1637C189.736 48.7909 189.798 48.3248 189.798 47.7033C189.798 45.8389 189.208 44.3474 188.09 43.2287C186.972 42.1101 185.42 41.5197 183.432 41.5197C181.197 41.5197 179.458 42.2654 178.154 43.6948C176.849 45.1553 176.197 47.0818 176.197 49.5055C176.197 52.0225 176.787 53.949 178.029 55.3163C179.271 56.6835 181.041 57.3671 183.37 57.3671C185.42 57.3671 187.066 56.9632 188.277 56.1553C188.649 55.9067 188.898 55.5959 189.022 55.2231C189.146 54.8502 189.115 54.4773 188.929 54.1666C188.556 53.514 187.904 53.3587 187.003 53.7315C185.699 54.2909 184.612 54.5394 183.712 54.5394C182.501 54.5394 181.538 54.1976 180.824 53.514C180.079 52.8304 179.706 51.8982 179.675 50.7174H187.593ZM183.432 44.3474C184.457 44.3474 185.233 44.6581 185.761 45.2174C186.289 45.8078 186.569 46.5536 186.569 47.4858C186.569 47.7965 186.538 48.0762 186.538 48.2626H179.675C179.768 47.0197 180.141 46.0564 180.793 45.3728C181.445 44.6892 182.315 44.3474 183.432 44.3474Z" fill="#243976"/>
<path d="M196.491 41.8304C195.932 41.8304 195.528 42.0169 195.218 42.3587C194.907 42.7315 194.752 43.1355 194.752 43.6327V61.4688C194.752 61.9971 194.876 62.4321 195.187 62.7739C195.497 63.1157 195.932 63.2711 196.491 63.2711C197.05 63.2711 197.484 63.1157 197.795 62.7739C198.106 62.4321 198.261 61.9971 198.261 61.4688V44.9378H203.447C204.564 44.9378 205.123 44.4406 205.123 43.4152C205.123 42.3587 204.564 41.8304 203.447 41.8304H196.491Z" fill="#243976"/>
<path d="M207.357 49.4434C207.357 51.805 208.009 53.7005 209.313 55.1609C210.617 56.6524 212.418 57.3671 214.778 57.3671C217.107 57.3671 218.939 56.6524 220.244 55.1609C221.548 53.6694 222.231 51.7739 222.231 49.4434C222.231 47.144 221.548 45.2485 220.244 43.757C218.939 42.2654 217.107 41.5197 214.778 41.5197C212.418 41.5197 210.617 42.2654 209.313 43.7259C208.009 45.2174 207.357 47.1129 207.357 49.4434ZM210.959 49.4434C210.959 48.014 211.269 46.8332 211.953 45.901C212.605 44.9688 213.536 44.5027 214.778 44.5027C216.021 44.5027 216.952 44.9688 217.635 45.87C218.287 46.8022 218.629 47.983 218.629 49.4434C218.629 50.9349 218.287 52.1157 217.635 53.0168C216.952 53.949 216.021 54.3841 214.778 54.3841C213.536 54.3841 212.605 53.949 211.953 53.0168C211.269 52.1157 210.959 50.9349 210.959 49.4434Z" fill="#243976"/>
</g>
<path id="Rectangle 2" d="M180.106 19.1855C180.106 13.3865 184.807 8.68555 190.606 8.68555H225.5C231.299 8.68555 236 13.3866 236 19.1855V19.9369C236 25.7359 231.299 30.4369 225.5 30.4369H181.106C180.553 30.4369 180.106 29.9892 180.106 29.4369V19.1855Z" fill="#49B3F7"/>
<g id="on-line">
<path d="M187.352 20.8265C187.352 21.8386 187.637 22.651 188.206 23.2769C188.776 23.9161 189.562 24.2224 190.592 24.2224C191.609 24.2224 192.409 23.9161 192.979 23.2769C193.548 22.6377 193.847 21.8253 193.847 20.8265C193.847 19.8411 193.548 19.0287 192.979 18.3895C192.409 17.7503 191.609 17.4307 190.592 17.4307C189.562 17.4307 188.776 17.7503 188.206 18.3762C187.637 19.0154 187.352 19.8277 187.352 20.8265ZM188.925 20.8265C188.925 20.2139 189.06 19.7079 189.359 19.3084C189.643 18.9089 190.05 18.7091 190.592 18.7091C191.135 18.7091 191.542 18.9089 191.84 19.2951C192.125 19.6946 192.274 20.2006 192.274 20.8265C192.274 21.4658 192.125 21.9718 191.84 22.358C191.542 22.7575 191.135 22.944 190.592 22.944C190.05 22.944 189.643 22.7575 189.359 22.358C189.06 21.9718 188.925 21.4658 188.925 20.8265Z" fill="white"/>
<path d="M195.133 23.3168C195.133 23.5432 195.187 23.7297 195.322 23.8762C195.458 24.0227 195.648 24.0892 195.892 24.0892C196.136 24.0892 196.326 24.0227 196.461 23.8762C196.597 23.7297 196.665 23.5432 196.665 23.3168V21.5989C196.665 21.1994 196.692 20.8398 196.746 20.5202C196.8 20.2139 196.882 19.921 196.99 19.6413C197.099 19.3616 197.275 19.1486 197.492 18.9888C197.709 18.8423 197.98 18.7624 198.305 18.7624C199.065 18.7624 199.458 19.2684 199.458 20.2539V23.3168C199.458 23.5432 199.512 23.7297 199.648 23.8762C199.783 24.0227 199.973 24.0892 200.217 24.0892C200.461 24.0892 200.651 24.0227 200.787 23.8762C200.922 23.7297 200.99 23.5432 200.99 23.3168V20.2805C200.99 19.3483 200.814 18.6292 200.461 18.1498C200.109 17.6704 199.512 17.4307 198.672 17.4307C198.238 17.4307 197.844 17.5239 197.492 17.7103C197.139 17.8968 196.855 18.1764 196.665 18.536V18.3362C196.665 18.1231 196.597 17.9367 196.461 17.7902C196.326 17.6437 196.136 17.5638 195.892 17.5638C195.648 17.5638 195.458 17.6437 195.322 17.7902C195.187 17.9367 195.133 18.1231 195.133 18.3362V23.3168Z" fill="white"/>
<path d="M205.909 21.1994C206.126 21.1994 206.302 21.1461 206.438 21.0263C206.573 20.9198 206.641 20.7466 206.641 20.5336C206.641 20.3338 206.573 20.174 206.438 20.0541C206.302 19.9343 206.126 19.8677 205.909 19.8677H202.6C202.383 19.8677 202.207 19.9343 202.072 20.0541C201.936 20.174 201.868 20.3338 201.868 20.5336C201.868 20.7466 201.936 20.9198 202.072 21.0263C202.207 21.1461 202.383 21.1994 202.6 21.1994H205.909Z" fill="white"/>
<path d="M207.527 22.0384C207.527 23.5033 208.205 24.2224 209.574 24.2224C210.144 24.2224 210.591 24.1292 210.944 23.9294C211.377 23.6897 211.527 23.3834 211.377 22.9839C211.31 22.8374 211.201 22.7442 211.038 22.6909C210.876 22.651 210.713 22.6643 210.55 22.7309C210.279 22.8374 210.049 22.8907 209.832 22.8907C209.547 22.8907 209.344 22.8108 209.235 22.6377C209.113 22.4779 209.059 22.1982 209.059 21.8253V15.6728C209.059 15.4597 208.991 15.2733 208.855 15.1268C208.72 14.9803 208.53 14.9004 208.286 14.9004C208.042 14.9004 207.852 14.9803 207.716 15.1268C207.581 15.2733 207.527 15.4597 207.527 15.6728V22.0384Z" fill="white"/>
<path d="M212.095 23.3168C212.095 23.5432 212.149 23.7297 212.285 23.8762C212.42 24.0227 212.61 24.0892 212.854 24.0892C213.098 24.0892 213.288 24.0227 213.424 23.8762C213.559 23.7297 213.627 23.5432 213.627 23.3168V18.3362C213.627 18.1231 213.559 17.9367 213.424 17.7902C213.288 17.6437 213.098 17.5638 212.854 17.5638C212.61 17.5638 212.42 17.6437 212.285 17.7902C212.149 17.9367 212.095 18.1231 212.095 18.3362V23.3168ZM211.973 15.8459C211.973 16.1123 212.041 16.3253 212.203 16.4585C212.366 16.5917 212.583 16.6583 212.854 16.6583C213.125 16.6583 213.342 16.5917 213.505 16.4452C213.668 16.312 213.749 16.1123 213.749 15.8459C213.749 15.6062 213.668 15.4064 213.505 15.26C213.342 15.1135 213.125 15.0336 212.854 15.0336C212.583 15.0336 212.366 15.1135 212.203 15.26C212.041 15.4064 211.973 15.6062 211.973 15.8459Z" fill="white"/>
<path d="M215.26 23.3168C215.26 23.5432 215.314 23.7297 215.449 23.8762C215.585 24.0227 215.775 24.0892 216.019 24.0892C216.263 24.0892 216.453 24.0227 216.588 23.8762C216.724 23.7297 216.792 23.5432 216.792 23.3168V21.5989C216.792 21.1994 216.819 20.8398 216.873 20.5202C216.927 20.2139 217.009 19.921 217.117 19.6413C217.226 19.3616 217.402 19.1486 217.619 18.9888C217.836 18.8423 218.107 18.7624 218.433 18.7624C219.192 18.7624 219.585 19.2684 219.585 20.2539V23.3168C219.585 23.5432 219.639 23.7297 219.775 23.8762C219.911 24.0227 220.1 24.0892 220.344 24.0892C220.588 24.0892 220.778 24.0227 220.914 23.8762C221.049 23.7297 221.117 23.5432 221.117 23.3168V20.2805C221.117 19.3483 220.941 18.6292 220.588 18.1498C220.236 17.6704 219.639 17.4307 218.799 17.4307C218.365 17.4307 217.972 17.5239 217.619 17.7103C217.266 17.8968 216.982 18.1764 216.792 18.536V18.3362C216.792 18.1231 216.724 17.9367 216.588 17.7902C216.453 17.6437 216.263 17.5638 216.019 17.5638C215.775 17.5638 215.585 17.6437 215.449 17.7902C215.314 17.9367 215.26 18.1231 215.26 18.3362V23.3168Z" fill="white"/>
<path d="M227.378 21.3725C227.636 21.3725 227.839 21.3193 227.975 21.2127C228.111 21.1062 228.206 20.9464 228.273 20.7067C228.314 20.5469 228.341 20.3471 228.341 20.0808C228.341 19.2817 228.084 18.6425 227.595 18.1631C227.107 17.6837 226.429 17.4307 225.561 17.4307C224.585 17.4307 223.826 17.7503 223.256 18.3629C222.687 18.9888 222.402 19.8144 222.402 20.8532C222.402 21.9319 222.66 22.7575 223.202 23.3435C223.745 23.9294 224.517 24.2224 225.534 24.2224C226.429 24.2224 227.148 24.0493 227.677 23.703C227.839 23.5965 227.948 23.4633 228.002 23.3035C228.056 23.1437 228.043 22.9839 227.961 22.8507C227.799 22.5711 227.514 22.5045 227.121 22.6643C226.551 22.904 226.077 23.0105 225.684 23.0105C225.155 23.0105 224.734 22.8641 224.422 22.5711C224.097 22.2781 223.934 21.8786 223.921 21.3725H227.378ZM225.561 18.6425C226.009 18.6425 226.348 18.7757 226.578 19.0154C226.809 19.2684 226.931 19.588 226.931 19.9875C226.931 20.1207 226.917 20.2406 226.917 20.3205H223.921C223.961 19.7878 224.124 19.375 224.409 19.082C224.694 18.789 225.073 18.6425 225.561 18.6425Z" fill="white"/>
</g>
<path id="Vector 1" d="M8.17491 45.2407L13.8974 56.6932C34.8248 44.9136 33.9255 24.9264 31.473 16.2008L19.6196 23.154C19.6196 23.154 22.4807 34.1973 8.17491 45.2407Z" fill="#49B3F7"/>
<path id="Vector 2" d="M46.0525 5.82683L33.2836 4.99766C32.8979 29.0217 50.6005 38.3221 59.3673 40.6022L59.3431 26.8531C59.3431 26.8531 48.3701 23.7575 46.0525 5.82683Z" fill="#864FF1"/>
<path id="Vector 3" d="M61.4997 58.6483L68.7783 48.1174C48.3884 35.4289 31.3122 45.8363 24.8487 52.1866L36.6441 59.2381C36.6441 59.2381 44.9412 51.4141 61.4997 58.6483Z" fill="#49B3F7"/>
</g>
</svg>
