<svg width="18" height="18" viewBox="0 0 18 18" fill="none" xmlns="http://www.w3.org/2000/svg">
<g id="user 1">
<path id="Vector" d="M11.775 8.78802C12.5129 8.211 13.0523 7.41808 13.3181 6.51984C13.5839 5.6216 13.5627 4.66282 13.2575 3.77719C12.9524 2.89156 12.3784 2.12324 11.6158 1.57936C10.8531 1.03548 9.93973 0.743164 9.003 0.743164C8.06627 0.743164 7.15289 1.03548 6.39023 1.57936C5.62757 2.12324 5.05364 2.89156 4.74848 3.77719C4.44332 4.66282 4.42214 5.6216 4.6879 6.51984C4.95366 7.41808 5.4931 8.211 6.231 8.78802C4.83688 9.34273 3.641 10.3025 2.7977 11.5436C1.9544 12.7846 1.50239 14.2498 1.5 15.7503V16.5003C1.5 16.6992 1.57902 16.8899 1.71967 17.0306C1.86032 17.1713 2.05109 17.2503 2.25 17.2503H15.75C15.9489 17.2503 16.1397 17.1713 16.2803 17.0306C16.421 16.8899 16.5 16.6992 16.5 16.5003V15.7503C16.4981 14.2505 16.047 12.7858 15.2048 11.5448C14.3626 10.3039 13.168 9.34368 11.775 8.78802ZM6 5.25027C6 4.65693 6.17595 4.07691 6.50559 3.58356C6.83524 3.09021 7.30377 2.7057 7.85195 2.47863C8.40013 2.25157 9.00333 2.19216 9.58527 2.30792C10.1672 2.42367 10.7018 2.70939 11.1213 3.12895C11.5409 3.54851 11.8266 4.08306 11.9424 4.665C12.0581 5.24694 11.9987 5.85014 11.7716 6.39832C11.5446 6.9465 11.1601 7.41504 10.6667 7.74468C10.1734 8.07432 9.59334 8.25027 9 8.25027C8.20435 8.25027 7.44129 7.9342 6.87868 7.37159C6.31607 6.80898 6 6.04592 6 5.25027ZM3 15.7503C3 14.159 3.63214 12.6328 4.75736 11.5076C5.88258 10.3824 7.4087 9.75027 9 9.75027C10.5913 9.75027 12.1174 10.3824 13.2426 11.5076C14.3679 12.6328 15 14.159 15 15.7503H3Z" fill="url(#paint0_linear_3902_240)"/>
</g>
<defs>
<linearGradient id="paint0_linear_3902_240" x1="16.5" y1="17.2503" x2="0.803894" y2="16.5595" gradientUnits="userSpaceOnUse">
<stop stop-color="#864FF1"/>
<stop offset="1" stop-color="#49B3F7"/>
</linearGradient>
</defs>
</svg>
